<svg xmlns="http://www.w3.org/2000/svg" width="900" height="420" viewBox="0 0 900 420">
<rect x="0" y="0" width="900" height="420" fill="#ffffff"/>
<text x="450" y="26" text-anchor="middle" font-family="monospace" font-size="18">Calibration Score History</text>
<line x1="70.0" y1="375.0" x2="880.0" y2="375.0" stroke="#444" stroke-width="1.5"/>
<line x1="70.0" y1="45.0" x2="70.0" y2="375.0" stroke="#444" stroke-width="1.5"/>
<polyline fill="none" stroke="#1f77b4" stroke-width="2" points="70.0,45.0 72.11,45.0 74.22,196.44 76.33,326.61 78.44,326.61 80.55,366.26 82.66,366.26 84.77,362.39 86.88,362.39 88.98,362.39 91.09,362.39 93.2,362.39 95.31,332.97 97.42,362.68 99.53,355.73 101.64,355.73 103.75,355.73 105.86,355.73 107.97,355.73 110.08,323.61 112.19,323.61 114.3,323.61 116.41,299.45 118.52,321.81 120.62,321.81 122.73,355.35 124.84,355.35 126.95,360.8 129.06,360.8 131.17,360.8 133.28,360.8 135.39,360.8 137.5,360.8 139.61,360.8 141.72,360.8 143.83,349.92 145.94,352.73 148.05,342.99 150.16,342.99 152.27,342.99 154.38,364.96 156.48,364.96 158.59,364.96 160.7,364.62 162.81,364.62 164.92,364.62 167.03,364.62 169.14,360.59 171.25,360.59 173.36,360.59 175.47,360.59 177.58,360.59 179.69,333.96 181.8,293.11 183.91,362.52 186.02,362.52 188.12,333.03 190.23,333.03 192.34,333.03 194.45,369.62 196.56,369.62 198.67,369.62 200.78,369.62 202.89,369.62 205.0,369.62 207.11,369.62 209.22,369.62 211.33,369.62 213.44,369.62 215.55,364.0 217.66,364.0 219.77,364.0 221.88,364.0 223.98,361.3 226.09,361.3 228.2,361.3 230.31,357.31 232.42,357.31 234.53,364.66 236.64,364.66 238.75,364.66 240.86,364.66 242.97,364.66 245.08,364.66 247.19,353.76 249.3,356.27 251.41,356.27 253.52,356.27 255.62,365.15 257.73,365.15 259.84,365.15 261.95,360.32 264.06,372.38 266.17,363.96 268.28,359.54 270.39,359.54 272.5,363.35 274.61,363.35 276.72,345.69 278.83,366.25 280.94,307.06 283.05,307.06 285.16,334.15 287.27,334.15 289.38,334.15 291.48,334.15 293.59,334.15 295.7,324.21 297.81,324.21 299.92,369.53 302.03,369.53 304.14,371.02 306.25,371.02 308.36,371.02 310.47,371.02 312.58,371.02 314.69,371.02 316.8,371.02 318.91,371.02 321.02,371.02 323.12,371.02 325.23,371.02 327.34,371.02 329.45,371.02 331.56,371.02 333.67,371.02 335.78,371.02 337.89,371.02 340.0,371.02 342.11,371.02 344.22,369.84 346.33,369.84 348.44,306.93 350.55,327.56 352.66,363.17 354.77,363.17 356.88,363.17 358.98,363.17 361.09,363.2 363.2,363.2 365.31,363.2 367.42,363.2 369.53,363.2 371.64,337.21 373.75,337.21 375.86,337.21 377.97,337.21 380.08,365.89 382.19,369.77 384.3,369.77 386.41,369.77 388.52,345.17 390.62,359.43 392.73,359.43 394.84,359.43 396.95,362.74 399.06,370.67 401.17,370.67 403.28,365.41 405.39,365.41 407.5,365.41 409.61,365.41 411.72,365.41 413.83,367.19 415.94,367.19 418.05,367.19 420.16,367.19 422.27,367.19 424.38,367.19 426.48,367.19 428.59,367.19 430.7,367.19 432.81,367.19 434.92,368.59 437.03,368.59 439.14,368.59 441.25,368.59 443.36,368.59 445.47,368.59 447.58,368.59 449.69,366.2 451.8,366.2 453.91,366.2 456.02,366.2 458.12,363.79 460.23,363.79 462.34,361.58 464.45,361.58 466.56,368.93 468.67,368.93 470.78,368.93 472.89,368.93 475.0,368.93 477.11,371.02 479.22,367.79 481.33,355.01 483.44,355.01 485.55,353.38 487.66,367.42 489.77,367.42 491.88,367.42 493.98,361.39 496.09,361.39 498.2,361.39 500.31,364.99 502.42,367.5 504.53,369.74 506.64,369.74 508.75,365.52 510.86,365.52 512.97,365.52 515.08,360.84 517.19,360.84 519.3,347.92 521.41,347.92 523.52,347.92 525.62,346.31 527.73,346.31 529.84,346.31 531.95,346.31 534.06,346.31 536.17,285.5 538.28,285.5 540.39,285.5 542.5,276.96 544.61,335.53 546.72,336.52 548.83,336.52 550.94,348.37 553.05,355.97 555.16,355.97 557.27,355.97 559.38,355.97 561.48,355.97 563.59,354.35 565.7,284.85 567.81,284.85 569.92,312.14 572.03,312.14 574.14,331.71 576.25,331.71 578.36,367.42 580.47,369.89 582.58,370.61 584.69,370.4 586.8,371.52 588.91,371.17 591.02,371.53 593.12,371.53 595.23,371.53 597.34,334.84 599.45,334.84 601.56,289.54 603.67,329.92 605.78,329.92 607.89,290.79 610.0,301.89 612.11,301.89 614.22,301.89 616.33,346.46 618.44,334.8 620.55,334.8 622.66,329.19 624.77,330.14 626.88,330.14 628.98,343.74 631.09,342.85 633.2,336.32 635.31,358.99 637.42,354.97 639.53,360.63 641.64,346.17 643.75,346.64 645.86,352.13 647.97,370.51 650.08,365.19 652.19,332.88 654.3,365.35 656.41,365.35 658.52,365.35 660.62,360.03 662.73,360.03 664.84,345.69 666.95,343.03 669.06,346.63 671.17,321.67 673.28,285.53 675.39,285.53 677.5,304.11 679.61,365.35 681.72,365.41 683.83,365.96 685.94,370.66 688.05,370.43 690.16,369.28 692.27,369.34 694.38,371.01 696.48,371.09 698.59,371.55 700.7,370.59 702.81,369.63 704.92,370.91 707.03,365.16 709.14,370.37 711.25,371.07 713.36,369.28 715.47,367.3 717.58,369.24 719.69,368.42 721.8,368.58 723.91,366.77 726.02,367.72 728.12,371.0 730.23,371.52 732.34,371.52 734.45,375.0 736.56,375.0 738.67,366.22 740.78,371.11 742.89,369.48 745.0,351.06 747.11,351.06 749.22,351.3 751.33,363.66 753.44,351.22 755.55,351.0 757.66,351.83 759.77,351.83 761.88,351.83 763.98,351.83 766.09,352.52 768.2,348.03 770.31,352.22 772.42,352.22 774.53,352.22 776.64,352.22 778.75,304.9 780.86,365.35 782.97,365.45 785.08,366.13 787.19,360.15 789.3,360.23 791.41,359.8 793.52,358.02 795.62,354.41 797.73,350.33 799.84,353.65 801.95,354.38 804.06,353.86 806.17,353.91 808.28,359.46 810.39,365.02 812.5,367.42 814.61,365.17 816.72,367.42 818.83,368.05 820.94,370.87 823.05,370.87 825.16,370.77 827.27,370.99 829.38,365.41 831.48,359.82 833.59,361.13 835.7,361.13 837.81,361.28 839.92,365.51 842.03,353.96 844.14,347.02 846.25,354.18 848.36,367.2 850.47,361.67 852.58,367.07 854.69,367.07 856.8,367.01 858.91,367.25 861.02,367.01 863.12,367.01 865.23,367.24 867.34,367.24 869.45,360.29 871.56,355.16 873.67,360.95 875.78,360.95 877.89,355.09 880.0,357.35"/>
</svg>
