<svg xmlns="http://www.w3.org/2000/svg" width="900" height="420" viewBox="0 0 900 420">
<rect x="0" y="0" width="900" height="420" fill="#ffffff"/>
<text x="450" y="26" text-anchor="middle" font-family="monospace" font-size="18">Calibration Score History</text>
<line x1="70.0" y1="375.0" x2="880.0" y2="375.0" stroke="#444" stroke-width="1.5"/>
<line x1="70.0" y1="45.0" x2="70.0" y2="375.0" stroke="#444" stroke-width="1.5"/>
<polyline fill="none" stroke="#1f77b4" stroke-width="2" points="70.0,45.0 75.96,45.0 81.91,45.0 87.87,45.0 93.82,45.0 99.78,140.32 105.74,140.32 111.69,356.84 117.65,356.84 123.6,356.84 129.56,356.84 135.51,356.84 141.47,356.84 147.43,356.84 153.38,359.32 159.34,359.32 165.29,359.32 171.25,359.32 177.21,361.32 183.16,361.32 189.12,362.69 195.07,362.69 201.03,208.83 206.99,324.34 212.94,324.34 218.9,256.49 224.85,268.85 230.81,324.09 236.76,324.09 242.72,340.66 248.68,340.66 254.63,340.66 260.59,308.07 266.54,308.07 272.5,308.07 278.46,230.92 284.41,355.29 290.37,361.26 296.32,361.26 302.28,374.68 308.24,374.68 314.19,374.68 320.15,374.68 326.1,374.68 332.06,374.68 338.01,374.68 343.97,374.68 349.93,341.48 355.88,341.48 361.84,349.4 367.79,349.4 373.75,370.45 379.71,357.53 385.66,357.53 391.62,366.57 397.57,366.57 403.53,365.11 409.49,370.68 415.44,370.68 421.4,370.68 427.35,370.68 433.31,370.68 439.26,370.68 445.22,370.68 451.18,370.68 457.13,359.32 463.09,357.13 469.04,345.22 475.0,334.14 480.96,351.5 486.91,367.74 492.87,359.5 498.82,359.5 504.78,322.71 510.74,359.99 516.69,361.78 522.65,361.09 528.6,367.61 534.56,367.61 540.51,361.98 546.47,330.71 552.43,330.71 558.38,320.57 564.34,304.74 570.29,304.74 576.25,304.74 582.21,304.74 588.16,304.74 594.12,346.87 600.07,361.09 606.03,360.98 611.99,360.98 617.94,372.38 623.9,371.07 629.85,374.54 635.81,374.19 641.76,370.08 647.72,375.0 653.68,364.43 659.63,367.53 665.59,362.21 671.54,368.15 677.5,347.57 683.46,364.57 689.41,338.48 695.37,338.48 701.32,351.84 707.28,341.95 713.24,342.58 719.19,322.63 725.15,322.63 731.1,309.11 737.06,309.88 743.01,372.18 748.97,358.48 754.93,330.62 760.88,330.62 766.84,330.62 772.79,360.94 778.75,350.69 784.71,364.83 790.66,365.42 796.62,364.14 802.57,368.26 808.53,344.15 814.49,348.14 820.44,364.19 826.4,364.19 832.35,354.63 838.31,323.86 844.26,357.13 850.22,357.13 856.18,321.0 862.13,308.02 868.09,297.3 874.04,299.86 880.0,295.04"/>
</svg>
