<svg xmlns="http://www.w3.org/2000/svg" width="980" height="580" viewBox="0 0 980 580">
<rect x="0" y="0" width="980" height="580" fill="#ffffff"/>
<text x="490" y="26" text-anchor="middle" font-family="monospace" font-size="18">Posterior Trace Diagnostics</text>
<line x1="70.0" y1="190.0" x2="960.0" y2="190.0" stroke="#444" stroke-width="1.2"/>
<line x1="70.0" y1="45.0" x2="70.0" y2="190.0" stroke="#444" stroke-width="1.2"/>
<text x="70.0" y="37.0" font-family="monospace" font-size="12">alpha_EMT</text>
<polyline fill="none" stroke="#1f77b4" stroke-width="1.6" points="70.0,45.0 107.08,45.0 144.17,45.0 181.25,45.0 218.33,45.0 255.42,45.0 292.5,45.0 329.58,45.0 366.67,45.0 403.75,45.0 440.83,45.0 477.92,45.0 515.0,45.0 552.08,73.86 589.17,73.86 626.25,73.86 663.33,168.42 700.42,168.42 737.5,166.66 774.58,166.66 811.67,166.66 848.75,166.66 885.83,182.98 922.92,190.0 960.0,190.0" opacity="0.82"/>
<polyline fill="none" stroke="#e45756" stroke-width="1.6" points="70.0,45.0 107.08,45.0 144.17,45.0 181.25,45.0 218.33,45.0 255.42,45.0 292.5,45.0 329.58,45.0 366.67,45.0 403.75,45.0 440.83,45.0 477.92,45.0 515.0,45.0 552.08,45.0 589.17,45.0 626.25,61.0 663.33,54.84 700.42,54.84 737.5,54.84 774.58,69.4 811.67,69.4 848.75,69.4 885.83,69.4 922.92,69.4 960.0,67.1" opacity="0.82"/>
<polyline fill="none" stroke="#4c9f70" stroke-width="1.6" points="70.0,45.0 107.08,45.0 144.17,45.0 181.25,50.75 218.33,50.75 255.42,63.33 292.5,63.33 329.58,63.33 366.67,63.33 403.75,88.55 440.83,88.55 477.92,88.55 515.0,88.55 552.08,88.55 589.17,88.55 626.25,88.55 663.33,88.55 700.42,88.55 737.5,88.55 774.58,88.55 811.67,88.55 848.75,88.55 885.83,88.55 922.92,152.5 960.0,152.5" opacity="0.82"/>
<polyline fill="none" stroke="#f3a712" stroke-width="1.6" points="70.0,45.0 107.08,81.97 144.17,81.28 181.25,108.97 218.33,85.13 255.42,85.13 292.5,87.19 329.58,87.19 366.67,87.19 403.75,87.19 440.83,87.19 477.92,72.41 515.0,72.41 552.08,130.07 589.17,130.07 626.25,130.07 663.33,130.07 700.42,130.07 737.5,130.07 774.58,130.07 811.67,130.07 848.75,130.07 885.83,130.07 922.92,130.07 960.0,130.07" opacity="0.82"/>
<line x1="70.0" y1="370.0" x2="960.0" y2="370.0" stroke="#444" stroke-width="1.2"/>
<line x1="70.0" y1="225.0" x2="70.0" y2="370.0" stroke="#444" stroke-width="1.2"/>
<text x="70.0" y="217.0" font-family="monospace" font-size="12">k_G</text>
<polyline fill="none" stroke="#1f77b4" stroke-width="1.6" points="70.0,287.34 107.08,287.34 144.17,287.34 181.25,287.34 218.33,287.34 255.42,287.34 292.5,287.34 329.58,287.34 366.67,287.34 403.75,287.34 440.83,287.34 477.92,287.34 515.0,287.34 552.08,272.95 589.17,272.95 626.25,272.95 663.33,303.79 700.42,303.79 737.5,225.0 774.58,225.0 811.67,225.0 848.75,225.0 885.83,244.89 922.92,298.46 960.0,298.46" opacity="0.82"/>
<polyline fill="none" stroke="#e45756" stroke-width="1.6" points="70.0,287.34 107.08,287.34 144.17,287.34 181.25,287.34 218.33,287.34 255.42,287.34 292.5,287.34 329.58,287.34 366.67,287.34 403.75,287.34 440.83,287.34 477.92,287.34 515.0,287.34 552.08,287.34 589.17,287.34 626.25,312.06 663.33,329.72 700.42,329.72 737.5,329.72 774.58,326.24 811.67,326.24 848.75,326.24 885.83,326.24 922.92,326.24 960.0,358.61" opacity="0.82"/>
<polyline fill="none" stroke="#4c9f70" stroke-width="1.6" points="70.0,287.34 107.08,287.34 144.17,287.34 181.25,324.72 218.33,324.72 255.42,307.5 292.5,307.5 329.58,307.5 366.67,307.5 403.75,295.24 440.83,295.24 477.92,295.24 515.0,295.24 552.08,295.24 589.17,295.24 626.25,295.24 663.33,295.24 700.42,295.24 737.5,295.24 774.58,295.24 811.67,295.24 848.75,295.24 885.83,295.24 922.92,299.14 960.0,299.14" opacity="0.82"/>
<polyline fill="none" stroke="#f3a712" stroke-width="1.6" points="70.0,287.34 107.08,310.81 144.17,292.61 181.25,355.63 218.33,370.0 255.42,370.0 292.5,321.18 329.58,321.18 366.67,321.18 403.75,321.18 440.83,321.18 477.92,273.0 515.0,273.0 552.08,302.4 589.17,302.4 626.25,302.4 663.33,302.4 700.42,302.4 737.5,302.4 774.58,302.4 811.67,302.4 848.75,302.4 885.83,302.4 922.92,302.4 960.0,302.4" opacity="0.82"/>
<line x1="70.0" y1="550.0" x2="960.0" y2="550.0" stroke="#444" stroke-width="1.2"/>
<line x1="70.0" y1="405.0" x2="70.0" y2="550.0" stroke="#444" stroke-width="1.2"/>
<text x="70.0" y="397.0" font-family="monospace" font-size="12">threshold</text>
<polyline fill="none" stroke="#1f77b4" stroke-width="1.6" points="70.0,500.1 107.08,500.1 144.17,500.1 181.25,500.1 218.33,500.1 255.42,500.1 292.5,500.1 329.58,500.1 366.67,500.1 403.75,500.1 440.83,500.1 477.92,500.1 515.0,500.1 552.08,490.05 589.17,490.05 626.25,490.05 663.33,405.0 700.42,405.0 737.5,413.1 774.58,413.1 811.67,413.1 848.75,413.1 885.83,453.93 922.92,461.74 960.0,461.74" opacity="0.82"/>
<polyline fill="none" stroke="#e45756" stroke-width="1.6" points="70.0,500.1 107.08,500.1 144.17,500.1 181.25,500.1 218.33,500.1 255.42,500.1 292.5,500.1 329.58,500.1 366.67,500.1 403.75,500.1 440.83,500.1 477.92,500.1 515.0,500.1 552.08,500.1 589.17,500.1 626.25,455.0 663.33,431.37 700.42,431.37 737.5,431.37 774.58,460.65 811.67,460.65 848.75,460.65 885.83,460.65 922.92,460.65 960.0,459.09" opacity="0.82"/>
<polyline fill="none" stroke="#4c9f70" stroke-width="1.6" points="70.0,500.1 107.08,500.1 144.17,500.1 181.25,508.57 218.33,508.57 255.42,519.88 292.5,519.88 329.58,519.88 366.67,519.88 403.75,455.48 440.83,455.48 477.92,455.48 515.0,455.48 552.08,455.48 589.17,455.48 626.25,455.48 663.33,455.48 700.42,455.48 737.5,455.48 774.58,455.48 811.67,455.48 848.75,455.48 885.83,455.48 922.92,483.21 960.0,483.21" opacity="0.82"/>
<polyline fill="none" stroke="#f3a712" stroke-width="1.6" points="70.0,500.1 107.08,533.37 144.17,550.0 181.25,541.97 218.33,530.24 255.42,530.24 292.5,489.89 329.58,489.89 366.67,489.89 403.75,489.89 440.83,489.89 477.92,468.88 515.0,468.88 552.08,463.07 589.17,463.07 626.25,463.07 663.33,463.07 700.42,463.07 737.5,463.07 774.58,463.07 811.67,463.07 848.75,463.07 885.83,463.07 922.92,463.07 960.0,463.07" opacity="0.82"/>
</svg>
