<svg xmlns="http://www.w3.org/2000/svg" width="980" height="580" viewBox="0 0 980 580">
<rect x="0" y="0" width="980" height="580" fill="#ffffff"/>
<text x="490" y="26" text-anchor="middle" font-family="monospace" font-size="18">Posterior Trace Diagnostics</text>
<line x1="70.0" y1="190.0" x2="960.0" y2="190.0" stroke="#444" stroke-width="1.2"/>
<line x1="70.0" y1="45.0" x2="70.0" y2="190.0" stroke="#444" stroke-width="1.2"/>
<text x="70.0" y="37.0" font-family="monospace" font-size="12">alpha_EMT</text>
<polyline fill="none" stroke="#1f77b4" stroke-width="1.6" points="70.0,116.76 76.54,116.76 83.09,126.65 89.63,113.71 96.18,113.71 102.72,112.27 109.26,112.27 115.81,133.08 122.35,133.08 128.9,133.08 135.44,133.08 141.99,133.08 148.53,133.08 155.07,133.08 161.62,119.97 168.16,119.97 174.71,119.97 181.25,119.97 187.79,119.97 194.34,119.97 200.88,119.97 207.43,119.97 213.97,135.1 220.51,154.77 227.06,154.77 233.6,171.72 240.15,171.72 246.69,148.9 253.24,148.9 259.78,148.9 266.32,148.9 272.87,148.9 279.41,148.9 285.96,148.9 292.5,148.9 299.04,119.28 305.59,119.28 312.13,123.51 318.68,123.51 325.22,123.51 331.76,123.09 338.31,123.09 344.85,123.09 351.4,123.23 357.94,116.79 364.49,116.79 371.03,116.79 377.57,104.85 384.12,104.85 390.66,104.85 397.21,104.85 403.75,104.85 410.29,98.73 416.84,129.75 423.38,124.24 429.93,124.24 436.47,124.24 443.01,124.24 449.56,124.24 456.1,124.24 462.65,124.24 469.19,124.24 475.74,124.24 482.28,124.24 488.82,124.24 495.37,112.27 501.91,112.27 508.46,112.27 515.0,112.27 521.54,115.08 528.09,115.34 534.63,115.34 541.18,115.34 547.72,110.73 554.26,110.73 560.81,110.73 567.35,107.84 573.9,107.26 580.44,107.26 586.99,107.26 593.53,93.58 600.07,94.48 606.62,94.48 613.16,97.57 619.71,94.24 626.25,91.33 632.79,91.33 639.34,91.33 645.88,88.5 652.43,112.27 658.97,112.27 665.51,112.27 672.06,116.26 678.6,120.02 685.15,117.98 691.69,114.12 698.24,120.82 704.78,118.16 711.32,118.71 717.87,122.87 724.41,121.06 730.96,121.06 737.5,121.06 744.04,121.06 750.59,124.75 757.13,124.75 763.68,128.04 770.22,123.08 776.76,121.24 783.31,122.2 789.85,118.12 796.4,113.37 802.94,113.37 809.49,119.46 816.03,120.39 822.57,120.39 829.12,115.88 835.66,116.24 842.21,116.04 848.75,114.63 855.29,113.04 861.84,115.29 868.38,115.29 874.93,115.25 881.47,115.72 888.01,117.59 894.56,117.59 901.1,117.59 907.65,117.59 914.19,117.59 920.74,118.7 927.28,118.62 933.82,121.38 940.37,121.38 946.91,121.38 953.46,119.96 960.0,119.7" opacity="0.82"/>
<polyline fill="none" stroke="#e45756" stroke-width="1.6" points="70.0,116.76 76.54,116.76 83.09,116.76 89.63,122.43 96.18,122.43 102.72,122.43 109.26,120.39 115.81,120.39 122.35,120.39 128.9,120.39 135.44,120.39 141.99,126.29 148.53,135.83 155.07,135.83 161.62,135.83 168.16,135.83 174.71,134.13 181.25,134.13 187.79,134.13 194.34,134.13 200.88,134.13 207.43,134.13 213.97,134.13 220.51,134.13 227.06,134.13 233.6,137.61 240.15,137.61 246.69,137.61 253.24,137.61 259.78,137.61 266.32,152.1 272.87,152.1 279.41,152.1 285.96,152.1 292.5,152.1 299.04,152.1 305.59,152.1 312.13,152.1 318.68,152.1 325.22,152.1 331.76,152.1 338.31,152.1 344.85,152.1 351.4,152.1 357.94,165.07 364.49,165.07 371.03,165.07 377.57,165.07 384.12,165.07 390.66,165.07 397.21,165.07 403.75,165.07 410.29,165.07 416.84,165.07 423.38,158.05 429.93,158.05 436.47,158.05 443.01,146.13 449.56,146.13 456.1,155.76 462.65,135.23 469.19,118.13 475.74,119.69 482.28,119.69 488.82,92.65 495.37,119.69 501.91,119.69 508.46,116.57 515.0,116.57 521.54,116.57 528.09,116.57 534.63,123.93 541.18,123.93 547.72,123.93 554.26,123.93 560.81,123.93 567.35,123.93 573.9,123.93 580.44,118.91 586.99,110.23 593.53,113.55 600.07,109.34 606.62,106.17 613.16,102.15 619.71,108.02 626.25,108.02 632.79,118.21 639.34,118.21 645.88,110.02 652.43,116.79 658.97,120.31 665.51,121.38 672.06,121.38 678.6,114.44 685.15,114.44 691.69,120.27 698.24,122.31 704.78,120.98 711.32,124.3 717.87,124.3 724.41,128.97 730.96,133.0 737.5,125.61 744.04,124.53 750.59,124.53 757.13,120.61 763.68,120.93 770.22,120.93 776.76,120.14 783.31,120.14 789.85,116.14 796.4,116.14 802.94,110.92 809.49,110.92 816.03,110.92 822.57,111.63 829.12,113.03 835.66,110.49 842.21,109.05 848.75,109.3 855.29,112.63 861.84,109.2 868.38,106.64 874.93,104.74 881.47,103.0 888.01,101.3 894.56,102.49 901.1,99.1 907.65,94.2 914.19,96.87 920.74,100.87 927.28,99.01 933.82,92.81 940.37,90.17 946.91,91.23 953.46,93.19 960.0,92.53" opacity="0.82"/>
<polyline fill="none" stroke="#4c9f70" stroke-width="1.6" points="70.0,116.76 76.54,116.76 83.09,116.76 89.63,116.76 96.18,116.76 102.72,120.23 109.26,120.23 115.81,110.44 122.35,110.44 128.9,110.44 135.44,110.44 141.99,110.44 148.53,110.44 155.07,110.44 161.62,91.03 168.16,91.03 174.71,91.03 181.25,91.03 187.79,106.44 194.34,106.44 200.88,99.45 207.43,99.45 213.97,88.43 220.51,125.58 227.06,125.58 233.6,124.46 240.15,135.65 246.69,125.1 253.24,125.1 259.78,108.4 266.32,108.4 272.87,108.4 279.41,118.24 285.96,118.24 292.5,118.24 299.04,131.48 305.59,161.99 312.13,181.72 318.68,181.72 325.22,190.0 331.76,190.0 338.31,190.0 344.85,190.0 351.4,190.0 357.94,190.0 364.49,190.0 371.03,190.0 377.57,187.1 384.12,187.1 390.66,179.39 397.21,179.39 403.75,187.02 410.29,182.22 416.84,182.22 423.38,176.36 429.93,176.36 436.47,188.6 443.01,184.45 449.56,184.45 456.1,184.45 462.65,184.45 469.19,184.45 475.74,184.45 482.28,184.45 488.82,184.45 495.37,91.03 501.91,92.06 508.46,102.82 515.0,96.19 521.54,119.53 528.09,116.65 534.63,108.6 541.18,108.6 547.72,120.98 554.26,122.26 560.81,117.19 567.35,117.12 573.9,109.23 580.44,109.23 586.99,112.63 593.53,116.37 600.07,116.37 606.62,113.1 613.16,118.83 619.71,118.83 626.25,118.83 632.79,118.83 639.34,118.83 645.88,123.74 652.43,117.12 658.97,115.83 665.51,115.83 672.06,119.37 678.6,122.3 685.15,120.33 691.69,119.18 698.24,118.39 704.78,109.3 711.32,106.72 717.87,101.94 724.41,106.18 730.96,101.76 737.5,103.25 744.04,98.63 750.59,99.1 757.13,99.1 763.68,106.19 770.22,102.67 776.76,106.23 783.31,109.12 789.85,109.12 796.4,101.79 802.94,101.23 809.49,124.03 816.03,126.4 822.57,123.54 829.12,123.54 835.66,123.54 842.21,126.29 848.75,125.9 855.29,123.05 861.84,124.38 868.38,126.24 874.93,124.19 881.47,122.93 888.01,124.17 894.56,124.48 901.1,124.48 907.65,122.48 914.19,118.64 920.74,118.24 927.28,118.24 933.82,119.8 940.37,115.78 946.91,114.15 953.46,114.01 960.0,111.5" opacity="0.82"/>
<polyline fill="none" stroke="#f3a712" stroke-width="1.6" points="70.0,116.76 76.54,131.88 83.09,134.05 89.63,134.05 96.18,131.75 102.72,126.71 109.26,126.71 115.81,118.54 122.35,121.75 128.9,124.19 135.44,124.19 141.99,124.19 148.53,124.19 155.07,124.19 161.62,124.19 168.16,124.19 174.71,124.19 181.25,124.19 187.79,102.88 194.34,115.35 200.88,115.35 207.43,115.35 213.97,115.35 220.51,115.35 227.06,115.35 233.6,115.35 240.15,115.35 246.69,115.35 253.24,115.35 259.78,115.35 266.32,115.35 272.87,115.35 279.41,115.35 285.96,115.35 292.5,118.25 299.04,118.25 305.59,118.25 312.13,118.25 318.68,118.25 325.22,132.34 331.76,132.34 338.31,132.34 344.85,112.46 351.4,87.54 357.94,87.54 364.49,87.54 371.03,87.54 377.57,87.54 384.12,87.54 390.66,87.31 397.21,87.31 403.75,45.0 410.29,45.0 416.84,45.0 423.38,92.15 429.93,79.18 436.47,96.53 443.01,96.53 449.56,91.76 456.1,91.76 462.65,91.76 469.19,91.76 475.74,91.76 482.28,91.76 488.82,91.76 495.37,110.8 501.91,110.51 508.46,110.51 515.0,108.18 521.54,108.18 528.09,113.35 534.63,111.06 541.18,107.51 547.72,111.46 554.26,116.65 560.81,116.65 567.35,116.65 573.9,125.69 580.44,125.69 586.99,125.69 593.53,125.69 600.07,125.69 606.62,125.69 613.16,125.69 619.71,125.69 626.25,125.69 632.79,127.38 639.34,115.72 645.88,114.61 652.43,114.61 658.97,124.25 665.51,118.67 672.06,119.96 678.6,119.96 685.15,119.96 691.69,120.34 698.24,120.34 704.78,116.92 711.32,121.16 717.87,124.45 724.41,131.48 730.96,133.18 737.5,129.36 744.04,123.7 750.59,123.15 757.13,126.96 763.68,130.89 770.22,130.89 776.76,130.89 783.31,132.95 789.85,133.5 796.4,139.31 802.94,138.35 809.49,130.89 816.03,131.42 822.57,131.42 829.12,129.59 835.66,126.95 842.21,127.95 848.75,124.77 855.29,126.26 861.84,123.16 868.38,123.16 874.93,121.64 881.47,121.64 888.01,121.67 894.56,121.67 901.1,121.67 907.65,120.2 914.19,120.87 920.74,119.17 927.28,119.17 933.82,115.61 940.37,115.61 946.91,115.61 953.46,116.93 960.0,116.93" opacity="0.82"/>
<line x1="70.0" y1="370.0" x2="960.0" y2="370.0" stroke="#444" stroke-width="1.2"/>
<line x1="70.0" y1="225.0" x2="70.0" y2="370.0" stroke="#444" stroke-width="1.2"/>
<text x="70.0" y="217.0" font-family="monospace" font-size="12">k_G</text>
<polyline fill="none" stroke="#1f77b4" stroke-width="1.6" points="70.0,263.37 76.54,263.37 83.09,225.0 89.63,236.93 96.18,236.93 102.72,272.21 109.26,272.21 115.81,257.86 122.35,257.86 128.9,257.86 135.44,257.86 141.99,257.86 148.53,257.86 155.07,257.86 161.62,292.06 168.16,292.06 174.71,292.06 181.25,292.06 187.79,292.06 194.34,292.06 200.88,292.06 207.43,292.06 213.97,296.68 220.51,321.42 227.06,321.42 233.6,341.34 240.15,341.34 246.69,319.25 253.24,319.25 259.78,319.25 266.32,319.25 272.87,319.25 279.41,319.25 285.96,319.25 292.5,319.25 299.04,344.33 305.59,344.33 312.13,370.0 318.68,370.0 325.22,370.0 331.76,329.61 338.31,329.61 344.85,329.61 351.4,271.07 357.94,269.72 364.49,269.72 371.03,269.72 377.57,269.87 384.12,269.87 390.66,269.87 397.21,269.87 403.75,269.87 410.29,251.1 416.84,263.55 423.38,305.49 429.93,305.49 436.47,305.49 443.01,305.49 449.56,305.49 456.1,305.49 462.65,305.49 469.19,305.49 475.74,305.49 482.28,305.49 488.82,305.49 495.37,272.21 501.91,272.21 508.46,272.21 515.0,272.21 521.54,283.41 528.09,260.87 534.63,260.87 541.18,260.87 547.72,264.74 554.26,264.74 560.81,264.74 567.35,273.36 573.9,273.63 580.44,273.63 586.99,273.63 593.53,272.27 600.07,260.8 606.62,260.8 613.16,257.45 619.71,277.24 626.25,269.34 632.79,269.34 639.34,269.34 645.88,270.52 652.43,272.21 658.97,272.21 665.51,272.21 672.06,278.42 678.6,269.85 685.15,271.07 691.69,270.97 698.24,278.82 704.78,277.16 711.32,283.88 717.87,276.19 724.41,270.65 730.96,270.65 737.5,270.65 744.04,270.65 750.59,263.25 757.13,263.25 763.68,261.08 770.22,272.96 776.76,277.69 783.31,285.3 789.85,281.65 796.4,276.69 802.94,276.69 809.49,276.14 816.03,276.64 822.57,276.64 829.12,273.27 835.66,271.95 842.21,271.11 848.75,274.42 855.29,274.39 861.84,267.92 868.38,267.92 874.93,268.33 881.47,268.6 888.01,265.16 894.56,265.16 901.1,265.16 907.65,265.16 914.19,265.16 920.74,268.74 927.28,263.35 933.82,263.23 940.37,263.23 946.91,263.23 953.46,267.99 960.0,265.45" opacity="0.82"/>
<polyline fill="none" stroke="#e45756" stroke-width="1.6" points="70.0,263.37 76.54,263.37 83.09,263.37 89.63,253.79 96.18,253.79 102.72,253.79 109.26,257.56 115.81,257.56 122.35,257.56 128.9,257.56 135.44,257.56 141.99,243.14 148.53,240.38 155.07,240.38 161.62,240.38 168.16,240.38 174.71,256.57 181.25,256.57 187.79,256.57 194.34,256.57 200.88,256.57 207.43,256.57 213.97,256.57 220.51,256.57 227.06,256.57 233.6,252.64 240.15,252.64 246.69,252.64 253.24,252.64 259.78,252.64 266.32,233.64 272.87,233.64 279.41,233.64 285.96,233.64 292.5,233.64 299.04,233.64 305.59,233.64 312.13,233.64 318.68,233.64 325.22,233.64 331.76,233.64 338.31,233.64 344.85,233.64 351.4,233.64 357.94,250.95 364.49,250.95 371.03,250.95 377.57,250.95 384.12,250.95 390.66,250.95 397.21,250.95 403.75,250.95 410.29,250.95 416.84,250.95 423.38,250.45 429.93,250.45 436.47,250.45 443.01,277.31 449.56,277.31 456.1,274.86 462.65,338.01 469.19,332.75 475.74,316.53 482.28,316.53 488.82,315.86 495.37,316.53 501.91,316.53 508.46,320.65 515.0,320.65 521.54,320.65 528.09,320.65 534.63,327.28 541.18,327.28 547.72,327.28 554.26,327.28 560.81,327.28 567.35,327.28 573.9,327.28 580.44,319.1 586.99,340.16 593.53,323.93 600.07,332.29 606.62,344.29 613.16,355.67 619.71,350.66 626.25,350.66 632.79,336.97 639.34,336.97 645.88,352.47 652.43,310.17 658.97,311.63 665.51,312.73 672.06,312.73 678.6,315.46 685.15,315.46 691.69,309.52 698.24,311.86 704.78,319.73 711.32,316.59 717.87,316.59 724.41,321.08 730.96,317.99 737.5,322.02 744.04,323.32 750.59,323.32 757.13,329.97 763.68,327.99 770.22,327.99 776.76,327.45 783.31,327.45 789.85,322.7 796.4,322.7 802.94,321.88 809.49,321.88 816.03,321.88 822.57,318.9 829.12,318.04 835.66,320.62 842.21,317.94 848.75,315.86 855.29,310.25 861.84,309.04 868.38,308.67 874.93,309.89 881.47,306.01 888.01,305.45 894.56,304.55 901.1,303.63 907.65,306.79 914.19,309.88 920.74,312.86 927.28,313.38 933.82,312.31 940.37,307.52 946.91,304.41 953.46,307.33 960.0,307.17" opacity="0.82"/>
<polyline fill="none" stroke="#4c9f70" stroke-width="1.6" points="70.0,263.37 76.54,263.37 83.09,263.37 89.63,263.37 96.18,263.37 102.72,259.94 109.26,259.94 115.81,314.78 122.35,314.78 128.9,314.78 135.44,314.78 141.99,314.78 148.53,314.78 155.07,314.78 161.62,308.97 168.16,308.97 174.71,308.97 181.25,308.97 187.79,317.86 194.34,317.86 200.88,308.7 207.43,308.7 213.97,274.05 220.51,275.05 227.06,275.05 233.6,267.43 240.15,281.34 246.69,296.85 253.24,296.85 259.78,320.1 266.32,320.1 272.87,320.1 279.41,297.75 285.96,297.75 292.5,297.75 299.04,264.91 305.59,262.82 312.13,258.46 318.68,258.46 325.22,257.96 331.76,257.96 338.31,257.96 344.85,257.96 351.4,257.96 357.94,257.96 364.49,257.96 371.03,257.96 377.57,251.92 384.12,251.92 390.66,265.08 397.21,265.08 403.75,308.71 410.29,312.33 416.84,312.33 423.38,300.3 429.93,300.3 436.47,266.0 443.01,228.41 449.56,228.41 456.1,228.41 462.65,228.41 469.19,228.41 475.74,228.41 482.28,228.41 488.82,228.41 495.37,308.97 501.91,309.56 508.46,303.73 515.0,309.13 521.54,301.85 528.09,312.27 534.63,305.32 541.18,305.32 547.72,316.55 554.26,325.03 560.81,313.09 567.35,309.31 573.9,301.4 580.44,301.4 586.99,298.67 593.53,285.02 600.07,285.02 606.62,302.31 613.16,290.89 619.71,290.89 626.25,290.89 632.79,290.89 639.34,290.89 645.88,285.99 652.43,309.31 658.97,311.3 665.51,311.3 672.06,315.15 678.6,315.41 685.15,314.87 691.69,318.54 698.24,323.92 704.78,322.9 711.32,320.07 717.87,320.4 724.41,324.86 730.96,322.29 737.5,313.44 744.04,309.99 750.59,306.25 757.13,306.25 763.68,307.95 770.22,302.51 776.76,299.77 783.31,301.81 789.85,301.81 796.4,301.96 802.94,304.19 809.49,315.39 816.03,315.7 822.57,315.26 829.12,315.26 835.66,315.26 842.21,312.28 848.75,307.1 855.29,306.48 861.84,305.48 868.38,308.03 874.93,307.44 881.47,303.86 888.01,301.84 894.56,301.34 901.1,301.34 907.65,298.92 914.19,295.71 920.74,298.99 927.28,298.99 933.82,296.73 940.37,293.51 946.91,292.35 953.46,288.82 960.0,285.88" opacity="0.82"/>
<polyline fill="none" stroke="#f3a712" stroke-width="1.6" points="70.0,263.37 76.54,278.48 83.09,264.73 89.63,264.73 96.18,287.99 102.72,260.03 109.26,260.03 115.81,287.69 122.35,267.91 128.9,277.01 135.44,277.01 141.99,277.01 148.53,277.01 155.07,277.01 161.62,277.01 168.16,277.01 174.71,277.01 181.25,277.01 187.79,307.51 194.34,317.61 200.88,317.61 207.43,317.61 213.97,317.61 220.51,317.61 227.06,317.61 233.6,317.61 240.15,317.61 246.69,317.61 253.24,317.61 259.78,317.61 266.32,317.61 272.87,317.61 279.41,317.61 285.96,317.61 292.5,328.66 299.04,328.66 305.59,328.66 312.13,328.66 318.68,328.66 325.22,355.16 331.76,355.16 338.31,355.16 344.85,330.59 351.4,328.06 357.94,328.06 364.49,328.06 371.03,328.06 377.57,328.06 384.12,328.06 390.66,327.21 397.21,327.21 403.75,332.36 410.29,332.36 416.84,332.36 423.38,342.5 429.93,348.75 436.47,346.26 443.01,346.26 449.56,341.58 456.1,341.58 462.65,341.58 469.19,341.58 475.74,341.58 482.28,341.58 488.82,341.58 495.37,335.9 501.91,329.61 508.46,329.61 515.0,344.81 521.54,344.81 528.09,348.18 534.63,336.3 541.18,335.7 547.72,324.68 554.26,304.35 560.81,304.35 567.35,304.35 573.9,298.12 580.44,298.12 586.99,298.12 593.53,298.12 600.07,298.12 606.62,298.12 613.16,298.12 619.71,298.12 626.25,298.12 632.79,290.29 639.34,297.49 645.88,317.72 652.43,317.72 658.97,317.55 665.51,317.21 672.06,312.95 678.6,312.95 685.15,312.95 691.69,316.92 698.24,316.92 704.78,312.11 711.32,317.22 717.87,311.4 724.41,312.39 730.96,320.76 737.5,320.9 744.04,325.21 750.59,326.37 757.13,318.34 763.68,329.28 770.22,329.28 776.76,329.28 783.31,330.25 789.85,341.46 796.4,343.53 802.94,340.01 809.49,329.28 816.03,330.95 822.57,330.95 829.12,331.11 835.66,329.16 842.21,328.78 848.75,330.61 855.29,330.36 861.84,333.07 868.38,333.07 874.93,333.55 881.47,333.55 888.01,334.52 894.56,334.52 901.1,334.52 907.65,337.83 914.19,339.72 920.74,338.59 927.28,338.59 933.82,338.57 940.37,338.57 946.91,338.57 953.46,337.27 960.0,337.27" opacity="0.82"/>
<line x1="70.0" y1="550.0" x2="960.0" y2="550.0" stroke="#444" stroke-width="1.2"/>
<line x1="70.0" y1="405.0" x2="70.0" y2="550.0" stroke="#444" stroke-width="1.2"/>
<text x="70.0" y="397.0" font-family="monospace" font-size="12">threshold</text>
<polyline fill="none" stroke="#1f77b4" stroke-width="1.6" points="70.0,435.41 76.54,435.41 83.09,459.72 89.63,469.94 96.18,469.94 102.72,458.17 109.26,458.17 115.81,497.41 122.35,497.41 128.9,497.41 135.44,497.41 141.99,497.41 148.53,497.41 155.07,497.41 161.62,499.88 168.16,499.88 174.71,499.88 181.25,499.88 187.79,499.88 194.34,499.88 200.88,499.88 207.43,499.88 213.97,523.09 220.51,520.0 227.06,520.0 233.6,515.13 240.15,515.13 246.69,520.78 253.24,520.78 259.78,520.78 266.32,520.78 272.87,520.78 279.41,520.78 285.96,520.78 292.5,520.78 299.04,516.98 305.59,516.98 312.13,491.18 318.68,491.18 325.22,491.18 331.76,472.79 338.31,472.79 344.85,472.79 351.4,491.96 357.94,472.66 364.49,472.66 371.03,472.66 377.57,492.92 384.12,492.92 390.66,492.92 397.21,492.92 403.75,492.92 410.29,497.98 416.84,533.17 423.38,518.58 429.93,518.58 436.47,518.58 443.01,518.58 449.56,518.58 456.1,518.58 462.65,518.58 469.19,518.58 475.74,518.58 482.28,518.58 488.82,518.58 495.37,458.17 501.91,458.17 508.46,458.17 515.0,458.17 521.54,468.64 528.09,488.18 534.63,488.18 541.18,488.18 547.72,497.8 554.26,497.8 560.81,497.8 567.35,497.64 573.9,490.81 580.44,490.81 586.99,490.81 593.53,504.03 600.07,474.41 606.62,474.41 613.16,495.9 619.71,494.77 626.25,477.81 632.79,477.81 639.34,477.81 645.88,449.66 652.43,458.17 658.97,458.17 665.51,458.17 672.06,459.29 678.6,462.99 685.15,472.63 691.69,483.24 698.24,483.46 704.78,473.82 711.32,476.7 717.87,469.8 724.41,466.49 730.96,466.49 737.5,466.49 744.04,466.49 750.59,474.57 757.13,474.57 763.68,484.13 770.22,478.6 776.76,496.91 783.31,488.83 789.85,492.66 796.4,492.2 802.94,492.2 809.49,474.13 816.03,472.74 822.57,472.74 829.12,469.12 835.66,473.12 842.21,468.34 848.75,472.87 855.29,467.76 861.84,467.6 868.38,467.6 874.93,460.56 881.47,459.44 888.01,462.77 894.56,462.77 901.1,462.77 907.65,462.77 914.19,462.77 920.74,465.82 927.28,468.95 933.82,467.51 940.37,467.51 946.91,467.51 953.46,467.55 960.0,467.14" opacity="0.82"/>
<polyline fill="none" stroke="#e45756" stroke-width="1.6" points="70.0,435.41 76.54,435.41 83.09,435.41 89.63,464.43 96.18,464.43 102.72,464.43 109.26,486.58 115.81,486.58 122.35,486.58 128.9,486.58 135.44,486.58 141.99,495.75 148.53,513.69 155.07,513.69 161.62,513.69 168.16,513.69 174.71,478.77 181.25,478.77 187.79,478.77 194.34,478.77 200.88,478.77 207.43,478.77 213.97,478.77 220.51,478.77 227.06,478.77 233.6,472.95 240.15,472.95 246.69,472.95 253.24,472.95 259.78,472.95 266.32,509.85 272.87,509.85 279.41,509.85 285.96,509.85 292.5,509.85 299.04,509.85 305.59,509.85 312.13,509.85 318.68,509.85 325.22,509.85 331.76,509.85 338.31,509.85 344.85,509.85 351.4,509.85 357.94,500.01 364.49,500.01 371.03,500.01 377.57,500.01 384.12,500.01 390.66,500.01 397.21,500.01 403.75,500.01 410.29,500.01 416.84,500.01 423.38,484.53 429.93,484.53 436.47,484.53 443.01,542.86 449.56,542.86 456.1,520.06 462.65,509.06 469.19,497.92 475.74,439.02 482.28,439.02 488.82,447.64 495.37,439.02 501.91,439.02 508.46,457.99 515.0,457.99 521.54,457.99 528.09,457.99 534.63,471.1 541.18,471.1 547.72,471.1 554.26,471.1 560.81,471.1 567.35,471.1 573.9,471.1 580.44,482.64 586.99,518.21 593.53,527.41 600.07,501.61 606.62,496.2 613.16,423.62 619.71,405.0 626.25,405.0 632.79,422.04 639.34,422.04 645.88,442.34 652.43,458.05 658.97,470.27 665.51,459.15 672.06,459.15 678.6,466.56 685.15,466.56 691.69,484.1 698.24,480.05 704.78,472.0 711.32,462.14 717.87,462.14 724.41,464.4 730.96,493.25 737.5,485.46 744.04,457.93 750.59,457.93 757.13,466.19 763.68,463.9 770.22,463.9 776.76,465.59 783.31,465.59 789.85,478.17 796.4,478.17 802.94,463.78 809.49,463.78 816.03,463.78 822.57,466.88 829.12,466.97 835.66,466.81 842.21,467.32 848.75,466.36 855.29,465.46 861.84,466.41 868.38,463.07 874.93,467.96 881.47,464.02 888.01,469.69 894.56,470.15 901.1,478.55 907.65,472.19 914.19,472.83 920.74,477.86 927.28,478.31 933.82,473.53 940.37,472.72 946.91,482.31 953.46,473.96 960.0,481.88" opacity="0.82"/>
<polyline fill="none" stroke="#4c9f70" stroke-width="1.6" points="70.0,435.41 76.54,435.41 83.09,435.41 89.63,435.41 96.18,435.41 102.72,459.7 109.26,459.7 115.81,484.33 122.35,484.33 128.9,484.33 135.44,484.33 141.99,484.33 148.53,484.33 155.07,484.33 161.62,462.51 168.16,462.51 174.71,462.51 181.25,462.51 187.79,480.5 194.34,480.5 200.88,504.17 207.43,504.17 213.97,464.44 220.51,488.31 227.06,488.31 233.6,466.9 240.15,456.36 246.69,457.48 253.24,457.48 259.78,459.11 266.32,459.11 272.87,459.11 279.41,445.64 285.96,445.64 292.5,445.64 299.04,481.91 305.59,513.19 312.13,532.49 318.68,532.49 325.22,533.23 331.76,533.23 338.31,533.23 344.85,533.23 351.4,533.23 357.94,533.23 364.49,533.23 371.03,533.23 377.57,529.25 384.12,529.25 390.66,526.99 397.21,526.99 403.75,506.44 410.29,504.15 416.84,504.15 423.38,495.15 429.93,495.15 436.47,546.27 443.01,550.0 449.56,550.0 456.1,550.0 462.65,550.0 469.19,550.0 475.74,550.0 482.28,550.0 488.82,550.0 495.37,462.51 501.91,485.69 508.46,487.55 515.0,499.12 521.54,512.48 528.09,492.4 534.63,489.69 541.18,489.69 547.72,473.67 554.26,480.55 560.81,469.53 567.35,469.4 573.9,498.25 580.44,498.25 586.99,504.33 593.53,515.89 600.07,515.89 606.62,511.69 613.16,518.78 619.71,518.78 626.25,518.78 632.79,518.78 639.34,518.78 645.88,505.03 652.43,469.4 658.97,487.71 665.51,487.71 672.06,492.0 678.6,483.79 685.15,474.48 691.69,476.39 698.24,473.86 704.78,466.67 711.32,476.58 717.87,459.17 724.41,456.56 730.96,459.91 737.5,462.08 744.04,474.57 750.59,475.1 757.13,475.1 763.68,478.72 770.22,473.01 776.76,466.84 783.31,464.94 789.85,464.94 796.4,449.23 802.94,444.48 809.49,476.65 816.03,471.93 822.57,461.18 829.12,461.18 835.66,461.18 842.21,467.6 848.75,467.04 855.29,474.3 861.84,477.42 868.38,482.97 874.93,484.06 881.47,478.66 888.01,475.42 894.56,471.33 901.1,471.33 907.65,475.48 914.19,478.64 920.74,472.26 927.28,472.26 933.82,469.78 940.37,459.0 946.91,448.38 953.46,451.12 960.0,451.94" opacity="0.82"/>
<polyline fill="none" stroke="#f3a712" stroke-width="1.6" points="70.0,435.41 76.54,488.99 83.09,524.83 89.63,524.83 96.18,508.86 102.72,530.29 109.26,530.29 115.81,492.02 122.35,494.03 128.9,500.89 135.44,500.89 141.99,500.89 148.53,500.89 155.07,500.89 161.62,500.89 168.16,500.89 174.71,500.89 181.25,500.89 187.79,453.06 194.34,480.57 200.88,480.57 207.43,480.57 213.97,480.57 220.51,480.57 227.06,480.57 233.6,480.57 240.15,480.57 246.69,480.57 253.24,480.57 259.78,480.57 266.32,480.57 272.87,480.57 279.41,480.57 285.96,480.57 292.5,506.57 299.04,506.57 305.59,506.57 312.13,506.57 318.68,506.57 325.22,516.04 331.76,516.04 338.31,516.04 344.85,533.41 351.4,502.45 357.94,502.45 364.49,502.45 371.03,502.45 377.57,502.45 384.12,502.45 390.66,497.88 397.21,497.88 403.75,429.88 410.29,429.88 416.84,429.88 423.38,499.01 429.93,513.05 436.47,479.51 443.01,479.51 449.56,494.01 456.1,494.01 462.65,494.01 469.19,494.01 475.74,494.01 482.28,494.01 488.82,494.01 495.37,524.63 501.91,516.97 508.46,516.97 515.0,507.1 521.54,507.1 528.09,501.64 534.63,507.79 541.18,521.45 547.72,520.6 554.26,498.22 560.81,498.22 567.35,498.22 573.9,495.46 580.44,495.46 586.99,495.46 593.53,495.46 600.07,495.46 606.62,495.46 613.16,495.46 619.71,495.46 626.25,495.46 632.79,506.02 639.34,508.84 645.88,488.58 652.43,488.58 658.97,491.8 665.51,496.92 672.06,488.7 678.6,488.7 685.15,488.7 691.69,505.33 698.24,505.33 704.78,514.5 711.32,513.96 717.87,504.78 724.41,517.13 730.96,512.72 737.5,498.39 744.04,502.81 750.59,494.18 757.13,492.59 763.68,490.62 770.22,490.62 776.76,490.62 783.31,491.92 789.85,493.84 796.4,504.62 802.94,507.4 809.49,490.62 816.03,487.66 822.57,487.66 829.12,486.34 835.66,479.42 842.21,478.42 848.75,473.43 855.29,477.2 861.84,472.82 868.38,472.82 874.93,474.6 881.47,474.6 888.01,467.33 894.56,467.33 901.1,467.33 907.65,467.0 914.19,462.37 920.74,464.9 927.28,464.9 933.82,460.65 940.37,460.65 946.91,460.65 953.46,465.38 960.0,465.38" opacity="0.82"/>
</svg>
