<svg xmlns="http://www.w3.org/2000/svg" width="900" height="420" viewBox="0 0 900 420">
<rect x="0" y="0" width="900" height="420" fill="#ffffff"/>
<text x="450" y="26" text-anchor="middle" font-family="monospace" font-size="18">Calibration Score History</text>
<line x1="70.0" y1="375.0" x2="880.0" y2="375.0" stroke="#444" stroke-width="1.5"/>
<line x1="70.0" y1="45.0" x2="70.0" y2="375.0" stroke="#444" stroke-width="1.5"/>
<polyline fill="none" stroke="#1f77b4" stroke-width="2" points="70.0,45.0 80.12,375.0 90.25,375.0 100.38,375.0 110.5,375.0 120.62,375.0 130.75,375.0 140.88,360.12 151.0,360.12 161.12,370.52 171.25,370.52 181.38,370.52 191.5,370.52 201.62,370.52 211.75,370.52 221.88,370.52 232.0,370.52 242.12,370.52 252.25,370.52 262.38,370.52 272.5,370.52 282.62,370.52 292.75,370.52 302.88,370.52 313.0,370.52 323.12,370.52 333.25,370.52 343.38,370.52 353.5,363.1 363.62,363.1 373.75,363.1 383.88,363.1 394.0,363.1 404.12,363.1 414.25,311.34 424.38,311.34 434.5,365.65 444.62,367.39 454.75,367.39 464.88,367.39 475.0,367.39 485.12,367.39 495.25,367.39 505.38,367.39 515.5,367.39 525.62,367.39 535.75,367.39 545.88,367.39 556.0,367.39 566.12,372.31 576.25,372.31 586.38,372.31 596.5,372.31 606.62,367.9 616.75,372.65 626.88,348.71 637.0,357.1 647.12,329.54 657.25,306.55 667.38,306.55 677.5,299.3 687.62,299.3 697.75,299.3 707.88,299.3 718.0,299.3 728.12,365.06 738.25,365.06 748.38,365.06 758.5,365.06 768.62,352.12 778.75,373.34 788.88,369.16 799.0,314.85 809.12,314.85 819.25,332.06 829.38,305.94 839.5,305.94 849.62,272.63 859.75,356.56 869.88,356.56 880.0,356.56"/>
</svg>
