<svg xmlns="http://www.w3.org/2000/svg" width="980" height="580" viewBox="0 0 980 580">
<rect x="0" y="0" width="980" height="580" fill="#ffffff"/>
<text x="490" y="26" text-anchor="middle" font-family="monospace" font-size="18">Posterior Trace Diagnostics</text>
<line x1="70.0" y1="190.0" x2="960.0" y2="190.0" stroke="#444" stroke-width="1.2"/>
<line x1="70.0" y1="45.0" x2="70.0" y2="190.0" stroke="#444" stroke-width="1.2"/>
<text x="70.0" y="37.0" font-family="monospace" font-size="12">alpha_EMT</text>
<polyline fill="none" stroke="#1f77b4" stroke-width="1.6" points="70.0,79.04 81.12,79.04 92.25,79.04 103.38,55.14 114.5,55.14 125.62,52.54 136.75,45.0 147.88,89.34 159.0,89.34 170.12,89.34 181.25,89.34 192.38,100.61 203.5,100.61 214.62,100.61 225.75,100.61 236.88,100.61 248.0,100.61 259.12,100.61 270.25,100.61 281.38,100.61 292.5,100.61 303.62,100.61 314.75,126.68 325.88,155.16 337.0,155.16 348.12,155.16 359.25,155.16 370.38,110.54 381.5,110.54 392.62,110.54 403.75,110.54 414.88,110.54 426.0,110.54 437.12,110.54 448.25,110.54 459.38,53.75 470.5,53.75 481.62,64.65 492.75,64.65 503.88,64.65 515.0,65.88 526.12,65.88 537.25,65.88 548.38,65.88 559.5,65.88 570.62,65.88 581.75,65.88 592.88,65.88 604.0,65.88 615.12,100.61 626.25,100.61 637.38,100.61 648.5,100.61 659.62,124.12 670.75,124.12 681.88,124.12 693.0,124.12 704.12,124.12 715.25,124.12 726.38,124.12 737.5,124.12 748.62,124.12 759.75,124.12 770.88,124.12 782.0,124.12 793.12,100.61 804.25,100.61 815.38,100.61 826.5,100.61 837.62,100.61 848.75,100.61 859.88,100.61 871.0,100.61 882.12,96.07 893.25,103.64 904.38,103.64 915.5,103.64 926.62,103.64 937.75,103.64 948.88,103.64 960.0,103.64" opacity="0.82"/>
<polyline fill="none" stroke="#e45756" stroke-width="1.6" points="70.0,79.04 81.12,79.04 92.25,79.04 103.38,79.04 114.5,79.04 125.62,79.04 136.75,79.04 147.88,79.04 159.0,79.04 170.12,79.04 181.25,79.04 192.38,79.04 203.5,98.7 214.62,98.7 225.75,98.7 236.88,98.7 248.0,98.7 259.12,98.7 270.25,98.7 281.38,106.72 292.5,106.72 303.62,106.72 314.75,106.72 325.88,106.72 337.0,106.72 348.12,113.6 359.25,113.6 370.38,113.6 381.5,113.6 392.62,113.6 403.75,113.6 414.88,113.6 426.0,113.6 437.12,113.6 448.25,113.6 459.38,113.6 470.5,113.6 481.62,113.6 492.75,113.6 503.88,113.6 515.0,113.6 526.12,113.6 537.25,113.6 548.38,113.6 559.5,138.97 570.62,138.97 581.75,138.97 592.88,138.97 604.0,138.97 615.12,138.97 626.25,138.97 637.38,138.97 648.5,138.97 659.62,138.97 670.75,132.02 681.88,132.02 693.0,132.02 704.12,119.29 715.25,119.29 726.38,129.27 737.5,110.59 748.62,110.59 759.75,111.38 770.88,111.38 782.0,111.38 793.12,111.38 804.25,111.38 815.38,111.38 826.5,111.38 837.62,111.38 848.75,108.4 859.88,113.63 871.0,113.63 882.12,113.63 893.25,113.63 904.38,113.63 915.5,113.63 926.62,123.27 937.75,118.01 948.88,110.21 960.0,110.21" opacity="0.82"/>
<polyline fill="none" stroke="#4c9f70" stroke-width="1.6" points="70.0,79.04 81.12,79.04 92.25,107.44 103.38,107.7 114.5,88.78 125.62,95.27 136.75,95.27 147.88,95.27 159.0,95.27 170.12,111.97 181.25,111.97 192.38,111.97 203.5,111.97 214.62,111.97 225.75,80.23 236.88,80.23 248.0,80.23 259.12,80.23 270.25,80.23 281.38,80.23 292.5,80.23 303.62,80.23 314.75,80.23 325.88,134.14 337.0,134.14 348.12,134.14 359.25,148.08 370.38,129.05 381.5,129.05 392.62,99.32 403.75,99.32 414.88,99.32 426.0,112.45 437.12,112.45 448.25,112.45 459.38,112.45 470.5,162.84 481.62,190.0 492.75,190.0 503.88,190.0 515.0,190.0 526.12,190.0 537.25,144.04 548.38,111.12 559.5,111.12 570.62,103.45 581.75,103.45 592.88,103.45 604.0,103.45 615.12,112.45 626.25,112.45 637.38,112.45 648.5,112.45 659.62,131.7 670.75,131.7 681.88,131.7 693.0,147.62 704.12,147.62 715.25,147.62 726.38,147.62 737.5,147.62 748.62,147.62 759.75,147.62 770.88,147.62 782.0,147.62 793.12,112.45 804.25,112.45 815.38,112.45 826.5,112.45 837.62,112.45 848.75,112.45 859.88,112.45 871.0,112.45 882.12,112.45 893.25,112.45 904.38,112.45 915.5,112.45 926.62,105.2 937.75,105.2 948.88,105.2 960.0,105.2" opacity="0.82"/>
<polyline fill="none" stroke="#f3a712" stroke-width="1.6" points="70.0,79.04 81.12,104.17 92.25,104.17 103.38,104.17 114.5,104.17 125.62,104.17 136.75,104.17 147.88,88.41 159.0,88.41 170.12,95.2 181.25,95.2 192.38,95.2 203.5,95.2 214.62,95.2 225.75,95.2 236.88,95.2 248.0,95.2 259.12,95.2 270.25,95.2 281.38,95.2 292.5,95.2 303.62,95.2 314.75,95.2 325.88,95.2 337.0,95.2 348.12,95.2 359.25,95.2 370.38,95.2 381.5,117.49 392.62,117.49 403.75,117.49 414.88,117.49 426.0,117.49 437.12,117.49 448.25,117.04 459.38,117.04 470.5,117.22 481.62,72.58 492.75,72.58 503.88,72.58 515.0,72.58 526.12,72.58 537.25,72.58 548.38,72.58 559.5,72.58 570.62,72.58 581.75,72.58 592.88,72.58 604.0,72.58 615.12,92.08 626.25,92.08 637.38,92.08 648.5,92.08 659.62,94.95 670.75,123.9 681.88,110.4 693.0,118.0 704.12,125.5 715.25,119.94 726.38,119.94 737.5,108.18 748.62,108.18 759.75,108.18 770.88,108.18 782.0,108.18 793.12,84.66 804.25,84.66 815.38,84.66 826.5,84.66 837.62,91.32 848.75,95.28 859.88,92.53 871.0,88.46 882.12,88.46 893.25,93.07 904.38,108.55 915.5,108.55 926.62,115.1 937.75,117.38 948.88,117.38 960.0,117.38" opacity="0.82"/>
<line x1="70.0" y1="370.0" x2="960.0" y2="370.0" stroke="#444" stroke-width="1.2"/>
<line x1="70.0" y1="225.0" x2="70.0" y2="370.0" stroke="#444" stroke-width="1.2"/>
<text x="70.0" y="217.0" font-family="monospace" font-size="12">k_G</text>
<polyline fill="none" stroke="#1f77b4" stroke-width="1.6" points="70.0,259.23 81.12,259.23 92.25,259.23 103.38,276.61 114.5,276.61 125.62,323.1 136.75,296.18 147.88,270.49 159.0,270.49 170.12,270.49 181.25,270.49 192.38,241.91 203.5,241.91 214.62,241.91 225.75,241.91 236.88,241.91 248.0,241.91 259.12,241.91 270.25,241.91 281.38,241.91 292.5,241.91 303.62,241.91 314.75,253.16 325.88,301.39 337.0,301.39 348.12,301.39 359.25,301.39 370.38,260.96 381.5,260.96 392.62,260.96 403.75,260.96 414.88,260.96 426.0,260.96 437.12,260.96 448.25,260.96 459.38,317.11 470.5,317.11 481.62,370.0 492.75,370.0 503.88,370.0 515.0,293.32 526.12,293.32 537.25,293.32 548.38,293.32 559.5,293.32 570.62,293.32 581.75,293.32 592.88,293.32 604.0,293.32 615.12,241.91 626.25,241.91 637.38,241.91 648.5,241.91 659.62,251.56 670.75,251.56 681.88,251.56 693.0,251.56 704.12,251.56 715.25,251.56 726.38,251.56 737.5,251.56 748.62,251.56 759.75,251.56 770.88,251.56 782.0,251.56 793.12,241.91 804.25,241.91 815.38,241.91 826.5,241.91 837.62,241.91 848.75,241.91 859.88,241.91 871.0,241.91 882.12,245.68 893.25,244.43 904.38,244.43 915.5,244.43 926.62,244.43 937.75,244.43 948.88,244.43 960.0,244.43" opacity="0.82"/>
<polyline fill="none" stroke="#e45756" stroke-width="1.6" points="70.0,259.23 81.12,259.23 92.25,259.23 103.38,259.23 114.5,259.23 125.62,259.23 136.75,259.23 147.88,259.23 159.0,259.23 170.12,259.23 181.25,259.23 192.38,259.23 203.5,254.09 214.62,254.09 225.75,254.09 236.88,254.09 248.0,254.09 259.12,254.09 270.25,254.09 281.38,253.43 292.5,253.43 303.62,253.43 314.75,253.43 325.88,253.43 337.0,253.43 348.12,247.61 359.25,247.61 370.38,247.61 381.5,247.61 392.62,247.61 403.75,247.61 414.88,247.61 426.0,247.61 437.12,247.61 448.25,247.61 459.38,247.61 470.5,247.61 481.62,247.61 492.75,247.61 503.88,247.61 515.0,247.61 526.12,247.61 537.25,247.61 548.38,247.61 559.5,277.79 570.62,277.79 581.75,277.79 592.88,277.79 604.0,277.79 615.12,277.79 626.25,277.79 637.38,277.79 648.5,277.79 659.62,277.79 670.75,277.41 681.88,277.41 693.0,277.41 704.12,297.42 715.25,297.42 726.38,294.5 737.5,347.29 748.62,347.29 759.75,331.8 770.88,331.8 782.0,331.8 793.12,331.8 804.25,331.8 815.38,331.8 826.5,331.8 837.62,331.8 848.75,321.88 859.88,327.87 871.0,327.87 882.12,327.87 893.25,327.87 904.38,327.87 915.5,327.87 926.62,336.51 937.75,329.09 948.88,347.54 960.0,347.54" opacity="0.82"/>
<polyline fill="none" stroke="#4c9f70" stroke-width="1.6" points="70.0,259.23 81.12,259.23 92.25,249.73 103.38,292.97 114.5,280.47 125.62,269.32 136.75,269.32 147.88,269.32 159.0,269.32 170.12,256.09 181.25,256.09 192.38,256.09 203.5,256.09 214.62,256.09 225.75,249.65 236.88,249.65 248.0,249.65 259.12,249.65 270.25,249.65 281.38,249.65 292.5,249.65 303.62,249.65 314.75,249.65 325.88,254.51 337.0,254.51 348.12,254.51 359.25,279.98 370.38,303.67 381.5,303.67 392.62,340.31 403.75,340.31 414.88,340.31 426.0,302.38 437.12,302.38 448.25,302.38 459.38,302.38 470.5,294.76 481.62,286.87 492.75,286.87 503.88,286.87 515.0,286.87 526.12,286.87 537.25,225.0 548.38,250.41 559.5,250.41 570.62,330.18 581.75,330.18 592.88,330.18 604.0,330.18 615.12,302.38 626.25,302.38 637.38,302.38 648.5,302.38 659.62,343.96 670.75,343.96 681.88,343.96 693.0,315.36 704.12,315.36 715.25,315.36 726.38,315.36 737.5,315.36 748.62,315.36 759.75,315.36 770.88,315.36 782.0,315.36 793.12,302.38 804.25,302.38 815.38,302.38 826.5,302.38 837.62,302.38 848.75,302.38 859.88,302.38 871.0,302.38 882.12,302.38 893.25,302.38 904.38,302.38 915.5,302.38 926.62,295.32 937.75,295.32 948.88,295.32 960.0,295.32" opacity="0.82"/>
<polyline fill="none" stroke="#f3a712" stroke-width="1.6" points="70.0,259.23 81.12,284.73 92.25,284.73 103.38,284.73 114.5,284.73 125.62,284.73 136.75,284.73 147.88,324.35 159.0,324.35 170.12,328.65 181.25,328.65 192.38,328.65 203.5,328.65 214.62,328.65 225.75,328.65 236.88,328.65 248.0,328.65 259.12,328.65 270.25,328.65 281.38,328.65 292.5,328.65 303.62,328.65 314.75,328.65 325.88,328.65 337.0,328.65 348.12,328.65 359.25,328.65 370.38,328.65 381.5,315.29 392.62,315.29 403.75,315.29 414.88,315.29 426.0,315.29 437.12,315.29 448.25,336.92 459.38,336.92 470.5,270.94 481.62,307.35 492.75,307.35 503.88,307.35 515.0,307.35 526.12,307.35 537.25,307.35 548.38,307.35 559.5,307.35 570.62,307.35 581.75,307.35 592.88,307.35 604.0,307.35 615.12,327.17 626.25,327.17 637.38,327.17 648.5,327.17 659.62,303.41 670.75,315.35 681.88,323.46 693.0,322.68 704.12,319.06 715.25,316.32 726.38,316.32 737.5,322.64 748.62,322.64 759.75,322.64 770.88,322.64 782.0,322.64 793.12,333.58 804.25,333.58 815.38,333.58 826.5,333.58 837.62,326.8 848.75,330.57 859.88,319.27 871.0,319.28 882.12,319.28 893.25,301.35 904.38,293.89 915.5,293.89 926.62,287.73 937.75,291.73 948.88,291.73 960.0,291.73" opacity="0.82"/>
<line x1="70.0" y1="550.0" x2="960.0" y2="550.0" stroke="#444" stroke-width="1.2"/>
<line x1="70.0" y1="405.0" x2="70.0" y2="550.0" stroke="#444" stroke-width="1.2"/>
<text x="70.0" y="397.0" font-family="monospace" font-size="12">threshold</text>
<polyline fill="none" stroke="#1f77b4" stroke-width="1.6" points="70.0,409.16 81.12,409.16 92.25,409.16 103.38,424.45 114.5,424.45 125.62,408.98 136.75,434.23 147.88,485.64 159.0,485.64 170.12,485.64 181.25,485.64 192.38,472.75 203.5,472.75 214.62,472.75 225.75,472.75 236.88,472.75 248.0,472.75 259.12,472.75 270.25,472.75 281.38,472.75 292.5,472.75 303.62,472.75 314.75,501.77 325.88,494.35 337.0,494.35 348.12,494.35 359.25,494.35 370.38,501.33 381.5,501.33 392.62,501.33 403.75,501.33 414.88,501.33 426.0,501.33 437.12,501.33 448.25,501.33 459.38,494.26 470.5,494.26 481.62,457.68 492.75,457.68 503.88,457.68 515.0,431.53 526.12,431.53 537.25,431.53 548.38,431.53 559.5,431.53 570.62,431.53 581.75,431.53 592.88,431.53 604.0,431.53 615.12,472.75 626.25,472.75 637.38,472.75 648.5,472.75 659.62,497.31 670.75,497.31 681.88,497.31 693.0,497.31 704.12,497.31 715.25,497.31 726.38,497.31 737.5,497.31 748.62,497.31 759.75,497.31 770.88,497.31 782.0,497.31 793.12,472.75 804.25,472.75 815.38,472.75 826.5,472.75 837.62,472.75 848.75,472.75 859.88,472.75 871.0,472.75 882.12,478.38 893.25,460.34 904.38,460.34 915.5,460.34 926.62,460.34 937.75,460.34 948.88,460.34 960.0,460.34" opacity="0.82"/>
<polyline fill="none" stroke="#e45756" stroke-width="1.6" points="70.0,409.16 81.12,409.16 92.25,409.16 103.38,409.16 114.5,409.16 125.62,409.16 136.75,409.16 147.88,409.16 159.0,409.16 170.12,409.16 181.25,409.16 192.38,409.16 203.5,441.32 214.62,441.32 225.75,441.32 236.88,441.32 248.0,441.32 259.12,441.32 270.25,441.32 281.38,465.72 292.5,465.72 303.62,465.72 314.75,465.72 325.88,465.72 337.0,465.72 348.12,457.63 359.25,457.63 370.38,457.63 381.5,457.63 392.62,457.63 403.75,457.63 414.88,457.63 426.0,457.63 437.12,457.63 448.25,457.63 459.38,457.63 470.5,457.63 481.62,457.63 492.75,457.63 503.88,457.63 515.0,457.63 526.12,457.63 537.25,457.63 548.38,457.63 559.5,445.17 570.62,445.17 581.75,445.17 592.88,445.17 604.0,445.17 615.12,445.17 626.25,445.17 637.38,445.17 648.5,445.17 659.62,445.17 670.75,434.89 681.88,434.89 693.0,434.89 704.12,479.62 715.25,479.62 726.38,463.39 737.5,456.22 748.62,456.22 759.75,414.84 770.88,414.84 782.0,414.84 793.12,414.84 804.25,414.84 815.38,414.84 826.5,414.84 837.62,414.84 848.75,435.09 859.88,443.78 871.0,443.78 882.12,443.78 893.25,443.78 904.38,443.78 915.5,443.78 926.62,438.4 937.75,446.24 948.88,471.86 960.0,471.86" opacity="0.82"/>
<polyline fill="none" stroke="#4c9f70" stroke-width="1.6" points="70.0,409.16 81.12,409.16 92.25,447.84 103.38,460.78 114.5,532.34 125.62,544.35 136.75,544.35 147.88,544.35 159.0,544.35 170.12,433.71 181.25,433.71 192.38,433.71 203.5,433.71 214.62,433.71 225.75,405.0 236.88,405.0 248.0,405.0 259.12,405.0 270.25,405.0 281.38,405.0 292.5,405.0 303.62,405.0 314.75,405.0 325.88,440.92 337.0,440.92 348.12,440.92 359.25,424.91 370.38,425.5 381.5,425.5 392.62,426.42 403.75,426.42 414.88,426.42 426.0,408.99 437.12,408.99 448.25,408.99 459.38,408.99 470.5,457.73 481.62,484.33 492.75,484.33 503.88,484.33 515.0,484.33 526.12,484.33 537.25,415.06 548.38,490.06 559.5,490.06 570.62,550.0 581.75,550.0 592.88,550.0 604.0,550.0 615.12,408.99 626.25,408.99 637.38,408.99 648.5,408.99 659.62,418.05 670.75,418.05 681.88,418.05 693.0,459.85 704.12,459.85 715.25,459.85 726.38,459.85 737.5,459.85 748.62,459.85 759.75,459.85 770.88,459.85 782.0,459.85 793.12,408.99 804.25,408.99 815.38,408.99 826.5,408.99 837.62,408.99 848.75,408.99 859.88,408.99 871.0,408.99 882.12,408.99 893.25,408.99 904.38,408.99 915.5,408.99 926.62,430.91 937.75,430.91 948.88,430.91 960.0,430.91" opacity="0.82"/>
<polyline fill="none" stroke="#f3a712" stroke-width="1.6" points="70.0,409.16 81.12,479.59 92.25,479.59 103.38,479.59 114.5,479.59 125.62,479.59 136.75,479.59 147.88,426.63 159.0,426.63 170.12,441.02 181.25,441.02 192.38,441.02 203.5,441.02 214.62,441.02 225.75,441.02 236.88,441.02 248.0,441.02 259.12,441.02 270.25,441.02 281.38,441.02 292.5,441.02 303.62,441.02 314.75,441.02 325.88,441.02 337.0,441.02 348.12,441.02 359.25,441.02 370.38,441.02 381.5,451.47 392.62,451.47 403.75,451.47 414.88,451.47 426.0,451.47 437.12,451.47 448.25,483.73 459.38,483.73 470.5,481.8 481.62,458.89 492.75,458.89 503.88,458.89 515.0,458.89 526.12,458.89 537.25,458.89 548.38,458.89 559.5,458.89 570.62,458.89 581.75,458.89 592.88,458.89 604.0,458.89 615.12,439.27 626.25,439.27 637.38,439.27 648.5,439.27 659.62,428.16 670.75,473.58 681.88,482.73 693.0,459.83 704.12,468.49 715.25,477.24 726.38,477.24 737.5,501.48 748.62,501.48 759.75,501.48 770.88,501.48 782.0,501.48 793.12,453.57 804.25,453.57 815.38,453.57 826.5,453.57 837.62,452.87 848.75,449.71 859.88,454.93 871.0,465.61 882.12,465.61 893.25,449.83 904.38,440.78 915.5,440.78 926.62,439.2 937.75,433.64 948.88,433.64 960.0,433.64" opacity="0.82"/>
</svg>
