<svg xmlns="http://www.w3.org/2000/svg" width="900" height="420" viewBox="0 0 900 420">
<rect x="0" y="0" width="900" height="420" fill="#ffffff"/>
<text x="450" y="26" text-anchor="middle" font-family="monospace" font-size="18">Calibration Score History</text>
<line x1="70.0" y1="375.0" x2="880.0" y2="375.0" stroke="#444" stroke-width="1.5"/>
<line x1="70.0" y1="45.0" x2="70.0" y2="375.0" stroke="#444" stroke-width="1.5"/>
<polyline fill="none" stroke="#1f77b4" stroke-width="2" points="70.0,45.0 75.96,45.0 81.91,45.0 87.87,266.03 93.82,266.03 99.78,317.87 105.74,327.09 111.69,327.09 117.65,327.09 123.6,327.09 129.56,327.09 135.51,298.28 141.47,298.28 147.43,298.28 153.38,344.61 159.34,344.61 165.29,344.61 171.25,344.61 177.21,344.61 183.16,344.61 189.12,344.61 195.07,344.61 201.03,344.61 206.99,359.68 212.94,359.68 218.9,359.68 224.85,359.68 230.81,333.08 236.76,333.08 242.72,333.08 248.68,333.08 254.63,333.08 260.59,333.08 266.54,333.08 272.5,333.08 278.46,356.58 284.41,356.58 290.37,356.58 296.32,356.58 302.28,348.81 308.24,354.35 314.19,354.35 320.15,354.35 326.1,354.35 332.06,354.35 338.01,354.35 343.97,354.35 349.93,354.35 355.88,354.35 361.84,354.35 367.79,354.35 373.75,354.35 379.71,354.35 385.66,296.17 391.62,296.17 397.57,296.17 403.53,296.17 409.49,296.17 415.44,296.17 421.4,296.17 427.35,296.17 433.31,296.17 439.26,296.17 445.22,296.17 451.18,296.17 457.13,365.21 463.09,365.21 469.04,365.21 475.0,365.21 480.96,365.21 486.91,371.85 492.87,371.85 498.82,371.85 504.78,315.69 510.74,331.28 516.69,331.28 522.65,331.28 528.6,331.28 534.56,331.28 540.51,331.28 546.47,331.28 552.43,331.28 558.38,331.28 564.34,326.78 570.29,362.8 576.25,355.22 582.21,355.22 588.16,355.22 594.12,355.22 600.07,371.85 606.03,371.85 611.99,371.85 617.94,342.78 623.9,344.47 629.85,364.65 635.81,364.65 641.76,356.93 647.72,356.93 653.68,330.79 659.63,356.07 665.59,332.07 671.54,332.07 677.5,358.77 683.46,358.47 689.41,358.47 695.37,358.47 701.32,358.47 707.28,368.65 713.24,344.69 719.19,337.01 725.15,280.0 731.1,280.0 737.06,309.65 743.01,344.85 748.97,344.85 754.93,347.01 760.88,371.74 766.84,371.74 772.79,371.74 778.75,344.22 784.71,344.22 790.66,367.4 796.62,364.25 802.57,364.25 808.53,364.25 814.49,366.62 820.44,366.62 826.4,366.62 832.35,366.62 838.31,366.62 844.26,366.62 850.22,367.6 856.18,375.0 862.13,375.0 868.09,366.87 874.04,366.87 880.0,314.93"/>
</svg>
