<svg xmlns="http://www.w3.org/2000/svg" width="980" height="580" viewBox="0 0 980 580">
<rect x="0" y="0" width="980" height="580" fill="#ffffff"/>
<text x="490" y="26" text-anchor="middle" font-family="monospace" font-size="18">Posterior Trace Diagnostics</text>
<line x1="70.0" y1="190.0" x2="960.0" y2="190.0" stroke="#444" stroke-width="1.2"/>
<line x1="70.0" y1="45.0" x2="70.0" y2="190.0" stroke="#444" stroke-width="1.2"/>
<text x="70.0" y="37.0" font-family="monospace" font-size="12">alpha_EMT</text>
<polyline fill="none" stroke="#1f77b4" stroke-width="1.6" points="70.0,108.45 76.54,108.45 83.09,108.45 89.63,95.18 96.18,95.18 102.72,94.32 109.26,90.34 115.81,90.34 122.35,90.34 128.9,90.34 135.44,90.34 141.99,100.39 148.53,100.39 155.07,100.39 161.62,86.02 168.16,86.02 174.71,86.02 181.25,86.02 187.79,86.02 194.34,86.02 200.88,86.02 207.43,86.02 213.97,86.02 220.51,113.72 227.06,113.72 233.6,113.72 240.15,113.72 246.69,84.69 253.24,84.69 259.78,84.69 266.32,84.69 272.87,84.69 279.41,84.69 285.96,84.69 292.5,84.69 299.04,45.0 305.59,45.0 312.13,45.0 318.68,45.0 325.22,77.21 331.76,78.55 338.31,78.55 344.85,78.55 351.4,78.55 357.94,78.55 364.49,78.55 371.03,78.55 377.57,78.55 384.12,78.55 390.66,78.55 397.21,78.55 403.75,78.55 410.29,78.55 416.84,112.13 423.38,112.13 429.93,112.13 436.47,112.13 443.01,112.13 449.56,112.13 456.1,112.13 462.65,112.13 469.19,112.13 475.74,112.13 482.28,112.13 488.82,112.13 495.37,121.03 501.91,121.03 508.46,121.03 515.0,121.03 521.54,121.03 528.09,121.06 534.63,121.06 541.18,121.06 547.72,116.42 554.26,124.7 560.81,124.7 567.35,124.7 573.9,124.7 580.44,124.7 586.99,124.7 593.53,124.7 600.07,124.7 606.62,124.7 613.16,126.48 619.71,123.05 626.25,119.91 632.79,119.91 639.34,119.91 645.88,119.91 652.43,121.06 658.97,121.06 665.51,121.06 672.06,124.33 678.6,127.54 685.15,125.45 691.69,125.45 698.24,131.19 704.78,131.19 711.32,131.52 717.87,134.92 724.41,132.99 730.96,132.99 737.5,125.01 744.04,122.03 750.59,122.03 757.13,122.03 763.68,122.03 770.22,117.1 776.76,115.26 783.31,116.18 789.85,112.09 796.4,112.09 802.94,108.35 809.49,117.74 816.03,117.74 822.57,123.71 829.12,119.42 835.66,119.42 842.21,119.42 848.75,118.03 855.29,118.03 861.84,120.0 868.38,125.08 874.93,125.08 881.47,125.08 888.01,126.62 894.56,126.62 901.1,126.62 907.65,126.62 914.19,126.62 920.74,126.62 927.28,126.43 933.82,128.84 940.37,128.84 946.91,126.85 953.46,126.85 960.0,126.54" opacity="0.82"/>
<polyline fill="none" stroke="#e45756" stroke-width="1.6" points="70.0,108.45 76.54,108.45 83.09,108.45 89.63,108.45 96.18,108.45 102.72,108.45 109.26,108.45 115.81,108.45 122.35,108.45 128.9,108.45 135.44,108.45 141.99,108.45 148.53,119.02 155.07,119.02 161.62,119.02 168.16,119.02 174.71,119.02 181.25,119.02 187.79,119.02 194.34,124.04 200.88,124.04 207.43,124.04 213.97,124.04 220.51,124.04 227.06,124.04 233.6,127.65 240.15,127.65 246.69,127.65 253.24,127.65 259.78,127.65 266.32,127.65 272.87,127.65 279.41,100.89 285.96,100.89 292.5,100.89 299.04,100.89 305.59,100.89 312.13,100.89 318.68,107.72 325.22,107.72 331.76,107.72 338.31,107.72 344.85,146.86 351.4,146.86 357.94,159.39 364.49,159.39 371.03,159.39 377.57,159.39 384.12,163.87 390.66,144.96 397.21,144.96 403.75,144.96 410.29,144.96 416.84,144.96 423.38,138.03 429.93,138.03 436.47,148.54 443.01,148.54 449.56,148.54 456.1,157.1 462.65,137.64 469.19,121.08 475.74,122.1 482.28,122.1 488.82,122.1 495.37,124.04 501.91,124.04 508.46,124.04 515.0,124.04 521.54,124.04 528.09,124.04 534.63,130.28 541.18,130.28 547.72,130.28 554.26,130.28 560.81,133.28 567.35,134.9 573.9,145.4 580.44,145.4 586.99,145.4 593.53,145.4 600.07,145.4 606.62,145.4 613.16,145.4 619.71,145.4 626.25,145.4 632.79,145.4 639.34,145.4 645.88,137.97 652.43,124.04 658.97,124.04 665.51,124.04 672.06,124.04 678.6,124.04 685.15,124.04 691.69,124.04 698.24,124.04 704.78,124.04 711.32,127.04 717.87,127.04 724.41,127.04 730.96,130.84 737.5,123.66 744.04,122.55 750.59,122.55 757.13,118.69 763.68,118.69 770.22,118.69 776.76,117.85 783.31,117.85 789.85,117.85 796.4,117.85 802.94,117.85 809.49,124.04 816.03,124.04 822.57,124.04 829.12,124.04 835.66,124.04 842.21,124.04 848.75,124.04 855.29,124.04 861.84,124.04 868.38,121.67 874.93,121.67 881.47,120.01 888.01,118.47 894.56,119.37 901.1,119.37 907.65,115.05 914.19,117.13 920.74,120.39 927.28,118.61 933.82,118.61 940.37,118.61 946.91,119.32 953.46,120.74 960.0,120.0" opacity="0.82"/>
<polyline fill="none" stroke="#4c9f70" stroke-width="1.6" points="70.0,108.45 76.54,108.45 83.09,124.71 89.63,123.91 96.18,113.16 102.72,116.37 109.26,116.37 115.81,116.37 122.35,116.37 128.9,126.55 135.44,126.55 141.99,126.55 148.53,126.55 155.07,126.55 161.62,108.75 168.16,108.75 174.71,108.75 181.25,108.75 187.79,108.75 194.34,108.75 200.88,108.75 207.43,108.75 213.97,108.75 220.51,139.47 227.06,139.47 233.6,139.47 240.15,148.06 246.69,148.06 253.24,148.06 259.78,148.06 266.32,148.06 272.87,148.06 279.41,148.06 285.96,148.06 292.5,148.06 299.04,148.06 305.59,172.56 312.13,187.75 318.68,187.75 325.22,187.75 331.76,187.75 338.31,187.75 344.85,187.75 351.4,187.75 357.94,187.75 364.49,187.75 371.03,187.75 377.57,187.75 384.12,187.75 390.66,179.9 397.21,179.9 403.75,186.06 410.29,186.06 416.84,186.06 423.38,180.21 429.93,180.21 436.47,190.0 443.01,185.69 449.56,185.69 456.1,185.69 462.65,185.69 469.19,185.69 475.74,185.69 482.28,185.69 488.82,185.69 495.37,148.06 501.91,148.06 508.46,148.06 515.0,148.06 521.54,148.06 528.09,148.06 534.63,148.06 541.18,148.06 547.72,148.06 554.26,148.06 560.81,148.06 567.35,148.06 573.9,148.06 580.44,148.06 586.99,148.06 593.53,148.06 600.07,148.06 606.62,144.2 613.16,144.2 619.71,144.2 626.25,144.2 632.79,143.73 639.34,143.73 645.88,146.62 652.43,148.06 658.97,146.71 665.51,146.71 672.06,146.71 678.6,148.62 685.15,148.62 691.69,147.13 698.24,147.13 704.78,147.13 711.32,147.13 717.87,147.13 724.41,149.55 730.96,145.64 737.5,145.64 744.04,145.64 750.59,145.64 757.13,145.64 763.68,149.96 770.22,147.01 776.76,148.64 783.31,148.64 789.85,148.64 796.4,142.75 802.94,142.75 809.49,142.75 816.03,142.75 822.57,142.75 829.12,145.6 835.66,145.6 842.21,147.61 848.75,147.61 855.29,147.61 861.84,148.51 868.38,148.51 874.93,148.51 881.47,147.22 888.01,147.22 894.56,147.22 901.1,147.22 907.65,147.22 914.19,147.22 920.74,147.22 927.28,147.22 933.82,147.22 940.37,143.84 946.91,143.84 953.46,143.52 960.0,143.52" opacity="0.82"/>
<polyline fill="none" stroke="#f3a712" stroke-width="1.6" points="70.0,108.45 76.54,123.63 83.09,125.81 89.63,125.81 96.18,123.51 102.72,123.51 109.26,123.51 115.81,115.27 122.35,115.27 128.9,117.65 135.44,117.65 141.99,117.65 148.53,117.65 155.07,117.65 161.62,117.65 168.16,117.65 174.71,117.65 181.25,117.65 187.79,117.65 194.34,117.65 200.88,117.65 207.43,117.65 213.97,117.65 220.51,117.65 227.06,117.65 233.6,117.65 240.15,117.65 246.69,117.65 253.24,117.65 259.78,96.96 266.32,108.59 272.87,108.59 279.41,108.59 285.96,108.59 292.5,111.38 299.04,111.38 305.59,115.07 312.13,88.84 318.68,88.84 325.22,88.84 331.76,88.84 338.31,88.84 344.85,88.84 351.4,88.84 357.94,80.97 364.49,80.97 371.03,80.97 377.57,80.97 384.12,80.97 390.66,80.97 397.21,80.97 403.75,80.97 410.29,80.97 416.84,80.97 423.38,118.6 429.93,105.66 436.47,118.16 443.01,127.96 449.56,122.49 456.1,94.78 462.65,94.78 469.19,94.78 475.74,94.78 482.28,94.78 488.82,94.78 495.37,110.24 501.91,110.24 508.46,110.24 515.0,110.24 521.54,117.5 528.09,121.76 534.63,121.76 541.18,117.92 547.72,120.94 554.26,125.3 560.81,125.3 567.35,125.3 573.9,132.95 580.44,135.48 586.99,135.48 593.53,135.48 600.07,135.48 606.62,135.48 613.16,135.48 619.71,135.48 626.25,135.48 632.79,135.48 639.34,124.48 645.88,123.08 652.43,117.65 658.97,126.52 665.51,121.14 672.06,122.28 678.6,122.28 685.15,122.28 691.69,122.53 698.24,128.34 704.78,125.01 711.32,128.7 717.87,128.7 724.41,135.07 730.96,136.59 737.5,132.93 744.04,127.51 750.59,127.51 757.13,130.91 763.68,134.41 770.22,134.41 776.76,136.56 783.31,136.56 789.85,136.91 796.4,136.91 802.94,135.89 809.49,122.28 816.03,122.28 822.57,122.28 829.12,122.28 835.66,122.28 842.21,122.28 848.75,122.28 855.29,123.68 861.84,120.66 868.38,120.66 874.93,120.66 881.47,120.66 888.01,120.66 894.56,120.66 901.1,119.96 907.65,119.96 914.19,119.96 920.74,119.96 927.28,119.96 933.82,119.96 940.37,119.96 946.91,119.96 953.46,119.96 960.0,119.96" opacity="0.82"/>
<line x1="70.0" y1="370.0" x2="960.0" y2="370.0" stroke="#444" stroke-width="1.2"/>
<line x1="70.0" y1="225.0" x2="70.0" y2="370.0" stroke="#444" stroke-width="1.2"/>
<text x="70.0" y="217.0" font-family="monospace" font-size="12">k_G</text>
<polyline fill="none" stroke="#1f77b4" stroke-width="1.6" points="70.0,263.39 76.54,263.39 83.09,263.39 89.63,273.74 96.18,273.74 102.72,306.8 109.26,287.7 115.81,287.7 122.35,287.7 128.9,287.7 135.44,287.7 141.99,269.85 148.53,269.85 155.07,269.85 161.62,305.99 168.16,305.99 174.71,305.99 181.25,305.99 187.79,305.99 194.34,305.99 200.88,305.99 207.43,305.99 213.97,305.99 220.51,332.81 227.06,332.81 233.6,332.81 240.15,332.81 246.69,307.13 253.24,307.13 259.78,307.13 266.32,307.13 272.87,307.13 279.41,307.13 285.96,307.13 292.5,307.13 299.04,338.56 305.59,338.56 312.13,338.56 318.68,338.56 325.22,339.35 331.76,286.76 338.31,286.76 344.85,286.76 351.4,286.76 357.94,286.76 364.49,286.76 371.03,286.76 377.57,286.76 384.12,286.76 390.66,286.76 397.21,286.76 403.75,286.76 410.29,286.76 416.84,296.71 423.38,296.71 429.93,296.71 436.47,296.71 443.01,296.71 449.56,296.71 456.1,296.71 462.65,296.71 469.19,296.71 475.74,296.71 482.28,296.71 488.82,296.71 495.37,323.05 501.91,323.05 508.46,323.05 515.0,323.05 521.54,323.05 528.09,299.93 534.63,299.93 541.18,299.93 547.72,302.79 554.26,300.3 560.81,300.3 567.35,300.3 573.9,300.3 580.44,300.3 586.99,300.3 593.53,300.3 600.07,300.3 606.62,300.3 613.16,296.26 619.71,314.74 626.25,305.75 632.79,305.75 639.34,305.75 645.88,305.75 652.43,299.93 658.97,299.93 665.51,299.93 672.06,306.02 678.6,297.03 685.15,297.95 691.69,297.95 698.24,305.55 704.78,305.55 711.32,312.02 717.87,303.63 724.41,297.61 730.96,297.61 737.5,290.64 744.04,284.88 750.59,284.88 757.13,284.88 763.68,284.88 770.22,296.96 776.76,301.39 783.31,309.11 789.85,305.1 796.4,305.1 802.94,311.01 809.49,299.74 816.03,299.74 822.57,298.33 829.12,294.67 835.66,294.67 842.21,294.67 848.75,297.97 855.29,297.97 861.84,291.13 868.38,291.08 874.93,291.08 881.47,291.08 888.01,287.44 894.56,287.44 901.1,287.44 907.65,287.44 914.19,287.44 920.74,287.44 927.28,281.65 933.82,281.44 940.37,281.44 946.91,281.04 953.46,281.04 960.0,278.2" opacity="0.82"/>
<polyline fill="none" stroke="#e45756" stroke-width="1.6" points="70.0,263.39 76.54,263.39 83.09,263.39 89.63,263.39 96.18,263.39 102.72,263.39 109.26,263.39 115.81,263.39 122.35,263.39 128.9,263.39 135.44,263.39 141.99,263.39 148.53,259.51 155.07,259.51 161.62,259.51 168.16,259.51 174.71,259.51 181.25,259.51 187.79,259.51 194.34,257.13 200.88,257.13 207.43,257.13 213.97,257.13 220.51,257.13 227.06,257.13 233.6,252.69 240.15,252.69 246.69,252.69 253.24,252.69 259.78,252.69 266.32,252.69 272.87,252.69 279.41,250.65 285.96,250.65 292.5,250.65 299.04,250.65 305.59,250.65 312.13,250.65 318.68,239.74 325.22,239.74 331.76,239.74 338.31,239.74 344.85,225.0 351.4,225.0 357.94,244.8 364.49,244.8 371.03,244.8 377.57,244.8 384.12,312.4 390.66,328.25 397.21,328.25 403.75,328.25 410.29,328.25 416.84,328.25 423.38,325.02 429.93,325.02 436.47,313.17 443.01,313.17 449.56,313.17 456.1,308.96 462.65,370.0 469.19,363.2 475.74,344.92 482.28,344.92 488.82,344.92 495.37,257.13 501.91,257.13 508.46,257.13 515.0,257.13 521.54,257.13 528.09,257.13 534.63,269.02 541.18,269.02 547.72,269.02 554.26,269.02 560.81,278.4 567.35,272.31 573.9,286.96 580.44,286.96 586.99,286.96 593.53,286.96 600.07,286.96 606.62,286.96 613.16,286.96 619.71,286.96 626.25,286.96 632.79,286.96 639.34,286.96 645.88,310.68 652.43,257.13 658.97,257.13 665.51,257.13 672.06,257.13 678.6,257.13 685.15,257.13 691.69,257.13 698.24,257.13 704.78,257.13 711.32,253.61 717.87,253.61 724.41,253.61 730.96,250.41 737.5,257.51 744.04,260.75 750.59,260.75 757.13,271.33 763.68,271.33 770.22,271.33 776.76,271.69 783.31,271.69 789.85,271.69 796.4,271.69 802.94,271.69 809.49,257.13 816.03,257.13 822.57,257.13 829.12,257.13 835.66,257.13 842.21,257.13 848.75,257.13 855.29,257.13 861.84,257.13 868.38,257.02 874.93,257.02 881.47,252.2 888.01,251.83 894.56,250.99 901.1,250.99 907.65,255.84 914.19,260.54 920.74,264.91 927.28,265.96 933.82,265.96 940.37,265.96 946.91,262.36 953.46,266.65 960.0,266.67" opacity="0.82"/>
<polyline fill="none" stroke="#4c9f70" stroke-width="1.6" points="70.0,263.39 76.54,263.39 83.09,255.94 89.63,284.95 96.18,277.95 102.72,273.24 109.26,273.24 115.81,273.24 122.35,273.24 128.9,263.15 135.44,263.15 141.99,263.15 148.53,263.15 155.07,263.15 161.62,258.8 168.16,258.8 174.71,258.8 181.25,258.8 187.79,258.8 194.34,258.8 200.88,258.8 207.43,258.8 213.97,258.8 220.51,260.67 227.06,260.67 233.6,260.67 240.15,276.94 246.69,276.94 253.24,276.94 259.78,276.94 266.32,276.94 272.87,276.94 279.41,276.94 285.96,276.94 292.5,276.94 299.04,276.94 305.59,274.02 312.13,268.83 318.68,268.83 325.22,268.83 331.76,268.83 338.31,268.83 344.85,268.83 351.4,268.83 357.94,268.83 364.49,268.83 371.03,268.83 377.57,268.83 384.12,268.83 390.66,281.9 397.21,281.9 403.75,327.08 410.29,327.08 416.84,327.08 423.38,313.54 429.93,313.54 436.47,275.76 443.01,234.35 449.56,234.35 456.1,234.35 462.65,234.35 469.19,234.35 475.74,234.35 482.28,234.35 488.82,234.35 495.37,276.94 501.91,276.94 508.46,276.94 515.0,276.94 521.54,276.94 528.09,276.94 534.63,276.94 541.18,276.94 547.72,276.94 554.26,276.94 560.81,276.94 567.35,276.94 573.9,276.94 580.44,276.94 586.99,276.94 593.53,276.94 600.07,276.94 606.62,297.32 613.16,297.32 619.71,297.32 626.25,297.32 632.79,288.15 639.34,288.15 645.88,282.75 652.43,276.94 658.97,280.11 665.51,280.11 672.06,280.11 678.6,280.89 685.15,280.89 691.69,286.3 698.24,286.3 704.78,286.3 711.32,286.3 717.87,286.3 724.41,292.9 730.96,290.12 737.5,290.12 744.04,290.12 750.59,290.12 757.13,290.12 763.68,292.53 770.22,286.28 776.76,283.36 783.31,283.36 789.85,283.36 796.4,283.9 802.94,283.9 809.49,283.9 816.03,283.9 822.57,283.9 829.12,287.66 835.66,287.66 842.21,284.02 848.75,284.02 855.29,284.02 861.84,282.99 868.38,282.99 874.93,282.99 881.47,278.78 888.01,278.78 894.56,278.78 901.1,278.78 907.65,278.78 914.19,278.78 920.74,278.78 927.28,278.78 933.82,278.78 940.37,275.04 946.91,275.04 953.46,270.9 960.0,270.9" opacity="0.82"/>
<polyline fill="none" stroke="#f3a712" stroke-width="1.6" points="70.0,263.39 76.54,280.32 83.09,264.9 89.63,264.9 96.18,290.98 102.72,290.98 109.26,290.98 115.81,317.42 122.35,317.42 128.9,322.8 135.44,322.8 141.99,322.8 148.53,322.8 155.07,322.8 161.62,322.8 168.16,322.8 174.71,322.8 181.25,322.8 187.79,322.8 194.34,322.8 200.88,322.8 207.43,322.8 213.97,322.8 220.51,322.8 227.06,322.8 233.6,322.8 240.15,322.8 246.69,322.8 253.24,322.8 259.78,305.99 266.32,290.39 272.87,290.39 279.41,290.39 285.96,290.39 292.5,305.92 299.04,305.92 305.59,260.3 312.13,289.12 318.68,289.12 325.22,289.12 331.76,289.12 338.31,289.12 344.85,289.12 351.4,289.12 357.94,326.31 364.49,326.31 371.03,326.31 377.57,326.31 384.12,326.31 390.66,326.31 397.21,326.31 403.75,326.31 410.29,326.31 416.84,326.31 423.38,339.51 429.93,347.99 436.47,345.89 443.01,340.16 449.56,335.52 456.1,323.8 462.65,323.8 469.19,323.8 475.74,323.8 482.28,323.8 488.82,323.8 495.37,332.0 501.91,332.0 508.46,332.0 515.0,332.0 521.54,324.18 528.09,329.99 534.63,329.99 541.18,329.78 547.72,316.97 554.26,293.14 560.81,293.14 567.35,293.14 573.9,286.43 580.44,290.87 586.99,290.87 593.53,290.87 600.07,290.87 606.62,290.87 613.16,290.87 619.71,290.87 626.25,290.87 632.79,290.87 639.34,299.09 645.88,322.06 652.43,322.8 658.97,322.63 665.51,322.27 672.06,317.49 678.6,317.49 685.15,317.49 691.69,321.98 698.24,325.3 704.78,319.93 711.32,325.59 717.87,325.59 724.41,326.55 730.96,335.53 737.5,335.53 744.04,340.12 750.59,340.12 757.13,331.23 763.68,343.1 770.22,343.1 776.76,338.21 783.31,338.21 789.85,350.79 796.4,350.79 802.94,346.85 809.49,317.49 816.03,317.49 822.57,317.49 829.12,317.49 835.66,317.49 842.21,317.49 848.75,317.49 855.29,317.39 861.84,320.86 868.38,320.86 874.93,320.86 881.47,320.86 888.01,320.86 894.56,320.86 901.1,315.79 907.65,315.79 914.19,315.79 920.74,315.79 927.28,315.79 933.82,315.79 940.37,315.79 946.91,315.79 953.46,315.79 960.0,315.79" opacity="0.82"/>
<line x1="70.0" y1="550.0" x2="960.0" y2="550.0" stroke="#444" stroke-width="1.2"/>
<line x1="70.0" y1="405.0" x2="70.0" y2="550.0" stroke="#444" stroke-width="1.2"/>
<text x="70.0" y="397.0" font-family="monospace" font-size="12">threshold</text>
<polyline fill="none" stroke="#1f77b4" stroke-width="1.6" points="70.0,463.46 76.54,463.46 83.09,463.46 89.63,472.83 96.18,472.83 102.72,464.22 109.26,479.59 115.81,479.59 122.35,479.59 128.9,479.59 135.44,479.59 141.99,474.77 148.53,474.77 155.07,474.77 161.62,479.38 168.16,479.38 174.71,479.38 181.25,479.38 187.79,479.38 194.34,479.38 200.88,479.38 207.43,479.38 213.97,479.38 220.51,480.21 227.06,480.21 233.6,480.21 240.15,480.21 246.69,487.65 253.24,487.65 259.78,487.65 266.32,487.65 272.87,487.65 279.41,487.65 285.96,487.65 292.5,487.65 299.04,486.91 305.59,486.91 312.13,486.91 318.68,486.91 325.22,498.34 331.76,484.23 338.31,484.23 344.85,484.23 351.4,484.23 357.94,484.23 364.49,484.23 371.03,484.23 377.57,484.23 384.12,484.23 390.66,484.23 397.21,484.23 403.75,484.23 410.29,484.23 416.84,515.38 423.38,515.38 429.93,515.38 436.47,515.38 443.01,515.38 449.56,515.38 456.1,515.38 462.65,515.38 469.19,515.38 475.74,515.38 482.28,515.38 488.82,515.38 495.37,476.39 501.91,476.39 508.46,476.39 515.0,476.39 521.54,476.39 528.09,492.48 534.63,492.48 541.18,492.48 547.72,500.6 554.26,479.67 560.81,479.67 567.35,479.67 573.9,479.67 580.44,479.67 586.99,479.67 593.53,479.67 600.07,479.67 606.62,479.67 613.16,497.44 619.71,496.85 626.25,483.53 632.79,483.53 639.34,483.53 645.88,483.53 652.43,492.48 658.97,492.48 665.51,492.48 672.06,493.17 678.6,495.8 685.15,502.92 691.69,502.92 698.24,503.07 704.78,503.07 711.32,505.11 717.87,499.76 724.41,497.11 730.96,497.11 737.5,494.14 744.04,483.7 750.59,483.7 757.13,483.7 763.68,483.7 770.22,479.44 776.76,494.63 783.31,488.27 789.85,491.62 796.4,491.62 802.94,492.17 809.49,495.81 816.03,495.81 822.57,497.44 829.12,494.62 835.66,494.62 842.21,494.62 848.75,498.04 855.29,498.04 861.84,497.86 868.38,494.99 874.93,494.99 881.47,494.99 888.01,497.38 894.56,497.38 901.1,497.38 907.65,497.38 914.19,497.38 920.74,497.38 927.28,499.68 933.82,498.54 940.37,498.54 946.91,498.65 953.46,498.65 960.0,498.27" opacity="0.82"/>
<polyline fill="none" stroke="#e45756" stroke-width="1.6" points="70.0,463.46 76.54,463.46 83.09,463.46 89.63,463.46 96.18,463.46 102.72,463.46 109.26,463.46 115.81,463.46 122.35,463.46 128.9,463.46 135.44,463.46 141.99,463.46 148.53,481.61 155.07,481.61 161.62,481.61 168.16,481.61 174.71,481.61 181.25,481.61 187.79,481.61 194.34,496.99 200.88,496.99 207.43,496.99 213.97,496.99 220.51,496.99 227.06,496.99 233.6,492.48 240.15,492.48 246.69,492.48 253.24,492.48 259.78,492.48 266.32,492.48 272.87,492.48 279.41,491.06 285.96,491.06 292.5,491.06 299.04,491.06 305.59,491.06 312.13,491.06 318.68,492.74 325.22,492.74 331.76,492.74 338.31,492.74 344.85,508.83 351.4,508.83 357.94,501.63 364.49,501.63 371.03,501.63 377.57,501.63 384.12,500.19 390.66,470.54 397.21,470.54 403.75,470.54 410.29,470.54 416.84,470.54 423.38,459.39 429.93,459.39 436.47,485.69 443.01,485.69 449.56,485.69 456.1,468.6 462.65,462.07 469.19,454.84 475.74,405.0 482.28,405.0 488.82,405.0 495.37,496.99 501.91,496.99 508.46,496.99 515.0,496.99 521.54,496.99 528.09,496.99 534.63,506.3 541.18,506.3 547.72,506.3 554.26,506.3 560.81,522.8 567.35,511.88 573.9,505.89 580.44,505.89 586.99,505.89 593.53,505.89 600.07,505.89 606.62,505.89 613.16,505.89 619.71,505.89 626.25,505.89 632.79,505.89 639.34,505.89 645.88,518.21 652.43,496.99 658.97,496.99 665.51,496.99 672.06,496.99 678.6,496.99 685.15,496.99 691.69,496.99 698.24,496.99 704.78,496.99 711.32,489.38 717.87,489.38 724.41,489.38 730.96,511.54 737.5,505.5 744.04,484.27 750.59,484.27 757.13,490.59 763.68,490.59 770.22,490.59 776.76,491.82 783.31,491.82 789.85,491.82 796.4,491.82 802.94,491.82 809.49,496.99 816.03,496.99 822.57,496.99 829.12,496.99 835.66,496.99 842.21,496.99 848.75,496.99 855.29,496.99 861.84,496.99 868.38,494.4 874.93,494.4 881.47,491.34 888.01,495.65 894.56,495.96 901.1,495.96 907.65,491.01 914.19,491.51 920.74,495.44 927.28,495.79 933.82,495.79 940.37,495.79 946.91,503.16 953.46,496.71 960.0,502.78" opacity="0.82"/>
<polyline fill="none" stroke="#4c9f70" stroke-width="1.6" points="70.0,463.46 76.54,463.46 83.09,486.47 89.63,494.57 96.18,539.14 102.72,550.0 109.26,550.0 115.81,550.0 122.35,550.0 128.9,486.44 135.44,486.44 141.99,486.44 148.53,486.44 155.07,486.44 161.62,469.58 168.16,469.58 174.71,469.58 181.25,469.58 187.79,469.58 194.34,469.58 200.88,469.58 207.43,469.58 213.97,469.58 220.51,489.8 227.06,489.8 233.6,489.8 240.15,481.53 246.69,481.53 253.24,481.53 259.78,481.53 266.32,481.53 272.87,481.53 279.41,481.53 285.96,481.53 292.5,481.53 299.04,481.53 305.59,508.01 312.13,524.88 318.68,524.88 325.22,524.88 331.76,524.88 338.31,524.88 344.85,524.88 351.4,524.88 357.94,524.88 364.49,524.88 371.03,524.88 377.57,524.88 384.12,524.88 390.66,523.78 397.21,523.78 403.75,508.0 410.29,508.0 416.84,508.0 423.38,501.38 429.93,501.38 436.47,542.62 443.01,546.06 449.56,546.06 456.1,546.06 462.65,546.06 469.19,546.06 475.74,546.06 482.28,546.06 488.82,546.06 495.37,481.53 501.91,481.53 508.46,481.53 515.0,481.53 521.54,481.53 528.09,481.53 534.63,481.53 541.18,481.53 547.72,481.53 554.26,481.53 560.81,481.53 567.35,481.53 573.9,481.53 580.44,481.53 586.99,481.53 593.53,481.53 600.07,481.53 606.62,479.06 613.16,479.06 619.71,479.06 626.25,479.06 632.79,510.44 639.34,510.44 645.88,499.64 652.43,481.53 658.97,496.21 665.51,496.21 672.06,496.21 678.6,489.77 685.15,489.77 691.69,491.34 698.24,491.34 704.78,491.34 711.32,491.34 717.87,491.34 724.41,489.25 730.96,491.65 737.5,491.65 744.04,491.65 750.59,491.65 757.13,491.65 763.68,494.52 770.22,490.09 776.76,485.31 783.31,485.31 789.85,485.31 796.4,473.08 802.94,473.08 809.49,473.08 816.03,473.08 822.57,473.08 829.12,467.08 835.66,467.08 842.21,472.41 848.75,472.41 855.29,472.41 861.84,475.11 868.38,475.11 874.93,475.11 881.47,470.77 888.01,470.77 894.56,470.77 901.1,470.77 907.65,470.77 914.19,470.77 920.74,470.77 927.28,470.77 933.82,470.77 940.37,462.09 946.91,462.09 953.46,464.35 960.0,464.35" opacity="0.82"/>
<polyline fill="none" stroke="#f3a712" stroke-width="1.6" points="70.0,463.46 76.54,505.08 83.09,532.92 89.63,532.92 96.18,520.52 102.72,520.52 109.26,520.52 115.81,490.19 122.35,490.19 128.9,496.67 135.44,496.67 141.99,496.67 148.53,496.67 155.07,496.67 161.62,496.67 168.16,496.67 174.71,496.67 181.25,496.67 187.79,496.67 194.34,496.67 200.88,496.67 207.43,496.67 213.97,496.67 220.51,496.67 227.06,496.67 233.6,496.67 240.15,496.67 246.69,496.67 253.24,496.67 259.78,494.02 266.32,475.14 272.87,475.14 279.41,475.14 285.96,475.14 292.5,498.15 299.04,498.15 305.59,497.47 312.13,484.52 318.68,484.52 325.22,484.52 331.76,484.52 338.31,484.52 344.85,484.52 351.4,484.52 357.94,461.0 364.49,461.0 371.03,461.0 377.57,461.0 384.12,461.0 390.66,461.0 397.21,461.0 403.75,461.0 410.29,461.0 416.84,461.0 423.38,514.36 429.93,525.13 436.47,499.11 443.01,509.75 449.56,519.96 456.1,512.8 462.65,512.8 469.19,512.8 475.74,512.8 482.28,512.8 488.82,512.8 495.37,512.32 501.91,512.32 508.46,512.32 515.0,512.32 521.54,510.97 528.09,506.82 534.63,506.82 541.18,518.17 547.72,517.83 554.26,500.14 560.81,500.14 567.35,500.14 573.9,498.28 580.44,491.62 586.99,491.62 593.53,491.62 600.07,491.62 606.62,491.62 613.16,491.62 619.71,491.62 626.25,491.62 632.79,491.62 639.34,494.79 645.88,478.53 652.43,496.67 658.97,499.36 665.51,503.53 672.06,497.14 678.6,497.14 685.15,497.14 691.69,510.46 698.24,494.31 704.78,502.29 711.32,502.18 717.87,502.18 724.41,512.45 730.96,509.12 737.5,497.73 744.04,501.52 750.59,501.52 757.13,500.35 763.68,498.88 770.22,498.88 776.76,498.89 783.31,498.89 789.85,500.55 796.4,500.55 802.94,503.06 809.49,497.14 816.03,497.14 822.57,497.14 829.12,497.14 835.66,497.14 842.21,497.14 848.75,497.14 855.29,500.01 861.84,496.61 868.38,496.61 874.93,496.61 881.47,496.61 888.01,496.61 894.56,496.61 901.1,487.35 907.65,487.35 914.19,487.35 920.74,487.35 927.28,487.35 933.82,487.35 940.37,487.35 946.91,487.35 953.46,487.35 960.0,487.35" opacity="0.82"/>
</svg>
