<svg xmlns="http://www.w3.org/2000/svg" width="900" height="420" viewBox="0 0 900 420">
<rect x="0" y="0" width="900" height="420" fill="#ffffff"/>
<text x="450" y="26" text-anchor="middle" font-family="monospace" font-size="18">Calibration Score History</text>
<line x1="70.0" y1="375.0" x2="880.0" y2="375.0" stroke="#444" stroke-width="1.5"/>
<line x1="70.0" y1="45.0" x2="70.0" y2="375.0" stroke="#444" stroke-width="1.5"/>
<polyline fill="none" stroke="#1f77b4" stroke-width="2" points="70.0,374.38 70.68,374.38 71.35,374.38 72.03,374.38 72.7,374.38 73.38,374.38 74.05,358.45 74.72,358.45 75.4,358.45 76.08,358.45 76.75,358.45 77.42,358.45 78.1,358.45 78.78,358.45 79.45,371.26 80.12,371.26 80.8,263.23 81.47,263.23 82.15,292.93 82.82,292.93 83.5,292.93 84.18,203.98 84.85,203.98 85.52,146.49 86.2,171.91 86.88,371.67 87.55,371.67 88.22,267.59 88.9,267.59 89.58,267.59 90.25,338.99 90.92,210.79 91.6,210.79 92.28,374.2 92.95,374.2 93.62,374.2 94.3,374.2 94.98,374.2 95.65,285.13 96.32,370.57 97.0,370.57 97.68,370.57 98.35,370.57 99.02,370.57 99.7,370.57 100.38,370.57 101.05,370.57 101.72,353.76 102.4,353.76 103.08,262.44 103.75,146.07 104.42,224.28 105.1,224.28 105.78,308.86 106.45,308.86 107.12,308.86 107.8,308.86 108.48,308.86 109.15,308.86 109.82,308.86 110.5,308.86 111.18,308.86 111.85,308.86 112.52,374.77 113.2,374.77 113.88,375.0 114.55,375.0 115.22,375.0 115.9,375.0 116.58,375.0 117.25,375.0 117.92,375.0 118.6,375.0 119.28,375.0 119.95,375.0 120.62,375.0 121.3,345.08 121.98,345.08 122.65,289.95 123.32,325.42 124.0,325.42 124.68,303.02 125.35,303.02 126.02,303.02 126.7,303.02 127.38,303.02 128.05,289.58 128.72,289.58 129.4,289.58 130.07,289.58 130.75,289.58 131.43,289.58 132.1,264.7 132.78,350.78 133.45,350.78 134.12,286.26 134.8,286.26 135.48,286.26 136.15,286.26 136.82,358.98 137.5,358.98 138.18,358.98 138.85,222.57 139.52,222.57 140.2,345.18 140.88,345.18 141.55,238.34 142.22,238.34 142.9,329.96 143.57,371.65 144.25,371.65 144.93,371.65 145.6,345.16 146.28,345.16 146.95,345.16 147.62,345.16 148.3,345.16 148.98,374.85 149.65,349.69 150.32,349.69 151.0,349.69 151.68,349.69 152.35,373.46 153.02,373.46 153.7,373.46 154.38,373.46 155.05,373.46 155.72,373.16 156.4,373.16 157.07,373.16 157.75,373.16 158.43,252.66 159.1,292.99 159.78,292.99 160.45,311.78 161.12,311.78 161.8,311.78 162.48,311.78 163.15,311.78 163.82,311.78 164.5,311.78 165.18,311.78 165.85,311.78 166.52,338.39 167.2,338.39 167.88,338.39 168.55,373.93 169.22,373.93 169.9,373.93 170.58,373.93 171.25,373.68 171.92,373.68 172.6,373.68 173.28,373.68 173.95,373.68 174.62,373.68 175.3,371.95 175.98,371.95 176.65,371.95 177.32,360.86 178.0,360.86 178.68,360.86 179.35,347.68 180.02,347.68 180.7,347.68 181.38,347.68 182.05,308.46 182.72,303.43 183.4,222.57 184.08,188.8 184.75,280.91 185.42,280.91 186.1,349.02 186.78,349.02 187.45,349.02 188.12,349.02 188.8,350.36 189.48,350.36 190.15,350.36 190.82,350.36 191.5,350.36 192.18,350.36 192.85,350.36 193.52,372.29 194.2,372.29 194.88,372.29 195.55,372.29 196.22,372.29 196.9,372.29 197.58,372.29 198.25,372.29 198.92,374.77 199.6,372.96 200.28,372.96 200.95,369.37 201.62,369.37 202.3,369.37 202.98,369.37 203.65,369.37 204.32,369.37 205.0,368.59 205.68,372.51 206.35,372.51 207.02,372.51 207.7,329.6 208.38,369.76 209.05,369.76 209.72,315.1 210.4,315.1 211.08,315.1 211.75,315.1 212.42,315.1 213.1,315.1 213.78,315.19 214.45,315.19 215.12,315.19 215.8,281.59 216.48,264.54 217.15,264.54 217.82,264.54 218.5,264.54 219.18,264.54 219.85,264.54 220.52,312.89 221.2,362.81 221.88,293.17 222.55,293.17 223.22,358.82 223.9,358.82 224.58,350.21 225.25,350.21 225.92,350.21 226.6,350.21 227.28,350.21 227.95,350.21 228.62,350.21 229.3,350.21 229.98,350.21 230.65,249.08 231.32,225.57 232.0,225.57 232.68,369.97 233.35,369.97 234.02,361.25 234.7,311.28 235.38,311.28 236.05,311.28 236.72,372.79 237.4,372.79 238.08,372.79 238.75,371.08 239.42,284.95 240.1,355.28 240.78,373.33 241.45,374.09 242.12,374.09 242.8,357.25 243.48,357.25 244.15,375.0 244.82,375.0 245.5,375.0 246.18,311.2 246.85,311.2 247.52,311.2 248.2,353.13 248.88,353.13 249.55,305.15 250.22,305.15 250.9,305.15 251.58,305.15 252.25,336.33 252.92,331.82 253.6,368.23 254.28,368.23 254.95,374.65 255.62,368.41 256.3,368.41 256.98,368.41 257.65,354.52 258.32,354.52 259.0,354.52 259.68,354.52 260.35,354.52 261.02,354.52 261.7,354.52 262.38,354.52 263.05,328.54 263.73,315.2 264.4,315.2 265.08,369.95 265.75,369.95 266.42,369.95 267.1,126.27 267.77,368.36 268.45,368.36 269.12,318.44 269.8,318.44 270.48,370.09 271.15,284.9 271.82,284.9 272.5,374.77 273.18,374.77 273.85,374.77 274.52,374.77 275.2,374.77 275.88,374.77 276.55,374.77 277.23,362.67 277.9,362.67 278.58,362.67 279.25,315.2 279.92,315.2 280.6,326.29 281.27,326.29 281.95,338.05 282.62,338.05 283.3,353.58 283.98,344.33 284.65,364.16 285.32,364.16 286.0,367.44 286.68,367.44 287.35,367.44 288.02,367.44 288.7,367.44 289.38,367.44 290.05,374.89 290.73,374.89 291.4,374.89 292.08,357.6 292.75,363.7 293.42,304.58 294.1,304.58 294.77,304.58 295.45,304.58 296.12,304.58 296.8,304.58 297.48,304.58 298.15,304.58 298.82,304.58 299.5,304.58 300.18,304.58 300.85,370.82 301.52,370.82 302.2,370.82 302.88,370.82 303.55,370.82 304.23,248.46 304.9,303.55 305.58,303.55 306.25,303.55 306.92,303.55 307.6,371.76 308.27,371.76 308.95,371.76 309.62,364.9 310.3,364.9 310.98,372.25 311.65,372.25 312.32,372.25 313.0,372.25 313.68,372.25 314.35,372.25 315.02,372.25 315.7,372.25 316.38,367.64 317.05,358.46 317.73,358.46 318.4,358.46 319.08,358.46 319.75,358.46 320.42,152.93 321.1,278.32 321.77,353.4 322.45,280.6 323.12,280.6 323.8,278.75 324.48,273.21 325.15,273.21 325.82,273.21 326.5,273.21 327.18,273.21 327.85,273.21 328.52,110.84 329.2,264.23 329.88,57.19 330.55,57.19 331.22,285.18 331.9,370.09 332.58,352.87 333.25,352.87 333.92,352.87 334.6,370.61 335.28,370.61 335.95,370.61 336.62,370.61 337.3,370.61 337.98,370.61 338.65,372.85 339.32,348.63 340.0,335.15 340.68,335.15 341.35,335.15 342.02,212.53 342.7,339.93 343.38,370.85 344.05,370.85 344.72,370.85 345.4,374.52 346.08,374.52 346.75,374.52 347.42,374.52 348.1,374.52 348.78,362.88 349.45,362.88 350.12,362.88 350.8,362.88 351.48,362.88 352.15,362.88 352.82,362.88 353.5,362.13 354.18,362.13 354.85,362.13 355.52,362.13 356.2,362.13 356.88,337.39 357.55,337.39 358.22,364.95 358.9,372.21 359.58,273.15 360.25,273.15 360.92,273.15 361.6,273.15 362.28,273.15 362.95,273.15 363.62,322.14 364.3,352.82 364.98,352.82 365.65,352.82 366.32,350.0 367.0,354.8 367.68,354.8 368.35,355.82 369.02,341.07 369.7,341.07 370.38,341.07 371.05,339.41 371.72,339.41 372.4,271.59 373.08,271.59 373.75,330.06 374.42,330.06 375.1,330.06 375.78,329.41 376.45,350.57 377.12,363.72 377.8,363.72 378.48,363.72 379.15,363.72 379.82,341.52 380.5,311.72 381.18,222.57 381.85,310.92 382.52,358.35 383.2,358.35 383.88,358.35 384.55,323.55 385.22,374.89 385.9,338.03 386.58,375.0 387.25,375.0 387.92,375.0 388.6,375.0 389.28,375.0 389.95,375.0 390.62,375.0 391.3,325.42 391.98,325.42 392.65,365.14 393.32,365.14 394.0,365.14 394.68,365.14 395.35,365.14 396.02,365.14 396.7,373.18 397.38,374.86 398.05,345.22 398.72,345.22 399.4,345.22 400.08,375.0 400.75,375.0 401.42,375.0 402.1,375.0 402.78,375.0 403.45,375.0 404.12,368.35 404.8,358.93 405.48,375.0 406.15,375.0 406.82,362.67 407.5,362.67 408.18,369.86 408.85,369.86 409.52,369.86 410.2,369.86 410.88,242.72 411.55,333.03 412.22,333.03 412.9,274.77 413.58,274.77 414.25,274.77 414.92,274.77 415.6,274.77 416.28,274.77 416.95,274.77 417.62,274.77 418.3,274.77 418.98,112.72 419.65,247.69 420.32,247.69 421.0,254.64 421.68,371.08 422.35,371.08 423.02,371.08 423.7,371.08 424.38,371.08 425.05,371.08 425.72,371.08 426.4,371.08 427.08,371.08 427.75,371.08 428.42,183.68 429.1,171.91 429.78,366.17 430.45,366.17 431.12,366.17 431.8,366.17 432.48,374.93 433.15,370.82 433.82,373.29 434.5,331.97 435.18,331.97 435.85,331.97 436.52,331.97 437.2,365.67 437.88,365.67 438.55,343.72 439.22,228.47 439.9,228.47 440.58,359.2 441.25,277.87 441.92,277.87 442.6,303.4 443.28,303.4 443.95,303.4 444.62,303.4 445.3,358.34 445.98,358.34 446.65,318.91 447.32,318.91 448.0,183.32 448.68,318.53 449.35,318.53 450.02,318.53 450.7,318.53 451.38,318.53 452.05,318.53 452.72,367.01 453.4,357.59 454.08,357.59 454.75,357.59 455.42,349.31 456.1,349.31 456.78,340.8 457.45,340.8 458.12,340.8 458.8,340.8 459.48,340.8 460.15,340.8 460.82,364.26 461.5,364.26 462.18,332.25 462.85,332.25 463.52,267.37 464.2,267.37 464.88,267.37 465.55,267.37 466.22,267.37 466.9,250.45 467.58,374.71 468.25,374.71 468.92,374.71 469.6,374.71 470.28,375.0 470.95,264.69 471.62,264.69 472.3,264.69 472.98,264.69 473.65,264.69 474.32,264.69 475.0,264.69 475.68,110.99 476.35,170.97 477.02,203.18 477.7,131.09 478.38,235.72 479.05,110.97 479.72,324.1 480.4,309.91 481.08,309.91 481.75,350.79 482.42,350.79 483.1,350.79 483.78,362.76 484.45,362.76 485.12,323.55 485.8,323.55 486.48,45.0 487.15,45.0 487.82,279.89 488.5,279.89 489.18,369.27 489.85,369.27 490.52,370.68 491.2,370.68 491.88,370.68 492.55,373.17 493.22,373.17 493.9,344.39 494.58,344.39 495.25,344.39 495.92,344.39 496.6,344.39 497.28,344.39 497.95,344.39 498.62,371.08 499.3,373.0 499.98,373.0 500.65,373.0 501.32,374.52 502.0,374.52 502.68,374.52 503.35,374.52 504.02,374.52 504.7,374.52 505.38,374.52 506.05,348.4 506.72,279.89 507.4,279.89 508.08,279.89 508.75,333.6 509.42,257.87 510.1,257.87 510.78,207.39 511.45,365.16 512.12,365.16 512.8,365.16 513.48,365.16 514.15,365.16 514.83,350.21 515.5,350.21 516.17,360.21 516.85,360.21 517.52,324.49 518.2,348.46 518.88,348.46 519.55,346.21 520.22,346.21 520.9,362.76 521.58,346.29 522.25,374.73 522.92,374.73 523.6,374.77 524.28,374.77 524.95,374.77 525.62,349.99 526.3,349.99 526.98,289.9 527.65,289.9 528.33,289.9 529.0,289.9 529.67,340.07 530.35,370.7 531.02,364.5 531.7,364.5 532.38,364.5 533.05,364.5 533.72,364.5 534.4,364.5 535.08,364.5 535.75,364.5 536.42,364.5 537.1,364.5 537.78,364.5 538.45,364.5 539.12,364.5 539.8,244.42 540.48,244.42 541.15,244.42 541.83,244.42 542.5,244.42 543.17,244.42 543.85,330.21 544.52,330.21 545.2,330.21 545.88,328.09 546.55,328.09 547.22,328.09 547.9,365.14 548.58,365.14 549.25,171.91 549.92,171.91 550.6,153.32 551.28,268.12 551.95,268.12 552.62,268.12 553.3,268.12 553.98,268.12 554.65,268.12 555.33,268.12 556.0,285.18 556.67,221.53 557.35,346.21 558.02,371.08 558.7,371.08 559.38,371.08 560.05,371.08 560.72,371.08 561.4,335.15 562.08,373.0 562.75,373.0 563.42,373.0 564.1,373.0 564.78,373.0 565.45,373.0 566.12,373.0 566.8,358.27 567.48,358.27 568.15,358.27 568.83,358.27 569.5,358.27 570.17,358.27 570.85,358.27 571.52,323.55 572.2,323.55 572.88,323.55 573.55,323.55 574.22,350.03 574.9,338.84 575.58,338.6 576.25,338.6 576.92,330.19 577.6,330.19 578.28,362.41 578.95,292.33 579.62,292.33 580.3,292.33 580.98,292.33 581.65,292.33 582.33,302.32 583.0,144.04 583.67,66.86 584.35,221.96 585.02,153.08 585.7,223.99 586.38,153.31 587.05,257.88 587.72,257.88 588.4,257.88 589.08,239.39 589.75,339.76 590.42,339.76 591.1,339.76 591.78,370.8 592.45,370.8 593.12,311.35 593.8,311.12 594.48,311.12 595.15,311.12 595.83,311.12 596.5,371.08 597.17,371.08 597.85,371.08 598.52,371.08 599.2,371.08 599.88,371.08 600.55,207.39 601.22,282.62 601.9,311.78 602.58,311.78 603.25,311.28 603.92,311.28 604.6,311.28 605.28,311.28 605.95,311.28 606.62,364.17 607.3,364.17 607.98,364.17 608.65,285.13 609.33,285.13 610.0,285.13 610.67,361.86 611.35,361.86 612.02,361.86 612.7,361.86 613.38,361.86 614.05,368.72 614.72,368.72 615.4,296.89 616.08,296.89 616.75,296.89 617.42,296.89 618.1,296.89 618.78,309.86 619.45,369.46 620.12,348.56 620.8,364.74 621.48,332.19 622.15,370.66 622.83,373.6 623.5,373.6 624.17,373.6 624.85,373.6 625.52,367.97 626.2,367.97 626.88,352.12 627.55,297.84 628.22,368.35 628.9,368.35 629.58,368.35 630.25,368.35 630.92,367.46 631.6,344.06 632.28,261.71 632.95,188.43 633.62,164.12 634.3,272.29 634.98,358.21 635.65,302.3 636.33,302.3 637.0,302.3 637.67,302.3 638.35,302.3 639.02,355.91 639.7,355.91 640.38,355.91 641.05,302.3 641.72,335.37 642.4,335.37 643.08,369.93 643.75,343.76 644.42,343.76 645.1,354.97 645.78,337.96 646.45,337.96 647.12,125.6 647.8,125.6 648.48,125.6 649.15,125.6 649.83,277.13 650.5,234.94 651.17,234.94 651.85,234.94 652.52,364.02 653.2,364.02 653.88,359.58 654.55,359.58 655.22,359.58 655.9,359.58 656.58,305.19 657.25,305.19 657.92,341.9 658.6,341.9 659.28,341.9 659.95,341.9 660.62,357.69 661.3,361.09 661.98,369.9 662.65,361.93 663.32,342.55 664.0,357.48 664.68,357.48 665.35,357.48 666.02,296.93 666.7,296.93 667.38,296.93 668.05,296.93 668.72,354.03 669.4,317.09 670.08,333.67 670.75,333.67 671.42,333.67 672.1,233.07 672.78,233.07 673.45,284.91 674.12,350.1 674.8,352.64 675.48,352.64 676.15,352.64 676.82,368.86 677.5,368.86 678.18,370.99 678.85,370.99 679.52,370.99 680.2,370.99 680.88,349.98 681.55,367.16 682.22,362.83 682.9,348.23 683.58,362.76 684.25,362.76 684.92,373.33 685.6,340.35 686.28,360.23 686.95,346.26 687.62,310.99 688.3,364.91 688.98,358.49 689.65,358.89 690.32,362.9 691.0,362.9 691.68,362.9 692.35,350.21 693.02,358.98 693.7,332.8 694.38,375.0 695.05,374.86 695.72,323.42 696.4,375.0 697.08,167.56 697.75,333.0 698.42,333.0 699.1,367.08 699.78,190.34 700.45,190.34 701.12,298.77 701.8,331.72 702.48,285.6 703.15,290.32 703.82,369.42 704.5,369.42 705.18,369.59 705.85,369.59 706.52,318.41 707.2,330.31 707.88,330.31 708.55,368.69 709.22,352.47 709.9,369.64 710.58,369.64 711.25,331.79 711.92,331.79 712.6,372.41 713.28,372.41 713.95,364.93 714.62,349.05 715.3,371.35 715.98,372.35 716.65,372.35 717.32,368.25 718.0,372.85 718.68,369.1 719.35,372.26 720.02,373.18 720.7,373.18 721.38,323.4 722.05,358.16 722.72,337.42 723.4,363.84 724.08,368.76 724.75,373.34 725.42,373.34 726.1,373.34 726.78,322.25 727.45,340.05 728.12,253.85 728.8,310.91 729.48,305.04 730.15,339.19 730.82,279.56 731.5,221.96 732.18,203.92 732.85,203.92 733.52,236.02 734.2,266.24 734.88,239.45 735.55,279.83 736.22,348.14 736.9,289.95 737.58,289.95 738.25,222.47 738.92,207.3 739.6,239.21 740.28,358.06 740.95,304.96 741.62,323.55 742.3,348.52 742.98,348.52 743.65,348.52 744.32,348.52 745.0,348.52 745.68,374.38 746.35,374.38 747.02,374.38 747.7,374.38 748.38,362.42 749.05,362.42 749.72,359.3 750.4,374.71 751.08,370.8 751.75,370.93 752.42,371.08 753.1,374.77 753.78,371.02 754.45,371.02 755.12,374.64 755.8,375.0 756.48,375.0 757.15,350.21 757.82,371.03 758.5,371.04 759.18,371.04 759.85,350.14 760.52,350.14 761.2,350.14 761.88,349.75 762.55,370.7 763.22,370.65 763.9,362.87 764.58,349.66 765.25,358.49 765.92,350.11 766.6,349.92 767.28,374.73 767.95,374.74 768.62,375.0 769.3,374.86 769.98,358.49 770.65,346.34 771.32,371.08 772.0,373.33 772.68,330.17 773.35,353.35 774.02,374.71 774.7,365.14 775.38,355.28 776.05,330.2 776.72,333.62 777.4,311.76 778.08,311.78 778.75,355.28 779.42,355.28 780.1,355.28 780.78,370.09 781.45,374.75 782.12,374.93 782.8,330.21 783.48,330.21 784.15,369.04 784.82,369.04 785.5,374.85 786.18,374.83 786.85,370.09 787.52,350.13 788.2,368.19 788.88,368.19 789.55,365.08 790.22,365.0 790.9,365.0 791.58,353.58 792.25,368.42 792.92,364.91 793.6,374.59 794.28,368.42 794.95,368.42 795.62,374.77 796.3,325.11 796.98,375.0 797.65,375.0 798.32,369.41 799.0,369.41 799.68,375.0 800.35,365.0 801.02,358.49 801.7,348.63 802.38,375.0 803.05,375.0 803.72,374.99 804.4,342.33 805.08,375.0 805.75,373.33 806.42,362.9 807.1,360.99 807.78,374.92 808.45,374.92 809.12,350.12 809.8,365.15 810.48,360.23 811.15,353.58 811.82,370.85 812.5,374.77 813.18,374.38 813.85,374.38 814.52,374.38 815.2,374.38 815.88,374.38 816.55,374.38 817.22,337.38 817.9,280.79 818.58,280.79 819.25,280.79 819.92,280.79 820.6,349.94 821.28,349.94 821.95,367.16 822.62,367.16 823.3,308.24 823.98,337.55 824.65,306.26 825.32,306.26 826.0,306.26 826.68,194.27 827.35,362.54 828.02,325.36 828.7,325.36 829.38,286.56 830.05,286.56 830.72,286.56 831.4,218.95 832.08,272.88 832.75,325.27 833.42,325.27 834.1,177.24 834.78,332.8 835.45,301.41 836.12,242.29 836.8,155.26 837.48,74.64 838.15,243.09 838.82,272.5 839.5,243.16 840.18,221.5 840.85,221.5 841.52,221.5 842.2,286.08 842.88,286.08 843.55,246.39 844.22,246.39 844.9,218.37 845.58,218.37 846.25,328.63 846.92,328.63 847.6,328.63 848.28,346.26 848.95,346.26 849.62,346.26 850.3,337.3 850.98,348.67 851.65,307.43 852.32,307.43 853.0,299.04 853.68,320.34 854.35,325.39 855.02,325.39 855.7,299.15 856.38,229.67 857.05,350.34 857.72,350.34 858.4,370.85 859.08,370.85 859.75,260.34 860.42,371.08 861.1,332.92 861.78,371.08 862.45,371.08 863.12,371.08 863.8,320.93 864.48,254.39 865.15,286.51 865.82,370.54 866.5,291.06 867.18,375.0 867.85,325.37 868.52,374.88 869.2,358.94 869.88,349.97 870.55,349.97 871.22,349.97 871.9,371.08 872.58,374.31 873.25,350.2 873.92,375.0 874.6,375.0 875.28,372.87 875.95,361.19 876.62,374.63 877.3,369.63 877.98,311.12 878.65,362.76 879.32,311.11 880.0,362.67"/>
</svg>
