<svg xmlns="http://www.w3.org/2000/svg" width="900" height="420" viewBox="0 0 900 420">
<rect x="0" y="0" width="900" height="420" fill="#ffffff"/>
<text x="450" y="26" text-anchor="middle" font-family="monospace" font-size="18">Calibration Score History</text>
<line x1="70.0" y1="375.0" x2="880.0" y2="375.0" stroke="#444" stroke-width="1.5"/>
<line x1="70.0" y1="45.0" x2="70.0" y2="375.0" stroke="#444" stroke-width="1.5"/>
<polyline fill="none" stroke="#1f77b4" stroke-width="2" points="70.0,206.72 72.11,206.72 74.22,206.72 76.33,206.72 78.44,224.06 80.55,367.7 82.66,276.78 84.77,319.02 86.88,319.02 88.98,319.02 91.09,319.02 93.2,319.02 95.31,319.02 97.42,366.57 99.53,366.57 101.64,366.57 103.75,343.1 105.86,343.1 107.97,343.1 110.08,343.1 112.19,292.08 114.3,237.51 116.41,237.51 118.52,223.59 120.62,223.59 122.73,203.13 124.84,203.13 126.95,349.53 129.06,349.53 131.17,349.53 133.28,357.91 135.39,357.91 137.5,357.91 139.61,362.32 141.72,362.32 143.83,362.32 145.94,362.32 148.05,318.33 150.16,356.32 152.27,360.12 154.38,360.12 156.48,360.12 158.59,360.12 160.7,360.12 162.81,360.12 164.92,360.12 167.03,360.12 169.14,359.79 171.25,359.79 173.36,359.79 175.47,346.87 177.58,346.87 179.69,346.87 181.8,346.87 183.91,346.87 186.02,351.3 188.12,351.3 190.23,351.3 192.34,351.3 194.45,278.81 196.56,278.81 198.67,278.81 200.78,278.81 202.89,278.81 205.0,291.86 207.11,291.86 209.22,291.86 211.33,291.86 213.44,291.86 215.55,291.86 217.66,318.39 219.77,318.39 221.88,318.39 223.98,290.45 226.09,290.45 228.2,311.19 230.31,311.19 232.42,311.19 234.53,234.4 236.64,367.74 238.75,367.74 240.86,367.74 242.97,367.74 245.08,337.95 247.19,337.95 249.3,337.95 251.41,273.22 253.52,273.22 255.62,273.22 257.73,313.43 259.84,313.43 261.95,313.43 264.06,313.43 266.17,313.43 268.28,313.43 270.39,313.43 272.5,313.43 274.61,313.43 276.72,313.43 278.83,313.43 280.94,313.43 283.05,313.43 285.16,313.43 287.27,313.43 289.38,313.43 291.48,313.43 293.59,356.73 295.7,356.73 297.81,356.73 299.92,45.0 302.03,316.91 304.14,280.19 306.25,330.19 308.36,330.19 310.47,330.19 312.58,344.27 314.69,344.27 316.8,344.27 318.91,344.27 321.02,344.27 323.12,344.27 325.23,344.27 327.34,366.04 329.45,366.04 331.56,366.04 333.67,366.04 335.78,366.04 337.89,295.07 340.0,295.07 342.11,295.07 344.22,295.07 346.33,295.07 348.44,293.27 350.55,293.27 352.66,293.27 354.77,293.27 356.88,293.27 358.98,293.27 361.09,293.27 363.2,293.27 365.31,293.27 367.42,293.27 369.53,293.27 371.64,306.89 373.75,306.89 375.86,306.89 377.97,349.03 380.08,349.03 382.19,349.03 384.3,349.03 386.41,350.12 388.52,350.12 390.62,350.12 392.73,350.12 394.84,350.12 396.95,323.39 399.06,323.39 401.17,323.39 403.28,323.39 405.39,323.39 407.5,323.39 409.61,323.39 411.72,323.39 413.83,323.39 415.94,312.79 418.05,311.92 420.16,311.92 422.27,311.92 424.38,299.37 426.48,307.09 428.59,346.52 430.7,302.03 432.81,302.03 434.92,302.03 437.03,302.03 439.14,302.03 441.25,314.87 443.36,315.95 445.47,315.95 447.58,315.95 449.69,315.95 451.8,315.95 453.91,315.95 456.02,315.95 458.12,315.95 460.23,315.95 462.34,315.95 464.45,315.95 466.56,315.95 468.67,315.95 470.78,315.95 472.89,315.95 475.0,315.95 477.11,366.04 479.22,358.03 481.33,358.03 483.44,358.03 485.55,358.03 487.66,358.03 489.77,358.03 491.88,367.79 493.98,358.42 496.09,358.42 498.2,358.42 500.31,347.6 502.42,355.47 504.53,357.65 506.64,363.14 508.75,363.14 510.86,366.01 512.97,363.7 515.08,363.7 517.19,363.7 519.3,354.08 521.41,321.29 523.52,321.29 525.62,331.96 527.73,296.42 529.84,296.42 531.95,296.42 534.06,334.75 536.17,334.75 538.28,334.75 540.39,334.75 542.5,334.75 544.61,334.75 546.72,355.56 548.83,355.56 550.94,355.56 553.05,349.04 555.16,349.04 557.27,349.04 559.38,349.04 561.48,355.19 563.59,355.19 565.7,355.19 567.81,355.19 569.92,355.71 572.03,304.43 574.14,317.96 576.25,317.96 578.36,356.49 580.47,356.49 582.58,343.68 584.69,306.63 586.8,306.63 588.91,299.17 591.02,298.36 593.12,298.22 595.23,298.22 597.34,308.97 599.45,290.18 601.56,300.64 603.67,307.01 605.78,320.61 607.89,349.24 610.0,348.32 612.11,348.32 614.22,313.16 616.33,313.16 618.44,313.16 620.55,294.67 622.66,299.4 624.77,299.4 626.88,269.16 628.98,220.85 631.09,254.6 633.2,314.67 635.31,346.45 637.42,345.07 639.53,344.63 641.64,346.69 643.75,346.44 645.86,361.89 647.97,363.45 650.08,356.03 652.19,356.03 654.3,327.37 656.41,348.57 658.52,285.53 660.62,285.53 662.73,295.45 664.84,307.87 666.95,307.87 669.06,363.19 671.17,363.19 673.28,347.47 675.39,309.51 677.5,309.51 679.61,356.49 681.72,356.49 683.83,344.72 685.94,355.23 688.05,345.06 690.16,343.32 692.27,349.45 694.38,330.96 696.48,330.49 698.59,347.75 700.7,349.86 702.81,349.86 704.92,348.06 707.03,348.71 709.14,360.98 711.25,361.38 713.36,345.31 715.47,340.56 717.58,339.21 719.69,339.21 721.8,345.55 723.91,347.61 726.02,347.61 728.12,346.26 730.23,344.03 732.34,341.99 734.45,354.57 736.56,339.84 738.67,356.17 740.78,354.59 742.89,363.41 745.0,359.84 747.11,360.72 749.22,361.79 751.33,362.16 753.44,362.5 755.55,361.25 757.66,363.94 759.77,363.37 761.88,359.96 763.98,357.25 766.09,357.45 768.2,357.26 770.31,343.73 772.42,344.13 774.53,344.13 776.64,344.13 778.75,344.13 780.86,363.11 782.97,362.51 785.08,362.36 787.19,363.62 789.3,364.19 791.41,364.21 793.52,363.38 795.62,363.0 797.73,363.78 799.84,364.58 801.95,364.27 804.06,353.48 806.17,375.0 808.28,354.49 810.39,356.85 812.5,356.85 814.61,355.8 816.72,341.51 818.83,340.81 820.94,356.86 823.05,341.0 825.16,356.53 827.27,341.4 829.38,356.86 831.48,356.41 833.59,341.14 835.7,345.37 837.81,354.48 839.92,355.68 842.03,356.33 844.14,343.17 846.25,343.06 848.36,356.71 850.47,355.68 852.58,355.05 854.69,353.64 856.8,354.91 858.91,354.91 861.02,354.66 863.12,354.92 865.23,354.37 867.34,355.38 869.45,354.45 871.56,354.83 873.67,355.6 875.78,357.71 877.89,342.44 880.0,341.09"/>
</svg>
