<svg xmlns="http://www.w3.org/2000/svg" width="980" height="580" viewBox="0 0 980 580">
<rect x="0" y="0" width="980" height="580" fill="#ffffff"/>
<text x="490" y="26" text-anchor="middle" font-family="monospace" font-size="18">Posterior Trace Diagnostics</text>
<line x1="70.0" y1="190.0" x2="960.0" y2="190.0" stroke="#444" stroke-width="1.2"/>
<line x1="70.0" y1="45.0" x2="70.0" y2="190.0" stroke="#444" stroke-width="1.2"/>
<text x="70.0" y="37.0" font-family="monospace" font-size="12">alpha_EMT</text>
<polyline fill="none" stroke="#1f77b4" stroke-width="1.6" points="70.0,121.85 72.32,113.48 74.64,113.48 76.95,118.47 79.27,118.47 81.59,118.47 83.91,111.14 86.22,111.14 88.54,111.14 90.86,111.14 93.18,111.14 95.49,111.14 97.81,111.14 100.13,124.49 102.45,124.49 104.77,124.49 107.08,124.49 109.4,124.49 111.72,124.49 114.04,124.49 116.35,124.49 118.67,124.49 120.99,124.49 123.31,124.49 125.62,124.49 127.94,124.49 130.26,124.49 132.58,124.49 134.9,124.49 137.21,124.49 139.53,124.49 141.85,105.92 144.17,105.92 146.48,123.29 148.8,123.29 151.12,123.93 153.44,123.93 155.76,143.53 158.07,143.53 160.39,143.53 162.71,143.53 165.03,143.53 167.34,143.53 169.66,143.53 171.98,143.53 174.3,161.37 176.61,141.36 178.93,145.89 181.25,145.89 183.57,145.89 185.89,145.89 188.2,145.89 190.52,145.89 192.84,139.58 195.16,139.58 197.47,139.58 199.79,130.18 202.11,130.18 204.43,130.18 206.74,130.18 209.06,117.88 211.38,114.93 213.7,114.93 216.02,114.93 218.33,114.93 220.65,126.17 222.97,146.11 225.29,146.11 227.6,146.11 229.92,146.11 232.24,140.14 234.56,140.14 236.88,140.14 239.19,152.91 241.51,157.25 243.83,157.25 246.15,163.63 248.46,163.63 250.78,152.7 253.1,138.57 255.42,138.57 257.73,138.57 260.05,138.57 262.37,138.57 264.69,138.57 267.01,138.57 269.32,138.57 271.64,138.57 273.96,138.57 276.28,140.84 278.59,140.84 280.91,140.84 283.23,140.84 285.55,140.84 287.86,140.84 290.18,140.84 292.5,140.84 294.82,140.84 297.14,140.84 299.45,140.84 301.77,140.84 304.09,140.84 306.41,140.84 308.72,139.31 311.04,139.31 313.36,139.31 315.68,139.31 317.99,139.31 320.31,143.04 322.63,143.04 324.95,143.04 327.27,143.04 329.58,148.26 331.9,151.21 334.22,166.84 336.54,176.11 338.85,176.11 341.17,163.77 343.49,163.77 345.81,163.77 348.12,163.77 350.44,163.77 352.76,163.77 355.08,172.04 357.4,172.04 359.71,172.04 362.03,177.32 364.35,177.32 366.67,177.32 368.98,177.32 371.3,177.32 373.62,177.32 375.94,177.32 378.26,177.32 380.57,177.32 382.89,177.32 385.21,179.08 387.53,179.08 389.84,179.08 392.16,185.39 394.48,185.39 396.8,185.39 399.11,185.39 401.43,185.39 403.75,181.26 406.07,173.01 408.39,177.91 410.7,177.91 413.02,177.91 415.34,177.91 417.66,177.91 419.97,177.91 422.29,177.91 424.61,185.82 426.93,185.82 429.24,185.82 431.56,185.82 433.88,190.0 436.2,190.0 438.52,190.0 440.83,190.0 443.15,181.69 445.47,181.69 447.79,181.69 450.1,169.15 452.42,169.15 454.74,169.15 457.06,171.45 459.38,171.45 461.69,171.45 464.01,168.56 466.33,168.56 468.65,168.56 470.96,168.56 473.28,168.56 475.6,168.56 477.92,168.56 480.23,168.56 482.55,163.47 484.87,163.47 487.19,163.47 489.51,163.47 491.82,163.47 494.14,163.47 496.46,163.47 498.78,163.47 501.09,145.56 503.41,145.56 505.73,145.56 508.05,145.56 510.36,145.56 512.68,145.56 515.0,145.56 517.32,124.49 519.64,122.36 521.95,122.36 524.27,122.36 526.59,122.36 528.91,122.36 531.22,122.36 533.54,122.36 535.86,122.36 538.18,122.36 540.49,122.36 542.81,117.34 545.13,117.34 547.45,120.15 549.77,120.15 552.08,120.15 554.4,120.15 556.72,120.15 559.04,120.15 561.35,120.15 563.67,120.15 565.99,120.15 568.31,124.34 570.62,130.87 572.94,130.87 575.26,134.52 577.58,134.52 579.9,134.52 582.21,135.92 584.53,133.68 586.85,133.68 589.17,127.3 591.48,127.3 593.8,138.22 596.12,138.22 598.44,137.8 600.76,144.56 603.07,148.57 605.39,148.57 607.71,144.56 610.03,144.59 612.34,144.59 614.66,144.59 616.98,144.59 619.3,144.59 621.61,144.59 623.93,138.58 626.25,131.05 628.57,126.11 630.89,122.73 633.2,116.66 635.52,107.09 637.84,101.01 640.16,94.97 642.47,95.29 644.79,94.59 647.11,94.41 649.43,94.41 651.74,92.46 654.06,90.56 656.38,88.84 658.7,91.53 661.02,91.53 663.33,91.53 665.65,89.22 667.97,87.67 670.29,87.67 672.6,87.67 674.92,87.67 677.24,88.94 679.56,83.65 681.88,85.63 684.19,81.72 686.51,81.72 688.83,85.08 691.15,88.85 693.46,88.54 695.78,94.06 698.1,94.06 700.42,94.06 702.73,97.52 705.05,102.67 707.37,103.78 709.69,103.36 712.01,106.98 714.32,100.86 716.64,100.86 718.96,99.89 721.28,99.89 723.59,102.31 725.91,102.31 728.23,101.85 730.55,102.12 732.86,102.12 735.18,102.12 737.5,102.12 739.82,122.36 742.14,121.46 744.45,121.36 746.77,120.89 749.09,121.26 751.41,118.08 753.72,118.69 756.04,120.81 758.36,120.78 760.68,121.46 762.99,119.45 765.31,118.65 767.63,118.96 769.95,118.96 772.27,118.28 774.58,115.79 776.9,116.25 779.22,116.05 781.54,116.98 783.85,118.09 786.17,119.31 788.49,120.71 790.81,121.8 793.12,121.58 795.44,122.54 797.76,122.85 800.08,122.48 802.4,121.94 804.71,120.02 807.03,118.71 809.35,116.36 811.67,117.79 813.98,116.96 816.3,118.11 818.62,118.11 820.94,118.11 823.26,120.77 825.57,122.73 827.89,124.4 830.21,122.44 832.53,120.66 834.84,122.58 837.16,121.6 839.48,122.14 841.8,118.81 844.11,119.16 846.43,120.12 848.75,120.67 851.07,121.77 853.39,122.51 855.7,122.2 858.02,122.82 860.34,123.94 862.66,123.58 864.97,123.58 867.29,123.58 869.61,123.58 871.93,123.87 874.24,123.48 876.56,122.87 878.88,122.3 881.2,121.51 883.52,120.95 885.83,120.95 888.15,121.19 890.47,121.08 892.79,120.88 895.1,121.18 897.42,121.56 899.74,122.46 902.06,123.13 904.38,123.5 906.69,122.94 909.01,121.46 911.33,121.05 913.65,121.2 915.96,121.34 918.28,121.34 920.6,121.44 922.92,121.46 925.23,121.46 927.55,121.28 929.87,120.23 932.19,120.21 934.51,119.5 936.82,120.04 939.14,120.38 941.46,120.51 943.78,119.91 946.09,119.67 948.41,118.73 950.73,118.05 953.05,118.93 955.36,118.93 957.68,117.92 960.0,118.46" opacity="0.82"/>
<polyline fill="none" stroke="#e45756" stroke-width="1.6" points="70.0,121.85 72.32,121.85 74.64,121.85 76.95,121.85 79.27,142.4 81.59,160.68 83.91,134.18 86.22,132.06 88.54,132.06 90.86,132.06 93.18,132.06 95.49,132.06 97.81,132.06 100.13,126.58 102.45,126.58 104.77,126.58 107.08,127.39 109.4,127.39 111.72,127.39 114.04,127.39 116.35,141.08 118.67,137.12 120.99,137.12 123.31,162.49 125.62,162.49 127.94,170.49 130.26,170.49 132.58,171.37 134.9,171.37 137.21,171.37 139.53,172.6 141.85,172.6 144.17,172.6 146.48,162.68 148.8,162.68 151.12,162.68 153.44,162.68 155.76,162.72 158.07,163.32 160.39,153.65 162.71,153.65 165.03,153.65 167.34,153.65 169.66,153.65 171.98,153.65 174.3,153.65 176.61,153.65 178.93,155.17 181.25,155.17 183.57,155.17 185.89,149.18 188.2,149.18 190.52,149.18 192.84,149.18 195.16,149.18 197.47,144.39 199.79,144.39 202.11,144.39 204.43,144.39 206.74,123.89 209.06,123.89 211.38,123.89 213.7,123.89 216.02,123.89 218.33,139.93 220.65,139.93 222.97,139.93 225.29,139.93 227.6,139.93 229.92,139.93 232.24,156.14 234.56,156.14 236.88,156.14 239.19,144.08 241.51,144.08 243.83,126.15 246.15,126.15 248.46,126.15 250.78,131.93 253.1,138.85 255.42,138.85 257.73,138.85 260.05,138.85 262.37,127.22 264.69,127.22 267.01,127.22 269.32,114.95 271.64,114.95 273.96,114.95 276.28,115.65 278.59,115.65 280.91,115.65 283.23,115.65 285.55,115.65 287.86,115.65 290.18,115.65 292.5,115.65 294.82,115.65 297.14,115.65 299.45,115.65 301.77,115.65 304.09,115.65 306.41,115.65 308.72,115.65 311.04,115.65 313.36,115.65 315.68,121.27 317.99,121.27 320.31,121.27 322.63,133.12 324.95,148.27 327.27,147.15 329.58,139.46 331.9,139.46 334.22,139.46 336.54,126.97 338.85,126.97 341.17,126.97 343.49,126.97 345.81,126.97 348.12,126.97 350.44,126.97 352.76,134.62 355.08,134.62 357.4,134.62 359.71,134.62 362.03,134.62 364.35,128.5 366.67,128.5 368.98,128.5 371.3,128.5 373.62,128.5 375.94,136.56 378.26,136.56 380.57,136.56 382.89,136.56 385.21,136.56 387.53,136.56 389.84,136.56 392.16,136.56 394.48,136.56 396.8,136.56 399.11,136.56 401.43,121.53 403.75,121.53 406.07,121.53 408.39,135.67 410.7,135.67 413.02,135.67 415.34,135.67 417.66,129.96 419.97,129.96 422.29,129.96 424.61,129.96 426.93,129.96 429.24,118.86 431.56,118.86 433.88,118.86 436.2,118.86 438.52,118.86 440.83,118.86 443.15,118.86 445.47,118.86 447.79,118.86 450.1,122.97 452.42,128.39 454.74,128.39 457.06,128.39 459.38,114.58 461.69,117.61 464.01,124.76 466.33,130.61 468.65,130.61 470.96,130.61 473.28,130.61 475.6,130.61 477.92,135.76 480.23,128.34 482.55,128.34 484.87,128.34 487.19,128.34 489.51,128.34 491.82,128.34 494.14,128.34 496.46,128.34 498.78,128.34 501.09,128.34 503.41,128.34 505.73,128.34 508.05,128.34 510.36,128.34 512.68,128.34 515.0,128.34 517.32,134.62 519.64,141.44 521.95,141.44 524.27,141.44 526.59,141.44 528.91,141.44 531.22,141.44 533.54,138.11 535.86,135.86 538.18,135.86 540.49,135.86 542.81,124.77 545.13,129.46 547.45,121.37 549.77,118.46 552.08,118.46 554.4,114.41 556.72,111.69 559.04,111.69 561.35,111.69 563.67,107.82 565.99,102.03 568.31,102.03 570.62,98.2 572.94,92.48 575.26,92.48 577.58,92.48 579.9,92.36 582.21,92.36 584.53,92.36 586.85,92.36 589.17,92.36 591.48,92.36 593.8,87.23 596.12,87.23 598.44,87.23 600.76,79.84 603.07,79.84 605.39,79.84 607.71,79.84 610.03,72.6 612.34,72.6 614.66,72.6 616.98,72.6 619.3,68.62 621.61,69.0 623.93,65.07 626.25,65.07 628.57,111.45 630.89,111.45 633.2,115.41 635.52,114.19 637.84,114.19 640.16,107.13 642.47,108.99 644.79,109.43 647.11,109.43 649.43,105.45 651.74,108.27 654.06,109.4 656.38,109.37 658.7,106.58 661.02,103.99 663.33,103.77 665.65,103.77 667.97,107.75 670.29,107.75 672.6,107.75 674.92,106.75 677.24,103.94 679.56,103.94 681.88,107.1 684.19,107.03 686.51,107.55 688.83,109.35 691.15,110.79 693.46,112.82 695.78,111.16 698.1,115.21 700.42,117.61 702.73,119.71 705.05,121.74 707.37,123.05 709.69,123.05 712.01,119.25 714.32,123.06 716.64,118.52 718.96,118.52 721.28,120.12 723.59,119.33 725.91,119.33 728.23,122.36 730.55,122.36 732.86,119.91 735.18,117.82 737.5,117.82 739.82,111.45 742.14,111.45 744.45,110.26 746.77,107.42 749.09,105.81 751.41,104.6 753.72,102.7 756.04,101.58 758.36,101.22 760.68,100.37 762.99,97.22 765.31,97.22 767.63,96.08 769.95,97.28 772.27,96.7 774.58,94.82 776.9,95.89 779.22,94.38 781.54,95.77 783.85,95.77 786.17,96.06 788.49,93.94 790.81,93.94 793.12,94.01 795.44,96.54 797.76,97.84 800.08,98.92 802.4,99.94 804.71,102.4 807.03,103.84 809.35,103.05 811.67,103.08 813.98,102.77 816.3,104.28 818.62,106.75 820.94,106.24 823.26,108.17 825.57,107.7 827.89,106.94 830.21,108.92 832.53,109.56 834.84,110.08 837.16,110.0 839.48,111.69 841.8,111.76 844.11,111.76 846.43,111.76 848.75,111.76 851.07,108.25 853.39,108.47 855.7,107.23 858.02,107.21 860.34,106.94 862.66,107.92 864.97,108.17 867.29,108.94 869.61,107.92 871.93,108.36 874.24,108.36 876.56,107.66 878.88,109.51 881.2,110.02 883.52,110.24 885.83,110.24 888.15,110.72 890.47,110.55 892.79,110.15 895.1,110.79 897.42,110.4 899.74,109.96 902.06,109.55 904.38,109.36 906.69,110.23 909.01,110.67 911.33,110.58 913.65,109.76 915.96,108.44 918.28,108.47 920.6,109.23 922.92,108.18 925.23,109.36 927.55,108.13 929.87,107.11 932.19,108.04 934.51,107.3 936.82,107.54 939.14,107.74 941.46,107.07 943.78,106.28 946.09,105.76 948.41,106.31 950.73,105.52 953.05,106.54 955.36,106.63 957.68,106.43 960.0,106.83" opacity="0.82"/>
<polyline fill="none" stroke="#4c9f70" stroke-width="1.6" points="70.0,121.85 72.32,121.85 74.64,121.85 76.95,121.85 79.27,121.85 81.59,121.85 83.91,121.85 86.22,121.85 88.54,121.85 90.86,121.85 93.18,121.85 95.49,138.34 97.81,134.22 100.13,134.22 102.45,134.22 104.77,134.22 107.08,134.22 109.4,134.22 111.72,134.22 114.04,134.22 116.35,134.22 118.67,134.22 120.99,134.22 123.31,134.22 125.62,127.67 127.94,129.87 130.26,129.87 132.58,129.87 134.9,129.87 137.21,129.87 139.53,129.87 141.85,129.87 144.17,129.87 146.48,129.87 148.8,129.87 151.12,129.87 153.44,129.87 155.76,135.09 158.07,132.59 160.39,132.59 162.71,132.59 165.03,132.59 167.34,118.9 169.66,118.9 171.98,118.9 174.3,113.12 176.61,116.66 178.93,113.09 181.25,113.09 183.57,113.09 185.89,113.09 188.2,100.05 190.52,128.5 192.84,128.5 195.16,128.5 197.47,128.5 199.79,128.5 202.11,128.5 204.43,128.5 206.74,128.5 209.06,128.5 211.38,127.42 213.7,127.42 216.02,127.42 218.33,127.42 220.65,127.42 222.97,127.42 225.29,127.42 227.6,139.18 229.92,139.18 232.24,139.18 234.56,139.18 236.88,139.18 239.19,139.18 241.51,139.18 243.83,139.18 246.15,133.17 248.46,118.55 250.78,118.55 253.1,118.55 255.42,113.69 257.73,113.69 260.05,113.69 262.37,113.69 264.69,113.69 267.01,113.69 269.32,113.69 271.64,113.69 273.96,113.69 276.28,113.69 278.59,111.22 280.91,111.22 283.23,111.22 285.55,111.22 287.86,111.22 290.18,111.22 292.5,111.22 294.82,102.5 297.14,102.5 299.45,102.5 301.77,102.5 304.09,102.5 306.41,102.5 308.72,102.5 311.04,102.5 313.36,102.5 315.68,102.5 317.99,102.5 320.31,102.5 322.63,102.5 324.95,102.5 327.27,102.5 329.58,102.5 331.9,102.5 334.22,102.5 336.54,107.8 338.85,107.8 341.17,107.8 343.49,107.8 345.81,101.57 348.12,101.57 350.44,101.57 352.76,101.57 355.08,101.57 357.4,101.57 359.71,101.57 362.03,101.57 364.35,86.69 366.67,98.08 368.98,98.08 371.3,98.08 373.62,74.39 375.94,74.39 378.26,74.39 380.57,74.22 382.89,74.22 385.21,74.22 387.53,74.22 389.84,74.22 392.16,66.44 394.48,66.44 396.8,66.44 399.11,63.87 401.43,63.87 403.75,52.71 406.07,45.0 408.39,45.0 410.7,45.0 413.02,45.0 415.34,45.0 417.66,45.0 419.97,45.0 422.29,45.0 424.61,45.0 426.93,45.0 429.24,45.0 431.56,45.0 433.88,45.0 436.2,45.0 438.52,45.0 440.83,45.0 443.15,45.0 445.47,45.0 447.79,45.0 450.1,45.0 452.42,45.0 454.74,50.64 457.06,50.64 459.38,48.49 461.69,48.49 464.01,48.49 466.33,67.85 468.65,67.85 470.96,67.85 473.28,67.85 475.6,67.85 477.92,67.85 480.23,67.85 482.55,67.85 484.87,67.85 487.19,67.85 489.51,67.85 491.82,67.85 494.14,67.85 496.46,67.85 498.78,67.85 501.09,67.85 503.41,67.85 505.73,67.85 508.05,67.85 510.36,87.23 512.68,87.23 515.0,87.23 517.32,102.5 519.64,102.5 521.95,102.5 524.27,102.5 526.59,102.5 528.91,102.5 531.22,102.5 533.54,102.5 535.86,102.5 538.18,102.5 540.49,102.5 542.81,102.5 545.13,98.08 547.45,94.54 549.77,100.37 552.08,100.37 554.4,100.37 556.72,100.37 559.04,100.37 561.35,100.37 563.67,91.91 565.99,98.5 568.31,98.5 570.62,98.5 572.94,93.91 575.26,98.42 577.58,101.07 579.9,106.81 582.21,95.81 584.53,95.81 586.85,95.81 589.17,86.23 591.48,86.23 593.8,86.23 596.12,86.23 598.44,96.52 600.76,99.22 603.07,99.22 605.39,91.46 607.71,91.46 610.03,91.46 612.34,91.46 614.66,89.8 616.98,82.34 619.3,77.73 621.61,80.66 623.93,80.66 626.25,80.66 628.57,92.06 630.89,97.83 633.2,97.83 635.52,98.39 637.84,100.43 640.16,100.62 642.47,106.69 644.79,104.26 647.11,104.26 649.43,104.26 651.74,104.57 654.06,104.57 656.38,104.57 658.7,104.57 661.02,103.89 663.33,102.06 665.65,102.06 667.97,105.95 670.29,105.95 672.6,110.42 674.92,109.23 677.24,111.67 679.56,111.67 681.88,115.17 684.19,113.47 686.51,112.8 688.83,112.8 691.15,109.87 693.46,108.8 695.78,108.8 698.1,108.8 700.42,110.51 702.73,110.51 705.05,110.51 707.37,110.35 709.69,110.35 712.01,112.17 714.32,112.17 716.64,112.17 718.96,112.36 721.28,112.36 723.59,116.44 725.91,116.44 728.23,115.29 730.55,115.29 732.86,115.29 735.18,118.98 737.5,118.98 739.82,112.17 742.14,112.1 744.45,112.1 746.77,112.1 749.09,112.1 751.41,112.1 753.72,114.48 756.04,114.48 758.36,116.33 760.68,116.33 762.99,115.96 765.31,115.82 767.63,115.82 769.95,116.47 772.27,117.43 774.58,117.43 776.9,118.46 779.22,120.06 781.54,118.83 783.85,119.9 786.17,120.88 788.49,121.57 790.81,121.48 793.12,119.03 795.44,119.03 797.76,119.03 800.08,118.3 802.4,121.01 804.71,119.28 807.03,122.37 809.35,121.98 811.67,121.98 813.98,121.98 816.3,123.53 818.62,123.17 820.94,126.82 823.26,125.75 825.57,126.31 827.89,123.72 830.21,123.07 832.53,124.62 834.84,124.62 837.16,122.18 839.48,121.31 841.8,121.31 844.11,121.31 846.43,122.77 848.75,125.2 851.07,111.37 853.39,111.96 855.7,111.96 858.02,109.93 860.34,108.81 862.66,108.81 864.97,109.22 867.29,110.97 869.61,110.97 871.93,110.07 874.24,110.56 876.56,109.17 878.88,109.05 881.2,109.19 883.52,109.05 885.83,107.8 888.15,108.38 890.47,107.86 892.79,108.32 895.1,108.64 897.42,109.68 899.74,109.05 902.06,109.49 904.38,109.33 906.69,110.02 909.01,110.45 911.33,110.69 913.65,111.87 915.96,112.64 918.28,112.64 920.6,112.68 922.92,113.13 925.23,113.24 927.55,112.2 929.87,112.81 932.19,111.57 934.51,111.67 936.82,111.46 939.14,111.75 941.46,111.61 943.78,112.75 946.09,112.75 948.41,114.13 950.73,113.53 953.05,114.66 955.36,114.02 957.68,113.82 960.0,112.05" opacity="0.82"/>
<polyline fill="none" stroke="#f3a712" stroke-width="1.6" points="70.0,121.85 72.32,121.85 74.64,122.86 76.95,122.86 79.27,122.86 81.59,122.86 83.91,122.86 86.22,122.86 88.54,122.86 90.86,122.86 93.18,122.86 95.49,135.02 97.81,135.02 100.13,132.16 102.45,132.16 104.77,146.55 107.08,146.55 109.4,146.55 111.72,146.55 114.04,137.65 116.35,146.73 118.67,134.37 120.99,134.37 123.31,132.69 125.62,121.44 127.94,126.8 130.26,126.8 132.58,126.8 134.9,126.8 137.21,126.8 139.53,129.55 141.85,129.55 144.17,129.55 146.48,129.55 148.8,129.55 151.12,129.55 153.44,129.55 155.76,129.55 158.07,124.53 160.39,124.53 162.71,124.53 165.03,124.53 167.34,124.57 169.66,133.45 171.98,133.45 174.3,142.51 176.61,153.48 178.93,152.78 181.25,152.78 183.57,140.64 185.89,133.07 188.2,124.39 190.52,124.39 192.84,135.06 195.16,130.73 197.47,124.72 199.79,124.72 202.11,124.72 204.43,124.72 206.74,124.72 209.06,122.91 211.38,122.91 213.7,122.91 216.02,116.79 218.33,116.79 220.65,126.82 222.97,121.3 225.29,121.3 227.6,121.3 229.92,113.94 232.24,123.99 234.56,123.99 236.88,117.3 239.19,117.3 241.51,117.3 243.83,104.32 246.15,96.71 248.46,96.71 250.78,126.34 253.1,119.88 255.42,119.88 257.73,119.88 260.05,119.88 262.37,109.44 264.69,109.44 267.01,112.85 269.32,112.85 271.64,112.85 273.96,112.85 276.28,112.85 278.59,117.45 280.91,117.45 283.23,117.45 285.55,117.45 287.86,117.45 290.18,117.45 292.5,117.45 294.82,107.24 297.14,107.24 299.45,107.24 301.77,101.58 304.09,101.58 306.41,101.58 308.72,108.97 311.04,108.97 313.36,108.97 315.68,120.01 317.99,119.8 320.31,119.8 322.63,119.8 324.95,120.88 327.27,120.88 329.58,120.88 331.9,120.88 334.22,120.88 336.54,120.88 338.85,120.88 341.17,120.88 343.49,120.88 345.81,132.11 348.12,132.11 350.44,126.84 352.76,126.84 355.08,142.63 357.4,142.63 359.71,141.53 362.03,141.53 364.35,141.53 366.67,141.53 368.98,141.53 371.3,141.53 373.62,141.53 375.94,141.53 378.26,152.98 380.57,147.95 382.89,147.95 385.21,147.95 387.53,147.95 389.84,147.95 392.16,147.95 394.48,147.95 396.8,151.87 399.11,151.87 401.43,151.87 403.75,151.87 406.07,151.87 408.39,151.87 410.7,149.88 413.02,149.88 415.34,149.88 417.66,149.88 419.97,149.88 422.29,149.88 424.61,142.21 426.93,142.06 429.24,148.79 431.56,138.97 433.88,138.97 436.2,138.97 438.52,136.93 440.83,142.61 443.15,142.61 445.47,150.96 447.79,139.78 450.1,128.35 452.42,128.35 454.74,128.35 457.06,128.35 459.38,127.59 461.69,127.59 464.01,127.59 466.33,127.59 468.65,127.59 470.96,133.16 473.28,133.16 475.6,133.16 477.92,141.78 480.23,141.78 482.55,141.78 484.87,149.59 487.19,149.59 489.51,149.59 491.82,139.44 494.14,139.44 496.46,139.44 498.78,139.44 501.09,150.79 503.41,150.79 505.73,155.71 508.05,155.71 510.36,154.03 512.68,140.35 515.0,140.35 517.32,149.59 519.64,149.59 521.95,149.59 524.27,149.59 526.59,149.59 528.91,149.59 531.22,145.77 533.54,139.41 535.86,139.41 538.18,131.63 540.49,120.19 542.81,120.19 545.13,117.93 547.45,117.93 549.77,115.47 552.08,123.36 554.4,125.51 556.72,119.64 559.04,119.64 561.35,118.36 563.67,118.36 565.99,118.36 568.31,120.2 570.62,120.2 572.94,120.2 575.26,120.2 577.58,120.2 579.9,120.2 582.21,120.2 584.53,120.2 586.85,120.2 589.17,120.2 591.48,115.03 593.8,115.03 596.12,106.21 598.44,101.71 600.76,101.71 603.07,100.31 605.39,102.7 607.71,102.7 610.03,93.53 612.34,96.75 614.66,96.97 616.98,96.97 619.3,85.36 621.61,85.36 623.93,75.31 626.25,82.29 628.57,118.36 630.89,118.36 633.2,118.36 635.52,118.36 637.84,118.36 640.16,118.36 642.47,118.95 644.79,113.28 647.11,113.28 649.43,113.28 651.74,112.49 654.06,110.66 656.38,110.5 658.7,107.79 661.02,102.53 663.33,103.58 665.65,101.67 667.97,105.47 670.29,105.47 672.6,107.83 674.92,106.27 677.24,106.27 679.56,106.99 681.88,106.32 684.19,104.82 686.51,110.87 688.83,107.69 691.15,107.21 693.46,107.21 695.78,111.02 698.1,115.15 700.42,115.15 702.73,116.82 705.05,116.82 707.37,120.83 709.69,123.16 712.01,127.66 714.32,127.66 716.64,127.66 718.96,124.21 721.28,126.36 723.59,130.13 725.91,128.39 728.23,128.39 730.55,130.8 732.86,131.54 735.18,129.94 737.5,133.77 739.82,124.21 742.14,123.16 744.45,125.71 746.77,126.98 749.09,126.98 751.41,125.96 753.72,126.69 756.04,127.52 758.36,127.7 760.68,124.06 762.99,127.06 765.31,125.96 767.63,125.96 769.95,125.18 772.27,123.18 774.58,121.4 776.9,120.62 779.22,123.58 781.54,123.87 783.85,121.07 786.17,120.34 788.49,120.34 790.81,121.21 793.12,120.21 795.44,120.21 797.76,120.56 800.08,120.56 802.4,118.93 804.71,118.57 807.03,119.58 809.35,117.31 811.67,118.47 813.98,117.65 816.3,115.07 818.62,114.02 820.94,114.74 823.26,114.41 825.57,113.27 827.89,114.7 830.21,113.8 832.53,115.03 834.84,116.03 837.16,116.34 839.48,117.29 841.8,117.29 844.11,116.54 846.43,116.12 848.75,111.79 851.07,126.98 853.39,127.48 855.7,127.98 858.02,128.04 860.34,128.16 862.66,127.06 864.97,127.44 867.29,126.18 869.61,125.91 871.93,126.15 874.24,126.15 876.56,126.54 878.88,125.29 881.2,125.76 883.52,126.89 885.83,126.89 888.15,126.72 890.47,126.72 892.79,126.72 895.1,126.72 897.42,127.27 899.74,127.27 902.06,127.27 904.38,127.18 906.69,126.45 909.01,125.56 911.33,125.56 913.65,125.56 915.96,125.56 918.28,124.72 920.6,125.71 922.92,126.46 925.23,126.46 927.55,127.26 929.87,127.58 932.19,127.58 934.51,127.13 936.82,127.13 939.14,126.85 941.46,127.24 943.78,126.24 946.09,126.24 948.41,126.24 950.73,126.23 953.05,126.44 955.36,126.78 957.68,127.34 960.0,127.24" opacity="0.82"/>
<line x1="70.0" y1="370.0" x2="960.0" y2="370.0" stroke="#444" stroke-width="1.2"/>
<line x1="70.0" y1="225.0" x2="70.0" y2="370.0" stroke="#444" stroke-width="1.2"/>
<text x="70.0" y="217.0" font-family="monospace" font-size="12">k_G</text>
<polyline fill="none" stroke="#1f77b4" stroke-width="1.6" points="70.0,251.51 72.32,274.59 74.64,274.59 76.95,292.86 79.27,292.86 81.59,292.86 83.91,327.74 86.22,327.74 88.54,327.74 90.86,327.74 93.18,327.74 95.49,327.74 97.81,327.74 100.13,314.87 102.45,314.87 104.77,314.87 107.08,314.87 109.4,314.87 111.72,314.87 114.04,314.87 116.35,314.87 118.67,314.87 120.99,314.87 123.31,314.87 125.62,314.87 127.94,314.87 130.26,314.87 132.58,314.87 134.9,314.87 137.21,314.87 139.53,314.87 141.85,317.47 144.17,317.47 146.48,305.64 148.8,305.64 151.12,332.58 153.44,332.58 155.76,367.01 158.07,367.01 160.39,367.01 162.71,367.01 165.03,367.01 167.34,367.01 169.66,367.01 171.98,367.01 174.3,354.03 176.61,343.75 178.93,339.35 181.25,339.35 183.57,339.35 185.89,339.35 188.2,339.35 190.52,339.35 192.84,289.21 195.16,289.21 197.47,289.21 199.79,286.15 202.11,286.15 204.43,286.15 206.74,286.15 209.06,296.25 211.38,278.48 213.7,278.48 216.02,278.48 218.33,278.48 220.65,268.82 222.97,275.79 225.29,275.79 227.6,275.79 229.92,275.79 232.24,275.49 234.56,275.49 236.88,275.49 239.19,298.33 241.51,317.0 243.83,317.0 246.15,266.32 248.46,266.32 250.78,266.3 253.1,282.03 255.42,282.03 257.73,282.03 260.05,282.03 262.37,282.03 264.69,282.03 267.01,282.03 269.32,282.03 271.64,282.03 273.96,282.03 276.28,271.7 278.59,271.7 280.91,271.7 283.23,271.7 285.55,271.7 287.86,271.7 290.18,271.7 292.5,271.7 294.82,271.7 297.14,271.7 299.45,271.7 301.77,271.7 304.09,271.7 306.41,271.7 308.72,300.01 311.04,300.01 313.36,300.01 315.68,300.01 317.99,300.01 320.31,267.17 322.63,267.17 324.95,267.17 327.27,267.17 329.58,320.81 331.9,327.74 334.22,297.93 336.54,261.35 338.85,261.35 341.17,303.77 343.49,303.77 345.81,303.77 348.12,303.77 350.44,303.77 352.76,303.77 355.08,311.52 357.4,311.52 359.71,311.52 362.03,270.77 364.35,270.77 366.67,270.77 368.98,270.77 371.3,270.77 373.62,270.77 375.94,270.77 378.26,270.77 380.57,270.77 382.89,270.77 385.21,268.89 387.53,268.89 389.84,268.89 392.16,267.49 394.48,267.49 396.8,267.49 399.11,267.49 401.43,267.49 403.75,235.26 406.07,275.49 408.39,239.98 410.7,239.98 413.02,239.98 415.34,239.98 417.66,239.98 419.97,239.98 422.29,239.98 424.61,253.32 426.93,253.32 429.24,253.32 431.56,253.32 433.88,274.33 436.2,274.33 438.52,274.33 440.83,274.33 443.15,292.65 445.47,292.65 447.79,292.65 450.1,316.32 452.42,316.32 454.74,316.32 457.06,341.67 459.38,341.67 461.69,341.67 464.01,355.1 466.33,355.1 468.65,355.1 470.96,355.1 473.28,355.1 475.6,355.1 477.92,355.1 480.23,355.1 482.55,339.18 484.87,339.18 487.19,339.18 489.51,339.18 491.82,339.18 494.14,339.18 496.46,339.18 498.78,339.18 501.09,337.2 503.41,337.2 505.73,337.2 508.05,337.2 510.36,337.2 512.68,337.2 515.0,337.2 517.32,314.87 519.64,317.8 521.95,317.8 524.27,317.8 526.59,317.8 528.91,317.8 531.22,317.8 533.54,317.8 535.86,317.8 538.18,317.8 540.49,317.8 542.81,324.47 545.13,324.47 547.45,328.8 549.77,328.8 552.08,328.8 554.4,328.8 556.72,328.8 559.04,328.8 561.35,328.8 563.67,328.8 565.99,328.8 568.31,323.82 570.62,313.78 572.94,313.78 575.26,300.16 577.58,300.16 579.9,300.16 582.21,293.17 584.53,271.51 586.85,271.51 589.17,271.49 591.48,271.49 593.8,273.84 596.12,273.84 598.44,293.21 600.76,308.81 603.07,294.45 605.39,294.45 607.71,313.1 610.03,305.52 612.34,305.52 614.66,305.52 616.98,305.52 619.3,305.52 621.61,305.52 623.93,301.95 626.25,297.6 628.57,320.45 630.89,314.73 633.2,321.33 635.52,323.98 637.84,319.18 640.16,330.07 642.47,323.53 644.79,320.23 647.11,322.56 649.43,322.56 651.74,327.94 654.06,333.64 656.38,328.58 658.7,326.11 661.02,326.11 663.33,326.11 665.65,327.44 667.97,325.52 670.29,325.52 672.6,325.52 674.92,325.52 677.24,329.66 679.56,322.85 681.88,320.31 684.19,331.36 686.51,331.36 688.83,335.32 691.15,338.48 693.46,334.93 695.78,340.22 698.1,340.22 700.42,340.22 702.73,341.08 705.05,339.77 707.37,333.87 709.69,336.68 712.01,330.23 714.32,323.45 716.64,323.45 718.96,315.61 721.28,315.61 723.59,317.91 725.91,317.91 728.23,329.32 730.55,322.78 732.86,322.78 735.18,322.78 737.5,322.78 739.82,317.8 742.14,318.28 744.45,315.97 746.77,318.36 749.09,314.54 751.41,315.54 753.72,315.36 756.04,316.56 758.36,317.56 760.68,316.82 762.99,317.93 765.31,317.69 767.63,317.79 769.95,317.79 772.27,323.41 774.58,324.35 776.9,322.67 779.22,324.3 781.54,323.54 783.85,325.71 786.17,324.49 788.49,321.56 790.81,320.31 793.12,321.77 795.44,324.11 797.76,323.21 800.08,320.76 802.4,322.24 804.71,320.99 807.03,315.66 809.35,317.99 811.67,319.69 813.98,321.74 816.3,320.87 818.62,320.87 820.94,320.87 823.26,321.57 825.57,319.58 827.89,319.32 830.21,320.36 832.53,317.24 834.84,316.92 837.16,320.55 839.48,315.95 841.8,317.6 844.11,316.38 846.43,315.12 848.75,314.09 851.07,317.15 853.39,315.04 855.7,313.44 858.02,316.37 860.34,315.31 862.66,314.47 864.97,314.47 867.29,314.47 869.61,314.47 871.93,312.59 874.24,312.07 876.56,311.36 878.88,312.14 881.2,313.25 883.52,312.24 885.83,312.24 888.15,311.44 890.47,309.41 892.79,311.2 895.1,311.24 897.42,309.68 899.74,310.55 902.06,309.78 904.38,308.29 906.69,307.54 909.01,307.31 911.33,308.16 913.65,307.22 915.96,307.45 918.28,307.45 920.6,307.81 922.92,306.09 925.23,306.09 927.55,307.56 929.87,308.19 932.19,306.94 934.51,307.5 936.82,309.41 939.14,310.21 941.46,310.08 943.78,310.71 946.09,311.06 948.41,312.6 950.73,312.64 953.05,310.98 955.36,310.98 957.68,311.51 960.0,307.49" opacity="0.82"/>
<polyline fill="none" stroke="#e45756" stroke-width="1.6" points="70.0,251.51 72.32,251.51 74.64,251.51 76.95,251.51 79.27,277.01 81.59,293.05 83.91,309.14 86.22,303.16 88.54,303.16 90.86,303.16 93.18,303.16 95.49,303.16 97.81,303.16 100.13,287.65 102.45,287.65 104.77,287.65 107.08,282.76 109.4,282.76 111.72,282.76 114.04,282.76 116.35,310.57 118.67,278.69 120.99,278.69 123.31,248.24 125.62,248.24 127.94,248.83 130.26,248.83 132.58,235.52 134.9,235.52 137.21,235.52 139.53,256.83 141.85,256.83 144.17,256.83 146.48,225.63 148.8,225.63 151.12,225.63 153.44,225.63 155.76,257.35 158.07,226.76 160.39,276.5 162.71,276.5 165.03,276.5 167.34,276.5 169.66,276.5 171.98,276.5 174.3,276.5 176.61,276.5 178.93,276.52 181.25,276.52 183.57,276.52 185.89,256.09 188.2,256.09 190.52,256.09 192.84,256.09 195.16,256.09 197.47,234.51 199.79,234.51 202.11,234.51 204.43,234.51 206.74,225.0 209.06,225.0 211.38,225.0 213.7,225.0 216.02,225.0 218.33,232.73 220.65,232.73 222.97,232.73 225.29,232.73 227.6,232.73 229.92,232.73 232.24,244.07 234.56,244.07 236.88,244.07 239.19,253.04 241.51,253.04 243.83,274.2 246.15,274.2 248.46,274.2 250.78,240.6 253.1,283.53 255.42,283.53 257.73,283.53 260.05,283.53 262.37,299.58 264.69,299.58 267.01,299.58 269.32,310.96 271.64,310.96 273.96,310.96 276.28,299.29 278.59,299.29 280.91,299.29 283.23,299.29 285.55,299.29 287.86,299.29 290.18,299.29 292.5,299.29 294.82,299.29 297.14,299.29 299.45,299.29 301.77,299.29 304.09,299.29 306.41,299.29 308.72,299.29 311.04,299.29 313.36,299.29 315.68,326.02 317.99,326.02 320.31,326.02 322.63,316.37 324.95,321.91 327.27,304.96 329.58,273.44 331.9,273.44 334.22,273.44 336.54,280.28 338.85,280.28 341.17,280.28 343.49,280.28 345.81,280.28 348.12,280.28 350.44,280.28 352.76,290.07 355.08,290.07 357.4,290.07 359.71,290.07 362.03,290.07 364.35,280.51 366.67,280.51 368.98,280.51 371.3,280.51 373.62,280.51 375.94,286.69 378.26,286.69 380.57,286.69 382.89,286.69 385.21,286.69 387.53,286.69 389.84,286.69 392.16,286.69 394.48,286.69 396.8,286.69 399.11,286.69 401.43,282.83 403.75,282.83 406.07,282.83 408.39,323.65 410.7,323.65 413.02,323.65 415.34,323.65 417.66,319.52 419.97,319.52 422.29,319.52 424.61,319.52 426.93,319.52 429.24,308.83 431.56,308.83 433.88,308.83 436.2,308.83 438.52,308.83 440.83,308.83 443.15,308.83 445.47,308.83 447.79,308.83 450.1,303.38 452.42,310.81 454.74,310.81 457.06,310.81 459.38,308.15 461.69,304.49 464.01,318.92 466.33,280.51 468.65,280.51 470.96,280.51 473.28,280.51 475.6,280.51 477.92,280.43 480.23,292.68 482.55,292.68 484.87,292.68 487.19,292.68 489.51,292.68 491.82,292.68 494.14,292.68 496.46,292.68 498.78,292.68 501.09,292.68 503.41,292.68 505.73,292.68 508.05,292.68 510.36,292.68 512.68,292.68 515.0,292.68 517.32,290.07 519.64,303.71 521.95,303.71 524.27,303.71 526.59,303.71 528.91,303.71 531.22,303.71 533.54,312.76 535.86,308.94 538.18,308.94 540.49,308.94 542.81,313.09 545.13,302.55 547.45,303.41 549.77,290.83 552.08,290.83 554.4,311.89 556.72,296.78 559.04,296.78 561.35,296.78 563.67,295.95 565.99,318.72 568.31,318.72 570.62,321.06 572.94,335.16 575.26,335.16 577.58,335.16 579.9,323.57 582.21,323.57 584.53,323.57 586.85,323.57 589.17,323.57 591.48,323.57 593.8,338.92 596.12,338.92 598.44,338.92 600.76,327.33 603.07,327.33 605.39,327.33 607.71,327.33 610.03,326.18 612.34,326.18 614.66,326.18 616.98,326.18 619.3,324.81 621.61,306.1 623.93,306.99 626.25,306.99 628.57,287.22 630.89,287.22 633.2,277.7 635.52,275.72 637.84,275.72 640.16,269.74 642.47,263.87 644.79,261.7 647.11,261.7 649.43,267.75 651.74,262.9 654.06,267.64 656.38,266.28 658.7,275.42 661.02,283.06 663.33,283.9 665.65,283.9 667.97,271.01 670.29,271.01 672.6,271.01 674.92,277.8 677.24,273.43 679.56,273.43 681.88,268.52 684.19,266.43 686.51,273.73 688.83,278.92 691.15,279.2 693.46,276.93 695.78,278.45 698.1,273.39 700.42,271.09 702.73,284.34 705.05,282.06 707.37,277.75 709.69,277.75 712.01,270.05 714.32,268.49 716.64,261.48 718.96,261.48 721.28,261.83 723.59,264.38 725.91,264.38 728.23,264.97 730.55,264.97 732.86,264.35 735.18,258.29 737.5,258.29 739.82,287.22 742.14,287.22 744.45,285.08 746.77,293.27 749.09,288.5 751.41,293.61 753.72,291.29 756.04,289.71 758.36,291.94 760.68,292.56 762.99,290.87 765.31,290.87 767.63,291.69 769.95,290.31 772.27,294.13 774.58,297.53 776.9,296.98 779.22,295.63 781.54,296.19 783.85,296.19 786.17,297.55 788.49,296.4 790.81,296.4 793.12,300.16 795.44,300.9 797.76,302.66 800.08,306.44 802.4,304.32 804.71,303.02 807.03,306.08 809.35,312.55 811.67,315.62 813.98,313.02 816.3,310.66 818.62,310.16 820.94,312.93 823.26,313.78 825.57,312.48 827.89,315.43 830.21,315.84 832.53,316.84 834.84,317.18 837.16,318.4 839.48,320.08 841.8,320.67 844.11,320.67 846.43,320.67 848.75,320.67 851.07,312.98 853.39,315.08 855.7,316.85 858.02,315.41 860.34,314.87 862.66,314.28 864.97,315.58 867.29,316.89 869.61,316.93 871.93,315.82 874.24,317.07 876.56,315.79 878.88,315.66 881.2,314.64 883.52,311.88 885.83,311.88 888.15,312.05 890.47,310.06 892.79,310.41 895.1,310.62 897.42,311.1 899.74,313.2 902.06,313.0 904.38,312.18 906.69,311.73 909.01,311.21 911.33,311.28 913.65,313.98 915.96,313.09 918.28,311.78 920.6,308.98 922.92,310.67 925.23,311.56 927.55,312.61 929.87,313.4 932.19,312.6 934.51,311.65 936.82,311.14 939.14,310.26 941.46,310.05 943.78,311.62 946.09,310.7 948.41,311.05 950.73,311.88 953.05,310.72 955.36,308.27 957.68,307.81 960.0,308.77" opacity="0.82"/>
<polyline fill="none" stroke="#4c9f70" stroke-width="1.6" points="70.0,251.51 72.32,251.51 74.64,251.51 76.95,251.51 79.27,251.51 81.59,251.51 83.91,251.51 86.22,251.51 88.54,251.51 90.86,251.51 93.18,251.51 95.49,269.03 97.81,289.77 100.13,289.77 102.45,289.77 104.77,289.77 107.08,289.77 109.4,289.77 111.72,289.77 114.04,289.77 116.35,289.77 118.67,289.77 120.99,289.77 123.31,289.77 125.62,304.73 127.94,298.68 130.26,298.68 132.58,298.68 134.9,298.68 137.21,298.68 139.53,298.68 141.85,298.68 144.17,298.68 146.48,298.68 148.8,298.68 151.12,298.68 153.44,298.68 155.76,317.71 158.07,305.2 160.39,305.2 162.71,305.2 165.03,305.2 167.34,322.58 169.66,322.58 171.98,322.58 174.3,336.82 176.61,286.74 178.93,288.36 181.25,288.36 183.57,288.36 185.89,288.36 188.2,284.05 190.52,271.55 192.84,271.55 195.16,271.55 197.47,271.55 199.79,271.55 202.11,271.55 204.43,271.55 206.74,271.55 209.06,271.55 211.38,268.9 213.7,268.9 216.02,268.9 218.33,268.9 220.65,268.9 222.97,268.9 225.29,268.9 227.6,300.38 229.92,300.38 232.24,300.38 234.56,300.38 236.88,300.38 239.19,300.38 241.51,300.38 243.83,300.38 246.15,292.27 248.46,294.2 250.78,294.2 253.1,294.2 255.42,284.58 257.73,284.58 260.05,284.58 262.37,284.58 264.69,284.58 267.01,284.58 269.32,284.58 271.64,284.58 273.96,284.58 276.28,284.58 278.59,275.76 280.91,275.76 283.23,275.76 285.55,275.76 287.86,275.76 290.18,275.76 292.5,275.76 294.82,290.32 297.14,290.32 299.45,290.32 301.77,290.32 304.09,290.32 306.41,290.32 308.72,290.32 311.04,290.32 313.36,290.32 315.68,290.32 317.99,290.32 320.31,290.32 322.63,290.32 324.95,290.32 327.27,290.32 329.58,290.32 331.9,290.32 334.22,290.32 336.54,277.41 338.85,277.41 341.17,277.41 343.49,277.41 345.81,260.54 348.12,260.54 350.44,260.54 352.76,260.54 355.08,260.54 357.4,260.54 359.71,260.54 362.03,260.54 364.35,267.49 366.67,280.72 368.98,280.72 371.3,280.72 373.62,278.17 375.94,278.17 378.26,278.17 380.57,286.55 382.89,286.55 385.21,286.55 387.53,286.55 389.84,286.55 392.16,317.34 394.48,317.34 396.8,317.34 399.11,308.98 401.43,308.98 403.75,330.38 406.07,284.95 408.39,284.95 410.7,284.95 413.02,284.95 415.34,284.95 417.66,284.95 419.97,284.95 422.29,284.95 424.61,284.95 426.93,284.95 429.24,284.95 431.56,284.95 433.88,284.95 436.2,284.95 438.52,284.95 440.83,284.95 443.15,284.95 445.47,284.95 447.79,284.95 450.1,284.95 452.42,284.95 454.74,292.81 457.06,292.81 459.38,303.22 461.69,303.22 464.01,303.22 466.33,289.9 468.65,289.9 470.96,289.9 473.28,289.9 475.6,289.9 477.92,289.9 480.23,289.9 482.55,289.9 484.87,289.9 487.19,289.9 489.51,289.9 491.82,289.9 494.14,289.9 496.46,289.9 498.78,289.9 501.09,289.9 503.41,289.9 505.73,289.9 508.05,289.9 510.36,286.37 512.68,286.37 515.0,286.37 517.32,290.32 519.64,290.32 521.95,290.32 524.27,290.32 526.59,290.32 528.91,290.32 531.22,290.32 533.54,290.32 535.86,290.32 538.18,290.32 540.49,290.32 542.81,290.32 545.13,286.88 547.45,290.23 549.77,308.57 552.08,308.57 554.4,308.57 556.72,308.57 559.04,308.57 561.35,308.57 563.67,317.17 565.99,309.04 568.31,309.04 570.62,309.04 572.94,317.04 575.26,323.32 577.58,316.29 579.9,321.54 582.21,319.64 584.53,319.64 586.85,319.64 589.17,324.77 591.48,324.77 593.8,324.77 596.12,324.77 598.44,323.8 600.76,324.04 603.07,324.04 605.39,322.61 607.71,322.61 610.03,322.61 612.34,322.61 614.66,327.02 616.98,327.56 619.3,330.26 621.61,330.59 623.93,330.59 626.25,330.59 628.57,305.88 630.89,304.0 633.2,304.0 635.52,310.03 637.84,312.4 640.16,310.86 642.47,311.71 644.79,315.95 647.11,315.95 649.43,315.95 651.74,317.45 654.06,317.45 656.38,317.45 658.7,317.45 661.02,316.51 663.33,313.21 665.65,313.21 667.97,313.29 670.29,313.29 672.6,310.81 674.92,312.88 677.24,313.19 679.56,313.19 681.88,308.68 684.19,302.81 686.51,304.82 688.83,304.82 691.15,305.84 693.46,300.8 695.78,300.8 698.1,300.8 700.42,295.54 702.73,295.54 705.05,295.54 707.37,292.93 709.69,292.93 712.01,292.81 714.32,292.81 716.64,292.81 718.96,288.79 721.28,288.79 723.59,287.6 725.91,287.6 728.23,292.19 730.55,292.19 732.86,292.19 735.18,293.23 737.5,293.23 739.82,292.81 742.14,291.63 744.45,291.63 746.77,291.63 749.09,291.63 751.41,291.63 753.72,289.68 756.04,289.68 758.36,290.37 760.68,290.37 762.99,288.7 765.31,285.29 767.63,285.29 769.95,286.86 772.27,287.24 774.58,287.24 776.9,289.84 779.22,290.89 781.54,298.82 783.85,299.26 786.17,294.67 788.49,295.99 790.81,298.92 793.12,295.16 795.44,295.16 797.76,295.16 800.08,295.98 802.4,298.87 804.71,296.29 807.03,299.49 809.35,298.11 811.67,298.11 813.98,298.11 816.3,301.92 818.62,300.05 820.94,297.33 823.26,291.58 825.57,295.17 827.89,293.14 830.21,297.37 832.53,299.89 834.84,299.89 837.16,297.24 839.48,293.86 841.8,293.86 844.11,293.86 846.43,294.12 848.75,292.75 851.07,292.66 853.39,291.98 855.7,291.98 858.02,290.91 860.34,290.44 862.66,290.44 864.97,290.75 867.29,291.66 869.61,291.66 871.93,290.66 874.24,292.05 876.56,291.28 878.88,290.41 881.2,289.82 883.52,290.88 885.83,290.28 888.15,292.22 890.47,291.55 892.79,289.52 895.1,289.33 897.42,291.14 899.74,288.57 902.06,285.98 904.38,286.45 906.69,285.76 909.01,284.16 911.33,284.17 913.65,282.88 915.96,282.41 918.28,283.15 920.6,284.06 922.92,284.45 925.23,283.36 927.55,285.69 929.87,283.17 932.19,281.17 934.51,282.49 936.82,283.08 939.14,282.02 941.46,277.94 943.78,276.59 946.09,276.59 948.41,275.41 950.73,272.22 953.05,270.68 955.36,271.41 957.68,271.95 960.0,271.39" opacity="0.82"/>
<polyline fill="none" stroke="#f3a712" stroke-width="1.6" points="70.0,251.51 72.32,251.51 74.64,259.29 76.95,259.29 79.27,259.29 81.59,259.29 83.91,259.29 86.22,259.29 88.54,259.29 90.86,259.29 93.18,259.29 95.49,273.05 97.81,273.05 100.13,255.79 102.45,255.79 104.77,326.63 107.08,326.63 109.4,326.63 111.72,326.63 114.04,292.61 116.35,297.39 118.67,314.13 120.99,314.13 123.31,327.13 125.62,323.4 127.94,321.65 130.26,321.65 132.58,321.65 134.9,321.65 137.21,321.65 139.53,340.24 141.85,340.24 144.17,340.24 146.48,340.24 148.8,340.24 151.12,340.24 153.44,340.24 155.76,340.24 158.07,366.16 160.39,366.16 162.71,366.16 165.03,366.16 167.34,357.46 169.66,370.0 171.98,370.0 174.3,360.82 176.61,352.3 178.93,327.11 181.25,327.11 183.57,300.46 185.89,332.32 188.2,316.12 190.52,316.12 192.84,317.16 195.16,291.79 197.47,302.42 199.79,302.42 202.11,302.42 204.43,302.42 206.74,302.42 209.06,327.07 211.38,327.07 213.7,327.07 216.02,335.0 218.33,335.0 220.65,346.75 222.97,339.14 225.29,339.14 227.6,339.14 229.92,368.06 232.24,338.12 234.56,338.12 236.88,330.43 239.19,330.43 241.51,330.43 243.83,329.33 246.15,333.09 248.46,333.09 250.78,359.16 253.1,352.51 255.42,352.51 257.73,352.51 260.05,352.51 262.37,337.87 264.69,337.87 267.01,305.85 269.32,305.85 271.64,305.85 273.96,305.85 276.28,305.85 278.59,302.2 280.91,302.2 283.23,302.2 285.55,302.2 287.86,302.2 290.18,302.2 292.5,302.2 294.82,318.12 297.14,318.12 299.45,318.12 301.77,314.41 304.09,314.41 306.41,314.41 308.72,272.0 311.04,272.0 313.36,272.0 315.68,282.64 317.99,280.12 320.31,280.12 322.63,280.12 324.95,275.58 327.27,275.58 329.58,275.58 331.9,275.58 334.22,275.58 336.54,275.58 338.85,275.58 341.17,275.58 343.49,275.58 345.81,289.02 348.12,289.02 350.44,297.41 352.76,297.41 355.08,295.86 357.4,295.86 359.71,281.91 362.03,281.91 364.35,281.91 366.67,281.91 368.98,281.91 371.3,281.91 373.62,281.91 375.94,281.91 378.26,287.11 380.57,266.47 382.89,266.47 385.21,266.47 387.53,266.47 389.84,266.47 392.16,266.47 394.48,266.47 396.8,251.07 399.11,251.07 401.43,251.07 403.75,251.07 406.07,251.07 408.39,251.07 410.7,251.58 413.02,251.58 415.34,251.58 417.66,251.58 419.97,251.58 422.29,251.58 424.61,277.37 426.93,279.02 429.24,319.21 431.56,321.57 433.88,321.57 436.2,321.57 438.52,317.51 440.83,296.17 443.15,296.17 445.47,314.59 447.79,320.21 450.1,316.76 452.42,316.76 454.74,316.76 457.06,316.76 459.38,347.17 461.69,347.17 464.01,347.17 466.33,347.17 468.65,347.17 470.96,342.72 473.28,342.72 475.6,342.72 477.92,323.57 480.23,323.57 482.55,323.57 484.87,320.74 487.19,320.74 489.51,320.74 491.82,333.02 494.14,333.02 496.46,333.02 498.78,333.02 501.09,347.23 503.41,347.23 505.73,354.75 508.05,354.75 510.36,351.98 512.68,326.26 515.0,326.26 517.32,320.74 519.64,320.74 521.95,320.74 524.27,320.74 526.59,320.74 528.91,320.74 531.22,318.61 533.54,304.13 535.86,304.13 538.18,300.65 540.49,296.1 542.81,296.1 545.13,291.59 547.45,291.59 549.77,296.82 552.08,297.98 554.4,295.86 556.72,301.67 559.04,301.67 561.35,310.15 563.67,310.15 565.99,310.15 568.31,296.92 570.62,296.92 572.94,296.92 575.26,296.92 577.58,296.92 579.9,296.92 582.21,296.92 584.53,296.92 586.85,296.92 589.17,296.92 591.48,287.89 593.8,287.89 596.12,308.74 598.44,321.75 600.76,321.75 603.07,326.55 605.39,314.85 607.71,314.85 610.03,318.42 612.34,326.29 614.66,331.36 616.98,331.36 619.3,324.32 621.61,324.32 623.93,314.01 626.25,318.58 628.57,310.15 630.89,310.15 633.2,310.15 635.52,310.15 637.84,310.15 640.16,310.15 642.47,313.39 644.79,315.32 647.11,315.32 649.43,315.32 651.74,321.11 654.06,321.58 656.38,322.12 658.7,327.08 661.02,329.08 663.33,328.22 665.65,329.71 667.97,326.13 670.29,326.13 672.6,331.38 674.92,333.2 677.24,333.2 679.56,325.42 681.88,326.88 684.19,322.65 686.51,319.62 688.83,325.1 691.15,328.52 693.46,328.52 695.78,331.6 698.1,335.65 700.42,335.65 702.73,336.07 705.05,336.07 707.37,331.52 709.69,324.11 712.01,324.42 714.32,324.42 716.64,324.42 718.96,321.2 721.28,319.94 723.59,315.0 725.91,313.42 728.23,313.42 730.55,313.12 732.86,308.41 735.18,310.97 737.5,306.58 739.82,321.2 742.14,324.08 744.45,326.49 746.77,325.97 749.09,325.97 751.41,325.26 753.72,327.33 756.04,326.29 758.36,330.59 760.68,327.16 762.99,326.89 765.31,325.85 767.63,325.85 769.95,327.07 772.27,326.22 774.58,327.38 776.9,325.85 779.22,325.17 781.54,320.03 783.85,320.19 786.17,320.09 788.49,320.09 790.81,314.99 793.12,313.43 795.44,313.43 797.76,315.35 800.08,315.35 802.4,316.38 804.71,314.87 807.03,314.08 809.35,312.96 811.67,316.57 813.98,311.52 816.3,306.53 818.62,309.35 820.94,313.22 823.26,311.72 825.57,312.95 827.89,317.72 830.21,319.42 832.53,322.22 834.84,323.38 837.16,322.85 839.48,326.63 841.8,326.63 844.11,326.83 846.43,326.34 848.75,322.51 851.07,325.97 853.39,324.63 855.7,323.77 858.02,324.68 860.34,323.28 862.66,322.1 864.97,322.21 867.29,324.2 869.61,322.4 871.93,322.39 874.24,322.42 876.56,322.38 878.88,321.67 881.2,321.44 883.52,320.87 885.83,320.87 888.15,319.33 890.47,319.33 892.79,319.33 895.1,319.33 897.42,318.54 899.74,318.54 902.06,318.54 904.38,319.08 906.69,317.01 909.01,316.75 911.33,316.75 913.65,316.75 915.96,316.75 918.28,315.9 920.6,314.15 922.92,312.07 925.23,312.07 927.55,309.74 929.87,311.57 932.19,311.57 934.51,310.75 936.82,310.75 939.14,310.88 941.46,309.9 943.78,310.3 946.09,310.3 948.41,310.3 950.73,309.97 953.05,311.27 955.36,310.5 957.68,308.74 960.0,308.58" opacity="0.82"/>
<line x1="70.0" y1="550.0" x2="960.0" y2="550.0" stroke="#444" stroke-width="1.2"/>
<line x1="70.0" y1="405.0" x2="70.0" y2="550.0" stroke="#444" stroke-width="1.2"/>
<text x="70.0" y="397.0" font-family="monospace" font-size="12">threshold</text>
<polyline fill="none" stroke="#1f77b4" stroke-width="1.6" points="70.0,434.15 72.32,439.97 74.64,439.97 76.95,446.24 79.27,446.24 81.59,446.24 83.91,422.98 86.22,422.98 88.54,422.98 90.86,422.98 93.18,422.98 95.49,422.98 97.81,422.98 100.13,452.7 102.45,452.7 104.77,452.7 107.08,452.7 109.4,452.7 111.72,452.7 114.04,452.7 116.35,452.7 118.67,452.7 120.99,452.7 123.31,452.7 125.62,452.7 127.94,452.7 130.26,452.7 132.58,452.7 134.9,452.7 137.21,452.7 139.53,452.7 141.85,471.53 144.17,471.53 146.48,444.93 148.8,444.93 151.12,467.76 153.44,467.76 155.76,481.84 158.07,481.84 160.39,481.84 162.71,481.84 165.03,481.84 167.34,481.84 169.66,481.84 171.98,481.84 174.3,489.65 176.61,475.15 178.93,447.53 181.25,447.53 183.57,447.53 185.89,447.53 188.2,447.53 190.52,447.53 192.84,466.76 195.16,466.76 197.47,466.76 199.79,460.45 202.11,460.45 204.43,460.45 206.74,460.45 209.06,442.64 211.38,449.54 213.7,449.54 216.02,449.54 218.33,449.54 220.65,448.96 222.97,458.93 225.29,458.93 227.6,458.93 229.92,458.93 232.24,448.42 234.56,448.42 236.88,448.42 239.19,447.78 241.51,453.38 243.83,453.38 246.15,480.75 248.46,480.75 250.78,453.99 253.1,471.58 255.42,471.58 257.73,471.58 260.05,471.58 262.37,471.58 264.69,471.58 267.01,471.58 269.32,471.58 271.64,471.58 273.96,471.58 276.28,459.75 278.59,459.75 280.91,459.75 283.23,459.75 285.55,459.75 287.86,459.75 290.18,459.75 292.5,459.75 294.82,459.75 297.14,459.75 299.45,459.75 301.77,459.75 304.09,459.75 306.41,459.75 308.72,465.0 311.04,465.0 313.36,465.0 315.68,465.0 317.99,465.0 320.31,484.18 322.63,484.18 324.95,484.18 327.27,484.18 329.58,473.43 331.9,479.81 334.22,477.6 336.54,472.86 338.85,472.86 341.17,471.14 343.49,471.14 345.81,471.14 348.12,471.14 350.44,471.14 352.76,471.14 355.08,483.43 357.4,483.43 359.71,483.43 362.03,485.63 364.35,485.63 366.67,485.63 368.98,485.63 371.3,485.63 373.62,485.63 375.94,485.63 378.26,485.63 380.57,485.63 382.89,485.63 385.21,498.7 387.53,498.7 389.84,498.7 392.16,498.9 394.48,498.9 396.8,498.9 399.11,498.9 401.43,498.9 403.75,488.63 406.07,475.77 408.39,492.79 410.7,492.79 413.02,492.79 415.34,492.79 417.66,492.79 419.97,492.79 422.29,492.79 424.61,513.85 426.93,513.85 429.24,513.85 431.56,513.85 433.88,491.26 436.2,491.26 438.52,491.26 440.83,491.26 443.15,495.44 445.47,495.44 447.79,495.44 450.1,465.97 452.42,465.97 454.74,465.97 457.06,479.66 459.38,479.66 461.69,479.66 464.01,474.63 466.33,474.63 468.65,474.63 470.96,474.63 473.28,474.63 475.6,474.63 477.92,474.63 480.23,474.63 482.55,493.65 484.87,493.65 487.19,493.65 489.51,493.65 491.82,493.65 494.14,493.65 496.46,493.65 498.78,493.65 501.09,472.99 503.41,472.99 505.73,472.99 508.05,472.99 510.36,472.99 512.68,472.99 515.0,472.99 517.32,452.7 519.64,454.32 521.95,454.32 524.27,454.32 526.59,454.32 528.91,454.32 531.22,454.32 533.54,454.32 535.86,454.32 538.18,454.32 540.49,454.32 542.81,452.73 545.13,452.73 547.45,450.41 549.77,450.41 552.08,450.41 554.4,450.41 556.72,450.41 559.04,450.41 561.35,450.41 563.67,450.41 565.99,450.41 568.31,451.62 570.62,447.71 572.94,447.71 575.26,472.52 577.58,472.52 579.9,472.52 582.21,486.01 584.53,463.45 586.85,463.45 589.17,461.01 591.48,461.01 593.8,481.32 596.12,481.32 598.44,478.95 600.76,476.42 603.07,479.56 605.39,479.56 607.71,475.31 610.03,446.87 612.34,446.87 614.66,446.87 616.98,446.87 619.3,446.87 621.61,446.87 623.93,450.55 626.25,450.08 628.57,446.04 630.89,444.9 633.2,455.32 635.52,451.8 637.84,461.36 640.16,460.19 642.47,461.39 644.79,460.54 647.11,458.55 649.43,458.55 651.74,450.69 654.06,443.51 656.38,445.61 658.7,447.38 661.02,447.38 663.33,447.38 665.65,448.55 667.97,433.34 670.29,433.34 672.6,433.34 674.92,433.34 677.24,442.9 679.56,432.06 681.88,421.44 684.19,425.87 686.51,425.87 688.83,436.58 691.15,436.87 693.46,439.54 695.78,445.26 698.1,445.26 700.42,445.26 702.73,441.13 705.05,445.51 707.37,449.7 709.69,448.21 712.01,449.95 714.32,436.85 716.64,436.85 718.96,434.46 721.28,434.46 723.59,434.3 725.91,434.3 728.23,434.91 730.55,426.64 732.86,426.64 735.18,426.64 737.5,426.64 739.82,454.32 742.14,453.47 744.45,449.61 746.77,444.84 749.09,447.66 751.41,453.52 753.72,454.38 756.04,457.53 758.36,462.38 760.68,464.4 762.99,468.71 765.31,465.47 767.63,473.46 769.95,473.46 772.27,468.08 774.58,467.08 776.9,466.61 779.22,469.23 781.54,465.99 783.85,463.5 786.17,459.47 788.49,462.95 790.81,464.41 793.12,466.93 795.44,470.04 797.76,463.88 800.08,464.18 802.4,460.92 804.71,463.63 807.03,459.15 809.35,461.37 811.67,459.6 813.98,451.22 816.3,454.62 818.62,454.62 820.94,454.62 823.26,457.26 825.57,456.31 827.89,458.45 830.21,458.61 832.53,459.23 834.84,453.11 837.16,447.78 839.48,446.06 841.8,445.35 844.11,446.84 846.43,445.74 848.75,445.15 851.07,452.89 853.39,450.66 855.7,450.24 858.02,447.3 860.34,447.47 862.66,451.33 864.97,451.33 867.29,451.33 869.61,451.33 871.93,446.69 874.24,443.85 876.56,442.91 878.88,443.96 881.2,442.68 883.52,440.75 885.83,440.75 888.15,440.16 890.47,443.37 892.79,445.32 895.1,448.64 897.42,449.54 899.74,448.7 902.06,446.83 904.38,446.21 906.69,445.86 909.01,444.04 911.33,443.92 913.65,443.94 915.96,443.45 918.28,443.45 920.6,442.16 922.92,441.73 925.23,441.73 927.55,442.81 929.87,443.26 932.19,439.93 934.51,440.69 936.82,441.86 939.14,442.63 941.46,443.54 943.78,440.21 946.09,437.91 948.41,441.01 950.73,443.65 953.05,440.91 955.36,440.91 957.68,443.62 960.0,442.66" opacity="0.82"/>
<polyline fill="none" stroke="#e45756" stroke-width="1.6" points="70.0,434.15 72.32,434.15 74.64,434.15 76.95,434.15 79.27,453.47 81.59,485.79 83.91,480.63 86.22,438.42 88.54,438.42 90.86,438.42 93.18,438.42 95.49,438.42 97.81,438.42 100.13,446.98 102.45,446.98 104.77,446.98 107.08,464.81 109.4,464.81 111.72,464.81 114.04,464.81 116.35,494.05 118.67,493.58 120.99,493.58 123.31,503.53 125.62,503.53 127.94,498.63 130.26,498.63 132.58,518.6 134.9,518.6 137.21,518.6 139.53,506.43 141.85,506.43 144.17,506.43 146.48,511.77 148.8,511.77 151.12,511.77 153.44,511.77 155.76,502.65 158.07,510.51 160.39,509.87 162.71,509.87 165.03,509.87 167.34,509.87 169.66,509.87 171.98,509.87 174.3,509.87 176.61,509.87 178.93,511.24 181.25,511.24 183.57,511.24 185.89,507.66 188.2,507.66 190.52,507.66 192.84,507.66 195.16,507.66 197.47,507.82 199.79,507.82 202.11,507.82 204.43,507.82 206.74,482.62 209.06,482.62 211.38,482.62 213.7,482.62 216.02,482.62 218.33,490.06 220.65,490.06 222.97,490.06 225.29,490.06 227.6,490.06 229.92,490.06 232.24,492.94 234.56,492.94 236.88,492.94 239.19,464.04 241.51,464.04 243.83,495.95 246.15,495.95 248.46,495.95 250.78,484.94 253.1,447.83 255.42,447.83 257.73,447.83 260.05,447.83 262.37,454.59 264.69,454.59 267.01,454.59 269.32,461.94 271.64,461.94 273.96,461.94 276.28,405.0 278.59,405.0 280.91,405.0 283.23,405.0 285.55,405.0 287.86,405.0 290.18,405.0 292.5,405.0 294.82,405.0 297.14,405.0 299.45,405.0 301.77,405.0 304.09,405.0 306.41,405.0 308.72,405.0 311.04,405.0 313.36,405.0 315.68,443.96 317.99,443.96 320.31,443.96 322.63,439.58 324.95,486.64 327.27,471.55 329.58,470.07 331.9,470.07 334.22,470.07 336.54,466.12 338.85,466.12 341.17,466.12 343.49,466.12 345.81,466.12 348.12,466.12 350.44,466.12 352.76,472.53 355.08,472.53 357.4,472.53 359.71,472.53 362.03,472.53 364.35,467.75 366.67,467.75 368.98,467.75 371.3,467.75 373.62,467.75 375.94,454.64 378.26,454.64 380.57,454.64 382.89,454.64 385.21,454.64 387.53,454.64 389.84,454.64 392.16,454.64 394.48,454.64 396.8,454.64 399.11,454.64 401.43,449.15 403.75,449.15 406.07,449.15 408.39,447.53 410.7,447.53 413.02,447.53 415.34,447.53 417.66,448.16 419.97,448.16 422.29,448.16 424.61,448.16 426.93,448.16 429.24,430.96 431.56,430.96 433.88,430.96 436.2,430.96 438.52,430.96 440.83,430.96 443.15,430.96 445.47,430.96 447.79,430.96 450.1,426.64 452.42,423.81 454.74,423.81 457.06,423.81 459.38,431.26 461.69,435.37 464.01,434.66 466.33,448.81 468.65,448.81 470.96,448.81 473.28,448.81 475.6,448.81 477.92,432.88 480.23,435.48 482.55,435.48 484.87,435.48 487.19,435.48 489.51,435.48 491.82,435.48 494.14,435.48 496.46,435.48 498.78,435.48 501.09,435.48 503.41,435.48 505.73,435.48 508.05,435.48 510.36,435.48 512.68,435.48 515.0,435.48 517.32,472.53 519.64,476.18 521.95,476.18 524.27,476.18 526.59,476.18 528.91,476.18 531.22,476.18 533.54,486.46 535.86,488.87 538.18,488.87 540.49,488.87 542.81,470.87 545.13,485.37 547.45,465.56 549.77,470.36 552.08,470.36 554.4,462.11 556.72,463.61 559.04,463.61 561.35,463.61 563.67,453.99 565.99,473.89 568.31,473.89 570.62,468.99 572.94,469.49 575.26,469.49 577.58,469.49 579.9,449.73 582.21,449.73 584.53,449.73 586.85,449.73 589.17,449.73 591.48,449.73 593.8,465.83 596.12,465.83 598.44,465.83 600.76,467.11 603.07,467.11 605.39,467.11 607.71,467.11 610.03,449.93 612.34,449.93 614.66,449.93 616.98,449.93 619.3,456.66 621.61,474.61 623.93,471.35 626.25,471.35 628.57,456.14 630.89,456.14 633.2,465.04 635.52,456.27 637.84,456.27 640.16,460.69 642.47,472.59 644.79,464.09 647.11,464.09 649.43,456.41 651.74,454.39 654.06,456.86 656.38,455.82 658.7,455.1 661.02,460.7 663.33,461.87 665.65,461.87 667.97,462.32 670.29,462.32 672.6,462.32 674.92,457.42 677.24,468.86 679.56,468.86 681.88,480.34 684.19,488.4 686.51,484.74 688.83,483.9 691.15,472.89 693.46,474.63 695.78,478.18 698.1,476.69 700.42,479.55 702.73,473.2 705.05,477.19 707.37,475.62 709.69,475.62 712.01,483.67 714.32,485.62 716.64,489.55 718.96,489.55 721.28,483.06 723.59,488.7 725.91,488.7 728.23,486.35 730.55,486.35 732.86,482.66 735.18,491.15 737.5,491.15 739.82,456.14 742.14,456.14 744.45,459.75 746.77,454.13 749.09,454.83 751.41,455.93 753.72,452.54 756.04,459.12 758.36,455.49 760.68,454.87 762.99,457.1 765.31,457.1 767.63,452.71 769.95,455.74 772.27,450.42 774.58,456.49 776.9,457.5 779.22,461.97 781.54,462.08 783.85,462.08 786.17,451.62 788.49,453.88 790.81,453.88 793.12,450.48 795.44,454.61 797.76,451.8 800.08,451.54 802.4,455.31 804.71,452.51 807.03,457.01 809.35,455.77 811.67,457.59 813.98,460.69 816.3,462.98 818.62,460.7 820.94,454.69 823.26,448.02 825.57,443.81 827.89,445.74 830.21,444.17 832.53,447.89 834.84,446.93 837.16,441.49 839.48,441.63 841.8,440.4 844.11,440.4 846.43,440.4 848.75,440.4 851.07,440.93 853.39,443.67 855.7,440.29 858.02,438.76 860.34,438.68 862.66,440.21 864.97,442.36 867.29,443.66 869.61,442.48 871.93,441.32 874.24,442.87 876.56,442.43 878.88,438.95 881.2,440.66 883.52,445.36 885.83,445.36 888.15,443.31 890.47,439.43 892.79,440.04 895.1,437.03 897.42,436.0 899.74,434.11 902.06,434.84 904.38,433.62 906.69,432.02 909.01,433.29 911.33,430.31 913.65,433.1 915.96,433.33 918.28,432.87 920.6,434.06 922.92,436.47 925.23,435.97 927.55,435.58 929.87,438.45 932.19,439.75 934.51,437.38 936.82,438.69 939.14,435.5 941.46,436.02 943.78,433.96 946.09,435.95 948.41,434.3 950.73,436.06 953.05,437.83 955.36,440.67 957.68,442.22 960.0,441.99" opacity="0.82"/>
<polyline fill="none" stroke="#4c9f70" stroke-width="1.6" points="70.0,434.15 72.32,434.15 74.64,434.15 76.95,434.15 79.27,434.15 81.59,434.15 83.91,434.15 86.22,434.15 88.54,434.15 90.86,434.15 93.18,434.15 95.49,473.12 97.81,476.23 100.13,476.23 102.45,476.23 104.77,476.23 107.08,476.23 109.4,476.23 111.72,476.23 114.04,476.23 116.35,476.23 118.67,476.23 120.99,476.23 123.31,476.23 125.62,466.08 127.94,482.35 130.26,482.35 132.58,482.35 134.9,482.35 137.21,482.35 139.53,482.35 141.85,482.35 144.17,482.35 146.48,482.35 148.8,482.35 151.12,482.35 153.44,482.35 155.76,503.76 158.07,455.39 160.39,455.39 162.71,455.39 165.03,455.39 167.34,475.04 169.66,475.04 171.98,475.04 174.3,499.72 176.61,523.92 178.93,518.46 181.25,518.46 183.57,518.46 185.89,518.46 188.2,517.28 190.52,513.91 192.84,513.91 195.16,513.91 197.47,513.91 199.79,513.91 202.11,513.91 204.43,513.91 206.74,513.91 209.06,513.91 211.38,525.49 213.7,525.49 216.02,525.49 218.33,525.49 220.65,525.49 222.97,525.49 225.29,525.49 227.6,512.55 229.92,512.55 232.24,512.55 234.56,512.55 236.88,512.55 239.19,512.55 241.51,512.55 243.83,512.55 246.15,517.57 248.46,487.06 250.78,487.06 253.1,487.06 255.42,469.73 257.73,469.73 260.05,469.73 262.37,469.73 264.69,469.73 267.01,469.73 269.32,469.73 271.64,469.73 273.96,469.73 276.28,469.73 278.59,469.82 280.91,469.82 283.23,469.82 285.55,469.82 287.86,469.82 290.18,469.82 292.5,469.82 294.82,478.87 297.14,478.87 299.45,478.87 301.77,478.87 304.09,478.87 306.41,478.87 308.72,478.87 311.04,478.87 313.36,478.87 315.68,478.87 317.99,478.87 320.31,478.87 322.63,478.87 324.95,478.87 327.27,478.87 329.58,478.87 331.9,478.87 334.22,478.87 336.54,482.84 338.85,482.84 341.17,482.84 343.49,482.84 345.81,484.47 348.12,484.47 350.44,484.47 352.76,484.47 355.08,484.47 357.4,484.47 359.71,484.47 362.03,484.47 364.35,496.76 366.67,498.64 368.98,498.64 371.3,498.64 373.62,473.56 375.94,473.56 378.26,473.56 380.57,485.89 382.89,485.89 385.21,485.89 387.53,485.89 389.84,485.89 392.16,498.83 394.48,498.83 396.8,498.83 399.11,506.78 401.43,506.78 403.75,459.06 406.07,461.2 408.39,461.2 410.7,461.2 413.02,461.2 415.34,461.2 417.66,461.2 419.97,461.2 422.29,461.2 424.61,461.2 426.93,461.2 429.24,461.2 431.56,461.2 433.88,461.2 436.2,461.2 438.52,461.2 440.83,461.2 443.15,461.2 445.47,461.2 447.79,461.2 450.1,461.2 452.42,461.2 454.74,476.5 457.06,476.5 459.38,466.81 461.69,466.81 464.01,466.81 466.33,479.11 468.65,479.11 470.96,479.11 473.28,479.11 475.6,479.11 477.92,479.11 480.23,479.11 482.55,479.11 484.87,479.11 487.19,479.11 489.51,479.11 491.82,479.11 494.14,479.11 496.46,479.11 498.78,479.11 501.09,479.11 503.41,479.11 505.73,479.11 508.05,479.11 510.36,495.76 512.68,495.76 515.0,495.76 517.32,478.87 519.64,478.87 521.95,478.87 524.27,478.87 526.59,478.87 528.91,478.87 531.22,478.87 533.54,478.87 535.86,478.87 538.18,478.87 540.49,478.87 542.81,478.87 545.13,488.56 547.45,487.08 549.77,479.12 552.08,479.12 554.4,479.12 556.72,479.12 559.04,479.12 561.35,479.12 563.67,469.94 565.99,475.0 568.31,475.0 570.62,475.0 572.94,476.14 575.26,509.27 577.58,503.92 579.9,511.08 582.21,478.12 584.53,478.12 586.85,478.12 589.17,466.66 591.48,466.66 593.8,466.66 596.12,466.66 598.44,484.4 600.76,487.32 603.07,487.32 605.39,481.74 607.71,481.74 610.03,481.74 612.34,481.74 614.66,477.36 616.98,477.25 619.3,454.79 621.61,459.91 623.93,459.91 626.25,459.91 628.57,479.62 630.89,490.92 633.2,490.92 635.52,491.89 637.84,491.25 640.16,488.69 642.47,483.48 644.79,482.99 647.11,482.99 649.43,482.99 651.74,477.86 654.06,477.86 656.38,477.86 658.7,477.86 661.02,477.05 663.33,476.2 665.65,476.2 667.97,477.3 670.29,477.3 672.6,481.92 674.92,481.78 677.24,487.44 679.56,487.44 681.88,487.29 684.19,486.56 686.51,483.25 688.83,483.25 691.15,484.79 693.46,491.5 695.78,491.5 698.1,491.5 700.42,485.03 702.73,485.03 705.05,485.03 707.37,487.43 709.69,487.43 712.01,489.51 714.32,489.51 716.64,489.51 718.96,493.79 721.28,493.79 723.59,497.33 725.91,497.33 728.23,499.09 730.55,499.09 732.86,499.09 735.18,500.47 737.5,500.47 739.82,489.51 742.14,490.12 744.45,490.12 746.77,490.12 749.09,490.12 751.41,490.12 753.72,490.94 756.04,490.94 758.36,485.99 760.68,485.99 762.99,488.15 765.31,484.54 767.63,484.54 769.95,486.88 772.27,488.06 774.58,488.06 776.9,491.53 779.22,496.51 781.54,495.86 783.85,494.77 786.17,497.14 788.49,499.63 790.81,493.16 793.12,494.58 795.44,494.58 797.76,494.58 800.08,492.68 802.4,490.92 804.71,491.75 807.03,488.69 809.35,489.5 811.67,489.5 813.98,489.5 816.3,491.36 818.62,487.58 820.94,490.26 823.26,486.12 825.57,492.31 827.89,491.04 830.21,490.99 832.53,489.45 834.84,489.45 837.16,488.27 839.48,491.98 841.8,491.98 844.11,491.98 846.43,493.88 848.75,491.32 851.07,491.81 853.39,491.55 855.7,491.55 858.02,492.29 860.34,494.06 862.66,494.06 864.97,493.62 867.29,491.84 869.61,491.84 871.93,491.72 874.24,492.24 876.56,491.31 878.88,490.14 881.2,490.79 883.52,492.37 885.83,493.01 888.15,493.41 890.47,494.91 892.79,496.79 895.1,500.51 897.42,502.4 899.74,503.27 902.06,501.19 904.38,500.28 906.69,499.65 909.01,499.28 911.33,497.76 913.65,496.92 915.96,495.06 918.28,494.8 920.6,495.07 922.92,493.6 925.23,492.35 927.55,492.89 929.87,491.42 932.19,492.32 934.51,489.69 936.82,491.88 939.14,494.26 941.46,494.19 943.78,497.19 946.09,497.19 948.41,496.26 950.73,496.47 953.05,495.39 955.36,493.65 957.68,492.4 960.0,491.59" opacity="0.82"/>
<polyline fill="none" stroke="#f3a712" stroke-width="1.6" points="70.0,434.15 72.32,434.15 74.64,429.54 76.95,429.54 79.27,429.54 81.59,429.54 83.91,429.54 86.22,429.54 88.54,429.54 90.86,429.54 93.18,429.54 95.49,461.97 97.81,461.97 100.13,484.65 102.45,484.65 104.77,521.38 107.08,521.38 109.4,521.38 111.72,521.38 114.04,491.43 116.35,522.98 118.67,510.05 120.99,510.05 123.31,505.2 125.62,499.8 127.94,502.96 130.26,502.96 132.58,502.96 134.9,502.96 137.21,502.96 139.53,463.09 141.85,463.09 144.17,463.09 146.48,463.09 148.8,463.09 151.12,463.09 153.44,463.09 155.76,463.09 158.07,466.44 160.39,466.44 162.71,466.44 165.03,466.44 167.34,463.2 169.66,492.76 171.98,492.76 174.3,528.93 176.61,541.67 178.93,523.06 181.25,523.06 183.57,506.6 185.89,539.89 188.2,550.0 190.52,550.0 192.84,539.85 195.16,530.1 197.47,505.97 199.79,505.97 202.11,505.97 204.43,505.97 206.74,505.97 209.06,512.33 211.38,512.33 213.7,512.33 216.02,501.81 218.33,501.81 220.65,482.23 222.97,471.7 225.29,471.7 227.6,471.7 229.92,472.64 232.24,444.59 234.56,444.59 236.88,448.55 239.19,448.55 241.51,448.55 243.83,462.61 246.15,463.57 248.46,463.57 250.78,474.13 253.1,456.73 255.42,456.73 257.73,456.73 260.05,456.73 262.37,460.03 264.69,460.03 267.01,469.63 269.32,469.63 271.64,469.63 273.96,469.63 276.28,469.63 278.59,454.44 280.91,454.44 283.23,454.44 285.55,454.44 287.86,454.44 290.18,454.44 292.5,454.44 294.82,468.24 297.14,468.24 299.45,468.24 301.77,484.61 304.09,484.61 306.41,484.61 308.72,488.11 311.04,488.11 313.36,488.11 315.68,480.41 317.99,506.61 320.31,506.61 322.63,506.61 324.95,493.31 327.27,493.31 329.58,493.31 331.9,493.31 334.22,493.31 336.54,493.31 338.85,493.31 341.17,493.31 343.49,493.31 345.81,501.48 348.12,501.48 350.44,503.96 352.76,503.96 355.08,516.56 357.4,516.56 359.71,507.99 362.03,507.99 364.35,507.99 366.67,507.99 368.98,507.99 371.3,507.99 373.62,507.99 375.94,507.99 378.26,500.01 380.57,505.02 382.89,505.02 385.21,505.02 387.53,505.02 389.84,505.02 392.16,505.02 394.48,505.02 396.8,513.42 399.11,513.42 401.43,513.42 403.75,513.42 406.07,513.42 408.39,513.42 410.7,506.86 413.02,506.86 415.34,506.86 417.66,506.86 419.97,506.86 422.29,506.86 424.61,500.58 426.93,505.26 429.24,509.33 431.56,494.44 433.88,494.44 436.2,494.44 438.52,499.07 440.83,496.06 443.15,496.06 445.47,510.6 447.79,492.7 450.1,467.0 452.42,467.0 454.74,467.0 457.06,467.0 459.38,469.44 461.69,469.44 464.01,469.44 466.33,469.44 468.65,469.44 470.96,479.97 473.28,479.97 475.6,479.97 477.92,487.92 480.23,487.92 482.55,487.92 484.87,467.79 487.19,467.79 489.51,467.79 491.82,493.68 494.14,493.68 496.46,493.68 498.78,493.68 501.09,470.17 503.41,470.17 505.73,503.48 508.05,503.48 510.36,500.58 512.68,464.14 515.0,464.14 517.32,467.79 519.64,467.79 521.95,467.79 524.27,467.79 526.59,467.79 528.91,467.79 531.22,440.53 533.54,441.41 535.86,441.41 538.18,431.1 540.49,471.88 542.81,471.88 545.13,477.88 547.45,477.88 549.77,484.42 552.08,477.04 554.4,489.74 556.72,464.06 559.04,464.06 561.35,470.58 563.67,470.58 565.99,470.58 568.31,463.24 570.62,463.24 572.94,463.24 575.26,463.24 577.58,463.24 579.9,463.24 582.21,463.24 584.53,463.24 586.85,463.24 589.17,463.24 591.48,459.18 593.8,459.18 596.12,462.33 598.44,445.9 600.76,445.9 603.07,446.77 605.39,450.33 607.71,450.33 610.03,440.81 612.34,450.65 614.66,471.58 616.98,471.58 619.3,482.33 621.61,482.33 623.93,467.81 626.25,466.37 628.57,470.58 630.89,470.58 633.2,470.58 635.52,470.58 637.84,470.58 640.16,470.58 642.47,458.74 644.79,469.27 647.11,469.27 649.43,469.27 651.74,478.65 654.06,482.71 656.38,486.57 658.7,489.47 661.02,486.78 663.33,477.47 665.65,473.11 667.97,479.9 670.29,479.9 672.6,471.5 674.92,491.52 677.24,491.52 679.56,480.91 681.88,481.08 684.19,474.2 686.51,483.03 688.83,477.53 691.15,469.61 693.46,469.61 695.78,457.12 698.1,465.22 700.42,465.22 702.73,464.8 705.05,464.8 707.37,470.14 709.69,483.95 712.01,481.02 714.32,481.02 716.64,481.02 718.96,477.57 721.28,462.44 723.59,477.82 725.91,482.86 728.23,482.86 730.55,488.07 732.86,491.72 735.18,495.57 737.5,500.43 739.82,477.57 742.14,475.73 744.45,478.01 746.77,478.02 749.09,478.02 751.41,487.4 753.72,487.18 756.04,491.23 758.36,493.43 760.68,489.47 762.99,488.46 765.31,484.25 767.63,484.25 769.95,492.15 772.27,491.41 774.58,492.49 776.9,492.37 779.22,490.15 781.54,485.62 783.85,489.96 786.17,488.55 788.49,488.55 790.81,488.71 793.12,490.0 795.44,490.0 797.76,493.95 800.08,493.95 802.4,491.39 804.71,494.38 807.03,494.8 809.35,491.29 811.67,498.82 813.98,499.76 816.3,500.23 818.62,505.79 820.94,497.13 823.26,500.71 825.57,503.34 827.89,504.63 830.21,503.42 832.53,504.23 834.84,507.3 837.16,506.94 839.48,506.4 841.8,506.4 844.11,506.9 846.43,506.06 848.75,506.09 851.07,478.02 853.39,479.36 855.7,479.91 858.02,474.65 860.34,474.3 862.66,475.57 864.97,475.24 867.29,473.14 869.61,471.72 871.93,469.85 874.24,469.59 876.56,465.49 878.88,468.77 881.2,469.62 883.52,471.65 885.83,471.65 888.15,471.3 890.47,471.3 892.79,471.3 895.1,471.3 897.42,475.44 899.74,475.44 902.06,475.44 904.38,474.85 906.69,472.21 909.01,472.13 911.33,472.13 913.65,472.13 915.96,472.13 918.28,470.33 920.6,466.87 922.92,468.54 925.23,468.54 927.55,466.45 929.87,467.76 932.19,467.76 934.51,467.13 936.82,467.13 939.14,465.12 941.46,466.37 943.78,466.65 946.09,466.65 948.41,466.65 950.73,467.84 953.05,469.25 955.36,469.47 957.68,472.24 960.0,472.91" opacity="0.82"/>
</svg>
