<svg xmlns="http://www.w3.org/2000/svg" width="900" height="420" viewBox="0 0 900 420">
<rect x="0" y="0" width="900" height="420" fill="#ffffff"/>
<text x="450" y="26" text-anchor="middle" font-family="monospace" font-size="18">Calibration Score History</text>
<line x1="70.0" y1="375.0" x2="880.0" y2="375.0" stroke="#444" stroke-width="1.5"/>
<line x1="70.0" y1="45.0" x2="70.0" y2="375.0" stroke="#444" stroke-width="1.5"/>
<polyline fill="none" stroke="#1f77b4" stroke-width="2" points="70.0,365.1 70.68,365.1 71.35,339.15 72.03,373.57 72.7,373.57 73.38,373.57 74.05,317.58 74.72,317.58 75.4,316.19 76.08,316.19 76.75,316.19 77.42,316.19 78.1,316.19 78.78,316.19 79.45,354.65 80.12,354.65 80.8,340.48 81.47,340.48 82.15,364.91 82.82,364.91 83.5,364.91 84.18,364.91 84.85,371.79 85.52,302.65 86.2,302.65 86.88,291.61 87.55,291.61 88.22,374.81 88.9,374.81 89.58,365.1 90.25,365.1 90.92,365.1 91.6,344.82 92.28,344.82 92.95,344.82 93.62,374.81 94.3,375.0 94.98,336.79 95.65,336.79 96.32,365.07 97.0,365.07 97.68,365.07 98.35,365.07 99.02,365.07 99.7,365.07 100.38,305.75 101.05,305.75 101.72,218.25 102.4,218.25 103.08,250.0 103.75,355.76 104.42,355.76 105.1,355.76 105.78,355.76 106.45,361.59 107.12,289.63 107.8,289.63 108.48,278.69 109.15,278.69 109.82,373.26 110.5,373.26 111.18,373.26 111.85,373.26 112.52,373.26 113.2,373.26 113.88,373.26 114.55,373.26 115.22,366.82 115.9,316.44 116.58,316.44 117.25,316.44 117.92,250.27 118.6,250.27 119.28,360.17 119.95,365.35 120.62,350.44 121.3,336.65 121.98,336.65 122.65,336.65 123.32,336.65 124.0,336.65 124.68,336.65 125.35,365.73 126.02,365.73 126.7,365.73 127.38,365.73 128.05,365.73 128.72,365.73 129.4,365.73 130.07,365.73 130.75,365.73 131.43,365.73 132.1,319.97 132.78,265.37 133.45,243.03 134.12,374.44 134.8,333.87 135.48,374.0 136.15,374.0 136.82,374.0 137.5,374.0 138.18,279.18 138.85,263.97 139.52,263.97 140.2,299.84 140.88,299.84 141.55,251.69 142.22,351.45 142.9,375.0 143.57,375.0 144.25,366.93 144.93,366.93 145.6,323.28 146.28,374.58 146.95,374.58 147.62,374.58 148.3,374.58 148.98,374.58 149.65,260.66 150.32,260.66 151.0,260.66 151.68,260.66 152.35,260.66 153.02,260.66 153.7,370.98 154.38,370.98 155.05,374.62 155.72,374.62 156.4,374.62 157.07,326.4 157.75,371.61 158.43,371.61 159.1,371.61 159.78,371.61 160.45,371.61 161.12,354.53 161.8,354.53 162.48,354.53 163.15,354.53 163.82,299.42 164.5,299.42 165.18,297.19 165.85,275.14 166.52,275.14 167.2,275.14 167.88,275.14 168.55,361.49 169.22,361.49 169.9,361.49 170.58,366.35 171.25,366.35 171.92,366.35 172.6,366.35 173.28,365.1 173.95,365.1 174.62,365.1 175.3,365.1 175.98,247.6 176.65,364.8 177.32,364.8 178.0,364.8 178.68,364.8 179.35,364.8 180.02,364.8 180.7,364.8 181.38,364.8 182.05,325.52 182.72,325.52 183.4,325.52 184.08,338.35 184.75,338.35 185.42,338.35 186.1,338.35 186.78,366.93 187.45,366.93 188.12,366.93 188.8,366.93 189.48,374.81 190.15,354.65 190.82,354.65 191.5,342.39 192.18,342.39 192.85,342.39 193.52,342.39 194.2,342.39 194.88,342.39 195.55,342.39 196.22,371.79 196.9,337.46 197.58,337.46 198.25,354.37 198.92,354.37 199.6,354.37 200.28,354.37 200.95,340.22 201.62,340.22 202.3,306.32 202.98,306.32 203.65,288.1 204.32,288.1 205.0,288.1 205.68,288.1 206.35,288.1 207.02,288.1 207.7,288.1 208.38,288.1 209.05,363.16 209.72,363.16 210.4,363.16 211.08,362.49 211.75,372.79 212.42,372.79 213.1,372.79 213.78,372.79 214.45,372.79 215.12,372.79 215.8,372.79 216.48,372.79 217.15,364.61 217.82,364.61 218.5,364.61 219.18,364.61 219.85,364.61 220.52,360.41 221.2,353.59 221.88,353.59 222.55,353.59 223.22,353.59 223.9,353.59 224.58,361.42 225.25,361.42 225.92,361.42 226.6,361.42 227.28,351.52 227.95,351.52 228.62,351.52 229.3,371.61 229.98,370.41 230.65,370.41 231.32,370.41 232.0,370.41 232.68,370.41 233.35,370.41 234.02,375.0 234.7,375.0 235.38,375.0 236.05,375.0 236.72,375.0 237.4,276.25 238.08,364.89 238.75,364.89 239.42,364.89 240.1,322.92 240.78,322.92 241.45,322.92 242.12,322.92 242.8,337.39 243.48,337.39 244.15,337.39 244.82,360.12 245.5,373.51 246.18,373.51 246.85,373.51 247.52,374.63 248.2,374.63 248.88,374.63 249.55,374.63 250.22,374.63 250.9,374.63 251.58,374.63 252.25,374.63 252.92,366.87 253.6,366.87 254.28,275.53 254.95,340.02 255.62,340.02 256.3,340.02 256.98,340.02 257.65,340.02 258.32,321.89 259.0,321.89 259.68,307.78 260.35,159.03 261.02,159.03 261.7,275.14 262.38,275.14 263.05,371.74 263.73,371.74 264.4,371.74 265.08,371.74 265.75,371.74 266.42,371.74 267.1,371.74 267.77,371.74 268.45,340.43 269.12,330.3 269.8,330.3 270.48,373.0 271.15,316.8 271.82,316.8 272.5,316.8 273.18,316.8 273.85,316.8 274.52,232.94 275.2,232.94 275.88,232.94 276.55,232.94 277.23,237.83 277.9,234.43 278.58,313.83 279.25,313.83 279.92,249.92 280.6,249.92 281.27,249.92 281.95,249.92 282.62,249.92 283.3,249.92 283.98,362.89 284.65,362.89 285.32,362.89 286.0,340.9 286.68,374.82 287.35,354.43 288.02,354.43 288.7,354.43 289.38,319.35 290.05,319.35 290.73,373.63 291.4,248.46 292.08,371.77 292.75,369.95 293.42,369.95 294.1,365.1 294.77,365.1 295.45,365.1 296.12,365.1 296.8,365.1 297.48,374.81 298.15,374.81 298.82,374.81 299.5,273.21 300.18,273.21 300.85,353.43 301.52,347.98 302.2,347.98 302.88,347.98 303.55,347.98 304.23,347.98 304.9,371.68 305.58,371.68 306.25,371.68 306.92,371.68 307.6,371.68 308.27,371.68 308.95,371.68 309.62,375.0 310.3,375.0 310.98,375.0 311.65,375.0 312.32,375.0 313.0,375.0 313.68,375.0 314.35,375.0 315.02,375.0 315.7,375.0 316.38,375.0 317.05,371.61 317.73,371.61 318.4,371.61 319.08,374.89 319.75,374.89 320.42,374.89 321.1,346.23 321.77,358.83 322.45,351.1 323.12,344.66 323.8,344.66 324.48,374.43 325.15,371.07 325.82,371.07 326.5,371.07 327.18,371.07 327.85,371.07 328.52,368.21 329.2,176.8 329.88,287.06 330.55,270.62 331.22,270.62 331.9,270.63 332.58,270.63 333.25,367.53 333.92,367.53 334.6,367.53 335.28,367.53 335.95,367.53 336.62,367.53 337.3,64.21 337.98,364.58 338.65,344.4 339.32,374.33 340.0,374.33 340.68,354.65 341.35,344.82 342.02,344.82 342.7,344.82 343.38,344.82 344.05,344.82 344.72,344.82 345.4,344.82 346.08,344.82 346.75,344.82 347.42,362.91 348.1,362.91 348.78,313.35 349.45,313.35 350.12,313.35 350.8,313.35 351.48,313.35 352.15,313.35 352.82,340.48 353.5,340.48 354.18,275.09 354.85,275.09 355.52,346.42 356.2,346.42 356.88,346.42 357.55,370.98 358.22,370.98 358.9,370.98 359.58,107.78 360.25,107.78 360.92,107.78 361.6,107.78 362.28,107.78 362.95,366.93 363.62,366.93 364.3,366.93 364.98,366.93 365.65,313.03 366.32,228.03 367.0,228.03 367.68,228.03 368.35,228.03 369.02,366.82 369.7,366.82 370.38,298.58 371.05,298.58 371.72,374.89 372.4,374.89 373.08,374.89 373.75,374.89 374.42,301.46 375.1,374.7 375.78,374.7 376.45,374.7 377.12,299.84 377.8,299.84 378.48,370.79 379.15,361.49 379.82,361.49 380.5,361.49 381.18,355.18 381.85,355.18 382.52,355.18 383.2,355.18 383.88,355.18 384.55,355.18 385.22,355.18 385.9,367.54 386.58,364.17 387.25,364.17 387.92,364.17 388.6,364.17 389.28,268.35 389.95,366.56 390.62,354.65 391.3,354.65 391.98,354.65 392.65,351.52 393.32,351.52 394.0,364.99 394.68,350.7 395.35,350.7 396.02,350.7 396.7,350.7 397.38,330.76 398.05,330.76 398.72,330.76 399.4,330.76 400.08,330.76 400.75,330.76 401.42,358.78 402.1,358.78 402.78,358.78 403.45,358.78 404.12,367.66 404.8,367.66 405.48,367.66 406.15,367.66 406.82,367.66 407.5,370.98 408.18,370.98 408.85,373.63 409.52,372.99 410.2,372.99 410.88,372.99 411.55,372.99 412.22,372.99 412.9,337.47 413.58,337.47 414.25,328.6 414.92,328.6 415.6,328.6 416.28,328.6 416.95,341.89 417.62,341.89 418.3,341.89 418.98,341.89 419.65,341.89 420.32,300.78 421.0,300.78 421.68,300.78 422.35,300.78 423.02,373.66 423.7,373.66 424.38,373.66 425.05,373.66 425.72,373.66 426.4,373.66 427.08,373.66 427.75,373.66 428.42,373.66 429.1,373.66 429.78,352.46 430.45,352.46 431.12,352.46 431.8,352.46 432.48,352.46 433.15,352.46 433.82,352.46 434.5,352.46 435.18,352.46 435.85,352.46 436.52,352.46 437.2,332.89 437.88,332.89 438.55,332.89 439.22,332.89 439.9,332.89 440.58,340.66 441.25,340.66 441.92,340.66 442.6,368.59 443.28,368.59 443.95,368.59 444.62,368.59 445.3,375.0 445.98,375.0 446.65,375.0 447.32,308.21 448.0,308.21 448.68,341.14 449.35,332.77 450.02,332.77 450.7,332.77 451.38,332.77 452.05,332.77 452.72,366.96 453.4,370.98 454.08,370.98 454.75,373.63 455.42,363.62 456.1,370.8 456.78,370.8 457.45,370.8 458.12,301.5 458.8,334.44 459.48,334.44 460.15,334.44 460.82,334.44 461.5,351.46 462.18,351.46 462.85,351.46 463.52,269.83 464.2,269.83 464.88,269.83 465.55,269.83 466.22,373.32 466.9,374.75 467.58,374.75 468.25,374.75 468.92,374.75 469.6,374.75 470.28,374.75 470.95,328.72 471.62,362.91 472.3,362.91 472.98,362.91 473.65,362.91 474.32,362.91 475.0,362.91 475.68,308.2 476.35,308.2 477.02,308.2 477.7,338.35 478.38,375.0 479.05,375.0 479.72,375.0 480.4,375.0 481.08,375.0 481.75,375.0 482.42,374.89 483.1,371.79 483.78,371.79 484.45,371.79 485.12,346.43 485.8,372.26 486.48,372.26 487.15,372.26 487.82,375.0 488.5,375.0 489.18,375.0 489.85,276.42 490.52,276.42 491.2,276.42 491.88,375.0 492.55,375.0 493.22,375.0 493.9,373.33 494.58,373.33 495.25,298.58 495.92,298.58 496.6,298.58 497.28,324.4 497.95,324.4 498.62,324.4 499.3,324.4 499.98,324.4 500.65,275.93 501.32,371.79 502.0,371.79 502.68,371.79 503.35,374.85 504.02,374.85 504.7,375.0 505.38,375.0 506.05,375.0 506.72,350.09 507.4,349.15 508.08,355.26 508.75,319.12 509.42,319.12 510.1,319.12 510.78,332.13 511.45,246.69 512.12,320.37 512.8,320.37 513.48,373.04 514.15,373.04 514.83,373.04 515.5,373.04 516.17,373.04 516.85,373.04 517.52,351.89 518.2,351.89 518.88,364.5 519.55,303.44 520.22,356.26 520.9,267.24 521.58,270.03 522.25,270.03 522.92,311.6 523.6,311.6 524.28,311.6 524.95,311.6 525.62,311.6 526.3,364.7 526.98,364.7 527.65,367.18 528.33,346.77 529.0,365.17 529.67,365.17 530.35,316.73 531.02,316.73 531.7,371.66 532.38,371.66 533.05,371.66 533.72,371.66 534.4,371.66 535.08,329.99 535.75,329.99 536.42,329.99 537.1,344.94 537.78,287.56 538.45,287.56 539.12,287.56 539.8,341.14 540.48,341.14 541.15,341.14 541.83,301.49 542.5,301.49 543.17,301.49 543.85,301.49 544.52,351.16 545.2,351.16 545.88,351.16 546.55,354.65 547.22,354.65 547.9,354.65 548.58,354.6 549.25,354.6 549.92,365.1 550.6,365.1 551.28,350.63 551.95,195.32 552.62,169.43 553.3,169.43 553.98,169.43 554.65,169.43 555.33,144.73 556.0,144.73 556.67,140.11 557.35,362.91 558.02,218.29 558.7,340.85 559.38,340.85 560.05,366.17 560.72,366.17 561.4,366.17 562.08,366.17 562.75,365.12 563.42,365.12 564.1,365.12 564.78,365.12 565.45,266.5 566.12,339.37 566.8,290.88 567.48,290.88 568.15,272.85 568.83,272.85 569.5,272.85 570.17,360.58 570.85,360.58 571.52,360.58 572.2,311.16 572.88,330.16 573.55,344.96 574.22,344.96 574.9,302.4 575.58,302.4 576.25,301.05 576.92,301.05 577.6,346.36 578.28,224.22 578.95,209.49 579.62,209.49 580.3,209.49 580.98,194.86 581.65,194.86 582.33,194.86 583.0,328.26 583.67,328.26 584.35,340.55 585.02,365.38 585.7,365.38 586.38,370.68 587.05,374.59 587.72,369.57 588.4,274.47 589.08,263.7 589.75,246.73 590.42,191.92 591.1,188.02 591.78,188.02 592.45,273.37 593.12,245.21 593.8,245.21 594.48,245.21 595.15,315.58 595.83,342.33 596.5,342.33 597.17,342.33 597.85,342.33 598.52,342.33 599.2,375.0 599.88,375.0 600.55,375.0 601.22,375.0 601.9,367.71 602.58,367.71 603.25,367.71 603.92,367.71 604.6,367.71 605.28,367.71 605.95,367.71 606.62,367.71 607.3,374.81 607.98,366.93 608.65,366.93 609.33,366.93 610.0,366.93 610.67,365.1 611.35,365.1 612.02,371.52 612.7,374.66 613.38,374.66 614.05,354.5 614.72,354.5 615.4,354.5 616.08,368.59 616.75,368.59 617.42,368.59 618.1,368.59 618.78,370.77 619.45,374.81 620.12,364.91 620.8,371.78 621.48,371.78 622.15,371.78 622.83,319.54 623.5,375.0 624.17,375.0 624.85,374.89 625.52,373.52 626.2,373.52 626.88,373.52 627.55,374.89 628.22,312.85 628.9,340.48 629.58,375.0 630.25,374.81 630.92,361.89 631.6,249.44 632.28,249.44 632.95,375.0 633.62,45.0 634.3,45.0 634.98,45.0 635.65,351.52 636.33,351.52 637.0,351.52 637.67,351.52 638.35,351.52 639.02,354.36 639.7,354.36 640.38,354.36 641.05,354.36 641.72,371.48 642.4,371.48 643.08,329.95 643.75,329.95 644.42,329.95 645.1,312.33 645.78,312.33 646.45,265.99 647.12,265.99 647.8,265.99 648.48,265.99 649.15,350.88 649.83,370.68 650.5,370.68 651.17,370.68 651.85,370.68 652.52,370.68 653.2,370.68 653.88,370.68 654.55,298.51 655.22,350.5 655.9,369.3 656.58,374.41 657.25,374.41 657.92,317.7 658.6,370.98 659.28,354.54 659.95,354.54 660.62,370.7 661.3,370.7 661.98,364.57 662.65,364.57 663.32,364.57 664.0,364.57 664.68,364.57 665.35,364.57 666.02,49.37 666.7,49.37 667.38,49.37 668.05,49.37 668.72,318.9 669.4,369.27 670.08,369.27 670.75,369.27 671.42,369.27 672.1,290.17 672.78,374.11 673.45,374.11 674.12,374.11 674.8,374.11 675.48,374.11 676.15,374.11 676.82,374.11 677.5,374.11 678.18,366.96 678.85,319.72 679.52,371.59 680.2,374.81 680.88,374.81 681.55,366.93 682.22,374.79 682.9,373.63 683.58,371.68 684.25,363.73 684.92,328.72 685.6,340.48 686.28,371.79 686.95,371.76 687.62,346.31 688.3,370.98 688.98,284.76 689.65,366.93 690.32,366.82 691.0,374.81 691.68,374.81 692.35,370.87 693.02,353.43 693.7,373.63 694.38,373.63 695.05,364.99 695.72,346.59 696.4,346.59 697.08,365.57 697.75,347.98 698.42,374.7 699.1,374.83 699.78,366.82 700.45,366.82 701.12,328.72 701.8,332.91 702.48,374.62 703.15,375.0 703.82,373.33 704.5,332.91 705.18,332.91 705.85,374.85 706.52,351.59 707.2,375.0 707.88,356.92 708.55,340.66 709.22,340.66 709.9,340.66 710.58,375.0 711.25,268.35 711.92,288.59 712.6,313.03 713.28,313.03 713.95,322.93 714.62,322.93 715.3,343.45 715.98,365.57 716.65,362.91 717.32,362.91 718.0,346.59 718.68,371.79 719.35,374.81 720.02,364.99 720.7,375.0 721.38,365.1 722.05,353.35 722.72,364.89 723.4,374.89 724.08,353.29 724.75,364.91 725.42,364.91 726.1,346.58 726.78,366.93 727.45,367.64 728.12,346.59 728.8,374.81 729.48,370.98 730.15,360.12 730.82,372.26 731.5,372.26 732.18,372.26 732.85,346.31 733.52,358.87 734.2,362.73 734.88,350.63 735.55,357.47 736.22,346.59 736.9,370.79 737.58,264.11 738.25,264.11 738.92,313.23 739.6,297.19 740.28,275.14 740.95,246.11 741.62,222.66 742.3,192.24 742.98,237.87 743.65,284.76 744.32,250.27 745.0,193.64 745.68,374.88 746.35,365.1 747.02,322.93 747.7,313.03 748.38,313.03 749.05,354.72 749.72,354.72 750.4,371.61 751.08,374.8 751.75,361.88 752.42,361.88 753.1,361.88 753.78,322.74 754.45,330.76 755.12,365.1 755.8,375.0 756.48,375.0 757.15,355.19 757.82,354.53 758.5,374.94 759.18,365.05 759.85,322.91 760.52,374.68 761.2,302.61 761.88,344.82 762.55,374.64 763.22,359.93 763.9,366.93 764.58,374.66 765.25,359.71 765.92,357.03 766.6,374.75 767.28,374.84 767.95,374.84 768.62,374.84 769.3,374.85 769.98,374.86 770.65,374.86 771.32,374.93 772.0,361.38 772.68,341.14 773.35,338.32 774.02,357.28 774.7,357.31 775.38,324.39 776.05,357.47 776.72,362.91 777.4,360.12 778.08,360.12 778.75,373.43 779.42,373.43 780.1,375.0 780.78,364.91 781.45,370.98 782.12,370.98 782.8,340.36 783.48,340.66 784.15,374.81 784.82,361.3 785.5,361.3 786.18,322.93 786.85,374.78 787.52,374.78 788.2,302.63 788.88,353.0 789.55,375.0 790.22,375.0 790.9,375.0 791.58,294.35 792.25,321.75 792.92,336.51 793.6,354.65 794.28,345.05 794.95,354.61 795.62,365.5 796.3,375.0 796.98,354.65 797.65,360.12 798.32,370.98 799.0,365.57 799.68,365.57 800.35,372.26 801.02,374.89 801.7,360.12 802.38,366.93 803.05,370.87 803.72,367.78 804.4,374.89 805.08,375.0 805.75,374.8 806.42,374.8 807.1,371.64 807.78,361.82 808.45,361.82 809.12,374.51 809.8,373.33 810.48,374.99 811.15,370.83 811.82,373.38 812.5,372.08 813.18,374.8 813.85,374.96 814.52,374.93 815.2,364.88 815.88,364.88 816.55,375.0 817.22,364.91 817.9,340.66 818.58,374.81 819.25,370.98 819.92,375.0 820.6,357.03 821.28,357.03 821.95,350.61 822.62,373.63 823.3,366.89 823.98,354.72 824.65,374.96 825.32,375.0 826.0,375.0 826.68,374.7 827.35,370.96 828.02,371.62 828.7,374.9 829.38,374.81 830.05,351.39 830.72,374.64 831.4,364.8 832.08,372.99 832.75,374.94 833.42,374.8 834.1,373.96 834.78,367.77 835.45,354.61 836.12,366.93 836.8,359.7 837.48,362.9 838.15,373.62 838.82,350.63 839.5,361.49 840.18,336.6 840.85,375.0 841.52,374.81 842.2,370.98 842.88,339.08 843.55,349.81 844.22,366.93 844.9,375.0 845.58,375.0 846.25,374.88 846.92,358.87 847.6,358.87 848.28,375.0 848.95,365.08 849.62,374.45 850.3,374.79 850.98,354.56 851.65,353.43 852.32,338.35 853.0,370.98 853.68,317.7 854.35,353.23 855.02,350.08 855.7,372.26 856.38,336.79 857.05,336.79 857.72,347.98 858.4,345.05 859.08,328.72 859.75,328.72 860.42,353.28 861.1,287.55 861.78,334.31 862.45,332.91 863.12,332.77 863.8,366.82 864.48,366.96 865.15,350.63 865.82,366.82 866.5,305.4 867.18,360.12 867.85,362.91 868.52,362.46 869.2,370.86 869.88,374.81 870.55,373.42 871.22,373.42 871.9,370.68 872.58,370.68 873.25,373.33 873.92,373.63 874.6,366.75 875.28,366.75 875.95,374.59 876.62,366.96 877.3,369.53 877.98,360.97 878.65,360.97 879.32,371.79 880.0,351.38"/>
</svg>
