<svg xmlns="http://www.w3.org/2000/svg" width="980" height="580" viewBox="0 0 980 580">
<rect x="0" y="0" width="980" height="580" fill="#ffffff"/>
<text x="490" y="26" text-anchor="middle" font-family="monospace" font-size="18">Posterior Trace Diagnostics</text>
<line x1="70.0" y1="190.0" x2="960.0" y2="190.0" stroke="#444" stroke-width="1.2"/>
<line x1="70.0" y1="45.0" x2="70.0" y2="190.0" stroke="#444" stroke-width="1.2"/>
<text x="70.0" y="37.0" font-family="monospace" font-size="12">alpha_EMT</text>
<polyline fill="none" stroke="#1f77b4" stroke-width="1.6" points="70.0,108.38 72.32,108.38 74.64,117.49 76.95,106.4 79.27,106.4 81.59,105.71 83.91,105.71 86.22,123.01 88.54,123.01 90.86,123.01 93.18,123.01 95.49,123.01 97.81,116.67 100.13,125.4 102.45,113.65 104.77,113.65 107.08,113.65 109.4,113.65 111.72,113.65 114.04,102.52 116.35,102.52 118.67,102.52 120.99,115.93 123.31,135.61 125.62,135.61 127.94,152.53 130.26,152.53 132.58,132.14 134.9,132.14 137.21,132.14 139.53,132.14 141.85,132.14 144.17,132.14 146.48,132.14 148.8,132.14 151.12,105.06 153.44,112.62 155.76,116.16 158.07,116.16 160.39,116.16 162.71,115.74 165.03,115.74 167.34,115.74 169.66,116.17 171.98,116.17 174.3,116.17 176.61,116.17 178.93,106.1 181.25,106.1 183.57,106.1 185.89,106.1 188.2,106.1 190.52,100.54 192.84,125.73 195.16,121.78 197.47,121.78 199.79,135.62 202.11,135.62 204.43,135.62 206.74,129.86 209.06,129.86 211.38,129.86 213.7,129.86 216.02,129.86 218.33,129.86 220.65,129.86 222.97,129.86 225.29,129.86 227.6,129.86 229.92,132.99 232.24,132.99 234.56,132.99 236.88,132.99 239.19,125.55 241.51,125.55 243.83,125.55 246.15,120.51 248.46,120.51 250.78,135.09 253.1,135.09 255.42,135.09 257.73,135.09 260.05,135.09 262.37,135.09 264.69,129.31 267.01,124.06 269.32,124.06 271.64,124.06 273.96,118.97 276.28,118.97 278.59,118.97 280.91,115.64 283.23,127.95 285.55,138.24 287.86,131.75 290.18,131.75 292.5,149.36 294.82,149.36 297.14,149.57 299.45,159.0 301.77,153.08 304.09,153.08 306.41,127.88 308.72,127.88 311.04,127.88 313.36,127.88 315.68,127.88 317.99,110.87 320.31,110.87 322.63,114.31 324.95,114.31 327.27,98.22 329.58,98.22 331.9,98.22 334.22,98.22 336.54,98.22 338.85,98.22 341.17,98.22 343.49,98.22 345.81,98.22 348.12,98.22 350.44,98.22 352.76,98.22 355.08,98.22 357.4,98.22 359.71,98.22 362.03,98.22 364.35,98.22 366.67,98.22 368.98,98.22 371.3,106.19 373.62,106.19 375.94,124.19 378.26,120.62 380.57,106.92 382.89,106.92 385.21,106.92 387.53,106.92 389.84,109.27 392.16,109.27 394.48,109.27 396.8,109.27 399.11,109.27 401.43,92.94 403.75,92.94 406.07,92.94 408.39,92.94 410.7,87.72 413.02,83.12 415.34,83.12 417.66,83.12 419.97,75.0 422.29,96.44 424.61,96.44 426.93,96.44 429.24,99.93 431.56,105.87 433.88,105.87 436.2,103.98 438.52,103.98 440.83,103.98 443.15,103.98 445.47,103.98 447.79,113.9 450.1,113.9 452.42,113.9 454.74,113.9 457.06,113.9 459.38,113.9 461.69,113.9 464.01,113.9 466.33,113.9 468.65,113.9 470.96,105.15 473.28,105.15 475.6,105.15 477.92,105.15 480.23,105.15 482.55,105.15 484.87,105.15 487.19,100.85 489.51,100.85 491.82,100.85 494.14,100.85 496.46,106.73 498.78,106.73 501.09,107.83 503.41,107.83 505.73,95.47 508.05,95.47 510.36,95.47 512.68,95.47 515.0,95.47 517.32,98.22 519.64,100.67 521.95,99.05 524.27,99.05 526.59,105.7 528.91,110.18 531.22,110.18 533.54,110.18 535.86,117.17 538.18,117.17 540.49,117.17 542.81,121.15 545.13,117.62 547.45,125.87 549.77,125.87 552.08,134.05 554.4,134.05 556.72,134.05 559.04,125.36 561.35,125.36 563.67,134.95 565.99,134.95 568.31,134.95 570.62,141.04 572.94,141.04 575.26,141.04 577.58,141.04 579.9,141.04 582.21,139.31 584.53,139.31 586.85,139.31 589.17,139.2 591.48,145.61 593.8,133.51 596.12,133.51 598.44,128.72 600.76,135.34 603.07,135.34 605.39,135.34 607.71,135.34 610.03,135.34 612.34,141.67 614.66,132.43 616.98,132.43 619.3,136.69 621.61,136.69 623.93,137.92 626.25,137.92 628.57,110.18 630.89,114.77 633.2,117.39 635.52,116.05 637.84,118.66 640.16,118.36 642.47,116.53 644.79,116.53 647.11,116.53 649.43,120.91 651.74,120.91 654.06,127.03 656.38,124.97 658.7,124.97 661.02,121.91 663.33,121.79 665.65,121.79 667.97,121.79 670.29,119.86 672.6,116.23 674.92,116.23 677.24,110.93 679.56,113.85 681.88,113.85 684.19,115.34 686.51,120.82 688.83,122.39 691.15,124.53 693.46,121.31 695.78,126.51 698.1,126.49 700.42,125.11 702.73,123.59 705.05,128.7 707.37,125.8 709.69,129.82 712.01,127.21 714.32,127.21 716.64,127.21 718.96,125.86 721.28,125.86 723.59,126.47 725.91,126.91 728.23,128.93 730.55,126.26 732.86,127.33 735.18,127.33 737.5,129.55 739.82,127.21 742.14,128.35 744.45,128.77 746.77,128.47 749.09,127.33 751.41,124.67 753.72,123.33 756.04,122.57 758.36,119.37 760.68,119.27 762.99,119.26 765.31,122.12 767.63,123.46 769.95,123.81 772.27,122.52 774.58,122.88 776.9,125.42 779.22,123.08 781.54,121.66 783.85,119.52 786.17,117.2 788.49,118.73 790.81,117.87 793.12,117.62 795.44,116.56 797.76,116.56 800.08,116.18 802.4,116.18 804.71,114.37 807.03,115.04 809.35,116.71 811.67,118.96 813.98,118.96 816.3,117.92 818.62,116.97 820.94,116.33 823.26,118.12 825.57,117.26 827.89,117.26 830.21,117.26 832.53,117.26 834.84,117.41 837.16,110.96 839.48,112.7 841.8,112.7 844.11,112.7 846.43,112.7 848.75,113.95 851.07,115.27 853.39,113.68 855.7,114.23 858.02,114.09 860.34,113.18 862.66,113.23 864.97,113.31 867.29,112.07 869.61,112.81 871.93,113.1 874.24,114.02 876.56,114.01 878.88,113.48 881.2,113.49 883.52,113.18 885.83,115.07 888.15,114.9 890.47,115.67 892.79,116.71 895.1,117.57 897.42,117.57 899.74,118.48 902.06,118.68 904.38,116.96 906.69,116.13 909.01,115.64 911.33,115.64 913.65,115.39 915.96,116.57 918.28,116.43 920.6,115.87 922.92,116.62 925.23,115.72 927.55,116.54 929.87,116.21 932.19,116.21 934.51,116.92 936.82,116.21 939.14,116.11 941.46,116.11 943.78,115.26 946.09,115.26 948.41,114.24 950.73,115.19 953.05,114.18 955.36,114.18 957.68,114.03 960.0,113.66" opacity="0.82"/>
<polyline fill="none" stroke="#e45756" stroke-width="1.6" points="70.0,108.38 72.32,108.38 74.64,108.38 76.95,114.04 79.27,114.04 81.59,114.04 83.91,112.83 86.22,112.83 88.54,112.83 90.86,112.83 93.18,112.83 95.49,118.31 97.81,126.46 100.13,126.46 102.45,126.46 104.77,126.46 107.08,125.46 109.4,125.46 111.72,125.46 114.04,129.63 116.35,129.63 118.67,129.63 120.99,129.63 123.31,129.63 125.62,129.63 127.94,132.27 130.26,132.27 132.58,132.27 134.9,132.27 137.21,132.27 139.53,132.27 141.85,124.73 144.17,101.64 146.48,101.64 148.8,101.64 151.12,101.64 153.44,101.64 155.76,101.64 158.07,101.64 160.39,101.64 162.71,101.64 165.03,101.64 167.34,101.64 169.66,101.64 171.98,101.64 174.3,101.64 176.61,101.64 178.93,101.64 181.25,101.64 183.57,101.64 185.89,101.64 188.2,101.64 190.52,101.64 192.84,101.64 195.16,101.64 197.47,101.64 199.79,101.64 202.11,92.41 204.43,92.41 206.74,103.87 209.06,81.1 211.38,63.97 213.7,66.26 216.02,66.26 218.33,66.26 220.65,66.26 222.97,66.26 225.29,60.64 227.6,60.64 229.92,60.64 232.24,60.64 234.56,78.21 236.88,78.21 239.19,78.21 241.51,78.21 243.83,78.21 246.15,78.21 248.46,78.21 250.78,70.04 253.1,70.04 255.42,77.18 257.73,70.57 260.05,64.47 262.37,64.47 264.69,76.44 267.01,65.81 269.32,85.88 271.64,85.88 273.96,85.88 276.28,87.28 278.59,87.28 280.91,87.28 283.23,87.28 285.55,87.28 287.86,87.28 290.18,87.28 292.5,96.91 294.82,91.85 297.14,91.85 299.45,91.85 301.77,91.85 304.09,91.85 306.41,60.41 308.72,60.41 311.04,60.41 313.36,45.0 315.68,50.64 317.99,50.64 320.31,49.1 322.63,49.1 324.95,49.1 327.27,49.1 329.58,49.1 331.9,49.1 334.22,49.1 336.54,55.34 338.85,55.34 341.17,55.34 343.49,55.34 345.81,55.34 348.12,82.41 350.44,82.41 352.76,82.41 355.08,82.41 357.4,82.41 359.71,82.41 362.03,82.41 364.35,82.41 366.67,82.41 368.98,99.81 371.3,99.81 373.62,99.81 375.94,99.81 378.26,99.81 380.57,99.81 382.89,99.81 385.21,95.07 387.53,95.07 389.84,99.31 392.16,101.73 394.48,101.81 396.8,101.81 399.11,102.06 401.43,102.06 403.75,102.06 406.07,99.45 408.39,120.95 410.7,120.95 413.02,120.95 415.34,120.95 417.66,120.95 419.97,120.95 422.29,120.95 424.61,120.95 426.93,120.95 429.24,120.95 431.56,120.95 433.88,120.95 436.2,142.89 438.52,154.68 440.83,136.07 443.15,136.07 445.47,136.07 447.79,136.07 450.1,136.07 452.42,142.75 454.74,142.75 457.06,128.42 459.38,128.42 461.69,128.42 464.01,128.42 466.33,127.27 468.65,127.27 470.96,127.27 473.28,141.72 475.6,141.72 477.92,141.72 480.23,141.72 482.55,111.35 484.87,126.7 487.19,123.48 489.51,123.48 491.82,123.48 494.14,133.64 496.46,133.64 498.78,133.64 501.09,133.64 503.41,125.91 505.73,125.91 508.05,125.91 510.36,110.49 512.68,110.62 515.0,110.62 517.32,125.91 519.64,125.49 521.95,134.94 524.27,134.94 526.59,134.94 528.91,134.94 531.22,134.94 533.54,134.94 535.86,134.94 538.18,134.94 540.49,134.94 542.81,130.75 545.13,130.75 547.45,130.75 549.77,130.75 552.08,128.11 554.4,128.11 556.72,128.11 559.04,128.73 561.35,129.9 563.67,129.9 565.99,129.9 568.31,133.61 570.62,133.61 572.94,142.08 575.26,138.69 577.58,138.69 579.9,138.69 582.21,138.69 584.53,136.32 586.85,136.32 589.17,136.32 591.48,122.09 593.8,122.09 596.12,122.09 598.44,122.09 600.76,122.09 603.07,123.34 605.39,123.34 607.71,123.34 610.03,123.34 612.34,123.34 614.66,123.34 616.98,123.34 619.3,123.34 621.61,123.34 623.93,127.2 626.25,116.83 628.57,123.34 630.89,123.34 633.2,123.34 635.52,123.34 637.84,125.54 640.16,125.54 642.47,125.54 644.79,123.3 647.11,124.3 649.43,124.3 651.74,125.85 654.06,124.97 656.38,122.78 658.7,124.42 661.02,124.42 663.33,119.23 665.65,115.28 667.97,112.49 670.29,112.49 672.6,116.15 674.92,117.46 677.24,117.67 679.56,117.56 681.88,116.73 684.19,114.99 686.51,114.99 688.83,121.63 691.15,121.63 693.46,121.63 695.78,119.58 698.1,119.58 700.42,119.74 702.73,123.24 705.05,123.24 707.37,123.24 709.69,118.63 712.01,118.63 714.32,118.63 716.64,120.36 718.96,120.36 721.28,116.22 723.59,116.22 725.91,114.42 728.23,119.49 730.55,119.49 732.86,119.23 735.18,114.38 737.5,119.55 739.82,123.34 742.14,123.34 744.45,123.34 746.77,123.34 749.09,120.94 751.41,118.09 753.72,116.69 756.04,116.85 758.36,116.5 760.68,115.48 762.99,115.91 765.31,115.32 767.63,114.63 769.95,117.72 772.27,114.0 774.58,113.97 776.9,113.11 779.22,113.11 781.54,111.53 783.85,110.87 786.17,110.87 788.49,109.81 790.81,109.81 793.12,108.49 795.44,110.56 797.76,112.22 800.08,112.22 802.4,113.7 804.71,113.53 807.03,113.64 809.35,114.25 811.67,111.73 813.98,114.57 816.3,114.57 818.62,115.84 820.94,114.64 823.26,116.77 825.57,115.62 827.89,115.6 830.21,116.76 832.53,116.76 834.84,116.76 837.16,113.68 839.48,113.68 841.8,115.06 844.11,113.5 846.43,116.01 848.75,116.01 851.07,116.76 853.39,118.13 855.7,119.21 858.02,118.95 860.34,118.95 862.66,117.29 864.97,116.68 867.29,116.21 869.61,115.89 871.93,116.86 874.24,116.52 876.56,117.34 878.88,117.34 881.2,117.34 883.52,116.42 885.83,114.48 888.15,114.48 890.47,114.48 892.79,113.44 895.1,113.86 897.42,114.37 899.74,114.45 902.06,114.9 904.38,114.72 906.69,113.98 909.01,112.73 911.33,111.96 913.65,112.77 915.96,111.98 918.28,113.21 920.6,111.8 922.92,112.28 925.23,110.94 927.55,111.58 929.87,111.16 932.19,111.16 934.51,109.79 936.82,108.63 939.14,107.76 941.46,107.59 943.78,109.01 946.09,109.06 948.41,109.38 950.73,110.01 953.05,110.44 955.36,109.35 957.68,109.35 960.0,109.35" opacity="0.82"/>
<polyline fill="none" stroke="#4c9f70" stroke-width="1.6" points="70.0,108.38 72.32,108.38 74.64,108.38 76.95,108.38 79.27,108.38 81.59,110.98 83.91,110.98 86.22,103.29 88.54,103.29 90.86,103.29 93.18,103.29 95.49,103.29 97.81,103.29 100.13,103.29 102.45,86.42 104.77,86.42 107.08,86.42 109.4,109.79 111.72,120.63 114.04,120.63 116.35,120.63 118.67,114.17 120.99,114.17 123.31,140.19 125.62,140.19 127.94,138.94 130.26,146.66 132.58,138.06 134.9,138.06 137.21,124.95 139.53,124.95 141.85,124.95 144.17,131.58 146.48,131.58 148.8,131.58 151.12,141.1 153.44,164.83 155.76,181.86 158.07,181.86 160.39,190.0 162.71,190.0 165.03,190.0 167.34,172.74 169.66,160.05 171.98,160.05 174.3,160.05 176.61,160.05 178.93,160.12 181.25,160.12 183.57,154.32 185.89,154.32 188.2,165.14 190.52,162.83 192.84,162.83 195.16,157.71 197.47,157.71 199.79,172.05 202.11,168.66 204.43,168.66 206.74,171.76 209.06,171.76 211.38,171.76 213.7,171.76 216.02,154.84 218.33,154.84 220.65,156.75 222.97,155.47 225.29,164.43 227.6,155.14 229.92,178.2 232.24,173.07 234.56,162.03 236.88,162.03 239.19,162.03 241.51,162.32 243.83,154.59 246.15,153.13 248.46,153.13 250.78,153.13 253.1,155.77 255.42,155.77 257.73,155.77 260.05,150.18 262.37,156.09 264.69,156.09 267.01,156.09 269.32,156.09 271.64,156.09 273.96,160.8 276.28,160.8 278.59,156.22 280.91,156.22 283.23,163.37 285.55,168.66 287.86,162.5 290.18,158.13 292.5,154.72 294.82,129.07 297.14,129.07 299.45,113.67 301.77,125.31 304.09,111.65 306.41,111.65 308.72,111.65 311.04,112.45 313.36,112.45 315.68,131.92 317.99,120.85 320.31,120.85 322.63,120.85 324.95,111.15 327.27,111.15 329.58,108.85 331.9,133.03 334.22,133.03 336.54,133.03 338.85,133.03 341.17,133.03 343.49,148.28 345.81,148.28 348.12,148.28 350.44,148.28 352.76,148.28 355.08,148.28 357.4,148.28 359.71,148.28 362.03,148.96 364.35,148.96 366.67,148.96 368.98,148.96 371.3,148.96 373.62,148.96 375.94,148.96 378.26,148.96 380.57,148.96 382.89,148.96 385.21,148.96 387.53,149.89 389.84,149.89 392.16,149.89 394.48,149.89 396.8,152.16 399.11,145.97 401.43,145.97 403.75,145.97 406.07,145.97 408.39,145.97 410.7,138.17 413.02,138.17 415.34,138.17 417.66,138.17 419.97,141.58 422.29,141.58 424.61,140.96 426.93,140.96 429.24,140.96 431.56,140.96 433.88,121.37 436.2,121.37 438.52,121.37 440.83,121.37 443.15,121.37 445.47,121.37 447.79,121.37 450.1,121.37 452.42,121.37 454.74,133.09 457.06,133.09 459.38,133.09 461.69,133.09 464.01,133.09 466.33,118.61 468.65,118.59 470.96,118.59 473.28,131.19 475.6,131.19 477.92,131.19 480.23,131.19 482.55,138.27 484.87,138.27 487.19,138.27 489.51,138.27 491.82,138.27 494.14,138.27 496.46,138.27 498.78,138.27 501.09,138.27 503.41,138.27 505.73,136.39 508.05,160.49 510.36,166.94 512.68,148.66 515.0,148.66 517.32,133.03 519.64,140.32 521.95,140.44 524.27,137.82 526.59,136.29 528.91,142.04 531.22,144.52 533.54,148.41 535.86,145.54 538.18,145.54 540.49,145.54 542.81,145.54 545.13,147.21 547.45,145.38 549.77,147.0 552.08,154.93 554.4,140.64 556.72,140.61 559.04,149.26 561.35,143.11 563.67,143.11 565.99,134.12 568.31,128.4 570.62,124.08 572.94,124.08 575.26,119.35 577.58,110.02 579.9,110.02 582.21,112.11 584.53,112.11 586.85,111.28 589.17,111.28 591.48,108.16 593.8,108.16 596.12,102.18 598.44,99.65 600.76,104.48 603.07,101.44 605.39,101.44 607.71,102.99 610.03,104.79 612.34,123.35 614.66,117.5 616.98,114.78 619.3,107.0 621.61,107.0 623.93,107.9 626.25,118.48 628.57,128.69 630.89,124.59 633.2,123.57 635.52,121.87 637.84,121.87 640.16,117.96 642.47,117.96 644.79,116.53 647.11,119.22 649.43,121.91 651.74,123.38 654.06,125.37 656.38,129.54 658.7,129.54 661.02,135.65 663.33,135.52 665.65,133.82 667.97,128.02 670.29,127.09 672.6,129.23 674.92,129.73 677.24,129.5 679.56,132.38 681.88,131.86 684.19,132.57 686.51,130.64 688.83,132.93 691.15,127.31 693.46,124.65 695.78,124.65 698.1,125.86 700.42,125.86 702.73,123.62 705.05,123.62 707.37,123.62 709.69,128.22 712.01,129.71 714.32,128.65 716.64,127.61 718.96,123.24 721.28,117.8 723.59,115.32 725.91,112.51 728.23,109.53 730.55,117.05 732.86,117.05 735.18,116.66 737.5,111.36 739.82,134.4 742.14,134.4 744.45,136.68 746.77,137.73 749.09,138.42 751.41,137.25 753.72,136.16 756.04,134.98 758.36,133.05 760.68,133.62 762.99,132.87 765.31,134.97 767.63,133.42 769.95,133.95 772.27,134.86 774.58,132.75 776.9,130.09 779.22,131.08 781.54,131.92 783.85,132.37 786.17,131.84 788.49,131.78 790.81,131.36 793.12,131.09 795.44,130.61 797.76,128.68 800.08,125.68 802.4,125.99 804.71,126.38 807.03,126.83 809.35,129.43 811.67,129.15 813.98,126.68 816.3,126.68 818.62,126.68 820.94,126.39 823.26,125.25 825.57,121.14 827.89,120.49 830.21,122.26 832.53,124.43 834.84,123.52 837.16,126.08 839.48,126.41 841.8,128.06 844.11,129.3 846.43,127.56 848.75,127.65 851.07,133.03 853.39,133.76 855.7,134.89 858.02,135.21 860.34,135.6 862.66,133.33 864.97,133.59 867.29,133.02 869.61,133.93 871.93,133.93 874.24,134.2 876.56,134.29 878.88,132.71 881.2,132.6 883.52,132.46 885.83,131.88 888.15,130.42 890.47,130.64 892.79,130.31 895.1,130.31 897.42,131.49 899.74,131.51 902.06,130.15 904.38,129.73 906.69,130.16 909.01,130.19 911.33,129.08 913.65,128.02 915.96,126.72 918.28,125.91 920.6,125.97 922.92,127.28 925.23,126.84 927.55,126.46 929.87,126.46 932.19,126.6 934.51,126.99 936.82,127.74 939.14,127.74 941.46,127.74 943.78,127.8 946.09,127.02 948.41,127.18 950.73,127.44 953.05,128.53 955.36,128.72 957.68,129.92 960.0,129.03" opacity="0.82"/>
<polyline fill="none" stroke="#f3a712" stroke-width="1.6" points="70.0,108.38 72.32,122.26 74.64,124.8 76.95,124.8 79.27,124.15 81.59,120.17 83.91,120.17 86.22,113.37 88.54,113.37 90.86,114.61 93.18,114.61 95.49,114.61 97.81,114.61 100.13,134.65 102.45,134.65 104.77,134.65 107.08,134.65 109.4,134.65 111.72,134.65 114.04,141.88 116.35,128.69 118.67,128.69 120.99,128.69 123.31,128.69 125.62,128.69 127.94,128.69 130.26,128.69 132.58,144.38 134.9,144.38 137.21,144.38 139.53,144.38 141.85,144.38 144.17,144.38 146.48,144.38 148.8,145.33 151.12,145.33 153.44,147.1 155.76,127.91 158.07,127.91 160.39,127.91 162.71,127.91 165.03,127.91 167.34,127.91 169.66,127.91 171.98,127.91 174.3,127.91 176.61,127.91 178.93,134.22 181.25,134.22 183.57,134.22 185.89,139.14 188.2,111.93 190.52,111.93 192.84,111.93 195.16,138.46 197.47,128.56 199.79,137.78 202.11,144.73 204.43,140.08 206.74,140.08 209.06,140.08 211.38,140.08 213.7,140.08 216.02,140.08 218.33,140.08 220.65,128.85 222.97,127.35 225.29,127.35 227.6,122.8 229.92,133.65 232.24,139.69 234.56,135.59 236.88,135.59 239.19,135.59 241.51,135.59 243.83,135.59 246.15,135.59 248.46,147.65 250.78,147.65 253.1,147.65 255.42,147.65 257.73,147.65 260.05,147.65 262.37,147.65 264.69,147.65 267.01,147.65 269.32,148.98 271.64,131.56 273.96,129.16 276.28,129.16 278.59,129.16 280.91,111.03 283.23,114.49 285.55,114.49 287.86,114.49 290.18,114.49 292.5,114.49 294.82,114.49 297.14,127.5 299.45,127.5 301.77,148.15 304.09,151.94 306.41,139.98 308.72,139.98 311.04,139.98 313.36,139.98 315.68,150.56 317.99,150.56 320.31,150.56 322.63,150.56 324.95,151.43 327.27,151.43 329.58,148.17 331.9,148.17 334.22,150.28 336.54,150.28 338.85,138.62 341.17,138.62 343.49,144.05 345.81,144.05 348.12,144.05 350.44,144.05 352.76,144.05 355.08,134.76 357.4,126.42 359.71,126.42 362.03,126.42 364.35,126.42 366.67,116.5 368.98,116.5 371.3,116.5 373.62,116.5 375.94,116.5 378.26,116.5 380.57,116.5 382.89,123.83 385.21,123.83 387.53,132.09 389.84,132.09 392.16,138.33 394.48,138.33 396.8,138.33 399.11,125.06 401.43,125.06 403.75,125.06 406.07,125.98 408.39,125.98 410.7,146.04 413.02,146.04 415.34,146.04 417.66,146.04 419.97,146.04 422.29,138.59 424.61,138.59 426.93,122.81 429.24,122.81 431.56,122.81 433.88,124.63 436.2,131.11 438.52,131.11 440.83,131.11 443.15,131.11 445.47,131.11 447.79,122.1 450.1,137.62 452.42,137.62 454.74,137.62 457.06,137.62 459.38,124.55 461.69,124.55 464.01,124.55 466.33,124.55 468.65,124.55 470.96,124.55 473.28,126.53 475.6,126.53 477.92,126.53 480.23,126.53 482.55,141.45 484.87,139.81 487.19,139.81 489.51,139.81 491.82,139.81 494.14,158.94 496.46,158.94 498.78,158.94 501.09,158.94 503.41,158.94 505.73,158.94 508.05,158.94 510.36,158.94 512.68,155.77 515.0,155.77 517.32,144.38 519.64,144.75 521.95,143.9 524.27,143.9 526.59,143.9 528.91,143.75 531.22,143.75 533.54,143.75 535.86,143.75 538.18,143.75 540.49,145.79 542.81,145.79 545.13,145.03 547.45,145.03 549.77,145.03 552.08,145.03 554.4,145.03 556.72,135.0 559.04,135.0 561.35,152.09 563.67,152.09 565.99,152.09 568.31,142.53 570.62,142.53 572.94,142.53 575.26,145.98 577.58,145.98 579.9,145.17 582.21,155.71 584.53,155.71 586.85,155.71 589.17,155.71 591.48,153.5 593.8,150.82 596.12,150.82 598.44,154.76 600.76,156.31 603.07,152.32 605.39,150.29 607.71,153.59 610.03,157.67 612.34,157.67 614.66,150.63 616.98,150.63 619.3,150.63 621.61,152.17 623.93,152.17 626.25,152.17 628.57,147.47 630.89,147.47 633.2,143.66 635.52,143.66 637.84,143.98 640.16,143.98 642.47,143.98 644.79,143.98 647.11,143.98 649.43,143.98 651.74,144.13 654.06,142.93 656.38,143.38 658.7,143.38 661.02,146.09 663.33,152.45 665.65,153.81 667.97,152.05 670.29,153.29 672.6,153.33 674.92,152.84 677.24,149.87 679.56,147.55 681.88,149.1 684.19,152.44 686.51,152.44 688.83,154.35 691.15,154.35 693.46,156.74 695.78,154.94 698.1,154.94 700.42,154.5 702.73,159.06 705.05,162.39 707.37,163.33 709.69,166.9 712.01,166.9 714.32,167.68 716.64,169.6 718.96,163.33 721.28,161.54 723.59,160.13 725.91,160.51 728.23,160.51 730.55,160.56 732.86,160.56 735.18,161.62 737.5,161.62 739.82,144.38 742.14,143.4 744.45,146.05 746.77,143.41 749.09,145.9 751.41,146.09 753.72,145.73 756.04,145.37 758.36,145.37 760.68,146.45 762.99,146.45 765.31,147.17 767.63,148.39 769.95,147.56 772.27,147.56 774.58,148.02 776.9,148.02 779.22,148.02 781.54,145.61 783.85,145.61 786.17,146.72 788.49,146.4 790.81,147.34 793.12,147.71 795.44,147.71 797.76,147.42 800.08,147.42 802.4,145.84 804.71,146.15 807.03,146.15 809.35,146.15 811.67,146.15 813.98,147.14 816.3,147.14 818.62,148.05 820.94,146.37 823.26,147.25 825.57,147.25 827.89,147.25 830.21,145.51 832.53,145.51 834.84,145.51 837.16,146.02 839.48,145.66 841.8,145.66 844.11,145.29 846.43,145.23 848.75,144.29 851.07,144.46 853.39,143.97 855.7,144.84 858.02,145.93 860.34,146.71 862.66,147.14 864.97,147.08 867.29,146.41 869.61,147.77 871.93,147.98 874.24,148.31 876.56,148.35 878.88,148.1 881.2,148.9 883.52,148.64 885.83,147.81 888.15,148.53 890.47,148.2 892.79,147.04 895.1,147.59 897.42,146.34 899.74,146.34 902.06,145.75 904.38,146.51 906.69,146.51 909.01,147.36 911.33,147.05 913.65,147.84 915.96,146.99 918.28,147.23 920.6,147.79 922.92,147.79 925.23,147.65 927.55,147.33 929.87,147.07 932.19,147.04 934.51,147.58 936.82,147.19 939.14,147.52 941.46,147.52 943.78,147.29 946.09,147.03 948.41,147.44 950.73,148.34 953.05,148.4 955.36,148.4 957.68,148.4 960.0,148.17" opacity="0.82"/>
<line x1="70.0" y1="370.0" x2="960.0" y2="370.0" stroke="#444" stroke-width="1.2"/>
<line x1="70.0" y1="225.0" x2="70.0" y2="370.0" stroke="#444" stroke-width="1.2"/>
<text x="70.0" y="217.0" font-family="monospace" font-size="12">k_G</text>
<polyline fill="none" stroke="#1f77b4" stroke-width="1.6" points="70.0,256.67 72.32,256.67 74.64,233.09 76.95,239.32 79.27,239.32 81.59,260.91 83.91,260.91 86.22,252.41 88.54,252.41 90.86,252.41 93.18,252.41 95.49,252.41 97.81,241.11 100.13,237.77 102.45,261.31 104.77,261.31 107.08,261.31 109.4,261.31 111.72,261.31 114.04,252.65 116.35,252.65 118.67,252.65 120.99,258.24 123.31,277.95 125.62,277.95 127.94,293.68 130.26,293.68 132.58,279.32 134.9,279.32 137.21,279.32 139.53,279.32 141.85,279.32 144.17,279.32 146.48,279.32 148.8,279.32 151.12,298.17 153.44,295.5 155.76,316.06 158.07,316.06 160.39,316.06 162.71,288.96 165.03,288.96 167.34,288.96 169.66,250.64 171.98,250.64 174.3,250.64 176.61,250.64 178.93,249.56 181.25,249.56 183.57,249.56 185.89,249.56 188.2,249.56 190.52,237.32 192.84,246.6 195.16,274.36 197.47,274.36 199.79,240.5 202.11,240.5 204.43,240.5 206.74,232.97 209.06,232.97 211.38,232.97 213.7,232.97 216.02,232.97 218.33,232.97 220.65,232.97 222.97,232.97 225.29,232.97 227.6,232.97 229.92,250.37 232.24,250.37 234.56,250.37 236.88,250.37 239.19,255.15 241.51,255.15 243.83,255.15 246.15,265.99 248.46,265.99 250.78,262.9 253.1,262.9 255.42,262.9 257.73,262.9 260.05,262.9 262.37,262.9 264.69,284.74 267.01,275.9 269.32,275.9 271.64,275.9 273.96,277.06 276.28,277.06 278.59,277.06 280.91,265.37 283.23,279.33 285.55,258.4 287.86,261.42 290.18,261.42 292.5,280.22 294.82,280.22 297.14,294.49 299.45,277.93 301.77,265.03 304.09,265.03 306.41,248.9 308.72,248.9 311.04,248.9 313.36,248.9 315.68,248.9 317.99,276.49 320.31,276.49 322.63,292.68 324.95,292.68 327.27,281.63 329.58,281.63 331.9,281.63 334.22,281.63 336.54,281.63 338.85,281.63 341.17,281.63 343.49,281.63 345.81,281.63 348.12,281.63 350.44,281.63 352.76,281.63 355.08,281.63 357.4,281.63 359.71,281.63 362.03,281.63 364.35,281.63 366.67,281.63 368.98,281.63 371.3,295.42 373.62,295.42 375.94,293.7 378.26,299.32 380.57,296.99 382.89,296.99 385.21,296.99 387.53,296.99 389.84,288.51 392.16,288.51 394.48,288.51 396.8,288.51 399.11,288.51 401.43,257.92 403.75,257.92 406.07,257.92 408.39,257.92 410.7,268.88 413.02,272.08 415.34,272.08 417.66,272.08 419.97,284.8 422.29,299.74 424.61,299.74 426.93,299.74 429.24,290.25 431.56,285.38 433.88,285.38 436.2,281.91 438.52,281.91 440.83,281.91 443.15,281.91 445.47,281.91 447.79,267.91 450.1,267.91 452.42,267.91 454.74,267.91 457.06,267.91 459.38,267.91 461.69,267.91 464.01,267.91 466.33,267.91 468.65,267.91 470.96,276.34 473.28,276.34 475.6,276.34 477.92,276.34 480.23,276.34 482.55,276.34 484.87,276.34 487.19,281.24 489.51,281.24 491.82,281.24 494.14,281.24 496.46,281.44 498.78,281.44 501.09,278.03 503.41,278.03 505.73,279.44 508.05,279.44 510.36,279.44 512.68,279.44 515.0,279.44 517.32,281.63 519.64,278.96 521.95,269.46 524.27,269.46 526.59,266.05 528.91,269.9 531.22,269.9 533.54,269.9 535.86,276.52 538.18,276.52 540.49,276.52 542.81,266.58 545.13,270.19 547.45,262.93 549.77,262.93 552.08,257.78 554.4,257.78 556.72,257.78 559.04,257.06 561.35,257.06 563.67,250.5 565.99,250.5 568.31,250.5 570.62,249.79 572.94,249.79 575.26,249.79 577.58,249.79 579.9,249.79 582.21,241.81 584.53,241.81 586.85,241.81 589.17,233.93 591.48,240.48 593.8,245.09 596.12,245.09 598.44,237.44 600.76,238.99 603.07,238.99 605.39,238.99 607.71,238.99 610.03,238.99 612.34,240.64 614.66,240.06 616.98,240.06 619.3,242.8 621.61,242.8 623.93,244.09 626.25,244.09 628.57,269.9 630.89,271.27 633.2,268.66 635.52,271.53 637.84,270.04 640.16,266.15 642.47,265.96 644.79,265.96 647.11,265.96 649.43,262.34 651.74,262.34 654.06,259.52 656.38,258.79 658.7,258.79 661.02,260.59 663.33,265.7 665.65,265.7 667.97,265.7 670.29,266.87 672.6,263.51 674.92,263.51 677.24,268.27 679.56,267.23 681.88,267.23 684.19,270.01 686.51,270.55 688.83,271.22 691.15,271.67 693.46,272.38 695.78,272.0 698.1,270.48 700.42,268.87 702.73,268.03 705.05,275.81 707.37,273.56 709.69,276.87 712.01,276.72 714.32,276.72 716.64,276.72 718.96,272.12 721.28,272.12 723.59,269.58 725.91,265.37 728.23,262.05 730.55,258.76 732.86,258.54 735.18,258.54 737.5,259.82 739.82,276.72 742.14,276.63 744.45,274.82 746.77,276.03 749.09,275.76 751.41,277.91 753.72,277.54 756.04,273.92 758.36,272.69 760.68,271.33 762.99,273.08 765.31,272.76 767.63,271.55 769.95,270.78 772.27,273.28 774.58,272.04 776.9,273.24 779.22,272.93 781.54,273.92 783.85,276.31 786.17,274.96 788.49,275.81 790.81,273.97 793.12,272.15 795.44,272.27 797.76,272.27 800.08,272.26 802.4,272.26 804.71,270.31 807.03,273.1 809.35,273.77 811.67,276.21 813.98,276.21 816.3,276.28 818.62,278.19 820.94,279.32 823.26,278.42 825.57,278.2 827.89,278.2 830.21,278.2 832.53,278.2 834.84,276.88 837.16,275.12 839.48,278.46 841.8,278.46 844.11,278.46 846.43,278.46 848.75,279.37 851.07,272.18 853.39,272.55 855.7,271.31 858.02,271.11 860.34,272.41 862.66,273.15 864.97,271.36 867.29,271.62 869.61,272.5 871.93,273.48 874.24,272.23 876.56,273.21 878.88,272.75 881.2,273.75 883.52,274.56 885.83,274.74 888.15,273.68 890.47,274.97 892.79,272.89 895.1,273.08 897.42,273.08 899.74,272.33 902.06,271.0 904.38,270.59 906.69,269.66 909.01,267.47 911.33,267.47 913.65,267.36 915.96,266.84 918.28,266.03 920.6,265.49 922.92,266.79 925.23,268.83 927.55,267.32 929.87,267.68 932.19,267.68 934.51,267.75 936.82,266.66 939.14,267.05 941.46,267.05 943.78,267.27 946.09,267.27 948.41,267.86 950.73,269.01 953.05,270.53 955.36,270.53 957.68,270.79 960.0,271.67" opacity="0.82"/>
<polyline fill="none" stroke="#e45756" stroke-width="1.6" points="70.0,256.67 72.32,256.67 74.64,256.67 76.95,250.7 79.27,250.7 81.59,250.7 83.91,253.29 86.22,253.29 88.54,253.29 90.86,253.29 93.18,253.29 95.49,244.65 97.81,242.58 100.13,242.58 102.45,242.58 104.77,242.58 107.08,251.84 109.4,251.84 111.72,251.84 114.04,249.79 116.35,249.79 118.67,249.79 120.99,249.79 123.31,249.79 125.62,249.79 127.94,247.16 130.26,247.16 132.58,247.16 134.9,247.16 137.21,247.16 139.53,247.16 141.85,235.73 144.17,234.92 146.48,234.92 148.8,234.92 151.12,234.92 153.44,234.92 155.76,234.92 158.07,234.92 160.39,234.92 162.71,234.92 165.03,234.92 167.34,234.92 169.66,234.92 171.98,234.92 174.3,234.92 176.61,234.92 178.93,234.92 181.25,234.92 183.57,234.92 185.89,234.92 188.2,234.92 190.52,234.92 192.84,234.92 195.16,234.92 197.47,234.92 199.79,234.92 202.11,252.93 204.43,252.93 206.74,251.86 209.06,295.86 211.38,293.5 213.7,284.45 216.02,284.45 218.33,284.45 220.65,284.45 222.97,284.45 225.29,290.91 227.6,290.91 229.92,290.91 232.24,290.91 234.56,300.15 236.88,300.15 239.19,300.15 241.51,300.15 243.83,300.15 246.15,300.15 248.46,300.15 250.78,290.68 253.1,290.68 255.42,267.87 257.73,282.08 260.05,299.94 262.37,299.94 264.69,294.04 267.01,299.04 269.32,281.83 271.64,281.83 273.96,281.83 276.28,255.79 278.59,255.79 280.91,255.79 283.23,255.79 285.55,255.79 287.86,255.79 290.18,255.79 292.5,264.22 294.82,286.45 297.14,286.45 299.45,286.45 301.77,286.45 304.09,286.45 306.41,297.43 308.72,297.43 311.04,297.43 313.36,313.5 315.68,308.59 317.99,308.59 320.31,307.79 322.63,307.79 324.95,307.79 327.27,307.79 329.58,307.79 331.9,307.79 334.22,307.79 336.54,293.48 338.85,293.48 341.17,293.48 343.49,293.48 345.81,293.48 348.12,264.8 350.44,264.8 352.76,264.8 355.08,264.8 357.4,264.8 359.71,264.8 362.03,264.8 364.35,264.8 366.67,264.8 368.98,282.48 371.3,282.48 373.62,282.48 375.94,282.48 378.26,282.48 380.57,282.48 382.89,282.48 385.21,281.56 387.53,281.56 389.84,297.17 392.16,304.77 394.48,296.45 396.8,296.45 399.11,298.72 401.43,298.72 403.75,298.72 406.07,319.19 408.39,315.1 410.7,315.1 413.02,315.1 415.34,315.1 417.66,315.1 419.97,315.1 422.29,315.1 424.61,315.1 426.93,315.1 429.24,315.1 431.56,315.1 433.88,315.1 436.2,289.95 438.52,289.53 440.83,290.96 443.15,290.96 445.47,290.96 447.79,290.96 450.1,290.96 452.42,299.86 454.74,299.86 457.06,308.5 459.38,308.5 461.69,308.5 464.01,308.5 466.33,299.31 468.65,299.31 470.96,299.31 473.28,302.3 475.6,302.3 477.92,302.3 480.23,302.3 482.55,310.26 484.87,317.72 487.19,326.4 489.51,326.4 491.82,326.4 494.14,312.12 496.46,312.12 498.78,312.12 501.09,312.12 503.41,302.48 505.73,302.48 508.05,302.48 510.36,306.03 512.68,288.94 515.0,288.94 517.32,302.48 519.64,299.03 521.95,291.6 524.27,291.6 526.59,291.6 528.91,291.6 531.22,291.6 533.54,291.6 535.86,291.6 538.18,291.6 540.49,291.6 542.81,284.81 545.13,284.81 547.45,284.81 549.77,284.81 552.08,289.7 554.4,289.7 556.72,289.7 559.04,282.4 561.35,289.52 563.67,289.52 565.99,289.52 568.31,290.53 570.62,290.53 572.94,288.33 575.26,290.62 577.58,290.62 579.9,290.62 582.21,290.62 584.53,280.61 586.85,280.61 589.17,280.61 591.48,289.48 593.8,289.48 596.12,289.48 598.44,289.48 600.76,289.48 603.07,284.83 605.39,284.83 607.71,284.83 610.03,284.83 612.34,284.83 614.66,284.83 616.98,284.83 619.3,284.83 621.61,284.83 623.93,285.6 626.25,263.1 628.57,284.83 630.89,284.83 633.2,284.83 635.52,284.83 637.84,286.43 640.16,286.43 642.47,286.43 644.79,282.46 647.11,274.53 649.43,274.53 651.74,278.5 654.06,282.23 656.38,280.05 658.7,284.5 661.02,284.5 663.33,288.03 665.65,289.12 667.97,288.61 670.29,288.61 672.6,290.09 674.92,292.99 677.24,291.82 679.56,294.76 681.88,296.19 684.19,292.39 686.51,292.39 688.83,290.59 691.15,290.59 693.46,290.59 695.78,292.54 698.1,292.54 700.42,291.43 702.73,296.13 705.05,296.13 707.37,296.13 709.69,298.13 712.01,298.13 714.32,298.13 716.64,295.8 718.96,295.8 721.28,301.35 723.59,301.35 725.91,304.65 728.23,309.16 730.55,309.16 732.86,308.79 735.18,308.09 737.5,309.66 739.82,284.83 742.14,284.83 744.45,284.83 746.77,284.83 749.09,284.44 751.41,285.19 753.72,283.32 756.04,284.3 758.36,285.46 760.68,284.92 762.99,286.01 765.31,285.5 767.63,283.23 769.95,284.11 772.27,285.72 774.58,281.58 776.9,284.05 779.22,284.05 781.54,281.37 783.85,280.71 786.17,280.71 788.49,282.27 790.81,282.27 793.12,281.93 795.44,280.79 797.76,282.82 800.08,282.82 802.4,283.64 804.71,281.88 807.03,282.97 809.35,281.02 811.67,278.63 813.98,277.79 816.3,277.79 818.62,277.22 820.94,280.48 823.26,279.83 825.57,283.88 827.89,281.46 830.21,281.25 832.53,281.25 834.84,281.25 837.16,282.3 839.48,282.3 841.8,282.81 844.11,284.11 846.43,284.78 848.75,284.78 851.07,281.25 853.39,283.02 855.7,282.89 858.02,282.58 860.34,282.58 862.66,283.55 864.97,284.51 867.29,285.93 869.61,285.63 871.93,287.37 874.24,286.74 876.56,286.26 878.88,286.26 881.2,286.26 883.52,286.49 885.83,284.09 888.15,284.09 890.47,284.09 892.79,282.83 895.1,283.55 897.42,283.7 899.74,283.99 902.06,283.77 904.38,283.82 906.69,285.05 909.01,284.98 911.33,285.33 913.65,284.79 915.96,286.63 918.28,286.4 920.6,286.39 922.92,287.08 925.23,285.75 927.55,285.23 929.87,283.64 932.19,283.64 934.51,283.96 936.82,283.15 939.14,282.59 941.46,281.64 943.78,283.21 946.09,282.91 948.41,281.76 950.73,281.31 953.05,280.92 955.36,279.78 957.68,279.78 960.0,279.78" opacity="0.82"/>
<polyline fill="none" stroke="#4c9f70" stroke-width="1.6" points="70.0,256.67 72.32,256.67 74.64,256.67 76.95,256.67 79.27,256.67 81.59,255.5 83.91,255.5 86.22,289.99 88.54,289.99 90.86,289.99 93.18,289.99 95.49,289.99 97.81,289.99 100.13,289.99 102.45,286.99 104.77,286.99 107.08,286.99 109.4,281.4 111.72,287.57 114.04,287.57 116.35,287.57 118.67,275.15 120.99,275.15 123.31,275.13 125.62,275.13 127.94,270.19 130.26,277.79 132.58,287.42 134.9,287.42 137.21,301.8 139.53,301.8 141.85,301.8 144.17,288.43 146.48,288.43 148.8,288.43 151.12,269.07 153.44,267.72 155.76,264.57 158.07,264.57 160.39,264.02 162.71,264.02 165.03,264.02 167.34,240.41 169.66,247.96 171.98,247.96 174.3,247.96 176.61,247.96 178.93,244.47 181.25,244.47 183.57,252.71 185.89,252.71 188.2,281.97 190.52,285.34 192.84,285.34 195.16,278.23 197.47,278.23 199.79,257.38 202.11,234.71 204.43,234.71 206.74,225.43 209.06,225.43 211.38,225.43 213.7,225.43 216.02,225.0 218.33,225.0 220.65,238.02 222.97,242.56 225.29,236.53 227.6,246.5 229.92,237.35 232.24,254.72 234.56,245.08 236.88,245.08 239.19,245.08 241.51,260.8 243.83,243.27 246.15,239.46 248.46,239.46 250.78,239.46 253.1,237.69 255.42,237.69 257.73,237.69 260.05,262.99 262.37,249.15 264.69,249.15 267.01,249.15 269.32,249.15 271.64,249.15 273.96,244.25 276.28,244.25 278.59,252.59 280.91,252.59 283.23,264.8 285.55,266.06 287.86,265.99 290.18,277.66 292.5,292.35 294.82,290.52 297.14,290.52 299.45,291.26 301.77,303.2 304.09,297.25 306.41,297.25 308.72,297.25 311.04,288.95 313.36,288.95 315.68,293.48 317.99,280.8 320.31,280.8 322.63,280.8 324.95,282.76 327.27,282.76 329.58,288.14 331.9,291.39 334.22,291.39 336.54,291.39 338.85,291.39 341.17,291.39 343.49,275.85 345.81,275.85 348.12,275.85 350.44,275.85 352.76,275.85 355.08,275.85 357.4,275.85 359.71,275.85 362.03,274.08 364.35,274.08 366.67,274.08 368.98,274.08 371.3,274.08 373.62,274.08 375.94,274.08 378.26,274.08 380.57,274.08 382.89,274.08 385.21,274.08 387.53,269.69 389.84,269.69 392.16,269.69 394.48,269.69 396.8,259.71 399.11,254.72 401.43,254.72 403.75,254.72 406.07,254.72 408.39,254.72 410.7,246.23 413.02,246.23 415.34,246.23 417.66,246.23 419.97,242.29 422.29,242.29 424.61,228.0 426.93,228.0 429.24,228.0 431.56,228.0 433.88,232.02 436.2,232.02 438.52,232.02 440.83,232.02 443.15,232.02 445.47,232.02 447.79,232.02 450.1,232.02 452.42,232.02 454.74,257.27 457.06,257.27 459.38,257.27 461.69,257.27 464.01,257.27 466.33,253.52 468.65,253.6 470.96,253.6 473.28,269.6 475.6,269.6 477.92,269.6 480.23,269.6 482.55,265.34 484.87,265.34 487.19,265.34 489.51,265.34 491.82,265.34 494.14,265.34 496.46,265.34 498.78,265.34 501.09,265.34 503.41,265.34 505.73,272.95 508.05,280.84 510.36,301.26 512.68,303.4 515.0,303.4 517.32,291.39 519.64,291.97 521.95,301.43 524.27,299.28 526.59,288.31 528.91,292.96 531.22,298.74 533.54,305.45 535.86,306.28 538.18,306.28 540.49,306.28 542.81,306.28 545.13,306.87 547.45,301.89 549.77,300.63 552.08,294.69 554.4,307.23 556.72,310.11 559.04,317.14 561.35,316.37 563.67,316.37 565.99,317.77 568.31,313.95 570.62,311.65 572.94,311.65 575.26,315.21 577.58,317.06 579.9,317.06 582.21,309.11 584.53,309.11 586.85,297.4 589.17,297.4 591.48,289.72 593.8,289.72 596.12,292.95 598.44,292.84 600.76,280.77 603.07,276.26 605.39,276.26 607.71,278.38 610.03,277.56 612.34,277.17 614.66,286.88 616.98,286.64 619.3,272.84 621.61,272.84 623.93,280.16 626.25,282.59 628.57,285.32 630.89,283.52 633.2,287.35 635.52,280.56 637.84,280.56 640.16,283.0 642.47,283.0 644.79,281.24 647.11,277.41 649.43,280.75 651.74,281.19 654.06,282.69 656.38,280.93 658.7,280.93 661.02,288.48 663.33,289.47 665.65,287.95 667.97,289.35 670.29,287.99 672.6,293.09 674.92,292.19 677.24,292.85 679.56,287.42 681.88,279.3 684.19,269.13 686.51,275.21 688.83,273.29 691.15,273.4 693.46,272.47 695.78,272.47 698.1,271.3 700.42,271.3 702.73,274.41 705.05,274.41 707.37,274.41 709.69,273.09 712.01,272.02 714.32,272.31 716.64,270.62 718.96,269.24 721.28,267.02 723.59,265.73 725.91,273.07 728.23,270.5 730.55,274.03 732.86,274.03 735.18,270.41 737.5,273.89 739.82,292.77 742.14,292.77 744.45,295.95 746.77,294.15 749.09,293.39 751.41,295.1 753.72,294.85 756.04,293.19 758.36,294.74 760.68,294.28 762.99,293.53 765.31,291.56 767.63,295.24 769.95,293.08 772.27,293.43 774.58,291.43 776.9,291.57 779.22,290.14 781.54,287.38 783.85,289.85 786.17,290.88 788.49,288.58 790.81,287.69 793.12,288.85 795.44,289.65 797.76,289.1 800.08,286.58 802.4,284.31 804.71,284.8 807.03,286.94 809.35,285.86 811.67,284.97 813.98,285.59 816.3,285.59 818.62,285.59 820.94,286.46 823.26,286.71 825.57,288.5 827.89,288.42 830.21,289.52 832.53,287.63 834.84,288.02 837.16,287.38 839.48,285.09 841.8,286.23 844.11,284.04 846.43,283.99 848.75,282.73 851.07,291.39 853.39,291.75 855.7,290.96 858.02,290.93 860.34,289.67 862.66,290.29 864.97,289.01 867.29,288.76 869.61,289.4 871.93,289.4 874.24,289.64 876.56,289.66 878.88,290.79 881.2,290.35 883.52,289.9 885.83,290.12 888.15,290.22 890.47,290.77 892.79,291.0 895.1,291.0 897.42,289.45 899.74,290.5 902.06,290.31 904.38,290.16 906.69,289.45 909.01,288.48 911.33,287.5 913.65,286.26 915.96,285.23 918.28,286.32 920.6,286.06 922.92,286.63 925.23,285.8 927.55,285.8 929.87,285.8 932.19,286.36 934.51,287.08 936.82,286.25 939.14,286.14 941.46,286.14 943.78,285.46 946.09,285.92 948.41,285.93 950.73,285.66 953.05,283.66 955.36,283.59 957.68,285.33 960.0,285.42" opacity="0.82"/>
<polyline fill="none" stroke="#f3a712" stroke-width="1.6" points="70.0,256.67 72.32,265.85 74.64,256.76 76.95,256.76 79.27,271.3 81.59,253.43 83.91,253.43 86.22,270.7 88.54,270.7 90.86,276.32 93.18,276.32 95.49,276.32 97.81,276.32 100.13,285.92 102.45,285.92 104.77,285.92 107.08,285.92 109.4,285.92 111.72,285.92 114.04,293.22 116.35,292.25 118.67,292.25 120.99,292.25 123.31,292.25 125.62,292.25 127.94,292.25 130.26,292.25 132.58,281.75 134.9,281.75 137.21,281.75 139.53,281.75 141.85,281.75 144.17,281.75 146.48,281.75 148.8,289.42 151.12,289.42 153.44,265.25 155.76,280.71 158.07,280.71 160.39,280.71 162.71,280.71 165.03,280.71 167.34,280.71 169.66,280.71 171.98,280.71 174.3,280.71 176.61,280.71 178.93,292.16 181.25,292.16 183.57,292.16 185.89,284.76 188.2,289.98 190.52,289.98 192.84,289.98 195.16,299.09 197.47,305.7 199.79,305.58 202.11,302.8 204.43,300.58 206.74,300.58 209.06,300.58 211.38,300.58 213.7,300.58 216.02,300.58 218.33,300.58 220.65,310.96 222.97,303.6 225.29,303.6 227.6,322.06 229.92,314.57 232.24,320.29 234.56,306.76 236.88,306.76 239.19,306.76 241.51,306.76 243.83,306.76 246.15,306.76 248.46,300.2 250.78,300.2 253.1,300.2 255.42,300.2 257.73,300.2 260.05,300.2 262.37,300.2 264.69,300.2 267.01,300.2 269.32,291.66 271.64,299.11 273.96,320.41 276.28,320.41 278.59,320.41 280.91,319.12 283.23,309.76 285.55,309.76 287.86,309.76 290.18,309.76 292.5,309.76 294.82,309.76 297.14,320.03 299.45,320.03 301.77,321.19 304.09,336.53 306.41,335.73 308.72,335.73 311.04,335.73 313.36,335.73 315.68,353.78 317.99,353.78 320.31,353.78 322.63,353.78 324.95,370.0 327.27,370.0 329.58,362.45 331.9,362.45 334.22,365.47 336.54,365.47 338.85,363.96 341.17,363.96 343.49,360.73 345.81,360.73 348.12,360.73 350.44,360.73 352.76,360.73 355.08,360.31 357.4,351.44 359.71,351.44 362.03,351.44 364.35,351.44 366.67,361.21 368.98,361.21 371.3,361.21 373.62,361.21 375.94,361.21 378.26,361.21 380.57,361.21 382.89,355.44 385.21,355.44 387.53,346.27 389.84,346.27 392.16,334.8 394.48,334.8 396.8,334.8 399.11,335.77 401.43,335.77 403.75,335.77 406.07,325.01 408.39,325.01 410.7,332.02 413.02,332.02 415.34,332.02 417.66,332.02 419.97,332.02 422.29,320.41 424.61,320.41 426.93,342.23 429.24,342.23 431.56,342.23 433.88,329.51 436.2,338.82 438.52,338.82 440.83,338.82 443.15,338.82 445.47,338.82 447.79,338.81 450.1,314.33 452.42,314.33 454.74,314.33 457.06,314.33 459.38,319.12 461.69,319.12 464.01,319.12 466.33,319.12 468.65,319.12 470.96,319.12 473.28,317.32 475.6,317.32 477.92,317.32 480.23,317.32 482.55,306.74 484.87,285.66 487.19,285.66 489.51,285.66 491.82,285.66 494.14,310.5 496.46,310.5 498.78,310.5 501.09,310.5 503.41,310.5 505.73,310.5 508.05,310.5 510.36,310.5 512.68,296.29 515.0,296.29 517.32,281.75 519.64,280.52 521.95,275.72 524.27,275.72 526.59,275.72 528.91,282.5 531.22,282.5 533.54,282.5 535.86,282.5 538.18,282.5 540.49,286.86 542.81,286.86 545.13,284.27 547.45,284.27 549.77,284.27 552.08,284.27 554.4,284.27 556.72,294.09 559.04,294.09 561.35,282.05 563.67,282.05 565.99,282.05 568.31,273.46 570.62,273.46 572.94,273.46 575.26,277.01 577.58,277.01 579.9,286.42 582.21,281.69 584.53,281.69 586.85,281.69 589.17,281.69 591.48,275.48 593.8,273.02 596.12,273.02 598.44,281.46 600.76,283.44 603.07,276.59 605.39,274.38 607.71,275.23 610.03,286.64 612.34,286.64 614.66,281.77 616.98,281.77 619.3,281.77 621.61,278.19 623.93,278.19 626.25,278.19 628.57,280.47 630.89,280.47 633.2,279.06 635.52,279.06 637.84,281.08 640.16,281.08 642.47,281.08 644.79,281.08 647.11,281.08 649.43,281.08 651.74,282.07 654.06,282.45 656.38,274.45 658.7,274.45 661.02,284.23 663.33,287.68 665.65,285.34 667.97,283.92 670.29,284.45 672.6,277.49 674.92,277.33 677.24,280.63 679.56,283.1 681.88,281.52 684.19,287.77 686.51,287.77 688.83,292.09 691.15,292.09 693.46,294.35 695.78,293.83 698.1,293.83 700.42,289.78 702.73,288.66 705.05,288.22 707.37,281.72 709.69,283.5 712.01,283.5 714.32,276.82 716.64,277.38 718.96,279.63 721.28,279.31 723.59,279.54 725.91,282.37 728.23,282.37 730.55,284.2 732.86,284.2 735.18,290.61 737.5,290.61 739.82,281.75 742.14,284.05 744.45,283.52 746.77,284.05 749.09,281.41 751.41,280.82 753.72,280.21 756.04,280.39 758.36,280.39 760.68,280.01 762.99,280.01 765.31,277.48 767.63,280.3 769.95,280.55 772.27,280.55 774.58,278.03 776.9,278.03 779.22,278.03 781.54,280.43 783.85,280.43 786.17,282.1 788.49,280.54 790.81,277.79 793.12,277.56 795.44,277.56 797.76,275.56 800.08,275.56 802.4,274.17 804.71,275.92 807.03,275.92 809.35,275.92 811.67,275.92 813.98,274.41 816.3,274.41 818.62,275.32 820.94,278.16 823.26,278.57 825.57,278.57 827.89,278.57 830.21,277.31 832.53,277.31 834.84,277.31 837.16,280.32 839.48,282.54 841.8,282.54 844.11,284.55 846.43,282.21 848.75,285.45 851.07,283.19 853.39,283.86 855.7,283.54 858.02,283.77 860.34,286.27 862.66,285.75 864.97,285.56 867.29,285.56 869.61,286.69 871.93,288.3 874.24,288.04 876.56,288.45 878.88,287.93 881.2,288.6 883.52,287.41 885.83,286.79 888.15,286.82 890.47,286.28 892.79,286.48 895.1,286.07 897.42,286.79 899.74,286.79 902.06,285.31 904.38,283.64 906.69,283.64 909.01,285.07 911.33,285.79 913.65,287.22 915.96,287.71 918.28,286.76 920.6,286.86 922.92,286.86 925.23,285.6 927.55,284.57 929.87,283.13 932.19,284.4 934.51,284.59 936.82,282.21 939.14,280.97 941.46,280.97 943.78,281.96 946.09,281.25 948.41,279.84 950.73,279.54 953.05,281.72 955.36,281.72 957.68,281.72 960.0,281.33" opacity="0.82"/>
<line x1="70.0" y1="550.0" x2="960.0" y2="550.0" stroke="#444" stroke-width="1.2"/>
<line x1="70.0" y1="405.0" x2="70.0" y2="550.0" stroke="#444" stroke-width="1.2"/>
<text x="70.0" y="397.0" font-family="monospace" font-size="12">threshold</text>
<polyline fill="none" stroke="#1f77b4" stroke-width="1.6" points="70.0,438.36 72.32,438.36 74.64,454.13 76.95,461.32 79.27,461.32 81.59,454.25 83.91,454.25 86.22,479.96 88.54,479.96 90.86,479.96 93.18,479.96 95.49,479.96 97.81,508.41 100.13,496.48 102.45,498.96 104.77,498.96 107.08,498.96 109.4,498.96 111.72,498.96 114.04,497.04 116.35,497.04 118.67,497.04 120.99,512.44 123.31,511.63 125.62,511.63 127.94,509.12 130.26,509.12 132.58,512.76 134.9,512.76 137.21,512.76 139.53,512.76 141.85,512.76 144.17,512.76 146.48,512.76 148.8,512.76 151.12,510.92 153.44,493.76 155.76,478.02 158.07,478.02 160.39,478.02 162.71,467.1 165.03,467.1 167.34,467.1 169.66,479.65 171.98,479.65 174.3,479.65 176.61,479.65 178.93,491.69 181.25,491.69 183.57,491.69 185.89,491.69 188.2,491.69 190.52,494.39 192.84,517.25 195.16,509.25 197.47,509.25 199.79,501.03 202.11,501.03 204.43,501.03 206.74,510.67 209.06,510.67 211.38,510.67 213.7,510.67 216.02,510.67 218.33,510.67 220.65,510.67 222.97,510.67 225.29,510.67 227.6,510.67 229.92,520.36 232.24,520.36 234.56,520.36 236.88,520.36 239.19,530.38 241.51,530.38 243.83,530.38 246.15,529.3 248.46,529.3 250.78,543.97 253.1,543.97 255.42,543.97 257.73,543.97 260.05,543.97 262.37,543.97 264.69,541.05 267.01,521.28 269.32,521.28 271.64,521.28 273.96,488.64 276.28,488.64 278.59,488.64 280.91,481.57 283.23,483.52 285.55,491.55 287.86,512.23 290.18,512.23 292.5,511.92 294.82,511.92 297.14,517.11 299.45,500.74 301.77,492.65 304.09,492.65 306.41,483.32 308.72,483.32 311.04,483.32 313.36,483.32 315.68,483.32 317.99,469.93 320.31,469.93 322.63,449.17 324.95,449.17 327.27,449.7 329.58,449.7 331.9,449.7 334.22,449.7 336.54,449.7 338.85,449.7 341.17,449.7 343.49,449.7 345.81,449.7 348.12,449.7 350.44,449.7 352.76,449.7 355.08,449.7 357.4,449.7 359.71,449.7 362.03,449.7 364.35,449.7 366.67,449.7 368.98,449.7 371.3,466.08 373.62,466.08 375.94,458.35 378.26,469.66 380.57,470.63 382.89,470.63 385.21,470.63 387.53,470.63 389.84,461.03 392.16,461.03 394.48,461.03 396.8,461.03 399.11,461.03 401.43,465.44 403.75,465.44 406.07,465.44 408.39,465.44 410.7,457.89 413.02,465.35 415.34,465.35 417.66,465.35 419.97,481.89 422.29,486.67 424.61,486.67 426.93,486.67 429.24,476.7 431.56,475.7 433.88,475.7 436.2,462.92 438.52,462.92 440.83,462.92 443.15,462.92 445.47,462.92 447.79,469.85 450.1,469.85 452.42,469.85 454.74,469.85 457.06,469.85 459.38,469.85 461.69,469.85 464.01,469.85 466.33,469.85 468.65,469.85 470.96,479.67 473.28,479.67 475.6,479.67 477.92,479.67 480.23,479.67 482.55,479.67 484.87,479.67 487.19,470.62 489.51,470.62 491.82,470.62 494.14,470.62 496.46,461.76 498.78,461.76 501.09,472.59 503.41,472.59 505.73,472.31 508.05,472.31 510.36,472.31 512.68,472.31 515.0,472.31 517.32,449.7 519.64,452.98 521.95,472.85 524.27,472.85 526.59,457.01 528.91,472.07 531.22,472.07 533.54,472.07 535.86,462.98 538.18,462.98 540.49,462.98 542.81,480.64 545.13,473.55 547.45,481.75 549.77,481.75 552.08,474.9 554.4,474.9 556.72,474.9 559.04,470.99 561.35,470.99 563.67,474.72 565.99,474.72 568.31,474.72 570.62,476.79 572.94,476.79 575.26,476.79 577.58,476.79 579.9,476.79 582.21,467.47 584.53,467.47 586.85,467.47 589.17,473.04 591.48,484.33 593.8,500.96 596.12,500.96 598.44,490.83 600.76,486.92 603.07,486.92 605.39,486.92 607.71,486.92 610.03,486.92 612.34,489.82 614.66,477.67 616.98,477.67 619.3,477.31 621.61,477.31 623.93,484.98 626.25,484.98 628.57,472.07 630.89,463.84 633.2,471.22 635.52,467.38 637.84,461.07 640.16,469.8 642.47,465.66 644.79,465.66 647.11,465.66 649.43,458.23 651.74,458.23 654.06,453.93 656.38,454.08 658.7,454.08 661.02,450.41 663.33,450.64 665.65,450.64 667.97,450.64 670.29,454.66 672.6,469.06 674.92,469.06 677.24,468.75 679.56,472.05 681.88,472.05 684.19,465.79 686.51,466.24 688.83,470.55 691.15,468.6 693.46,457.73 695.78,452.55 698.1,458.1 700.42,465.18 702.73,461.22 705.05,463.36 707.37,463.65 709.69,448.93 712.01,451.63 714.32,451.63 716.64,451.63 718.96,456.84 721.28,456.84 723.59,456.83 725.91,473.11 728.23,472.72 730.55,474.7 732.86,485.32 735.18,485.32 737.5,482.54 739.82,451.63 742.14,453.89 744.45,454.92 746.77,456.98 749.09,459.47 751.41,460.39 753.72,465.16 756.04,463.65 758.36,461.14 760.68,467.32 762.99,468.49 765.31,470.34 767.63,471.46 769.95,466.93 772.27,467.65 774.58,470.64 776.9,472.0 779.22,476.54 781.54,472.43 783.85,472.79 786.17,472.02 788.49,474.17 790.81,471.77 793.12,464.17 795.44,464.93 797.76,464.93 800.08,463.69 802.4,463.69 804.71,463.32 807.03,466.77 809.35,463.35 811.67,457.93 813.98,457.93 816.3,454.96 818.62,456.76 820.94,453.43 823.26,452.84 825.57,452.23 827.89,452.23 830.21,452.23 832.53,452.23 834.84,452.68 837.16,449.41 839.48,447.16 841.8,447.16 844.11,447.16 846.43,447.16 848.75,447.69 851.07,461.34 853.39,462.12 855.7,462.27 858.02,465.29 860.34,466.56 862.66,466.45 864.97,468.65 867.29,470.4 869.61,474.26 871.93,473.84 874.24,474.12 876.56,472.0 878.88,473.25 881.2,474.19 883.52,474.82 885.83,472.34 888.15,474.27 890.47,472.73 892.79,473.05 895.1,470.44 897.42,470.44 899.74,469.39 902.06,470.46 904.38,470.22 906.69,470.52 909.01,470.22 911.33,470.22 913.65,468.42 915.96,468.49 918.28,466.66 920.6,468.04 922.92,467.26 925.23,467.78 927.55,467.52 929.87,468.64 932.19,468.64 934.51,469.63 936.82,467.34 939.14,468.56 941.46,468.56 943.78,468.66 946.09,468.66 948.41,472.0 950.73,473.26 953.05,474.15 955.36,474.15 957.68,474.18 960.0,470.05" opacity="0.82"/>
<polyline fill="none" stroke="#e45756" stroke-width="1.6" points="70.0,438.36 72.32,438.36 74.64,438.36 76.95,457.04 79.27,457.04 81.59,457.04 83.91,471.79 86.22,471.79 88.54,471.79 90.86,471.79 93.18,471.79 95.49,479.11 97.81,491.16 100.13,491.16 102.45,491.16 104.77,491.16 107.08,468.61 109.4,468.61 111.72,468.61 114.04,480.94 116.35,480.94 118.67,480.94 120.99,480.94 123.31,480.94 125.62,480.94 127.94,477.01 130.26,477.01 132.58,477.01 134.9,477.01 137.21,477.01 139.53,477.01 141.85,467.27 144.17,466.67 146.48,466.67 148.8,466.67 151.12,466.67 153.44,466.67 155.76,466.67 158.07,466.67 160.39,466.67 162.71,466.67 165.03,466.67 167.34,466.67 169.66,466.67 171.98,466.67 174.3,466.67 176.61,466.67 178.93,466.67 181.25,466.67 183.57,466.67 185.89,466.67 188.2,466.67 190.52,466.67 192.84,466.67 195.16,466.67 197.47,466.67 199.79,466.67 202.11,506.23 204.43,506.23 206.74,492.7 209.06,486.49 211.38,479.42 213.7,442.12 216.02,442.12 218.33,442.12 220.65,442.12 222.97,442.12 225.29,465.8 227.6,465.8 229.92,465.8 232.24,465.8 234.56,481.81 236.88,481.81 239.19,481.81 241.51,481.81 243.83,481.81 246.15,481.81 248.46,481.81 250.78,495.71 253.1,495.71 255.42,507.49 257.73,474.71 260.05,468.4 262.37,468.4 264.69,445.61 267.01,438.15 269.32,457.03 271.64,457.03 273.96,457.03 276.28,457.05 278.59,457.05 280.91,457.05 283.23,457.05 285.55,457.05 287.86,457.05 290.18,457.05 292.5,446.64 294.82,425.68 297.14,425.68 299.45,425.68 301.77,425.68 304.09,425.68 306.41,405.0 308.72,405.0 311.04,405.0 313.36,429.58 315.68,424.76 317.99,424.76 320.31,430.72 322.63,430.72 324.95,430.72 327.27,430.72 329.58,430.72 331.9,430.72 334.22,430.72 336.54,448.17 338.85,448.17 341.17,448.17 343.49,448.17 345.81,448.17 348.12,444.58 350.44,444.58 352.76,444.58 355.08,444.58 357.4,444.58 359.71,444.58 362.03,444.58 364.35,444.58 366.67,444.58 368.98,447.39 371.3,447.39 373.62,447.39 375.94,447.39 378.26,447.39 380.57,447.39 382.89,447.39 385.21,487.69 387.53,487.69 389.84,480.78 392.16,483.79 394.48,448.04 396.8,448.04 399.11,445.44 401.43,445.44 403.75,445.44 406.07,417.35 408.39,437.17 410.7,437.17 413.02,437.17 415.34,437.17 417.66,437.17 419.97,437.17 422.29,437.17 424.61,437.17 426.93,437.17 429.24,437.17 431.56,437.17 433.88,437.17 436.2,439.0 438.52,473.17 440.83,477.0 443.15,477.0 445.47,477.0 447.79,477.0 450.1,477.0 452.42,443.55 454.74,443.55 457.06,428.31 459.38,428.31 461.69,428.31 464.01,428.31 466.33,441.33 468.65,441.33 470.96,441.33 473.28,445.76 475.6,445.76 477.92,445.76 480.23,445.76 482.55,410.37 484.87,463.69 487.19,481.16 489.51,481.16 491.82,481.16 494.14,457.87 496.46,457.87 498.78,457.87 501.09,457.87 503.41,450.58 505.73,450.58 508.05,450.58 510.36,436.48 512.68,422.56 515.0,422.56 517.32,450.58 519.64,477.7 521.95,464.83 524.27,464.83 526.59,464.83 528.91,464.83 531.22,464.83 533.54,464.83 535.86,464.83 538.18,464.83 540.49,464.83 542.81,465.39 545.13,465.39 547.45,465.39 549.77,465.39 552.08,463.91 554.4,463.91 556.72,463.91 559.04,455.42 561.35,450.7 563.67,450.7 565.99,450.7 568.31,453.5 570.62,453.5 572.94,468.82 575.26,470.69 577.58,470.69 579.9,470.69 582.21,470.69 584.53,478.55 586.85,478.55 589.17,478.55 591.48,457.09 593.8,457.09 596.12,457.09 598.44,457.09 600.76,457.09 603.07,461.69 605.39,461.69 607.71,461.69 610.03,461.69 612.34,461.69 614.66,461.69 616.98,461.69 619.3,461.69 621.61,461.69 623.93,480.52 626.25,473.95 628.57,461.69 630.89,461.69 633.2,461.69 635.52,461.69 637.84,465.25 640.16,465.25 642.47,465.25 644.79,476.19 647.11,475.71 649.43,475.71 651.74,470.72 654.06,475.07 656.38,481.01 658.7,478.88 661.02,478.88 663.33,481.3 665.65,493.81 667.97,485.8 670.29,485.8 672.6,471.63 674.92,467.94 677.24,454.07 679.56,458.98 681.88,453.83 684.19,458.07 686.51,458.07 688.83,453.06 691.15,453.06 693.46,453.06 695.78,444.2 698.1,444.2 700.42,451.54 702.73,452.8 705.05,452.8 707.37,452.8 709.69,451.13 712.01,451.13 714.32,451.13 716.64,452.83 718.96,452.83 721.28,445.26 723.59,445.26 725.91,449.13 728.23,451.24 730.55,451.24 732.86,448.39 735.18,449.98 737.5,449.62 739.82,461.69 742.14,461.69 744.45,461.69 746.77,461.69 749.09,463.1 751.41,460.97 753.72,460.9 756.04,459.36 758.36,457.61 760.68,462.48 762.99,463.79 765.31,458.57 767.63,456.62 769.95,456.19 772.27,464.46 774.58,467.18 776.9,472.85 779.22,472.85 781.54,472.53 783.85,473.35 786.17,473.35 788.49,474.35 790.81,474.35 793.12,474.89 795.44,481.37 797.76,479.42 800.08,479.42 802.4,474.3 804.71,473.61 807.03,472.66 809.35,468.07 811.67,469.02 813.98,464.5 816.3,464.5 818.62,457.61 820.94,459.58 823.26,454.53 825.57,459.24 827.89,457.63 830.21,455.97 832.53,455.97 834.84,455.97 837.16,455.41 839.48,455.41 841.8,458.48 844.11,452.91 846.43,453.96 848.75,453.96 851.07,455.97 853.39,455.43 855.7,457.4 858.02,457.28 860.34,457.28 862.66,458.74 864.97,459.6 867.29,455.65 869.61,454.55 871.93,455.17 874.24,454.29 876.56,456.55 878.88,456.55 881.2,456.55 883.52,460.94 885.83,459.08 888.15,459.08 890.47,459.08 892.79,457.26 895.1,459.4 897.42,458.03 899.74,459.74 902.06,462.32 904.38,463.45 906.69,463.84 909.01,466.25 911.33,466.65 913.65,463.57 915.96,464.52 918.28,464.5 920.6,464.67 922.92,466.04 925.23,467.49 927.55,467.54 929.87,467.45 932.19,467.45 934.51,467.23 936.82,467.08 939.14,465.62 941.46,463.46 943.78,464.21 946.09,464.33 948.41,464.73 950.73,469.63 953.05,470.22 955.36,470.31 957.68,470.31 960.0,470.31" opacity="0.82"/>
<polyline fill="none" stroke="#4c9f70" stroke-width="1.6" points="70.0,438.36 72.32,438.36 74.64,438.36 76.95,438.36 79.27,438.36 81.59,454.82 83.91,454.82 86.22,471.04 88.54,471.04 90.86,471.04 93.18,471.04 95.49,471.04 97.81,471.04 100.13,471.04 102.45,457.24 104.77,457.24 107.08,457.24 109.4,481.03 111.72,491.03 114.04,491.03 116.35,491.03 118.67,459.36 120.99,459.36 123.31,475.16 125.62,475.16 127.94,461.12 130.26,455.19 132.58,456.46 134.9,456.46 137.21,458.2 139.53,458.2 141.85,458.2 144.17,449.56 146.48,449.56 148.8,449.56 151.12,472.79 153.44,493.55 155.76,508.34 158.07,508.34 160.39,510.36 162.71,510.36 165.03,510.36 167.34,480.44 169.66,513.63 171.98,513.63 174.3,513.63 176.61,513.63 178.93,511.21 181.25,511.21 183.57,510.68 185.89,510.68 188.2,498.67 190.52,497.27 192.84,497.27 195.16,492.24 197.47,492.24 199.79,526.04 202.11,529.67 204.43,529.67 206.74,503.55 209.06,503.55 211.38,503.55 213.7,503.55 216.02,518.43 218.33,518.43 220.65,498.35 222.97,522.97 225.29,523.92 227.6,534.98 229.92,548.4 232.24,525.27 234.56,520.9 236.88,520.9 239.19,520.9 241.51,526.87 243.83,513.15 246.15,511.86 248.46,511.86 250.78,511.86 253.1,518.7 255.42,518.7 257.73,518.7 260.05,513.46 262.37,522.36 264.69,522.36 267.01,522.36 269.32,522.36 271.64,522.36 273.96,505.34 276.28,505.34 278.59,543.18 280.91,543.18 283.23,550.0 285.55,531.17 287.86,509.48 290.18,512.81 292.5,506.02 294.82,488.48 297.14,488.48 299.45,445.78 301.77,439.22 304.09,448.85 306.41,448.85 308.72,448.85 311.04,451.1 313.36,451.1 315.68,461.77 317.99,447.97 320.31,447.97 322.63,447.97 324.95,468.31 327.27,468.31 329.58,455.95 331.9,467.47 334.22,467.47 336.54,467.47 338.85,467.47 341.17,467.47 343.49,497.4 345.81,497.4 348.12,497.4 350.44,497.4 352.76,497.4 355.08,497.4 357.4,497.4 359.71,497.4 362.03,478.14 364.35,478.14 366.67,478.14 368.98,478.14 371.3,478.14 373.62,478.14 375.94,478.14 378.26,478.14 380.57,478.14 382.89,478.14 385.21,478.14 387.53,478.58 389.84,478.58 392.16,478.58 394.48,478.58 396.8,481.15 399.11,478.0 401.43,478.0 403.75,478.0 406.07,478.0 408.39,478.0 410.7,491.53 413.02,491.53 415.34,491.53 417.66,491.53 419.97,523.69 422.29,523.69 424.61,507.89 426.93,507.89 429.24,507.89 431.56,507.89 433.88,490.08 436.2,490.08 438.52,490.08 440.83,490.08 443.15,490.08 445.47,490.08 447.79,490.08 450.1,490.08 452.42,490.08 454.74,508.45 457.06,508.45 459.38,508.45 461.69,508.45 464.01,508.45 466.33,527.67 468.65,486.75 470.96,486.75 473.28,485.29 475.6,485.29 477.92,485.29 480.23,485.29 482.55,515.89 484.87,515.89 487.19,515.89 489.51,515.89 491.82,515.89 494.14,515.89 496.46,515.89 498.78,515.89 501.09,515.89 503.41,515.89 505.73,511.11 508.05,512.44 510.36,520.23 512.68,506.65 515.0,506.65 517.32,467.47 519.64,470.08 521.95,464.38 524.27,453.24 526.59,467.86 528.91,477.22 531.22,482.68 533.54,483.61 535.86,468.35 538.18,468.35 540.49,468.35 542.81,468.35 545.13,462.62 547.45,472.69 549.77,472.0 552.08,464.87 554.4,448.96 556.72,454.6 559.04,453.94 561.35,459.96 563.67,459.96 565.99,462.08 568.31,470.24 570.62,475.74 572.94,475.74 575.26,474.15 577.58,464.44 579.9,464.44 582.21,464.0 584.53,464.0 586.85,466.43 589.17,466.43 591.48,475.81 593.8,475.81 596.12,468.14 598.44,465.65 600.76,472.68 603.07,484.81 605.39,484.81 607.71,460.31 610.03,447.08 612.34,466.45 614.66,486.34 616.98,482.04 619.3,480.46 621.61,480.46 623.93,482.33 626.25,467.85 628.57,468.79 630.89,473.44 633.2,476.54 635.52,484.43 637.84,484.43 640.16,491.9 642.47,491.9 644.79,496.91 647.11,494.82 649.43,489.68 651.74,483.59 654.06,482.94 656.38,479.47 658.7,479.47 661.02,474.1 663.33,475.1 665.65,473.19 667.97,475.37 670.29,476.48 672.6,479.78 674.92,470.95 677.24,474.03 679.56,475.39 681.88,483.06 684.19,489.16 686.51,497.84 688.83,497.99 691.15,489.49 693.46,472.14 695.78,472.14 698.1,476.51 700.42,476.51 702.73,483.5 705.05,483.5 707.37,483.5 709.69,490.63 712.01,483.96 714.32,484.56 716.64,483.95 718.96,484.59 721.28,486.09 723.59,479.82 725.91,484.93 728.23,481.71 730.55,478.8 732.86,478.8 735.18,484.48 737.5,476.94 739.82,465.28 742.14,465.28 744.45,467.41 746.77,467.47 749.09,463.03 751.41,463.38 753.72,463.02 756.04,464.78 758.36,463.85 760.68,464.0 762.99,460.98 765.31,461.16 767.63,458.89 769.95,468.89 772.27,476.09 774.58,479.33 776.9,479.8 779.22,481.72 781.54,479.61 783.85,479.62 786.17,476.94 788.49,478.06 790.81,478.49 793.12,471.57 795.44,471.62 797.76,470.46 800.08,469.0 802.4,472.42 804.71,467.84 807.03,473.56 809.35,472.01 811.67,473.7 813.98,470.79 816.3,470.79 818.62,470.79 820.94,474.02 823.26,471.99 825.57,475.35 827.89,475.55 830.21,475.89 832.53,477.27 834.84,479.53 837.16,475.28 839.48,472.87 841.8,469.31 844.11,467.96 846.43,462.53 848.75,456.72 851.07,467.47 853.39,469.86 855.7,472.66 858.02,472.57 860.34,470.87 862.66,470.41 864.97,470.92 867.29,471.62 869.61,469.06 871.93,469.06 874.24,466.91 876.56,466.6 878.88,465.93 881.2,464.04 883.52,467.35 885.83,465.37 888.15,465.18 890.47,463.29 892.79,463.56 895.1,463.56 897.42,463.03 899.74,460.04 902.06,457.04 904.38,456.38 906.69,453.16 909.01,449.49 911.33,449.87 913.65,447.53 915.96,450.24 918.28,448.63 920.6,447.06 922.92,445.82 925.23,445.78 927.55,444.21 929.87,444.21 932.19,444.88 934.51,446.31 936.82,446.97 939.14,444.79 941.46,444.79 943.78,446.05 946.09,446.43 948.41,450.64 950.73,453.73 953.05,456.9 955.36,462.69 957.68,463.05 960.0,459.7" opacity="0.82"/>
<polyline fill="none" stroke="#f3a712" stroke-width="1.6" points="70.0,438.36 72.32,473.08 74.64,497.67 76.95,497.67 79.27,487.58 81.59,503.17 83.91,503.17 86.22,478.77 88.54,478.77 90.86,483.14 93.18,483.14 95.49,483.14 97.81,483.14 100.13,474.44 102.45,474.44 104.77,474.44 107.08,474.44 109.4,474.44 111.72,474.44 114.04,490.23 116.35,499.78 118.67,499.78 120.99,499.78 123.31,499.78 125.62,499.78 127.94,499.78 130.26,499.78 132.58,498.86 134.9,498.86 137.21,498.86 139.53,498.86 141.85,498.86 144.17,498.86 146.48,498.86 148.8,514.68 151.12,514.68 153.44,512.76 155.76,502.02 158.07,502.02 160.39,502.02 162.71,502.02 165.03,502.02 167.34,502.02 169.66,502.02 171.98,502.02 174.3,502.02 176.61,502.02 178.93,481.45 181.25,481.45 183.57,481.45 185.89,502.32 188.2,460.52 190.52,460.52 192.84,460.52 195.16,502.23 197.47,511.32 199.79,490.33 202.11,498.97 204.43,507.34 206.74,507.34 209.06,507.34 211.38,507.34 213.7,507.34 216.02,507.34 218.33,507.34 220.65,529.24 222.97,519.92 225.29,519.92 227.6,507.98 229.92,505.29 232.24,498.14 234.56,505.41 236.88,505.41 239.19,505.41 241.51,505.41 243.83,505.41 246.15,505.41 248.46,502.09 250.78,502.09 253.1,502.09 255.42,502.09 257.73,502.09 260.05,502.09 262.37,502.09 264.69,502.09 267.01,502.09 269.32,514.39 271.64,517.63 273.96,492.94 276.28,492.94 278.59,492.94 280.91,505.16 283.23,485.98 285.55,485.98 287.86,485.98 290.18,485.98 292.5,485.98 294.82,485.98 297.14,485.77 299.45,485.77 301.77,517.2 304.09,507.16 306.41,471.63 308.72,471.63 311.04,471.63 313.36,471.63 315.68,466.96 317.99,466.96 320.31,466.96 322.63,466.96 324.95,473.42 327.27,473.42 329.58,481.87 331.9,481.87 334.22,467.1 336.54,467.1 338.85,460.97 341.17,460.97 343.49,456.61 345.81,456.61 348.12,456.61 350.44,456.61 352.76,456.61 355.08,466.28 357.4,444.71 359.71,444.71 362.03,444.71 364.35,444.71 366.67,443.82 368.98,443.82 371.3,443.82 373.62,443.82 375.94,443.82 378.26,443.82 380.57,443.82 382.89,467.95 385.21,467.95 387.53,447.53 389.84,447.53 392.16,462.31 394.48,462.31 396.8,462.31 399.11,450.98 401.43,450.98 403.75,450.98 406.07,455.83 408.39,455.83 410.7,436.64 413.02,436.64 415.34,436.64 417.66,436.64 419.97,436.64 422.29,439.01 424.61,439.01 426.93,476.04 429.24,476.04 431.56,476.04 433.88,534.08 436.2,465.28 438.52,465.28 440.83,465.28 443.15,465.28 445.47,465.28 447.79,450.64 450.1,471.77 452.42,471.77 454.74,471.77 457.06,471.77 459.38,459.91 461.69,459.91 464.01,459.91 466.33,459.91 468.65,459.91 470.96,459.91 473.28,487.96 475.6,487.96 477.92,487.96 480.23,487.96 482.55,510.61 484.87,503.93 487.19,503.93 489.51,503.93 491.82,503.93 494.14,507.93 496.46,507.93 498.78,507.93 501.09,507.93 503.41,507.93 505.73,507.93 508.05,507.93 510.36,507.93 512.68,519.74 515.0,519.74 517.32,498.86 519.64,497.22 521.95,492.84 524.27,492.84 526.59,492.84 528.91,488.59 531.22,488.59 533.54,488.59 535.86,488.59 538.18,488.59 540.49,482.34 542.81,482.34 545.13,484.78 547.45,484.78 549.77,484.78 552.08,484.78 554.4,484.78 556.72,478.77 559.04,478.77 561.35,490.13 563.67,490.13 565.99,490.13 568.31,481.73 570.62,481.73 572.94,481.73 575.26,484.31 577.58,484.31 579.9,489.93 582.21,477.19 584.53,477.19 586.85,477.19 589.17,477.19 591.48,473.64 593.8,494.91 596.12,494.91 598.44,492.3 600.76,483.97 603.07,486.21 605.39,499.48 607.71,522.27 610.03,497.07 612.34,497.07 614.66,492.36 616.98,492.36 619.3,492.36 621.61,516.62 623.93,516.62 626.25,516.62 628.57,497.17 630.89,497.17 633.2,500.55 635.52,500.55 637.84,504.19 640.16,504.19 642.47,504.19 644.79,504.19 647.11,504.19 649.43,504.19 651.74,507.23 654.06,499.15 656.38,508.04 658.7,508.04 661.02,509.48 663.33,508.21 665.65,503.85 667.97,502.65 670.29,514.13 672.6,522.08 674.92,517.78 677.24,521.05 679.56,520.84 681.88,515.18 684.19,514.61 686.51,514.61 688.83,518.58 691.15,518.58 693.46,517.44 695.78,531.58 698.1,531.58 700.42,528.54 702.73,526.29 705.05,526.88 707.37,514.06 709.69,507.28 712.01,507.28 714.32,514.08 716.64,515.29 718.96,516.42 721.28,510.2 723.59,507.01 725.91,510.83 728.23,510.83 730.55,508.88 732.86,508.88 735.18,527.63 737.5,527.63 739.82,498.86 742.14,500.53 744.45,502.51 746.77,499.3 749.09,497.59 751.41,498.44 753.72,491.97 756.04,488.24 758.36,488.24 760.68,483.91 762.99,483.91 765.31,486.81 767.63,485.47 769.95,486.43 772.27,486.43 774.58,484.83 776.9,484.83 779.22,484.83 781.54,484.13 783.85,484.13 786.17,484.15 788.49,483.02 790.81,486.6 793.12,487.02 795.44,487.02 797.76,486.61 800.08,486.61 802.4,485.9 804.71,484.12 807.03,484.12 809.35,484.12 811.67,484.12 813.98,491.46 816.3,491.46 818.62,490.98 820.94,492.49 823.26,491.51 825.57,491.51 827.89,491.51 830.21,491.97 832.53,491.97 834.84,491.97 837.16,493.12 839.48,497.39 841.8,497.39 844.11,499.13 846.43,497.19 848.75,493.95 851.07,494.27 853.39,495.34 855.7,496.8 858.02,498.83 860.34,499.37 862.66,500.81 864.97,500.5 867.29,501.42 869.61,500.59 871.93,501.03 874.24,501.03 876.56,499.8 878.88,500.29 881.2,498.08 883.52,497.24 885.83,496.76 888.15,500.87 890.47,501.88 892.79,503.39 895.1,502.23 897.42,499.22 899.74,499.22 902.06,497.07 904.38,494.42 906.69,494.42 909.01,493.94 911.33,495.16 913.65,494.1 915.96,494.29 918.28,493.08 920.6,493.94 922.92,493.94 925.23,495.61 927.55,494.67 929.87,495.93 932.19,496.76 934.51,499.21 936.82,498.1 939.14,498.86 941.46,498.86 943.78,498.56 946.09,499.51 948.41,496.16 950.73,496.78 953.05,498.95 955.36,498.95 957.68,498.95 960.0,499.66" opacity="0.82"/>
</svg>
