<svg xmlns="http://www.w3.org/2000/svg" width="900" height="420" viewBox="0 0 900 420">
<rect x="0" y="0" width="900" height="420" fill="#ffffff"/>
<text x="450" y="26" text-anchor="middle" font-family="monospace" font-size="18">Calibration Score History</text>
<line x1="70.0" y1="375.0" x2="880.0" y2="375.0" stroke="#444" stroke-width="1.5"/>
<line x1="70.0" y1="45.0" x2="70.0" y2="375.0" stroke="#444" stroke-width="1.5"/>
<polyline fill="none" stroke="#1f77b4" stroke-width="2" points="70.0,45.0 72.11,45.0 74.22,155.78 76.33,155.78 78.44,155.78 80.55,235.07 82.66,235.07 84.77,235.07 86.88,235.07 88.98,235.07 91.09,235.07 93.2,235.07 95.31,235.07 97.42,230.01 99.53,230.01 101.64,230.01 103.75,230.01 105.86,305.73 107.97,305.73 110.08,305.73 112.19,305.73 114.3,305.73 116.41,305.73 118.52,254.86 120.62,234.58 122.73,302.55 124.84,302.55 126.95,302.55 129.06,302.55 131.17,302.55 133.28,302.55 135.39,302.55 137.5,355.54 139.61,355.54 141.72,337.26 143.83,337.26 145.94,337.26 148.05,364.49 150.16,364.49 152.27,328.29 154.38,328.29 156.48,328.29 158.59,352.79 160.7,352.79 162.81,352.79 164.92,352.79 167.03,352.79 169.14,352.79 171.25,352.79 173.36,352.79 175.47,352.79 177.58,358.57 179.69,351.17 181.8,351.17 183.91,351.17 186.02,351.17 188.12,351.17 190.23,351.17 192.34,351.17 194.45,351.17 196.56,351.17 198.67,351.17 200.78,351.17 202.89,281.41 205.0,281.41 207.11,353.47 209.22,353.47 211.33,353.47 213.44,353.47 215.55,353.47 217.66,353.47 219.77,353.47 221.88,353.47 223.98,353.47 226.09,355.58 228.2,355.58 230.31,375.0 232.42,375.0 234.53,274.15 236.64,358.93 238.75,358.93 240.86,358.93 242.97,358.93 245.08,353.76 247.19,353.76 249.3,353.37 251.41,138.96 253.52,138.96 255.62,295.32 257.73,295.32 259.84,314.19 261.95,337.9 264.06,337.9 266.17,337.9 268.28,337.9 270.39,345.55 272.5,346.99 274.61,346.99 276.72,346.99 278.83,346.99 280.94,342.6 283.05,342.6 285.16,316.67 287.27,360.61 289.38,362.44 291.48,362.44 293.59,347.9 295.7,350.89 297.81,350.89 299.92,350.89 302.03,350.89 304.14,350.89 306.25,350.89 308.36,356.39 310.47,350.11 312.58,350.11 314.69,350.11 316.8,350.11 318.91,353.68 321.02,353.68 323.12,353.68 325.23,353.68 327.34,353.68 329.45,358.89 331.56,358.89 333.67,352.37 335.78,352.37 337.89,352.37 340.0,352.37 342.11,346.95 344.22,346.95 346.33,345.89 348.44,318.77 350.55,337.29 352.66,276.87 354.77,325.09 356.88,281.46 358.98,281.46 361.09,274.4 363.2,274.4 365.31,356.69 367.42,356.69 369.53,356.69 371.64,356.69 373.75,360.27 375.86,360.27 377.97,341.04 380.08,341.04 382.19,341.04 384.3,363.71 386.41,363.71 388.52,351.05 390.62,351.05 392.73,351.05 394.84,350.01 396.95,350.01 399.06,313.18 401.17,313.18 403.28,313.18 405.39,326.92 407.5,326.92 409.61,326.92 411.72,326.92 413.83,326.92 415.94,326.92 418.05,255.69 420.16,320.13 422.27,320.13 424.38,320.13 426.48,285.66 428.59,285.66 430.7,354.09 432.81,253.15 434.92,128.16 437.03,128.16 439.14,283.3 441.25,332.85 443.36,332.85 445.47,332.85 447.58,322.37 449.69,322.37 451.8,322.37 453.91,322.37 456.02,343.74 458.12,354.91 460.23,354.91 462.34,354.91 464.45,354.91 466.56,354.91 468.67,354.91 470.78,361.78 472.89,350.85 475.0,350.85 477.11,345.28 479.22,358.49 481.33,357.02 483.44,356.94 485.55,341.53 487.66,341.53 489.77,341.53 491.88,334.86 493.98,345.78 496.09,328.63 498.2,347.65 500.31,347.65 502.42,304.56 504.53,314.92 506.64,314.92 508.75,314.92 510.86,314.92 512.97,360.79 515.08,360.79 517.19,359.51 519.3,359.51 521.41,359.51 523.52,359.51 525.62,354.45 527.73,298.53 529.84,298.53 531.95,346.01 534.06,277.77 536.17,273.54 538.28,361.66 540.39,361.66 542.5,347.36 544.61,354.23 546.72,356.72 548.83,356.72 550.94,360.2 553.05,349.24 555.16,346.55 557.27,347.28 559.38,347.28 561.48,347.28 563.59,301.79 565.7,301.79 567.81,301.79 569.92,347.26 572.03,329.99 574.14,329.99 576.25,329.99 578.36,358.89 580.47,356.85 582.58,342.24 584.69,334.99 586.8,358.79 588.91,358.79 591.02,327.99 593.12,326.92 595.23,325.7 597.34,356.76 599.45,356.76 601.56,356.76 603.67,356.76 605.78,359.55 607.89,352.12 610.0,352.12 612.11,354.58 614.22,333.89 616.33,333.89 618.44,324.53 620.55,343.94 622.66,281.22 624.77,241.07 626.88,273.93 628.98,290.97 631.09,290.97 633.2,266.07 635.31,264.01 637.42,264.01 639.53,264.4 641.64,154.33 643.75,208.82 645.86,220.48 647.97,220.48 650.08,146.7 652.19,185.96 654.3,242.15 656.41,288.01 658.52,288.01 660.62,288.01 662.73,260.42 664.84,256.62 666.95,256.62 669.06,283.37 671.17,256.7 673.28,308.73 675.39,308.73 677.5,235.93 679.61,358.79 681.72,358.62 683.83,357.25 685.94,353.54 688.05,350.34 690.16,350.92 692.27,352.99 694.38,355.15 696.48,357.4 698.59,356.41 700.7,357.04 702.81,356.63 704.92,354.28 707.03,354.55 709.14,353.1 711.25,353.1 713.36,334.69 715.47,348.82 717.58,354.17 719.69,354.01 721.8,337.2 723.91,336.11 726.02,334.28 728.12,354.05 730.23,354.97 732.34,355.95 734.45,350.4 736.56,352.43 738.67,347.72 740.78,362.1 742.89,346.4 745.0,344.69 747.11,343.87 749.22,345.3 751.33,348.87 753.44,351.29 755.55,350.0 757.66,350.0 759.77,348.42 761.88,346.59 763.98,348.91 766.09,351.95 768.2,353.94 770.31,352.4 772.42,309.63 774.53,308.22 776.64,272.53 778.75,309.0 780.86,358.79 782.97,321.12 785.08,355.44 787.19,357.47 789.3,341.97 791.41,320.81 793.52,339.85 795.62,356.43 797.73,355.75 799.84,358.13 801.95,358.13 804.06,356.52 806.17,356.34 808.28,356.67 810.39,356.81 812.5,356.1 814.61,347.47 816.72,341.69 818.83,357.63 820.94,356.76 823.05,356.52 825.16,356.52 827.27,355.33 829.38,354.2 831.48,355.8 833.59,356.64 835.7,355.87 837.81,356.31 839.92,340.09 842.03,341.36 844.14,323.16 846.25,330.95 848.36,327.33 850.47,326.53 852.58,327.0 854.69,329.99 856.8,328.68 858.91,330.41 861.02,330.14 863.12,327.94 865.23,327.28 867.34,328.03 869.45,329.48 871.56,327.27 873.67,328.09 875.78,329.33 877.89,326.85 880.0,328.3"/>
</svg>
