<svg xmlns="http://www.w3.org/2000/svg" width="900" height="420" viewBox="0 0 900 420">
<rect x="0" y="0" width="900" height="420" fill="#ffffff"/>
<text x="450" y="26" text-anchor="middle" font-family="monospace" font-size="18">Calibration Score History</text>
<line x1="70.0" y1="375.0" x2="880.0" y2="375.0" stroke="#444" stroke-width="1.5"/>
<line x1="70.0" y1="45.0" x2="70.0" y2="375.0" stroke="#444" stroke-width="1.5"/>
<polyline fill="none" stroke="#1f77b4" stroke-width="2" points="70.0,370.43 70.68,370.43 71.35,370.43 72.03,370.43 72.7,370.43 73.38,370.43 74.05,370.43 74.72,365.13 75.4,365.13 76.08,365.13 76.75,365.13 77.42,365.13 78.1,365.13 78.78,305.76 79.45,305.76 80.12,346.29 80.8,346.29 81.47,346.29 82.15,346.29 82.82,346.29 83.5,346.29 84.18,346.29 84.85,346.29 85.52,346.29 86.2,346.29 86.88,346.29 87.55,374.75 88.22,357.76 88.9,357.76 89.58,370.34 90.25,370.34 90.92,372.23 91.6,372.23 92.28,318.81 92.95,318.81 93.62,318.81 94.3,344.11 94.98,344.11 95.65,299.42 96.32,299.42 97.0,323.44 97.68,339.14 98.35,234.02 99.02,266.65 99.7,357.76 100.38,314.93 101.05,314.93 101.72,374.41 102.4,374.41 103.08,374.41 103.75,371.08 104.42,207.39 105.1,207.39 105.78,274.72 106.45,222.54 107.12,183.66 107.8,188.28 108.48,45.0 109.15,45.0 109.82,190.34 110.5,190.34 111.18,281.95 111.85,281.95 112.52,348.02 113.2,351.85 113.88,275.66 114.55,275.66 115.22,336.03 115.9,336.03 116.58,336.03 117.25,281.08 117.92,281.08 118.6,281.08 119.28,345.58 119.95,372.82 120.62,301.84 121.3,301.84 121.98,374.68 122.65,374.68 123.32,374.68 124.0,374.68 124.68,374.68 125.35,369.95 126.02,369.95 126.7,374.77 127.38,374.77 128.05,339.56 128.72,291.06 129.4,291.06 130.07,291.06 130.75,291.06 131.43,340.27 132.1,340.27 132.78,340.27 133.45,325.26 134.12,279.84 134.8,372.24 135.48,372.24 136.15,308.24 136.82,308.24 137.5,308.24 138.18,308.24 138.85,308.24 139.52,308.24 140.2,325.42 140.88,284.62 141.55,284.62 142.22,284.62 142.9,309.82 143.57,309.82 144.25,309.82 144.93,345.16 145.6,257.81 146.28,257.81 146.95,257.81 147.62,257.81 148.3,372.69 148.98,375.0 149.65,375.0 150.32,374.98 151.0,374.98 151.68,374.98 152.35,374.98 153.02,374.98 153.7,374.98 154.38,374.98 155.05,374.98 155.72,374.98 156.4,305.13 157.07,374.84 157.75,374.84 158.43,374.84 159.1,374.84 159.78,374.84 160.45,362.04 161.12,362.04 161.8,345.95 162.48,345.95 163.15,365.81 163.82,365.81 164.5,365.81 165.18,369.8 165.85,369.8 166.52,374.59 167.2,374.59 167.88,374.59 168.55,374.59 169.22,374.59 169.9,374.59 170.58,370.85 171.25,370.85 171.92,370.85 172.6,370.85 173.28,370.85 173.95,370.85 174.62,362.29 175.3,362.29 175.98,362.29 176.65,362.29 177.32,362.29 178.0,362.29 178.68,363.91 179.35,363.91 180.02,369.76 180.7,369.76 181.38,369.76 182.05,369.76 182.72,369.76 183.4,369.76 184.08,369.76 184.75,369.76 185.42,343.33 186.1,349.23 186.78,323.86 187.45,374.46 188.12,374.46 188.8,362.9 189.48,362.9 190.15,362.9 190.82,362.9 191.5,362.9 192.18,362.9 192.85,362.9 193.52,362.9 194.2,362.9 194.88,362.9 195.55,362.9 196.22,350.21 196.9,370.09 197.58,362.67 198.25,362.67 198.92,362.67 199.6,328.55 200.28,373.19 200.95,373.19 201.62,373.33 202.3,373.33 202.98,373.33 203.65,373.33 204.32,373.33 205.0,369.18 205.68,369.18 206.35,369.18 207.02,369.18 207.7,374.77 208.38,374.77 209.05,374.77 209.72,294.73 210.4,370.09 211.08,370.09 211.75,350.79 212.42,350.79 213.1,358.45 213.78,358.45 214.45,374.63 215.12,374.63 215.8,374.63 216.48,374.63 217.15,366.58 217.82,366.58 218.5,366.58 219.18,366.58 219.85,323.31 220.52,374.54 221.2,374.54 221.88,279.86 222.55,242.23 223.22,242.23 223.9,242.23 224.58,251.46 225.25,251.46 225.92,332.36 226.6,332.36 227.28,332.36 227.95,332.36 228.62,332.36 229.3,332.36 229.98,374.01 230.65,374.01 231.32,374.01 232.0,374.01 232.68,374.01 233.35,314.41 234.02,314.41 234.7,314.41 235.38,374.44 236.05,374.44 236.72,374.44 237.4,335.98 238.08,335.98 238.75,335.98 239.42,370.61 240.1,342.78 240.78,342.78 241.45,369.41 242.12,369.41 242.8,368.69 243.48,368.69 244.15,368.69 244.82,368.69 245.5,368.69 246.18,368.69 246.85,368.69 247.52,368.69 248.2,368.69 248.88,368.69 249.55,339.77 250.22,339.77 250.9,339.77 251.58,339.77 252.25,339.77 252.92,364.62 253.6,362.22 254.28,362.22 254.95,362.22 255.62,362.22 256.3,362.22 256.98,362.22 257.65,362.22 258.32,281.3 259.0,281.3 259.68,281.3 260.35,281.3 261.02,281.3 261.7,267.81 262.38,267.81 263.05,369.22 263.73,339.79 264.4,339.79 265.08,374.11 265.75,374.11 266.42,348.32 267.1,375.0 267.77,375.0 268.45,375.0 269.12,375.0 269.8,375.0 270.48,375.0 271.15,366.79 271.82,360.4 272.5,360.4 273.18,360.4 273.85,360.4 274.52,360.4 275.2,360.4 275.88,360.4 276.55,360.4 277.23,360.4 277.9,360.4 278.58,360.4 279.25,360.4 279.92,360.4 280.6,360.4 281.27,360.4 281.95,360.4 282.62,360.4 283.3,362.26 283.98,362.26 284.65,362.26 285.32,362.26 286.0,362.26 286.68,362.26 287.35,362.26 288.02,362.26 288.7,350.13 289.38,350.13 290.05,350.13 290.73,350.13 291.4,350.13 292.08,350.13 292.75,350.13 293.42,350.13 294.1,374.62 294.77,374.62 295.45,374.62 296.12,374.62 296.8,374.62 297.48,374.77 298.15,320.93 298.82,320.93 299.5,340.79 300.18,340.79 300.85,340.79 301.52,340.79 302.2,340.79 302.88,340.79 303.55,374.73 304.23,374.73 304.9,291.06 305.58,188.78 306.25,188.78 306.92,188.78 307.6,188.78 308.27,350.13 308.95,333.03 309.62,333.03 310.3,333.03 310.98,333.03 311.65,333.03 312.32,348.23 313.0,348.23 313.68,348.23 314.35,250.28 315.02,250.28 315.7,250.28 316.38,250.28 317.05,250.28 317.73,250.28 318.4,250.28 319.08,352.81 319.75,352.81 320.42,352.81 321.1,362.9 321.77,373.84 322.45,373.84 323.12,323.07 323.8,323.07 324.48,306.81 325.15,350.13 325.82,350.13 326.5,350.13 327.18,350.13 327.85,350.13 328.52,359.97 329.2,359.97 329.88,359.97 330.55,359.97 331.22,359.97 331.9,359.97 332.58,359.97 333.25,359.97 333.92,359.97 334.6,359.97 335.28,346.43 335.95,346.43 336.62,349.34 337.3,253.95 337.98,253.95 338.65,253.95 339.32,253.95 340.0,253.95 340.68,253.95 341.35,253.95 342.02,253.95 342.7,253.95 343.38,358.49 344.05,333.62 344.72,374.86 345.4,374.86 346.08,374.86 346.75,304.96 347.42,304.96 348.1,304.96 348.78,304.96 349.45,304.96 350.12,304.96 350.8,304.96 351.48,281.26 352.15,281.26 352.82,281.26 353.5,289.95 354.18,90.71 354.85,90.71 355.52,90.71 356.2,252.93 356.88,315.13 357.55,315.13 358.22,153.32 358.9,153.32 359.58,153.32 360.25,153.32 360.92,111.01 361.6,365.17 362.28,365.17 362.95,365.17 363.62,365.17 364.3,365.17 364.98,360.23 365.65,360.23 366.32,360.23 367.0,360.23 367.68,360.23 368.35,360.23 369.02,369.41 369.7,369.41 370.38,315.2 371.05,315.2 371.72,315.2 372.4,315.2 373.08,345.07 373.75,254.5 374.42,254.5 375.1,254.5 375.78,177.72 376.45,177.72 377.12,312.65 377.8,374.72 378.48,373.42 379.15,373.42 379.82,373.42 380.5,373.42 381.18,373.42 381.85,373.42 382.52,373.42 383.2,222.57 383.88,222.57 384.55,222.57 385.22,222.57 385.9,350.2 386.58,308.24 387.25,252.93 387.92,252.93 388.6,252.93 389.28,252.93 389.95,289.95 390.62,289.95 391.3,289.95 391.98,348.46 392.65,348.46 393.32,348.46 394.0,348.46 394.68,365.36 395.35,365.36 396.02,365.14 396.7,282.62 397.38,282.62 398.05,282.62 398.72,282.62 399.4,282.62 400.08,373.19 400.75,254.64 401.42,374.83 402.1,374.83 402.78,252.93 403.45,373.33 404.12,371.08 404.8,371.08 405.48,371.08 406.15,371.08 406.82,373.19 407.5,298.31 408.18,298.31 408.85,298.31 409.52,298.31 410.2,298.31 410.88,323.55 411.55,264.7 412.22,264.7 412.9,298.25 413.58,279.59 414.25,279.59 414.92,279.59 415.6,375.0 416.28,375.0 416.95,111.01 417.62,350.2 418.3,350.2 418.98,330.13 419.65,372.87 420.32,372.87 421.0,329.04 421.68,329.04 422.35,329.04 423.02,348.46 423.7,348.46 424.38,340.07 425.05,340.07 425.72,340.07 426.4,340.07 427.08,341.98 427.75,356.82 428.42,365.17 429.1,362.9 429.78,358.98 430.45,358.98 431.12,332.81 431.8,374.23 432.48,374.23 433.15,367.73 433.82,367.73 434.5,367.73 435.18,367.73 435.85,288.84 436.52,364.59 437.2,364.6 437.88,362.33 438.55,371.2 439.22,329.59 439.9,312.13 440.58,312.13 441.25,312.13 441.92,312.13 442.6,312.13 443.28,342.84 443.95,335.14 444.62,328.62 445.3,328.62 445.98,348.22 446.65,348.22 447.32,348.22 448.0,348.22 448.68,348.22 449.35,348.22 450.02,348.22 450.7,348.22 451.38,348.22 452.05,348.22 452.72,332.05 453.4,286.36 454.08,351.75 454.75,351.75 455.42,351.75 456.1,351.75 456.78,351.75 457.45,300.89 458.12,346.66 458.8,346.66 459.48,346.66 460.15,346.66 460.82,346.66 461.5,265.46 462.18,265.46 462.85,265.46 463.52,265.46 464.2,265.46 464.88,265.46 465.55,265.46 466.22,341.91 466.9,341.91 467.58,341.91 468.25,341.3 468.92,341.3 469.6,341.3 470.28,221.64 470.95,372.86 471.62,372.86 472.3,372.86 472.98,372.86 473.65,372.86 474.32,372.86 475.0,372.86 475.68,372.86 476.35,324.59 477.02,324.59 477.7,334.02 478.38,334.02 479.05,334.02 479.72,297.77 480.4,297.77 481.08,297.77 481.75,297.77 482.42,236.04 483.1,236.04 483.78,318.44 484.45,318.44 485.12,318.44 485.8,318.44 486.48,332.79 487.15,375.0 487.82,375.0 488.5,375.0 489.18,289.95 489.85,373.33 490.52,373.33 491.2,373.33 491.88,373.33 492.55,373.33 493.22,373.33 493.9,373.33 494.58,373.33 495.25,224.28 495.92,224.28 496.6,224.28 497.28,227.35 497.95,227.35 498.62,358.24 499.3,375.0 499.98,375.0 500.65,235.52 501.32,235.52 502.0,374.86 502.68,374.86 503.35,374.86 504.02,374.86 504.7,374.86 505.38,374.86 506.05,374.86 506.72,294.73 507.4,311.78 508.08,350.13 508.75,350.13 509.42,334.59 510.1,334.59 510.78,370.09 511.45,314.82 512.12,314.82 512.8,314.82 513.48,314.82 514.15,314.82 514.83,314.66 515.5,314.66 516.17,314.66 516.85,358.49 517.52,365.14 518.2,264.7 518.88,264.7 519.55,338.39 520.22,338.39 520.9,338.39 521.58,338.39 522.25,338.39 522.92,247.71 523.6,247.71 524.28,247.71 524.95,340.07 525.62,340.07 526.3,333.62 526.98,333.62 527.65,333.62 528.33,333.62 529.0,314.82 529.67,314.82 530.35,311.24 531.02,360.2 531.7,360.2 532.38,374.77 533.05,374.77 533.72,374.77 534.4,374.77 535.08,371.65 535.75,371.65 536.42,371.65 537.1,371.65 537.78,371.65 538.45,371.65 539.12,371.65 539.8,371.65 540.48,371.65 541.15,373.33 541.83,348.68 542.5,348.68 543.17,348.68 543.85,348.68 544.52,155.33 545.2,155.33 545.88,155.33 546.55,155.33 547.22,155.33 547.9,332.05 548.58,332.05 549.25,332.05 549.92,360.71 550.6,257.86 551.28,333.42 551.95,333.42 552.62,333.42 553.3,333.42 553.98,320.93 554.65,371.66 555.33,304.96 556.0,247.65 556.67,247.65 557.35,304.96 558.02,323.55 558.7,323.55 559.38,323.55 560.05,375.0 560.72,375.0 561.4,375.0 562.08,375.0 562.75,375.0 563.42,375.0 564.1,375.0 564.78,375.0 565.45,370.95 566.12,370.95 566.8,369.98 567.48,369.98 568.15,366.85 568.83,366.85 569.5,339.79 570.17,339.79 570.85,339.79 571.52,339.79 572.2,339.79 572.88,339.79 573.55,130.75 574.22,130.75 574.9,357.89 575.58,303.18 576.25,303.18 576.92,303.18 577.6,303.18 578.28,358.12 578.95,358.12 579.62,281.59 580.3,315.19 580.98,320.0 581.65,320.0 582.33,308.28 583.0,368.51 583.67,368.51 584.35,373.52 585.02,373.52 585.7,332.22 586.38,332.22 587.05,339.09 587.72,339.09 588.4,339.09 589.08,339.09 589.75,339.09 590.42,339.09 591.1,339.09 591.78,332.47 592.45,332.47 593.12,320.74 593.8,320.74 594.48,320.74 595.15,320.74 595.83,320.74 596.5,320.38 597.17,320.38 597.85,320.38 598.52,330.61 599.2,337.81 599.88,337.81 600.55,333.64 601.22,333.64 601.9,359.39 602.58,359.39 603.25,359.39 603.92,240.15 604.6,249.59 605.28,249.59 605.95,249.59 606.62,332.69 607.3,332.69 607.98,358.49 608.65,358.49 609.33,358.49 610.0,358.49 610.67,374.46 611.35,309.91 612.02,373.7 612.7,369.88 613.38,335.15 614.05,335.15 614.72,374.84 615.4,221.53 616.08,323.38 616.75,333.62 617.42,333.62 618.1,333.62 618.78,333.62 619.45,333.62 620.12,374.86 620.8,374.86 621.48,374.86 622.15,374.86 622.83,374.86 623.5,374.86 624.17,362.89 624.85,374.95 625.52,374.62 626.2,374.62 626.88,374.62 627.55,320.81 628.22,350.09 628.9,370.81 629.58,370.81 630.25,370.81 630.92,359.62 631.6,374.66 632.28,362.48 632.95,365.08 633.62,374.73 634.3,365.0 634.98,311.78 635.65,364.78 636.33,236.05 637.0,358.32 637.67,358.32 638.35,323.55 639.02,311.78 639.7,274.77 640.38,207.22 641.05,212.46 641.72,324.34 642.4,324.34 643.08,332.24 643.75,332.24 644.42,370.05 645.1,368.42 645.78,368.42 646.45,368.42 647.12,368.42 647.8,360.52 648.48,340.98 649.15,317.93 649.83,236.05 650.5,236.05 651.17,110.51 651.85,110.51 652.52,188.61 653.2,218.42 653.88,218.42 654.55,362.88 655.22,352.2 655.9,368.49 656.58,367.7 657.25,365.68 657.92,363.86 658.6,363.86 659.28,363.86 659.95,361.21 660.62,314.2 661.3,354.17 661.98,354.17 662.65,312.49 663.32,333.01 664.0,256.35 664.68,307.36 665.35,363.9 666.02,362.52 666.7,362.52 667.38,362.52 668.05,362.52 668.72,284.82 669.4,284.82 670.08,289.0 670.75,308.01 671.42,340.75 672.1,340.75 672.78,340.75 673.45,339.18 674.12,335.68 674.8,335.68 675.48,372.23 676.15,372.23 676.82,297.1 677.5,297.1 678.18,362.73 678.85,362.73 679.52,363.24 680.2,373.16 680.88,365.14 681.55,332.89 682.22,350.13 682.9,339.93 683.58,331.23 684.25,348.57 684.92,340.27 685.6,323.38 686.28,252.93 686.95,151.61 687.62,325.26 688.3,325.26 688.98,325.26 689.65,323.55 690.32,268.12 691.0,247.81 691.68,341.95 692.35,368.41 693.02,373.27 693.7,373.27 694.38,372.47 695.05,355.83 695.72,373.96 696.4,369.11 697.08,367.93 697.75,347.56 698.42,347.56 699.1,347.56 699.78,327.21 700.45,361.21 701.12,369.74 701.8,362.4 702.48,368.64 703.15,314.66 703.82,333.39 704.5,338.85 705.18,338.85 705.85,338.85 706.52,339.48 707.2,364.65 707.88,368.27 708.55,337.48 709.22,337.48 709.9,327.45 710.58,369.19 711.25,369.19 711.92,369.19 712.6,369.19 713.28,369.19 713.95,369.19 714.62,373.53 715.3,374.46 715.98,369.45 716.65,369.45 717.32,369.45 718.0,369.45 718.68,359.92 719.35,362.7 720.02,362.7 720.7,362.7 721.38,348.02 722.05,371.44 722.72,371.44 723.4,372.17 724.08,373.54 724.75,350.63 725.42,367.63 726.1,360.8 726.78,372.76 727.45,373.5 728.12,373.32 728.8,373.32 729.48,374.6 730.15,374.6 730.82,344.79 731.5,329.19 732.18,247.66 732.85,373.3 733.52,373.3 734.2,361.88 734.88,374.24 735.55,374.24 736.22,374.24 736.9,359.5 737.58,359.5 738.25,348.46 738.92,372.83 739.6,372.83 740.28,356.96 740.95,359.59 741.62,373.61 742.3,373.61 742.98,373.61 743.65,373.61 744.32,373.61 745.0,347.31 745.68,358.81 746.35,332.62 747.02,308.07 747.7,374.97 748.38,332.7 749.05,332.7 749.72,332.7 750.4,332.7 751.08,269.37 751.75,358.98 752.42,374.76 753.1,374.76 753.78,362.64 754.45,247.35 755.12,129.27 755.8,161.99 756.48,299.19 757.15,299.19 757.82,299.19 758.5,299.19 759.18,371.08 759.85,371.08 760.52,325.25 761.2,284.61 761.88,361.76 762.55,350.12 763.22,374.47 763.9,323.75 764.58,373.02 765.25,374.95 765.92,374.89 766.6,374.98 767.28,365.1 767.95,374.99 768.62,374.75 769.3,374.75 769.98,374.75 770.65,374.75 771.32,374.96 772.0,375.0 772.68,358.49 773.35,374.86 774.02,340.27 774.7,374.59 775.38,350.12 776.05,328.05 776.72,373.12 777.4,373.12 778.08,333.62 778.75,371.42 779.42,350.08 780.1,350.03 780.78,362.9 781.45,371.08 782.12,371.05 782.8,374.98 783.48,345.79 784.15,373.02 784.82,367.11 785.5,367.11 786.18,358.96 786.85,215.41 787.52,299.25 788.2,346.26 788.88,308.19 789.55,212.5 790.22,212.5 790.9,212.5 791.58,212.5 792.25,212.5 792.92,207.21 793.6,207.21 794.28,207.21 794.95,362.9 795.62,362.9 796.3,374.54 796.98,311.35 797.65,327.3 798.32,374.77 799.0,374.81 799.68,374.81 800.35,373.82 801.02,373.82 801.7,373.82 802.38,371.05 803.05,370.85 803.72,370.85 804.4,362.9 805.08,366.17 805.75,374.56 806.42,362.66 807.1,370.71 807.78,373.1 808.45,373.1 809.12,374.77 809.8,311.35 810.48,373.28 811.15,375.0 811.82,374.76 812.5,374.77 813.18,272.64 813.85,272.64 814.52,370.27 815.2,320.47 815.88,320.47 816.55,155.02 817.22,229.4 817.9,229.4 818.58,229.4 819.25,229.4 819.92,311.12 820.6,311.12 821.28,311.12 821.95,311.12 822.62,307.08 823.3,307.08 823.98,307.08 824.65,307.08 825.32,358.47 826.0,358.47 826.68,308.16 827.35,45.67 828.02,45.67 828.7,116.31 829.38,243.47 830.05,245.66 830.72,245.66 831.4,245.66 832.08,245.66 832.75,245.66 833.42,245.66 834.1,245.66 834.78,245.66 835.45,245.66 836.12,245.66 836.8,245.66 837.48,245.66 838.15,245.66 838.82,245.66 839.5,245.66 840.18,358.95 840.85,358.95 841.52,358.95 842.2,358.95 842.88,358.95 843.55,358.95 844.22,358.95 844.9,358.95 845.58,358.95 846.25,169.14 846.92,169.14 847.6,169.14 848.28,160.48 848.95,160.48 849.62,160.48 850.3,126.86 850.98,126.86 851.65,211.66 852.32,55.27 853.0,55.27 853.68,55.27 854.35,55.27 855.02,55.27 855.7,55.27 856.38,55.27 857.05,91.49 857.72,91.49 858.4,91.49 859.08,91.49 859.75,91.49 860.42,91.49 861.1,91.49 861.78,91.49 862.45,91.49 863.12,91.49 863.8,91.49 864.48,91.49 865.15,91.49 865.82,168.15 866.5,168.15 867.18,168.15 867.85,168.15 868.52,168.15 869.2,168.15 869.88,168.15 870.55,168.15 871.22,168.15 871.9,168.15 872.58,168.15 873.25,168.15 873.92,168.15 874.6,168.15 875.28,168.15 875.95,168.15 876.62,190.43 877.3,190.43 877.98,190.43 878.65,190.43 879.32,190.43 880.0,190.43"/>
</svg>
