<svg xmlns="http://www.w3.org/2000/svg" width="980" height="460" viewBox="0 0 980 460">
<rect x="0" y="0" width="980" height="460" fill="#ffffff"/>
<text x="490" y="28" text-anchor="middle" font-family="monospace" font-size="18">Cohort Comparison</text>
<line x1="90.0" y1="380.0" x2="950.0" y2="380.0" stroke="#444" stroke-width="1.5"/>
<line x1="90.0" y1="50.0" x2="90.0" y2="380.0" stroke="#444" stroke-width="1.5"/>
<rect x="120.1" y="373.08" width="47.6" height="6.92" fill="#1f77b4" opacity="0.88"/>
<rect x="171.7" y="366.16" width="47.6" height="13.84" fill="#4c9f70" opacity="0.88"/>
<rect x="223.3" y="361.84" width="47.6" height="18.16" fill="#e45756" opacity="0.88"/>
<text x="197.5" y="432" text-anchor="middle" font-family="monospace" font-size="11">prevalence</text>
<rect x="335.1" y="273.68" width="47.6" height="106.32" fill="#1f77b4" opacity="0.88"/>
<rect x="386.7" y="275.28" width="47.6" height="104.72" fill="#4c9f70" opacity="0.88"/>
<rect x="438.3" y="326.79" width="47.6" height="53.21" fill="#e45756" opacity="0.88"/>
<text x="412.5" y="432" text-anchor="middle" font-family="monospace" font-size="11">mean_gap</text>
<rect x="550.1" y="100.96" width="47.6" height="279.04" fill="#1f77b4" opacity="0.88"/>
<rect x="601.7" y="98.4" width="47.6" height="281.6" fill="#4c9f70" opacity="0.88"/>
<rect x="653.3" y="93.04" width="47.6" height="286.96" fill="#e45756" opacity="0.88"/>
<text x="627.5" y="432" text-anchor="middle" font-family="monospace" font-size="11">mean_closure_time</text>
<rect x="765.1" y="274.86" width="47.6" height="105.14" fill="#1f77b4" opacity="0.88"/>
<rect x="816.7" y="279.51" width="47.6" height="100.49" fill="#4c9f70" opacity="0.88"/>
<rect x="868.3" y="275.71" width="47.6" height="104.29" fill="#e45756" opacity="0.88"/>
<text x="842.5" y="432" text-anchor="middle" font-family="monospace" font-size="11">mean_terminal_shear</text>
<rect x="760" y="38" width="12" height="12" fill="#1f77b4"/>
<text x="778" y="48" font-family="monospace" font-size="11">euploid</text>
<rect x="760" y="58" width="12" height="12" fill="#4c9f70"/>
<text x="778" y="68" font-family="monospace" font-size="11">mixed</text>
<rect x="760" y="78" width="12" height="12" fill="#e45756"/>
<text x="778" y="88" font-family="monospace" font-size="11">trisomy21</text>
</svg>
