<svg xmlns="http://www.w3.org/2000/svg" width="980" height="580" viewBox="0 0 980 580">
<rect x="0" y="0" width="980" height="580" fill="#ffffff"/>
<text x="490" y="26" text-anchor="middle" font-family="monospace" font-size="18">Posterior Trace Diagnostics</text>
<line x1="70.0" y1="190.0" x2="960.0" y2="190.0" stroke="#444" stroke-width="1.2"/>
<line x1="70.0" y1="45.0" x2="70.0" y2="190.0" stroke="#444" stroke-width="1.2"/>
<text x="70.0" y="37.0" font-family="monospace" font-size="12">alpha_EMT</text>
<polyline fill="none" stroke="#1f77b4" stroke-width="1.6" points="70.0,117.59 72.32,117.59 74.64,105.93 76.95,105.93 79.27,105.93 81.59,105.93 83.91,105.93 86.22,105.93 88.54,105.93 90.86,105.93 93.18,124.27 95.49,124.27 97.81,124.38 100.13,141.56 102.45,146.69 104.77,146.69 107.08,146.69 109.4,146.69 111.72,146.69 114.04,146.69 116.35,146.69 118.67,146.69 120.99,156.94 123.31,187.27 125.62,184.21 127.94,186.1 130.26,186.1 132.58,186.1 134.9,186.1 137.21,186.1 139.53,186.1 141.85,185.41 144.17,185.41 146.48,185.41 148.8,185.11 151.12,178.11 153.44,172.18 155.76,172.18 158.07,170.27 160.39,170.27 162.71,170.27 165.03,170.27 167.34,170.27 169.66,170.27 171.98,170.27 174.3,170.27 176.61,138.88 178.93,138.88 181.25,129.47 183.57,129.47 185.89,129.47 188.2,129.47 190.52,129.47 192.84,129.47 195.16,129.47 197.47,129.47 199.79,129.47 202.11,129.47 204.43,129.47 206.74,129.47 209.06,129.47 211.38,133.76 213.7,133.76 216.02,133.76 218.33,133.76 220.65,133.76 222.97,133.76 225.29,133.76 227.6,133.76 229.92,133.76 232.24,133.76 234.56,133.76 236.88,133.76 239.19,149.9 241.51,149.9 243.83,149.9 246.15,149.9 248.46,149.9 250.78,149.9 253.1,142.66 255.42,142.66 257.73,142.66 260.05,130.08 262.37,130.08 264.69,130.08 267.01,130.08 269.32,126.93 271.64,126.93 273.96,125.09 276.28,125.09 278.59,125.09 280.91,125.09 283.23,125.09 285.55,118.96 287.86,118.96 290.18,116.11 292.5,116.11 294.82,96.55 297.14,96.55 299.45,96.55 301.77,96.55 304.09,86.83 306.41,86.83 308.72,86.83 311.04,85.97 313.36,85.97 315.68,85.97 317.99,85.97 320.31,99.93 322.63,99.93 324.95,99.93 327.27,99.93 329.58,99.93 331.9,99.93 334.22,99.93 336.54,99.93 338.85,90.06 341.17,78.62 343.49,78.62 345.81,72.23 348.12,72.23 350.44,72.23 352.76,72.23 355.08,72.23 357.4,72.23 359.71,72.23 362.03,45.0 364.35,45.0 366.67,81.33 368.98,81.33 371.3,81.33 373.62,81.33 375.94,81.33 378.26,94.58 380.57,75.75 382.89,75.75 385.21,86.3 387.53,86.3 389.84,86.3 392.16,86.3 394.48,86.3 396.8,86.3 399.11,86.3 401.43,86.3 403.75,86.3 406.07,86.3 408.39,86.3 410.7,86.3 413.02,73.34 415.34,73.34 417.66,73.34 419.97,73.34 422.29,73.34 424.61,97.1 426.93,97.1 429.24,97.1 431.56,97.1 433.88,90.81 436.2,112.66 438.52,87.5 440.83,87.5 443.15,87.5 445.47,87.5 447.79,87.5 450.1,76.07 452.42,76.07 454.74,66.6 457.06,66.6 459.38,66.6 461.69,66.6 464.01,66.6 466.33,66.6 468.65,72.63 470.96,74.36 473.28,74.36 475.6,74.36 477.92,74.36 480.23,74.36 482.55,74.36 484.87,74.36 487.19,74.36 489.51,96.2 491.82,73.26 494.14,80.54 496.46,90.97 498.78,102.91 501.09,102.91 503.41,102.91 505.73,102.91 508.05,102.91 510.36,102.91 512.68,102.91 515.0,102.91 517.32,129.47 519.64,145.29 521.95,144.05 524.27,143.66 526.59,143.66 528.91,143.66 531.22,143.66 533.54,143.66 535.86,148.84 538.18,152.75 540.49,150.78 542.81,153.82 545.13,159.92 547.45,159.92 549.77,162.36 552.08,162.36 554.4,165.72 556.72,166.42 559.04,166.1 561.35,166.1 563.67,166.77 565.99,166.77 568.31,175.2 570.62,166.2 572.94,166.2 575.26,171.18 577.58,171.18 579.9,171.18 582.21,169.36 584.53,169.36 586.85,169.36 589.17,169.36 591.48,169.4 593.8,168.86 596.12,168.86 598.44,168.86 600.76,172.88 603.07,172.88 605.39,172.88 607.71,172.88 610.03,172.88 612.34,172.88 614.66,172.88 616.98,172.88 619.3,173.94 621.61,173.94 623.93,170.28 626.25,170.39 628.57,129.47 630.89,129.47 633.2,129.47 635.52,121.69 637.84,124.37 640.16,122.61 642.47,122.61 644.79,122.61 647.11,119.53 649.43,119.53 651.74,117.66 654.06,109.91 656.38,105.34 658.7,103.15 661.02,99.57 663.33,97.36 665.65,99.65 667.97,92.23 670.29,92.23 672.6,90.98 674.92,90.98 677.24,94.16 679.56,94.16 681.88,98.12 684.19,94.32 686.51,86.5 688.83,79.49 691.15,79.49 693.46,79.49 695.78,78.98 698.1,78.98 700.42,82.89 702.73,86.49 705.05,91.4 707.37,87.58 709.69,86.86 712.01,88.09 714.32,80.18 716.64,84.59 718.96,88.82 721.28,88.82 723.59,85.68 725.91,79.74 728.23,80.08 730.55,81.14 732.86,80.37 735.18,80.37 737.5,80.37 739.82,108.86 742.14,109.27 744.45,106.16 746.77,108.56 749.09,109.25 751.41,109.17 753.72,111.4 756.04,111.4 758.36,111.38 760.68,113.43 762.99,113.43 765.31,113.59 767.63,114.41 769.95,114.26 772.27,113.06 774.58,113.92 776.9,112.88 779.22,113.95 781.54,114.59 783.85,115.6 786.17,115.6 788.49,114.44 790.81,111.17 793.12,108.63 795.44,105.64 797.76,108.59 800.08,109.85 802.4,106.06 804.71,107.48 807.03,107.39 809.35,108.11 811.67,104.72 813.98,107.88 816.3,107.88 818.62,110.68 820.94,109.42 823.26,111.61 825.57,111.61 827.89,110.54 830.21,107.01 832.53,108.3 834.84,107.2 837.16,107.58 839.48,107.58 841.8,108.44 844.11,108.44 846.43,107.68 848.75,104.03 851.07,110.83 853.39,111.09 855.7,111.52 858.02,111.94 860.34,112.31 862.66,113.42 864.97,114.44 867.29,114.02 869.61,113.82 871.93,114.8 874.24,114.25 876.56,114.23 878.88,113.27 881.2,112.88 883.52,113.67 885.83,114.09 888.15,112.39 890.47,112.06 892.79,112.89 895.1,110.81 897.42,110.08 899.74,109.77 902.06,107.85 904.38,107.28 906.69,106.06 909.01,105.38 911.33,107.16 913.65,107.92 915.96,108.69 918.28,108.15 920.6,107.07 922.92,106.5 925.23,106.4 927.55,106.36 929.87,108.19 932.19,109.09 934.51,108.62 936.82,108.15 939.14,108.38 941.46,107.6 943.78,107.63 946.09,107.7 948.41,108.79 950.73,108.79 953.05,108.81 955.36,110.84 957.68,109.67 960.0,109.67" opacity="0.82"/>
<polyline fill="none" stroke="#e45756" stroke-width="1.6" points="70.0,117.59 72.32,117.59 74.64,124.42 76.95,124.42 79.27,124.42 81.59,127.3 83.91,127.3 86.22,127.3 88.54,127.3 90.86,127.3 93.18,127.3 95.49,127.3 97.81,127.3 100.13,119.03 102.45,119.03 104.77,119.03 107.08,119.03 109.4,150.45 111.72,150.45 114.04,150.45 116.35,150.45 118.67,150.45 120.99,150.45 123.31,153.59 125.62,167.18 127.94,182.9 130.26,182.9 132.58,182.9 134.9,182.9 137.21,182.9 139.53,182.9 141.85,182.9 144.17,185.83 146.48,185.83 148.8,186.31 151.12,186.31 153.44,186.31 155.76,190.0 158.07,190.0 160.39,170.34 162.71,170.34 165.03,170.34 167.34,186.09 169.66,186.09 171.98,186.09 174.3,186.09 176.61,186.09 178.93,186.09 181.25,186.09 183.57,186.09 185.89,186.09 188.2,176.97 190.52,172.9 192.84,172.9 195.16,172.9 197.47,172.9 199.79,172.9 202.11,172.9 204.43,172.9 206.74,172.9 209.06,172.9 211.38,172.9 213.7,172.9 216.02,168.32 218.33,168.32 220.65,159.23 222.97,159.23 225.29,159.23 227.6,159.23 229.92,159.23 232.24,159.23 234.56,159.23 236.88,159.23 239.19,159.23 241.51,163.37 243.83,163.37 246.15,170.55 248.46,170.55 250.78,163.07 253.1,161.12 255.42,161.12 257.73,161.12 260.05,161.12 262.37,155.61 264.69,155.61 267.01,150.49 269.32,163.58 271.64,163.58 273.96,162.91 276.28,162.91 278.59,159.06 280.91,148.28 283.23,148.28 285.55,148.28 287.86,148.28 290.18,153.97 292.5,166.34 294.82,166.34 297.14,166.34 299.45,166.34 301.77,165.53 304.09,165.53 306.41,166.6 308.72,167.89 311.04,154.94 313.36,154.94 315.68,142.48 317.99,131.94 320.31,131.94 322.63,131.94 324.95,131.94 327.27,131.94 329.58,131.94 331.9,131.8 334.22,137.16 336.54,137.16 338.85,137.16 341.17,137.16 343.49,130.07 345.81,130.07 348.12,130.07 350.44,130.07 352.76,130.07 355.08,123.0 357.4,123.0 359.71,114.4 362.03,114.4 364.35,114.4 366.67,114.4 368.98,139.72 371.3,139.72 373.62,128.65 375.94,128.41 378.26,136.3 380.57,117.63 382.89,107.16 385.21,98.74 387.53,98.74 389.84,111.25 392.16,111.25 394.48,118.95 396.8,118.95 399.11,118.95 401.43,118.95 403.75,125.68 406.07,125.68 408.39,125.58 410.7,125.58 413.02,125.58 415.34,132.84 417.66,132.84 419.97,138.97 422.29,138.97 424.61,138.97 426.93,126.86 429.24,126.86 431.56,124.95 433.88,124.95 436.2,124.95 438.52,90.66 440.83,90.66 443.15,90.66 445.47,90.66 447.79,90.66 450.1,90.66 452.42,83.57 454.74,67.97 457.06,67.97 459.38,67.97 461.69,66.22 464.01,66.22 466.33,80.7 468.65,72.49 470.96,73.75 473.28,73.75 475.6,78.03 477.92,55.03 480.23,55.03 482.55,55.03 484.87,62.24 487.19,62.24 489.51,62.24 491.82,62.24 494.14,90.59 496.46,66.81 498.78,66.81 501.09,66.81 503.41,66.81 505.73,66.81 508.05,66.81 510.36,77.75 512.68,87.11 515.0,87.11 517.32,122.1 519.64,134.72 521.95,132.41 524.27,136.38 526.59,137.8 528.91,137.8 531.22,137.8 533.54,127.23 535.86,127.84 538.18,122.62 540.49,135.86 542.81,135.86 545.13,134.31 547.45,130.05 549.77,130.05 552.08,130.05 554.4,130.05 556.72,131.34 559.04,131.34 561.35,123.28 563.67,123.28 565.99,123.28 568.31,123.28 570.62,122.58 572.94,132.15 575.26,132.15 577.58,128.73 579.9,128.13 582.21,120.04 584.53,116.56 586.85,116.56 589.17,125.12 591.48,123.9 593.8,126.35 596.12,126.35 598.44,116.07 600.76,117.22 603.07,95.61 605.39,99.37 607.71,99.37 610.03,99.37 612.34,90.1 614.66,90.1 616.98,90.1 619.3,75.8 621.61,79.32 623.93,79.32 626.25,79.32 628.57,123.0 630.89,120.17 633.2,122.83 635.52,127.48 637.84,128.75 640.16,128.75 642.47,125.2 644.79,125.35 647.11,127.82 649.43,132.49 651.74,132.49 654.06,132.49 656.38,132.49 658.7,133.14 661.02,132.25 663.33,132.25 665.65,139.64 667.97,140.01 670.29,140.01 672.6,132.57 674.92,137.12 677.24,130.51 679.56,133.57 681.88,135.54 684.19,133.34 686.51,133.34 688.83,130.98 691.15,132.53 693.46,132.53 695.78,136.66 698.1,137.41 700.42,138.9 702.73,143.88 705.05,143.88 707.37,145.5 709.69,142.75 712.01,142.61 714.32,143.27 716.64,143.27 718.96,143.27 721.28,149.37 723.59,148.47 725.91,148.47 728.23,149.67 730.55,149.1 732.86,149.68 735.18,149.68 737.5,149.31 739.82,128.75 742.14,128.68 744.45,130.91 746.77,133.71 749.09,135.25 751.41,135.32 753.72,134.67 756.04,135.6 758.36,133.52 760.68,134.77 762.99,133.9 765.31,133.94 767.63,134.3 769.95,134.85 772.27,135.18 774.58,135.18 776.9,135.5 779.22,136.55 781.54,133.9 783.85,133.78 786.17,131.69 788.49,131.4 790.81,129.55 793.12,126.4 795.44,125.11 797.76,124.75 800.08,124.26 802.4,124.84 804.71,127.48 807.03,127.66 809.35,127.07 811.67,125.63 813.98,126.21 816.3,126.18 818.62,126.02 820.94,124.99 823.26,124.89 825.57,124.89 827.89,126.65 830.21,126.83 832.53,128.68 834.84,126.19 837.16,123.1 839.48,122.1 841.8,120.68 844.11,121.26 846.43,123.24 848.75,121.21 851.07,128.75 853.39,127.24 855.7,128.85 858.02,126.19 860.34,124.74 862.66,124.18 864.97,124.3 867.29,123.7 869.61,123.79 871.93,123.19 874.24,123.19 876.56,123.73 878.88,123.98 881.2,124.94 883.52,123.89 885.83,124.18 888.15,123.25 890.47,121.24 892.79,121.64 895.1,123.11 897.42,122.27 899.74,122.38 902.06,122.42 904.38,123.13 906.69,123.33 909.01,123.5 911.33,122.67 913.65,122.41 915.96,122.39 918.28,122.52 920.6,122.51 922.92,121.06 925.23,121.25 927.55,121.6 929.87,121.65 932.19,121.35 934.51,120.51 936.82,121.24 939.14,121.32 941.46,121.03 943.78,120.94 946.09,120.7 948.41,120.47 950.73,121.23 953.05,120.48 955.36,120.08 957.68,122.21 960.0,122.01" opacity="0.82"/>
<polyline fill="none" stroke="#4c9f70" stroke-width="1.6" points="70.0,117.59 72.32,117.59 74.64,117.59 76.95,117.59 79.27,117.59 81.59,117.59 83.91,117.59 86.22,110.05 88.54,110.05 90.86,110.05 93.18,110.05 95.49,110.05 97.81,110.05 100.13,110.05 102.45,110.05 104.77,110.05 107.08,110.05 109.4,110.05 111.72,110.05 114.04,110.05 116.35,110.05 118.67,110.05 120.99,110.05 123.31,120.76 125.62,120.76 127.94,120.76 130.26,126.83 132.58,108.78 134.9,108.78 137.21,108.78 139.53,108.78 141.85,108.78 144.17,108.78 146.48,110.28 148.8,110.28 151.12,110.28 153.44,130.37 155.76,130.37 158.07,116.61 160.39,116.61 162.71,107.13 165.03,106.13 167.34,106.13 169.66,109.63 171.98,109.63 174.3,105.82 176.61,105.82 178.93,106.13 181.25,106.13 183.57,106.13 185.89,106.13 188.2,106.13 190.52,106.13 192.84,106.13 195.16,115.59 197.47,115.59 199.79,120.96 202.11,120.88 204.43,120.88 206.74,129.64 209.06,129.64 211.38,146.84 213.7,146.84 216.02,146.84 218.33,146.84 220.65,146.84 222.97,146.84 225.29,146.84 227.6,146.84 229.92,146.84 232.24,146.84 234.56,146.84 236.88,146.84 239.19,148.75 241.51,156.83 243.83,156.83 246.15,156.83 248.46,156.83 250.78,156.83 253.1,156.83 255.42,156.83 257.73,156.83 260.05,155.58 262.37,155.58 264.69,157.4 267.01,157.4 269.32,155.09 271.64,155.09 273.96,155.09 276.28,155.09 278.59,155.09 280.91,155.09 283.23,155.09 285.55,155.09 287.86,155.09 290.18,155.09 292.5,155.09 294.82,155.09 297.14,155.09 299.45,155.09 301.77,155.09 304.09,155.09 306.41,155.09 308.72,155.09 311.04,162.81 313.36,162.81 315.68,162.81 317.99,168.36 320.31,168.36 322.63,168.36 324.95,168.36 327.27,158.07 329.58,157.37 331.9,157.37 334.22,157.37 336.54,157.37 338.85,157.37 341.17,154.56 343.49,154.56 345.81,138.16 348.12,138.16 350.44,138.16 352.76,135.29 355.08,135.29 357.4,135.29 359.71,135.29 362.03,135.29 364.35,135.29 366.67,135.29 368.98,135.29 371.3,135.29 373.62,135.29 375.94,135.29 378.26,135.29 380.57,139.58 382.89,139.58 385.21,131.55 387.53,131.55 389.84,131.28 392.16,116.72 394.48,116.72 396.8,116.72 399.11,116.72 401.43,124.19 403.75,134.25 406.07,134.25 408.39,134.25 410.7,134.25 413.02,134.25 415.34,125.35 417.66,125.35 419.97,125.35 422.29,125.35 424.61,156.12 426.93,156.12 429.24,156.12 431.56,156.12 433.88,154.76 436.2,154.76 438.52,154.76 440.83,154.76 443.15,155.01 445.47,153.11 447.79,132.36 450.1,132.36 452.42,132.36 454.74,132.36 457.06,132.36 459.38,132.36 461.69,119.68 464.01,107.68 466.33,118.62 468.65,118.62 470.96,118.62 473.28,120.11 475.6,120.11 477.92,114.91 480.23,114.91 482.55,114.91 484.87,114.91 487.19,114.91 489.51,114.91 491.82,114.91 494.14,114.91 496.46,114.91 498.78,103.19 501.09,103.19 503.41,112.64 505.73,116.63 508.05,116.63 510.36,116.63 512.68,116.63 515.0,116.63 517.32,118.62 519.64,118.62 521.95,113.6 524.27,113.6 526.59,113.6 528.91,113.39 531.22,120.81 533.54,116.09 535.86,120.44 538.18,120.44 540.49,130.01 542.81,128.23 545.13,128.23 547.45,128.23 549.77,128.32 552.08,140.77 554.4,140.77 556.72,140.77 559.04,140.77 561.35,140.77 563.67,140.77 565.99,140.26 568.31,140.26 570.62,140.26 572.94,140.26 575.26,143.14 577.58,143.14 579.9,143.14 582.21,143.14 584.53,143.37 586.85,147.74 589.17,137.12 591.48,137.12 593.8,137.12 596.12,140.88 598.44,140.88 600.76,140.88 603.07,142.48 605.39,137.06 607.71,137.06 610.03,137.93 612.34,140.66 614.66,140.66 616.98,139.36 619.3,140.18 621.61,140.18 623.93,140.18 626.25,128.01 628.57,118.62 630.89,117.87 633.2,117.87 635.52,123.5 637.84,123.5 640.16,125.22 642.47,123.67 644.79,126.39 647.11,124.46 649.43,125.93 651.74,124.2 654.06,129.85 656.38,131.38 658.7,136.16 661.02,137.51 663.33,138.77 665.65,136.46 667.97,136.3 670.29,133.24 672.6,133.24 674.92,135.43 677.24,135.43 679.56,135.43 681.88,135.43 684.19,135.43 686.51,135.43 688.83,143.28 691.15,144.91 693.46,148.52 695.78,149.65 698.1,150.09 700.42,154.33 702.73,144.78 705.05,144.27 707.37,144.27 709.69,144.91 712.01,144.91 714.32,144.91 716.64,140.19 718.96,136.58 721.28,136.58 723.59,136.58 725.91,136.58 728.23,136.58 730.55,136.58 732.86,132.15 735.18,130.3 737.5,130.3 739.82,128.09 742.14,125.98 744.45,124.81 746.77,124.5 749.09,126.71 751.41,122.88 753.72,120.09 756.04,120.25 758.36,118.36 760.68,118.36 762.99,120.76 765.31,120.41 767.63,118.42 769.95,115.76 772.27,115.13 774.58,116.3 776.9,117.9 779.22,118.69 781.54,116.46 783.85,116.52 786.17,120.85 788.49,120.67 790.81,125.49 793.12,122.64 795.44,122.64 797.76,122.64 800.08,120.77 802.4,120.97 804.71,120.97 807.03,121.62 809.35,120.66 811.67,120.66 813.98,120.68 816.3,120.68 818.62,120.68 820.94,121.04 823.26,121.04 825.57,117.72 827.89,117.45 830.21,116.32 832.53,118.92 834.84,118.92 837.16,120.28 839.48,120.36 841.8,121.89 844.11,118.98 846.43,118.98 848.75,118.98 851.07,125.01 853.39,124.57 855.7,125.25 858.02,125.26 860.34,125.13 862.66,125.13 864.97,125.76 867.29,125.44 869.61,125.66 871.93,125.61 874.24,124.29 876.56,125.56 878.88,125.2 881.2,124.22 883.52,124.96 885.83,125.1 888.15,124.15 890.47,124.24 892.79,125.38 895.1,124.89 897.42,123.63 899.74,121.46 902.06,121.97 904.38,121.95 906.69,121.95 909.01,122.22 911.33,120.95 913.65,119.92 915.96,120.49 918.28,119.83 920.6,119.83 922.92,119.85 925.23,121.32 927.55,120.75 929.87,120.75 932.19,121.06 934.51,121.13 936.82,119.11 939.14,119.11 941.46,119.74 943.78,119.36 946.09,118.78 948.41,120.08 950.73,120.08 953.05,117.67 955.36,118.48 957.68,119.39 960.0,119.39" opacity="0.82"/>
<polyline fill="none" stroke="#f3a712" stroke-width="1.6" points="70.0,117.59 72.32,117.59 74.64,129.48 76.95,112.6 79.27,112.6 81.59,112.6 83.91,112.6 86.22,112.6 88.54,112.6 90.86,112.6 93.18,99.32 95.49,99.32 97.81,99.32 100.13,99.32 102.45,99.32 104.77,99.32 107.08,96.32 109.4,80.71 111.72,80.71 114.04,107.44 116.35,107.44 118.67,119.7 120.99,137.13 123.31,137.13 125.62,137.13 127.94,137.13 130.26,137.13 132.58,137.13 134.9,137.13 137.21,137.13 139.53,134.64 141.85,134.64 144.17,134.64 146.48,134.64 148.8,135.16 151.12,129.54 153.44,129.54 155.76,146.54 158.07,146.54 160.39,146.54 162.71,146.54 165.03,146.54 167.34,146.54 169.66,146.54 171.98,146.54 174.3,146.54 176.61,146.54 178.93,146.54 181.25,146.54 183.57,146.54 185.89,121.46 188.2,121.46 190.52,121.46 192.84,128.65 195.16,114.75 197.47,114.75 199.79,113.25 202.11,121.59 204.43,115.25 206.74,115.25 209.06,115.25 211.38,115.25 213.7,114.61 216.02,114.61 218.33,109.87 220.65,114.85 222.97,113.99 225.29,113.99 227.6,119.7 229.92,119.7 232.24,119.7 234.56,119.7 236.88,119.95 239.19,119.95 241.51,119.95 243.83,119.95 246.15,134.83 248.46,134.83 250.78,134.83 253.1,118.56 255.42,118.56 257.73,118.56 260.05,118.56 262.37,118.56 264.69,118.56 267.01,118.56 269.32,118.56 271.64,118.56 273.96,118.56 276.28,118.56 278.59,118.56 280.91,118.56 283.23,118.56 285.55,118.56 287.86,118.56 290.18,118.56 292.5,118.56 294.82,118.56 297.14,129.68 299.45,129.68 301.77,129.68 304.09,122.86 306.41,122.86 308.72,122.86 311.04,122.86 313.36,122.86 315.68,122.86 317.99,122.86 320.31,122.86 322.63,122.86 324.95,122.86 327.27,122.86 329.58,122.86 331.9,122.86 334.22,112.28 336.54,97.9 338.85,86.06 341.17,53.48 343.49,53.48 345.81,53.48 348.12,53.48 350.44,53.48 352.76,72.35 355.08,72.35 357.4,72.28 359.71,72.28 362.03,72.28 364.35,72.28 366.67,72.28 368.98,72.28 371.3,72.28 373.62,72.28 375.94,72.28 378.26,72.28 380.57,72.28 382.89,72.28 385.21,72.28 387.53,72.28 389.84,76.06 392.16,65.8 394.48,65.8 396.8,65.8 399.11,65.8 401.43,77.94 403.75,85.02 406.07,85.02 408.39,85.02 410.7,85.02 413.02,85.02 415.34,59.68 417.66,59.68 419.97,59.68 422.29,59.68 424.61,59.68 426.93,59.68 429.24,59.68 431.56,59.68 433.88,79.47 436.2,79.47 438.52,79.47 440.83,79.47 443.15,79.47 445.47,79.47 447.79,79.47 450.1,79.47 452.42,54.59 454.74,54.59 457.06,53.13 459.38,78.5 461.69,80.69 464.01,77.62 466.33,105.22 468.65,105.22 470.96,125.58 473.28,128.22 475.6,128.22 477.92,126.59 480.23,128.58 482.55,128.58 484.87,128.58 487.19,143.27 489.51,143.27 491.82,143.27 494.14,143.27 496.46,150.25 498.78,135.78 501.09,135.78 503.41,135.78 505.73,127.85 508.05,127.85 510.36,127.85 512.68,127.85 515.0,127.85 517.32,112.6 519.64,124.65 521.95,115.95 524.27,113.53 526.59,113.53 528.91,113.53 531.22,113.53 533.54,113.53 535.86,105.86 538.18,105.86 540.49,108.52 542.81,111.24 545.13,107.31 547.45,107.31 549.77,107.31 552.08,107.31 554.4,107.31 556.72,106.07 559.04,106.07 561.35,106.07 563.67,106.07 565.99,106.07 568.31,105.64 570.62,100.4 572.94,100.4 575.26,108.71 577.58,108.71 579.9,108.71 582.21,124.85 584.53,124.85 586.85,124.85 589.17,126.16 591.48,126.16 593.8,126.16 596.12,126.16 598.44,131.25 600.76,131.25 603.07,131.25 605.39,123.67 607.71,124.22 610.03,119.7 612.34,113.85 614.66,113.85 616.98,113.85 619.3,113.19 621.61,101.24 623.93,101.24 626.25,102.42 628.57,124.73 630.89,126.21 633.2,127.5 635.52,123.27 637.84,124.42 640.16,124.42 642.47,124.42 644.79,124.42 647.11,125.72 649.43,124.25 651.74,126.11 654.06,126.11 656.38,131.72 658.7,131.72 661.02,131.72 663.33,131.72 665.65,131.72 667.97,131.72 670.29,126.27 672.6,122.31 674.92,122.31 677.24,118.21 679.56,116.14 681.88,116.14 684.19,116.14 686.51,114.88 688.83,117.91 691.15,118.01 693.46,118.01 695.78,118.01 698.1,118.01 700.42,118.33 702.73,121.12 705.05,121.12 707.37,120.91 709.69,120.91 712.01,120.67 714.32,120.68 716.64,120.24 718.96,120.64 721.28,120.64 723.59,120.64 725.91,123.32 728.23,120.3 730.55,123.55 732.86,119.34 735.18,119.34 737.5,119.34 739.82,124.42 742.14,127.69 744.45,125.84 746.77,126.16 749.09,128.23 751.41,128.23 753.72,128.23 756.04,124.41 758.36,124.41 760.68,124.41 762.99,122.11 765.31,122.11 767.63,122.11 769.95,122.11 772.27,122.58 774.58,119.39 776.9,117.66 779.22,117.0 781.54,114.42 783.85,115.85 786.17,115.85 788.49,114.6 790.81,114.76 793.12,112.38 795.44,112.52 797.76,109.57 800.08,109.57 802.4,110.07 804.71,111.36 807.03,107.97 809.35,109.98 811.67,112.35 813.98,112.91 816.3,112.61 818.62,113.63 820.94,117.54 823.26,119.9 825.57,122.49 827.89,122.41 830.21,123.61 832.53,120.76 834.84,118.42 837.16,117.6 839.48,116.38 841.8,118.14 844.11,117.26 846.43,117.4 848.75,114.57 851.07,115.88 853.39,115.74 855.7,113.55 858.02,113.39 860.34,113.27 862.66,112.48 864.97,113.27 867.29,114.15 869.61,114.97 871.93,115.24 874.24,115.12 876.56,115.12 878.88,113.76 881.2,115.84 883.52,116.08 885.83,116.28 888.15,116.16 890.47,116.83 892.79,118.29 895.1,118.73 897.42,119.03 899.74,119.33 902.06,119.33 904.38,119.3 906.69,119.07 909.01,119.07 911.33,119.07 913.65,119.79 915.96,118.71 918.28,119.44 920.6,119.13 922.92,118.83 925.23,118.8 927.55,119.88 929.87,120.3 932.19,120.94 934.51,121.13 936.82,122.17 939.14,123.26 941.46,121.91 943.78,120.76 946.09,119.88 948.41,119.88 950.73,119.1 953.05,119.92 955.36,119.38 957.68,119.38 960.0,119.38" opacity="0.82"/>
<line x1="70.0" y1="370.0" x2="960.0" y2="370.0" stroke="#444" stroke-width="1.2"/>
<line x1="70.0" y1="225.0" x2="70.0" y2="370.0" stroke="#444" stroke-width="1.2"/>
<text x="70.0" y="217.0" font-family="monospace" font-size="12">k_G</text>
<polyline fill="none" stroke="#1f77b4" stroke-width="1.6" points="70.0,270.66 72.32,270.66 74.64,297.81 76.95,297.81 79.27,297.81 81.59,297.81 83.91,297.81 86.22,297.81 88.54,297.81 90.86,297.81 93.18,296.22 95.49,296.22 97.81,278.51 100.13,306.86 102.45,318.24 104.77,318.24 107.08,318.24 109.4,318.24 111.72,318.24 114.04,318.24 116.35,318.24 118.67,318.24 120.99,303.72 123.31,291.77 125.62,301.56 127.94,305.94 130.26,305.94 132.58,305.94 134.9,305.94 137.21,305.94 139.53,305.94 141.85,325.37 144.17,325.37 146.48,325.37 148.8,337.61 151.12,327.77 153.44,324.83 155.76,324.83 158.07,317.15 160.39,317.15 162.71,317.15 165.03,317.15 167.34,317.15 169.66,317.15 171.98,317.15 174.3,317.15 176.61,314.15 178.93,314.15 181.25,299.89 183.57,299.89 185.89,299.89 188.2,299.89 190.52,299.89 192.84,299.89 195.16,299.89 197.47,299.89 199.79,299.89 202.11,299.89 204.43,299.89 206.74,299.89 209.06,299.89 211.38,303.77 213.7,303.77 216.02,303.77 218.33,303.77 220.65,303.77 222.97,303.77 225.29,303.77 227.6,303.77 229.92,303.77 232.24,303.77 234.56,303.77 236.88,303.77 239.19,303.64 241.51,303.64 243.83,303.64 246.15,303.64 248.46,303.64 250.78,303.64 253.1,300.28 255.42,300.28 257.73,300.28 260.05,266.12 262.37,266.12 264.69,266.12 267.01,266.12 269.32,271.75 271.64,271.75 273.96,321.73 276.28,321.73 278.59,321.73 280.91,321.73 283.23,321.73 285.55,335.6 287.86,335.6 290.18,345.68 292.5,345.68 294.82,370.0 297.14,370.0 299.45,370.0 301.77,370.0 304.09,353.16 306.41,353.16 308.72,353.16 311.04,353.09 313.36,353.09 315.68,353.09 317.99,353.09 320.31,351.44 322.63,351.44 324.95,351.44 327.27,351.44 329.58,351.44 331.9,351.44 334.22,351.44 336.54,351.44 338.85,347.52 341.17,338.89 343.49,338.89 345.81,329.42 348.12,329.42 350.44,329.42 352.76,329.42 355.08,329.42 357.4,329.42 359.71,329.42 362.03,340.32 364.35,340.32 366.67,336.75 368.98,336.75 371.3,336.75 373.62,336.75 375.94,336.75 378.26,335.2 380.57,348.19 382.89,348.19 385.21,312.81 387.53,312.81 389.84,312.81 392.16,312.81 394.48,312.81 396.8,312.81 399.11,312.81 401.43,312.81 403.75,312.81 406.07,312.81 408.39,312.81 410.7,312.81 413.02,319.12 415.34,319.12 417.66,319.12 419.97,319.12 422.29,319.12 424.61,293.87 426.93,293.87 429.24,293.87 431.56,293.87 433.88,324.3 436.2,318.78 438.52,344.79 440.83,344.79 443.15,344.79 445.47,344.79 447.79,344.79 450.1,334.86 452.42,334.86 454.74,343.5 457.06,343.5 459.38,343.5 461.69,343.5 464.01,343.5 466.33,343.5 468.65,346.61 470.96,331.87 473.28,331.87 475.6,331.87 477.92,331.87 480.23,331.87 482.55,331.87 484.87,331.87 487.19,331.87 489.51,323.75 491.82,326.89 494.14,328.32 496.46,312.69 498.78,294.83 501.09,294.83 503.41,294.83 505.73,294.83 508.05,294.83 510.36,294.83 512.68,294.83 515.0,294.83 517.32,299.89 519.64,291.71 521.95,284.64 524.27,281.86 526.59,281.86 528.91,281.86 531.22,281.86 533.54,281.86 535.86,290.01 538.18,292.01 540.49,307.19 542.81,294.52 545.13,288.51 547.45,288.51 549.77,288.54 552.08,288.54 554.4,291.43 556.72,306.91 559.04,284.91 561.35,284.91 563.67,274.63 565.99,274.63 568.31,287.09 570.62,305.88 572.94,305.88 575.26,309.4 577.58,309.4 579.9,309.4 582.21,315.13 584.53,315.13 586.85,315.13 589.17,315.13 591.48,315.11 593.8,308.44 596.12,308.44 598.44,308.44 600.76,289.4 603.07,289.4 605.39,289.4 607.71,289.4 610.03,289.4 612.34,289.4 614.66,289.4 616.98,289.4 619.3,293.18 621.61,293.18 623.93,303.54 626.25,323.87 628.57,299.89 630.89,299.89 633.2,299.89 635.52,297.82 637.84,299.41 640.16,304.84 642.47,304.84 644.79,304.84 647.11,312.65 649.43,312.65 651.74,308.99 654.06,318.06 656.38,325.96 658.7,328.65 661.02,329.26 663.33,327.34 665.65,334.73 667.97,334.23 670.29,334.23 672.6,334.4 674.92,334.4 677.24,334.84 679.56,334.84 681.88,333.44 684.19,336.83 686.51,335.88 688.83,337.97 691.15,337.97 693.46,337.97 695.78,335.9 698.1,335.9 700.42,343.78 702.73,339.51 705.05,335.06 707.37,335.33 709.69,337.19 712.01,338.8 714.32,343.29 716.64,337.29 718.96,337.33 721.28,337.33 723.59,335.98 725.91,341.14 728.23,340.21 730.55,344.51 732.86,353.9 735.18,353.9 737.5,353.9 739.82,318.91 742.14,318.4 744.45,316.83 746.77,315.38 749.09,315.41 751.41,316.39 753.72,315.2 756.04,315.2 758.36,314.12 760.68,314.54 762.99,314.54 765.31,315.58 767.63,316.37 769.95,314.22 772.27,314.0 774.58,318.8 776.9,315.28 779.22,312.71 781.54,309.92 783.85,307.31 786.17,307.31 788.49,305.3 790.81,305.15 793.12,308.16 795.44,312.33 797.76,310.75 800.08,314.87 802.4,313.33 804.71,312.88 807.03,311.74 809.35,310.63 811.67,312.14 813.98,310.31 816.3,310.31 818.62,311.15 820.94,314.34 823.26,312.46 825.57,312.46 827.89,315.85 830.21,317.8 832.53,320.45 834.84,319.6 837.16,320.53 839.48,320.53 841.8,319.31 844.11,319.31 846.43,324.17 848.75,322.83 851.07,312.62 853.39,311.92 855.7,311.32 858.02,310.75 860.34,308.82 862.66,307.25 864.97,306.11 867.29,307.58 869.61,305.27 871.93,307.23 874.24,307.99 876.56,306.9 878.88,305.53 881.2,304.87 883.52,305.5 885.83,302.22 888.15,301.17 890.47,299.23 892.79,298.79 895.1,300.58 897.42,302.03 899.74,302.65 902.06,302.36 904.38,301.37 906.69,301.25 909.01,303.01 911.33,301.28 913.65,301.14 915.96,300.33 918.28,298.12 920.6,298.52 922.92,297.62 925.23,297.0 927.55,297.9 929.87,297.53 932.19,297.39 934.51,298.78 936.82,296.36 939.14,296.82 941.46,296.97 943.78,297.91 946.09,296.11 948.41,297.73 950.73,297.73 953.05,296.92 955.36,296.34 957.68,296.28 960.0,296.28" opacity="0.82"/>
<polyline fill="none" stroke="#e45756" stroke-width="1.6" points="70.0,270.66 72.32,270.66 74.64,280.17 76.95,280.17 79.27,280.17 81.59,288.84 83.91,288.84 86.22,288.84 88.54,288.84 90.86,288.84 93.18,288.84 95.49,288.84 97.81,288.84 100.13,289.14 102.45,289.14 104.77,289.14 107.08,289.14 109.4,267.75 111.72,267.75 114.04,267.75 116.35,267.75 118.67,267.75 120.99,267.75 123.31,256.39 125.62,229.14 127.94,251.24 130.26,251.24 132.58,251.24 134.9,251.24 137.21,251.24 139.53,251.24 141.85,251.24 144.17,253.92 146.48,253.92 148.8,268.35 151.12,268.35 153.44,268.35 155.76,284.82 158.07,284.82 160.39,273.83 162.71,273.83 165.03,273.83 167.34,280.15 169.66,280.15 171.98,280.15 174.3,280.15 176.61,280.15 178.93,280.15 181.25,280.15 183.57,280.15 185.89,280.15 188.2,274.5 190.52,284.26 192.84,284.26 195.16,284.26 197.47,284.26 199.79,284.26 202.11,284.26 204.43,284.26 206.74,284.26 209.06,284.26 211.38,284.26 213.7,284.26 216.02,253.9 218.33,253.9 220.65,282.91 222.97,282.91 225.29,282.91 227.6,282.91 229.92,282.91 232.24,282.91 234.56,282.91 236.88,282.91 239.19,282.91 241.51,276.37 243.83,276.37 246.15,278.93 248.46,278.93 250.78,254.03 253.1,286.75 255.42,286.75 257.73,286.75 260.05,286.75 262.37,298.96 264.69,298.96 267.01,295.38 269.32,311.77 271.64,311.77 273.96,316.49 276.28,316.49 278.59,335.19 280.91,316.04 283.23,316.04 285.55,316.04 287.86,316.04 290.18,319.27 292.5,316.91 294.82,316.91 297.14,316.91 299.45,316.91 301.77,280.02 304.09,280.02 306.41,279.06 308.72,303.48 311.04,298.91 313.36,298.91 315.68,294.6 317.99,278.86 320.31,278.86 322.63,278.86 324.95,278.86 327.27,278.86 329.58,278.86 331.9,290.02 334.22,297.97 336.54,297.97 338.85,297.97 341.17,297.97 343.49,314.19 345.81,314.19 348.12,314.19 350.44,314.19 352.76,314.19 355.08,320.79 357.4,320.79 359.71,325.75 362.03,325.75 364.35,325.75 366.67,325.75 368.98,329.63 371.3,329.63 373.62,333.09 375.94,303.42 378.26,289.66 380.57,270.26 382.89,303.61 385.21,286.38 387.53,286.38 389.84,310.94 392.16,310.94 394.48,311.65 396.8,311.65 399.11,311.65 401.43,311.65 403.75,322.42 406.07,322.42 408.39,336.01 410.7,336.01 413.02,336.01 415.34,302.73 417.66,302.73 419.97,294.56 422.29,294.56 424.61,294.56 426.93,292.69 429.24,292.69 431.56,292.55 433.88,292.55 436.2,292.55 438.52,314.76 440.83,314.76 443.15,314.76 445.47,314.76 447.79,314.76 450.1,314.76 452.42,298.65 454.74,308.83 457.06,308.83 459.38,308.83 461.69,296.15 464.01,296.15 466.33,333.0 468.65,285.53 470.96,278.6 473.28,278.6 475.6,303.26 477.92,314.78 480.23,314.78 482.55,314.78 484.87,326.32 487.19,326.32 489.51,326.32 491.82,326.32 494.14,340.87 496.46,347.52 498.78,347.52 501.09,347.52 503.41,347.52 505.73,347.52 508.05,347.52 510.36,340.84 512.68,354.0 515.0,354.0 517.32,328.02 519.64,325.1 521.95,327.69 524.27,328.1 526.59,339.78 528.91,339.78 531.22,339.78 533.54,339.82 535.86,325.69 538.18,309.34 540.49,300.03 542.81,300.03 545.13,293.21 547.45,288.68 549.77,288.68 552.08,288.68 554.4,288.68 556.72,306.31 559.04,306.31 561.35,312.91 563.67,312.91 565.99,312.91 568.31,312.91 570.62,313.09 572.94,307.02 575.26,307.02 577.58,313.86 579.9,297.59 582.21,307.52 584.53,317.68 586.85,317.68 589.17,335.44 591.48,343.64 593.8,337.27 596.12,337.27 598.44,327.52 600.76,336.17 603.07,331.0 605.39,331.06 607.71,331.06 610.03,331.06 612.34,337.95 614.66,337.95 616.98,337.95 619.3,336.71 621.61,332.61 623.93,332.61 626.25,332.61 628.57,320.79 630.89,321.23 633.2,316.37 635.52,316.87 637.84,312.19 640.16,312.19 642.47,307.78 644.79,305.06 647.11,301.92 649.43,314.34 651.74,314.34 654.06,314.34 656.38,314.34 658.7,314.07 661.02,321.48 663.33,321.48 665.65,313.68 667.97,317.11 670.29,317.11 672.6,311.5 674.92,314.09 677.24,312.61 679.56,317.07 681.88,302.64 684.19,306.7 686.51,306.7 688.83,307.19 691.15,311.58 693.46,311.58 695.78,309.8 698.1,300.1 700.42,303.75 702.73,300.12 705.05,300.12 707.37,299.08 709.69,304.25 712.01,308.94 714.32,307.45 716.64,307.45 718.96,307.45 721.28,308.92 723.59,312.82 725.91,312.82 728.23,317.83 730.55,314.32 732.86,314.79 735.18,314.79 737.5,310.44 739.82,312.19 742.14,312.16 744.45,313.03 746.77,314.74 749.09,317.85 751.41,318.29 753.72,317.28 756.04,314.84 758.36,314.19 760.68,313.21 762.99,311.67 765.31,313.44 767.63,318.29 769.95,317.72 772.27,317.48 774.58,317.48 776.9,319.78 779.22,318.93 781.54,317.62 783.85,317.14 786.17,318.88 788.49,319.27 790.81,321.45 793.12,320.64 795.44,319.31 797.76,319.32 800.08,322.1 802.4,318.65 804.71,317.6 807.03,316.91 809.35,318.01 811.67,318.23 813.98,318.69 816.3,317.48 818.62,314.46 820.94,314.71 823.26,314.33 825.57,314.33 827.89,314.18 830.21,315.79 832.53,311.25 834.84,310.16 837.16,309.85 839.48,311.52 841.8,307.32 844.11,309.48 846.43,305.67 848.75,307.38 851.07,312.19 853.39,311.1 855.7,311.67 858.02,311.89 860.34,311.69 862.66,311.5 864.97,311.76 867.29,313.52 869.61,312.33 871.93,313.44 874.24,313.44 876.56,313.82 878.88,313.76 881.2,313.22 883.52,313.83 885.83,314.24 888.15,313.34 890.47,313.04 892.79,314.31 895.1,314.48 897.42,313.28 899.74,313.35 902.06,313.67 904.38,314.36 906.69,313.04 909.01,312.72 911.33,314.25 913.65,313.84 915.96,312.74 918.28,311.31 920.6,308.23 922.92,308.79 925.23,307.48 927.55,308.35 929.87,307.6 932.19,306.16 934.51,307.9 936.82,306.93 939.14,306.85 941.46,308.63 943.78,308.85 946.09,308.5 948.41,307.36 950.73,308.8 953.05,309.05 955.36,308.72 957.68,308.51 960.0,306.61" opacity="0.82"/>
<polyline fill="none" stroke="#4c9f70" stroke-width="1.6" points="70.0,270.66 72.32,270.66 74.64,270.66 76.95,270.66 79.27,270.66 81.59,270.66 83.91,270.66 86.22,276.05 88.54,276.05 90.86,276.05 93.18,276.05 95.49,276.05 97.81,276.05 100.13,276.05 102.45,276.05 104.77,276.05 107.08,276.05 109.4,276.05 111.72,276.05 114.04,276.05 116.35,276.05 118.67,276.05 120.99,276.05 123.31,295.41 125.62,295.41 127.94,295.41 130.26,317.56 132.58,325.31 134.9,325.31 137.21,325.31 139.53,325.31 141.85,325.31 144.17,325.31 146.48,303.31 148.8,303.31 151.12,303.31 153.44,322.58 155.76,322.58 158.07,309.53 160.39,309.53 162.71,294.82 165.03,321.63 167.34,321.63 169.66,294.8 171.98,294.8 174.3,270.53 176.61,270.53 178.93,292.26 181.25,292.26 183.57,292.26 185.89,292.26 188.2,292.26 190.52,292.26 192.84,292.26 195.16,272.47 197.47,272.47 199.79,282.38 202.11,283.18 204.43,283.18 206.74,295.54 209.06,295.54 211.38,288.49 213.7,288.49 216.02,288.49 218.33,288.49 220.65,288.49 222.97,288.49 225.29,288.49 227.6,288.49 229.92,288.49 232.24,288.49 234.56,288.49 236.88,288.49 239.19,304.03 241.51,301.74 243.83,301.74 246.15,301.74 248.46,301.74 250.78,301.74 253.1,301.74 255.42,301.74 257.73,301.74 260.05,286.28 262.37,286.28 264.69,290.26 267.01,290.26 269.32,303.75 271.64,303.75 273.96,303.75 276.28,303.75 278.59,303.75 280.91,303.75 283.23,303.75 285.55,303.75 287.86,303.75 290.18,303.75 292.5,303.75 294.82,303.75 297.14,303.75 299.45,303.75 301.77,303.75 304.09,303.75 306.41,303.75 308.72,303.75 311.04,274.53 313.36,274.53 315.68,274.53 317.99,294.46 320.31,294.46 322.63,294.46 324.95,294.46 327.27,302.01 329.58,305.19 331.9,305.19 334.22,305.19 336.54,305.19 338.85,305.19 341.17,272.2 343.49,272.2 345.81,267.78 348.12,267.78 350.44,267.78 352.76,271.18 355.08,271.18 357.4,271.18 359.71,271.18 362.03,271.18 364.35,271.18 366.67,271.18 368.98,271.18 371.3,271.18 373.62,271.18 375.94,271.18 378.26,271.18 380.57,286.52 382.89,286.52 385.21,290.41 387.53,290.41 389.84,289.82 392.16,299.48 394.48,299.48 396.8,299.48 399.11,299.48 401.43,282.81 403.75,274.69 406.07,274.69 408.39,274.69 410.7,274.69 413.02,274.69 415.34,258.74 417.66,258.74 419.97,258.74 422.29,258.74 424.61,271.1 426.93,271.1 429.24,271.1 431.56,271.1 433.88,297.52 436.2,297.52 438.52,297.52 440.83,297.52 443.15,299.34 445.47,343.54 447.79,339.64 450.1,339.64 452.42,339.64 454.74,339.64 457.06,339.64 459.38,339.64 461.69,301.93 464.01,290.64 466.33,318.8 468.65,318.8 470.96,318.8 473.28,309.24 475.6,309.24 477.92,287.75 480.23,287.75 482.55,287.75 484.87,287.75 487.19,287.75 489.51,287.75 491.82,287.75 494.14,287.75 496.46,287.75 498.78,301.36 501.09,301.36 503.41,294.77 505.73,286.14 508.05,286.14 510.36,286.14 512.68,286.14 515.0,286.14 517.32,318.8 519.64,318.8 521.95,309.07 524.27,309.07 526.59,309.07 528.91,300.58 531.22,286.96 533.54,286.38 535.86,292.73 538.18,292.73 540.49,284.74 542.81,290.39 545.13,290.39 547.45,290.39 549.77,301.72 552.08,283.85 554.4,283.85 556.72,283.85 559.04,283.85 561.35,283.85 563.67,283.85 565.99,301.53 568.31,301.53 570.62,301.53 572.94,301.53 575.26,299.97 577.58,299.97 579.9,299.97 582.21,299.97 584.53,289.75 586.85,283.74 589.17,274.27 591.48,274.27 593.8,274.27 596.12,300.87 598.44,300.87 600.76,300.87 603.07,309.1 605.39,311.0 607.71,311.0 610.03,323.68 612.34,314.3 614.66,314.3 616.98,310.98 619.3,303.82 621.61,303.82 623.93,303.82 626.25,302.0 628.57,318.8 630.89,313.5 633.2,313.5 635.52,313.43 637.84,313.43 640.16,313.34 642.47,316.27 644.79,319.44 647.11,316.78 649.43,319.35 651.74,324.21 654.06,317.0 656.38,314.17 658.7,308.84 661.02,314.6 663.33,317.15 665.65,301.73 667.97,289.14 670.29,273.34 672.6,273.34 674.92,275.87 677.24,275.87 679.56,275.87 681.88,275.87 684.19,275.87 686.51,275.87 688.83,282.12 691.15,286.95 693.46,292.14 695.78,293.14 698.1,288.02 700.42,289.87 702.73,285.79 705.05,288.21 707.37,288.21 709.69,294.16 712.01,294.16 714.32,294.16 716.64,290.73 718.96,284.19 721.28,284.19 723.59,284.19 725.91,284.19 728.23,284.19 730.55,284.19 732.86,290.26 735.18,284.99 737.5,284.99 739.82,314.06 742.14,314.07 744.45,312.48 746.77,307.62 749.09,305.48 751.41,307.12 753.72,308.58 756.04,311.06 758.36,312.5 760.68,312.5 762.99,310.29 765.31,308.86 767.63,308.15 769.95,307.54 772.27,307.01 774.58,305.43 776.9,306.3 779.22,305.7 781.54,303.65 783.85,301.29 786.17,300.23 788.49,298.54 790.81,300.47 793.12,300.07 795.44,300.07 797.76,300.07 800.08,301.0 802.4,304.41 804.71,304.41 807.03,302.04 809.35,302.11 811.67,302.11 813.98,300.74 816.3,300.74 818.62,300.74 820.94,300.28 823.26,300.28 825.57,295.54 827.89,296.0 830.21,297.87 832.53,296.14 834.84,296.14 837.16,293.33 839.48,294.94 841.8,294.73 844.11,295.32 846.43,295.32 848.75,295.32 851.07,311.98 853.39,311.7 855.7,313.03 858.02,313.09 860.34,312.57 862.66,312.57 864.97,313.94 867.29,313.71 869.61,313.31 871.93,313.68 874.24,312.5 876.56,311.22 878.88,311.69 881.2,311.55 883.52,311.24 885.83,311.0 888.15,311.25 890.47,309.9 892.79,306.28 895.1,305.82 897.42,305.14 899.74,304.45 902.06,303.91 904.38,303.04 906.69,303.04 909.01,303.01 911.33,301.35 913.65,303.18 915.96,303.65 918.28,303.42 920.6,303.42 922.92,304.31 925.23,304.68 927.55,306.88 929.87,306.88 932.19,306.15 934.51,308.73 936.82,309.36 939.14,309.36 941.46,308.6 943.78,307.3 946.09,307.2 948.41,308.59 950.73,308.59 953.05,309.25 955.36,306.95 957.68,308.75 960.0,308.75" opacity="0.82"/>
<polyline fill="none" stroke="#f3a712" stroke-width="1.6" points="70.0,270.66 72.32,270.66 74.64,294.74 76.95,288.94 79.27,288.94 81.59,288.94 83.91,288.94 86.22,288.94 88.54,288.94 90.86,288.94 93.18,285.9 95.49,285.9 97.81,285.9 100.13,285.9 102.45,285.9 104.77,285.9 107.08,286.35 109.4,314.3 111.72,314.3 114.04,307.42 116.35,307.42 118.67,290.97 120.99,299.78 123.31,299.78 125.62,299.78 127.94,299.78 130.26,299.78 132.58,299.78 134.9,299.78 137.21,299.78 139.53,295.13 141.85,295.13 144.17,295.13 146.48,295.13 148.8,289.09 151.12,298.01 153.44,298.01 155.76,309.07 158.07,309.07 160.39,309.07 162.71,309.07 165.03,309.07 167.34,309.07 169.66,309.07 171.98,309.07 174.3,309.07 176.61,309.07 178.93,309.07 181.25,309.07 183.57,309.07 185.89,286.67 188.2,286.67 190.52,286.67 192.84,289.57 195.16,286.53 197.47,286.53 199.79,257.14 202.11,264.34 204.43,244.93 206.74,244.93 209.06,244.93 211.38,244.93 213.7,240.11 216.02,240.11 218.33,230.29 220.65,248.13 222.97,225.0 225.29,225.0 227.6,234.9 229.92,234.9 232.24,234.9 234.56,234.9 236.88,269.13 239.19,269.13 241.51,269.13 243.83,269.13 246.15,257.98 248.46,257.98 250.78,257.98 253.1,265.28 255.42,265.28 257.73,265.28 260.05,265.28 262.37,265.28 264.69,265.28 267.01,265.28 269.32,265.28 271.64,265.28 273.96,265.28 276.28,265.28 278.59,265.28 280.91,265.28 283.23,265.28 285.55,265.28 287.86,265.28 290.18,265.28 292.5,265.28 294.82,265.28 297.14,290.66 299.45,290.66 301.77,290.66 304.09,302.01 306.41,302.01 308.72,302.01 311.04,302.01 313.36,302.01 315.68,302.01 317.99,302.01 320.31,302.01 322.63,302.01 324.95,302.01 327.27,302.01 329.58,302.01 331.9,302.01 334.22,317.68 336.54,319.66 338.85,322.41 341.17,315.38 343.49,315.38 345.81,315.38 348.12,315.38 350.44,315.38 352.76,296.11 355.08,296.11 357.4,301.78 359.71,301.78 362.03,301.78 364.35,301.78 366.67,301.78 368.98,301.78 371.3,301.78 373.62,301.78 375.94,301.78 378.26,301.78 380.57,301.78 382.89,301.78 385.21,301.78 387.53,301.78 389.84,314.86 392.16,322.98 394.48,322.98 396.8,322.98 399.11,322.98 401.43,344.68 403.75,339.51 406.07,339.51 408.39,339.51 410.7,339.51 413.02,339.51 415.34,350.23 417.66,350.23 419.97,350.23 422.29,350.23 424.61,350.23 426.93,350.23 429.24,350.23 431.56,350.23 433.88,345.53 436.2,345.53 438.52,345.53 440.83,345.53 443.15,345.53 445.47,345.53 447.79,345.53 450.1,345.53 452.42,353.76 454.74,353.76 457.06,350.18 459.38,339.68 461.69,318.54 464.01,333.18 466.33,314.34 468.65,314.34 470.96,313.0 473.28,342.3 475.6,342.3 477.92,341.75 480.23,321.27 482.55,321.27 484.87,321.27 487.19,285.5 489.51,285.5 491.82,285.5 494.14,285.5 496.46,306.21 498.78,308.81 501.09,308.81 503.41,308.81 505.73,273.75 508.05,273.75 510.36,273.75 512.68,273.75 515.0,273.75 517.32,288.94 519.64,299.5 521.95,301.7 524.27,289.65 526.59,289.65 528.91,289.65 531.22,289.65 533.54,289.65 535.86,279.37 538.18,279.37 540.49,282.08 542.81,278.77 545.13,288.63 547.45,288.63 549.77,288.63 552.08,288.63 554.4,288.63 556.72,283.27 559.04,283.27 561.35,283.27 563.67,283.27 565.99,283.27 568.31,283.53 570.62,279.68 572.94,279.68 575.26,277.51 577.58,277.51 579.9,277.51 582.21,294.39 584.53,294.39 586.85,294.39 589.17,299.75 591.48,299.75 593.8,299.75 596.12,299.75 598.44,298.31 600.76,298.31 603.07,298.31 605.39,288.74 607.71,298.58 610.03,297.38 612.34,291.02 614.66,291.02 616.98,291.02 619.3,293.77 621.61,293.96 623.93,293.96 626.25,302.05 628.57,287.26 630.89,292.37 633.2,293.9 635.52,298.41 637.84,294.82 640.16,294.82 642.47,294.82 644.79,294.82 647.11,287.17 649.43,286.13 651.74,287.49 654.06,287.49 656.38,294.6 658.7,294.6 661.02,294.6 663.33,294.6 665.65,294.6 667.97,294.6 670.29,289.33 672.6,289.54 674.92,289.54 677.24,285.56 679.56,283.97 681.88,283.97 684.19,283.97 686.51,283.69 688.83,283.74 691.15,290.95 693.46,290.95 695.78,290.95 698.1,290.95 700.42,296.84 702.73,297.6 705.05,297.6 707.37,296.6 709.69,296.6 712.01,287.39 714.32,289.44 716.64,295.07 718.96,295.29 721.28,295.29 723.59,295.29 725.91,290.42 728.23,292.07 730.55,295.4 732.86,300.63 735.18,300.63 737.5,300.63 739.82,294.82 742.14,294.19 744.45,297.19 746.77,298.08 749.09,294.03 751.41,294.03 753.72,294.03 756.04,293.32 758.36,293.32 760.68,293.32 762.99,293.91 765.31,293.91 767.63,293.91 769.95,293.91 772.27,292.19 774.58,296.82 776.9,296.73 779.22,298.22 781.54,297.9 783.85,297.27 786.17,297.27 788.49,296.26 790.81,299.69 793.12,297.01 795.44,296.26 797.76,293.79 800.08,293.79 802.4,295.9 804.71,294.68 807.03,296.24 809.35,293.96 811.67,294.16 813.98,301.02 816.3,301.02 818.62,302.73 820.94,301.41 823.26,302.47 825.57,299.64 827.89,299.82 830.21,300.96 832.53,298.91 834.84,299.46 837.16,302.16 839.48,296.7 841.8,296.05 844.11,297.1 846.43,299.49 848.75,298.34 851.07,296.58 853.39,297.84 855.7,300.16 858.02,298.4 860.34,299.01 862.66,299.42 864.97,301.12 867.29,300.39 869.61,300.47 871.93,301.03 874.24,299.57 876.56,299.57 878.88,299.64 881.2,298.76 883.52,300.58 885.83,303.0 888.15,302.95 890.47,303.9 892.79,302.53 895.1,301.39 897.42,301.02 899.74,302.33 902.06,302.33 904.38,299.49 906.69,299.24 909.01,299.24 911.33,299.24 913.65,298.61 915.96,296.66 918.28,297.76 920.6,297.29 922.92,295.16 925.23,297.36 927.55,295.8 929.87,294.79 932.19,295.68 934.51,298.48 936.82,300.94 939.14,301.46 941.46,302.25 943.78,301.97 946.09,299.58 948.41,299.58 950.73,299.86 953.05,298.69 955.36,298.43 957.68,298.43 960.0,298.43" opacity="0.82"/>
<line x1="70.0" y1="550.0" x2="960.0" y2="550.0" stroke="#444" stroke-width="1.2"/>
<line x1="70.0" y1="405.0" x2="70.0" y2="550.0" stroke="#444" stroke-width="1.2"/>
<text x="70.0" y="397.0" font-family="monospace" font-size="12">threshold</text>
<polyline fill="none" stroke="#1f77b4" stroke-width="1.6" points="70.0,437.87 72.32,437.87 74.64,483.0 76.95,483.0 79.27,483.0 81.59,483.0 83.91,483.0 86.22,483.0 88.54,483.0 90.86,483.0 93.18,467.35 95.49,467.35 97.81,486.37 100.13,496.55 102.45,488.81 104.77,488.81 107.08,488.81 109.4,488.81 111.72,488.81 114.04,488.81 116.35,488.81 118.67,488.81 120.99,502.8 123.31,523.29 125.62,525.89 127.94,513.45 130.26,513.45 132.58,513.45 134.9,513.45 137.21,513.45 139.53,513.45 141.85,523.06 144.17,523.06 146.48,523.06 148.8,516.25 151.12,527.38 153.44,530.2 155.76,530.2 158.07,501.4 160.39,501.4 162.71,501.4 165.03,501.4 167.34,501.4 169.66,501.4 171.98,501.4 174.3,501.4 176.61,499.13 178.93,499.13 181.25,453.75 183.57,453.75 185.89,453.75 188.2,453.75 190.52,453.75 192.84,453.75 195.16,453.75 197.47,453.75 199.79,453.75 202.11,453.75 204.43,453.75 206.74,453.75 209.06,453.75 211.38,478.57 213.7,478.57 216.02,478.57 218.33,478.57 220.65,478.57 222.97,478.57 225.29,478.57 227.6,478.57 229.92,478.57 232.24,478.57 234.56,478.57 236.88,478.57 239.19,502.94 241.51,502.94 243.83,502.94 246.15,502.94 248.46,502.94 250.78,502.94 253.1,498.78 255.42,498.78 257.73,498.78 260.05,467.96 262.37,467.96 264.69,467.96 267.01,467.96 269.32,480.3 271.64,480.3 273.96,486.44 276.28,486.44 278.59,486.44 280.91,486.44 283.23,486.44 285.55,495.53 287.86,495.53 290.18,459.47 292.5,459.47 294.82,455.74 297.14,455.74 299.45,455.74 301.77,455.74 304.09,430.9 306.41,430.9 308.72,430.9 311.04,442.05 313.36,442.05 315.68,442.05 317.99,442.05 320.31,440.62 322.63,440.62 324.95,440.62 327.27,440.62 329.58,440.62 331.9,440.62 334.22,440.62 336.54,440.62 338.85,439.91 341.17,446.38 343.49,446.38 345.81,428.71 348.12,428.71 350.44,428.71 352.76,428.71 355.08,428.71 357.4,428.71 359.71,428.71 362.03,418.15 364.35,418.15 366.67,418.31 368.98,418.31 371.3,418.31 373.62,418.31 375.94,418.31 378.26,423.54 380.57,405.0 382.89,405.0 385.21,436.19 387.53,436.19 389.84,436.19 392.16,436.19 394.48,436.19 396.8,436.19 399.11,436.19 401.43,436.19 403.75,436.19 406.07,436.19 408.39,436.19 410.7,436.19 413.02,456.71 415.34,456.71 417.66,456.71 419.97,456.71 422.29,456.71 424.61,468.38 426.93,468.38 429.24,468.38 431.56,468.38 433.88,487.39 436.2,456.37 438.52,453.63 440.83,453.63 443.15,453.63 445.47,453.63 447.79,453.63 450.1,455.64 452.42,455.64 454.74,471.77 457.06,471.77 459.38,471.77 461.69,471.77 464.01,471.77 466.33,471.77 468.65,462.22 470.96,464.28 473.28,464.28 475.6,464.28 477.92,464.28 480.23,464.28 482.55,464.28 484.87,464.28 487.19,464.28 489.51,462.69 491.82,450.11 494.14,479.87 496.46,487.12 498.78,469.32 501.09,469.32 503.41,469.32 505.73,469.32 508.05,469.32 510.36,469.32 512.68,469.32 515.0,469.32 517.32,453.75 519.64,481.49 521.95,465.58 524.27,483.17 526.59,483.17 528.91,483.17 531.22,483.17 533.54,483.17 535.86,476.19 538.18,479.89 540.49,501.63 542.81,494.79 545.13,501.95 547.45,501.95 549.77,498.53 552.08,498.53 554.4,498.92 556.72,494.25 559.04,488.08 561.35,488.08 563.67,487.06 565.99,487.06 568.31,502.22 570.62,487.62 572.94,487.62 575.26,482.2 577.58,482.2 579.9,482.2 582.21,479.74 584.53,479.74 586.85,479.74 589.17,479.74 591.48,484.21 593.8,479.81 596.12,479.81 598.44,479.81 600.76,483.4 603.07,483.4 605.39,483.4 607.71,483.4 610.03,483.4 612.34,483.4 614.66,483.4 616.98,483.4 619.3,491.22 621.61,491.22 623.93,506.81 626.25,504.6 628.57,453.75 630.89,453.75 633.2,453.75 635.52,451.22 637.84,450.43 640.16,452.3 642.47,452.3 644.79,452.3 647.11,443.06 649.43,443.06 651.74,441.54 654.06,452.26 656.38,452.32 658.7,459.58 661.02,468.28 663.33,471.68 665.65,462.22 667.97,458.46 670.29,458.46 672.6,452.82 674.92,452.82 677.24,463.3 679.56,463.3 681.88,469.96 684.19,463.38 686.51,453.67 688.83,457.77 691.15,457.77 693.46,457.77 695.78,453.61 698.1,453.61 700.42,452.11 702.73,453.25 705.05,449.58 707.37,445.14 709.69,442.04 712.01,438.79 714.32,437.98 716.64,438.0 718.96,422.9 721.28,422.9 723.59,422.11 725.91,429.52 728.23,427.01 730.55,430.2 732.86,425.54 735.18,425.54 737.5,425.54 739.82,450.12 742.14,453.35 744.45,452.61 746.77,450.51 749.09,449.35 751.41,452.82 753.72,462.56 756.04,462.56 758.36,460.11 760.68,462.46 762.99,462.46 765.31,457.58 767.63,461.74 769.95,461.21 772.27,464.5 774.58,465.0 776.9,467.31 779.22,464.75 781.54,464.78 783.85,464.64 786.17,464.64 788.49,470.22 790.81,468.23 793.12,467.02 795.44,463.03 797.76,462.73 800.08,460.45 802.4,460.76 804.71,454.8 807.03,459.31 809.35,458.81 811.67,458.79 813.98,460.19 816.3,460.19 818.62,455.58 820.94,455.03 823.26,461.32 825.57,461.32 827.89,459.86 830.21,457.25 832.53,458.7 834.84,455.08 837.16,453.41 839.48,453.41 841.8,456.13 844.11,456.13 846.43,456.39 848.75,460.46 851.07,462.18 853.39,461.29 855.7,461.35 858.02,461.41 860.34,460.93 862.66,459.37 864.97,462.44 867.29,461.17 869.61,461.97 871.93,460.07 874.24,458.8 876.56,457.69 878.88,459.44 881.2,463.71 883.52,460.96 885.83,465.03 888.15,463.55 890.47,461.45 892.79,461.9 895.1,461.88 897.42,463.77 899.74,465.33 902.06,465.62 904.38,468.18 906.69,465.82 909.01,468.08 911.33,470.59 913.65,469.31 915.96,471.1 918.28,471.19 920.6,471.61 922.92,472.66 925.23,474.22 927.55,476.37 929.87,474.81 932.19,475.47 934.51,476.67 936.82,476.73 939.14,479.42 941.46,480.85 943.78,481.93 946.09,479.8 948.41,478.89 950.73,478.89 953.05,477.72 955.36,480.67 957.68,481.39 960.0,481.39" opacity="0.82"/>
<polyline fill="none" stroke="#e45756" stroke-width="1.6" points="70.0,437.87 72.32,437.87 74.64,484.02 76.95,484.02 79.27,484.02 81.59,464.69 83.91,464.69 86.22,464.69 88.54,464.69 90.86,464.69 93.18,464.69 95.49,464.69 97.81,464.69 100.13,443.78 102.45,443.78 104.77,443.78 107.08,443.78 109.4,478.99 111.72,478.99 114.04,478.99 116.35,478.99 118.67,478.99 120.99,478.99 123.31,475.3 125.62,496.87 127.94,502.18 130.26,502.18 132.58,502.18 134.9,502.18 137.21,502.18 139.53,502.18 141.85,502.18 144.17,523.68 146.48,523.68 148.8,499.6 151.12,499.6 153.44,499.6 155.76,502.22 158.07,502.22 160.39,493.59 162.71,493.59 165.03,493.59 167.34,487.49 169.66,487.49 171.98,487.49 174.3,487.49 176.61,487.49 178.93,487.49 181.25,487.49 183.57,487.49 185.89,487.49 188.2,484.44 190.52,486.81 192.84,486.81 195.16,486.81 197.47,486.81 199.79,486.81 202.11,486.81 204.43,486.81 206.74,486.81 209.06,486.81 211.38,486.81 213.7,486.81 216.02,496.31 218.33,496.31 220.65,479.61 222.97,479.61 225.29,479.61 227.6,479.61 229.92,479.61 232.24,479.61 234.56,479.61 236.88,479.61 239.19,479.61 241.51,480.87 243.83,480.87 246.15,497.23 248.46,497.23 250.78,481.91 253.1,500.96 255.42,500.96 257.73,500.96 260.05,500.96 262.37,485.66 264.69,485.66 267.01,472.99 269.32,503.74 271.64,503.74 273.96,494.56 276.28,494.56 278.59,496.13 280.91,497.27 283.23,497.27 285.55,497.27 287.86,497.27 290.18,478.7 292.5,491.98 294.82,491.98 297.14,491.98 299.45,491.98 301.77,503.97 304.09,503.97 306.41,476.84 308.72,479.27 311.04,483.69 313.36,483.69 315.68,479.54 317.99,494.28 320.31,494.28 322.63,494.28 324.95,494.28 327.27,494.28 329.58,494.28 331.9,483.44 334.22,487.75 336.54,487.75 338.85,487.75 341.17,487.75 343.49,471.76 345.81,471.76 348.12,471.76 350.44,471.76 352.76,471.76 355.08,443.13 357.4,443.13 359.71,434.95 362.03,434.95 364.35,434.95 366.67,434.95 368.98,454.51 371.3,454.51 373.62,452.33 375.94,474.75 378.26,476.69 380.57,467.66 382.89,456.39 385.21,470.71 387.53,470.71 389.84,457.63 392.16,457.63 394.48,473.67 396.8,473.67 399.11,473.67 401.43,473.67 403.75,494.64 406.07,494.64 408.39,499.1 410.7,499.1 413.02,499.1 415.34,502.67 417.66,502.67 419.97,495.53 422.29,495.53 424.61,495.53 426.93,484.15 429.24,484.15 431.56,489.57 433.88,489.57 436.2,489.57 438.52,483.53 440.83,483.53 443.15,483.53 445.47,483.53 447.79,483.53 450.1,483.53 452.42,470.65 454.74,459.7 457.06,459.7 459.38,459.7 461.69,451.92 464.01,451.92 466.33,465.63 468.65,443.13 470.96,431.26 473.28,431.26 475.6,455.82 477.92,432.76 480.23,432.76 482.55,432.76 484.87,428.07 487.19,428.07 489.51,428.07 491.82,428.07 494.14,448.06 496.46,433.04 498.78,433.04 501.09,433.04 503.41,433.04 505.73,433.04 508.05,433.04 510.36,434.5 512.68,460.07 515.0,460.07 517.32,440.48 519.64,452.79 521.95,451.87 524.27,460.38 526.59,450.42 528.91,450.42 531.22,450.42 533.54,438.34 535.86,469.28 538.18,459.24 540.49,463.16 542.81,463.16 545.13,460.53 547.45,454.36 549.77,454.36 552.08,454.36 554.4,454.36 556.72,466.01 559.04,466.01 561.35,466.11 563.67,466.11 565.99,466.11 568.31,466.11 570.62,463.46 572.94,451.28 575.26,451.28 577.58,468.97 579.9,468.0 582.21,478.12 584.53,480.02 586.85,480.02 589.17,460.5 591.48,471.8 593.8,474.61 596.12,474.61 598.44,463.22 600.76,467.46 603.07,468.17 605.39,441.3 607.71,441.3 610.03,441.3 612.34,430.25 614.66,430.25 616.98,430.25 619.3,434.57 621.61,430.25 623.93,430.25 626.25,430.25 628.57,443.13 630.89,444.47 633.2,443.8 635.52,441.34 637.84,448.77 640.16,448.77 642.47,462.69 644.79,463.91 647.11,470.6 649.43,464.15 651.74,464.15 654.06,464.15 656.38,464.15 658.7,460.88 661.02,453.17 663.33,453.17 665.65,450.63 667.97,441.33 670.29,441.33 672.6,435.9 674.92,435.25 677.24,420.57 679.56,420.68 681.88,422.41 684.19,427.24 686.51,427.24 688.83,427.04 691.15,416.58 693.46,416.58 695.78,424.33 698.1,422.64 700.42,438.62 702.73,430.75 705.05,430.75 707.37,420.64 709.69,416.75 712.01,420.83 714.32,432.15 716.64,432.15 718.96,432.15 721.28,433.37 723.59,448.29 725.91,448.29 728.23,443.72 730.55,438.59 732.86,440.96 735.18,440.96 737.5,442.95 739.82,448.77 742.14,449.55 744.45,449.91 746.77,453.69 749.09,454.68 751.41,450.86 753.72,452.11 756.04,452.08 758.36,449.8 760.68,448.35 762.99,447.41 765.31,448.77 767.63,445.64 769.95,450.18 772.27,448.64 774.58,448.64 776.9,446.92 779.22,452.14 781.54,451.17 783.85,449.82 786.17,443.98 788.49,441.13 790.81,442.34 793.12,442.15 795.44,442.28 797.76,446.01 800.08,449.63 802.4,453.06 804.71,453.15 807.03,455.37 809.35,454.83 811.67,459.6 813.98,463.17 816.3,463.65 818.62,468.27 820.94,468.21 823.26,462.89 825.57,462.89 827.89,465.99 830.21,466.95 832.53,474.15 834.84,471.4 837.16,473.29 839.48,474.24 841.8,481.25 844.11,482.7 846.43,480.86 848.75,478.57 851.07,448.77 853.39,447.35 855.7,446.28 858.02,448.96 860.34,449.54 862.66,447.51 864.97,450.83 867.29,450.09 869.61,450.64 871.93,451.94 874.24,451.94 876.56,454.11 878.88,451.68 881.2,452.97 883.52,456.51 885.83,456.18 888.15,455.12 890.47,457.02 892.79,459.91 895.1,461.16 897.42,463.97 899.74,464.47 902.06,464.21 904.38,461.85 906.69,459.41 909.01,458.82 911.33,460.5 913.65,459.78 915.96,462.52 918.28,462.93 920.6,461.99 922.92,461.93 925.23,460.17 927.55,462.08 929.87,462.7 932.19,463.87 934.51,463.9 936.82,463.67 939.14,460.33 941.46,464.45 943.78,463.87 946.09,462.27 948.41,465.1 950.73,466.29 953.05,465.94 955.36,464.83 957.68,463.49 960.0,462.16" opacity="0.82"/>
<polyline fill="none" stroke="#4c9f70" stroke-width="1.6" points="70.0,437.87 72.32,437.87 74.64,437.87 76.95,437.87 79.27,437.87 81.59,437.87 83.91,437.87 86.22,450.64 88.54,450.64 90.86,450.64 93.18,450.64 95.49,450.64 97.81,450.64 100.13,450.64 102.45,450.64 104.77,450.64 107.08,450.64 109.4,450.64 111.72,450.64 114.04,450.64 116.35,450.64 118.67,450.64 120.99,450.64 123.31,473.43 125.62,473.43 127.94,473.43 130.26,466.85 132.58,467.72 134.9,467.72 137.21,467.72 139.53,467.72 141.85,467.72 144.17,467.72 146.48,449.4 148.8,449.4 151.12,449.4 153.44,483.38 155.76,483.38 158.07,481.12 160.39,481.12 162.71,467.61 165.03,465.54 167.34,465.54 169.66,469.55 171.98,469.55 174.3,478.52 176.61,478.52 178.93,473.3 181.25,473.3 183.57,473.3 185.89,473.3 188.2,473.3 190.52,473.3 192.84,473.3 195.16,484.16 197.47,484.16 199.79,491.29 202.11,495.35 204.43,495.35 206.74,479.55 209.06,479.55 211.38,481.23 213.7,481.23 216.02,481.23 218.33,481.23 220.65,481.23 222.97,481.23 225.29,481.23 227.6,481.23 229.92,481.23 232.24,481.23 234.56,481.23 236.88,481.23 239.19,492.82 241.51,463.76 243.83,463.76 246.15,463.76 248.46,463.76 250.78,463.76 253.1,463.76 255.42,463.76 257.73,463.76 260.05,446.66 262.37,446.66 264.69,437.28 267.01,437.28 269.32,472.73 271.64,472.73 273.96,472.73 276.28,472.73 278.59,472.73 280.91,472.73 283.23,472.73 285.55,472.73 287.86,472.73 290.18,472.73 292.5,472.73 294.82,472.73 297.14,472.73 299.45,472.73 301.77,472.73 304.09,472.73 306.41,472.73 308.72,472.73 311.04,469.67 313.36,469.67 315.68,469.67 317.99,484.91 320.31,484.91 322.63,484.91 324.95,484.91 327.27,470.7 329.58,489.35 331.9,489.35 334.22,489.35 336.54,489.35 338.85,489.35 341.17,497.55 343.49,497.55 345.81,491.5 348.12,491.5 350.44,491.5 352.76,504.59 355.08,504.59 357.4,504.59 359.71,504.59 362.03,504.59 364.35,504.59 366.67,504.59 368.98,504.59 371.3,504.59 373.62,504.59 375.94,504.59 378.26,504.59 380.57,522.0 382.89,522.0 385.21,520.12 387.53,520.12 389.84,513.76 392.16,500.08 394.48,500.08 396.8,500.08 399.11,500.08 401.43,510.25 403.75,505.3 406.07,505.3 408.39,505.3 410.7,505.3 413.02,505.3 415.34,503.92 417.66,503.92 419.97,503.92 422.29,503.92 424.61,514.08 426.93,514.08 429.24,514.08 431.56,514.08 433.88,490.64 436.2,490.64 438.52,490.64 440.83,490.64 443.15,512.43 445.47,500.38 447.79,481.3 450.1,481.3 452.42,481.3 454.74,481.3 457.06,481.3 459.38,481.3 461.69,463.87 464.01,464.0 466.33,467.43 468.65,467.43 470.96,467.43 473.28,466.49 475.6,466.49 477.92,456.87 480.23,456.87 482.55,456.87 484.87,456.87 487.19,456.87 489.51,456.87 491.82,456.87 494.14,456.87 496.46,456.87 498.78,424.28 501.09,424.28 503.41,415.62 505.73,441.46 508.05,441.46 510.36,441.46 512.68,441.46 515.0,441.46 517.32,467.43 519.64,467.43 521.95,455.13 524.27,455.13 526.59,455.13 528.91,467.27 531.22,464.04 533.54,452.77 535.86,479.69 538.18,479.69 540.49,458.75 542.81,459.3 545.13,459.3 547.45,459.3 549.77,465.1 552.08,468.18 554.4,468.18 556.72,468.18 559.04,468.18 561.35,468.18 563.67,468.18 565.99,463.8 568.31,463.8 570.62,463.8 572.94,463.8 575.26,460.12 577.58,460.12 579.9,460.12 582.21,460.12 584.53,468.27 586.85,464.45 589.17,464.12 591.48,464.12 593.8,464.12 596.12,461.01 598.44,461.01 600.76,461.01 603.07,446.79 605.39,456.17 607.71,456.17 610.03,465.69 612.34,476.64 614.66,476.64 616.98,452.01 619.3,460.53 621.61,460.53 623.93,460.53 626.25,463.83 628.57,467.43 630.89,470.04 633.2,470.04 635.52,469.62 637.84,469.62 640.16,477.19 642.47,480.9 644.79,484.2 647.11,479.78 649.43,483.4 651.74,482.27 654.06,488.27 656.38,491.23 658.7,488.52 661.02,478.76 663.33,482.5 665.65,483.03 667.97,482.66 670.29,467.87 672.6,467.87 674.92,477.16 677.24,477.16 679.56,477.16 681.88,477.16 684.19,477.16 686.51,477.16 688.83,476.0 691.15,486.41 693.46,484.74 695.78,482.59 698.1,492.85 700.42,494.18 702.73,498.36 705.05,498.36 707.37,498.36 709.69,501.22 712.01,501.22 714.32,501.22 716.64,490.18 718.96,470.58 721.28,470.58 723.59,470.58 725.91,470.58 728.23,470.58 730.55,470.58 732.86,472.78 735.18,469.83 737.5,469.83 739.82,474.88 742.14,470.08 744.45,470.09 746.77,468.82 749.09,469.16 751.41,470.87 753.72,475.19 756.04,479.43 758.36,476.19 760.68,476.19 762.99,474.0 765.31,474.91 767.63,474.56 769.95,471.71 772.27,477.14 774.58,479.26 776.9,477.15 779.22,473.85 781.54,473.9 783.85,473.26 786.17,475.68 788.49,478.31 790.81,476.64 793.12,473.99 795.44,473.99 797.76,473.99 800.08,467.03 802.4,466.08 804.71,466.08 807.03,458.65 809.35,457.98 811.67,457.98 813.98,458.15 816.3,458.15 818.62,458.15 820.94,460.54 823.26,460.54 825.57,460.28 827.89,463.33 830.21,468.11 832.53,468.9 834.84,468.9 837.16,467.65 839.48,467.98 841.8,471.84 844.11,469.13 846.43,469.13 848.75,469.13 851.07,476.07 853.39,476.88 855.7,475.41 858.02,475.52 860.34,471.51 862.66,471.51 864.97,474.12 867.29,475.17 869.61,473.61 871.93,473.85 874.24,472.99 876.56,471.64 878.88,473.84 881.2,474.65 883.52,473.09 885.83,473.61 888.15,472.71 890.47,471.96 892.79,472.34 895.1,469.78 897.42,471.68 899.74,472.99 902.06,475.45 904.38,474.76 906.69,474.76 909.01,473.33 911.33,473.23 913.65,469.66 915.96,465.92 918.28,465.16 920.6,465.16 922.92,465.04 925.23,466.73 927.55,465.46 929.87,465.46 932.19,465.77 934.51,466.68 936.82,466.99 939.14,466.99 941.46,466.75 943.78,465.05 946.09,465.89 948.41,469.14 950.73,469.14 953.05,470.6 955.36,469.58 957.68,469.38 960.0,469.38" opacity="0.82"/>
<polyline fill="none" stroke="#f3a712" stroke-width="1.6" points="70.0,437.87 72.32,437.87 74.64,439.38 76.95,457.06 79.27,457.06 81.59,457.06 83.91,457.06 86.22,457.06 88.54,457.06 90.86,457.06 93.18,459.77 95.49,459.77 97.81,459.77 100.13,459.77 102.45,459.77 104.77,459.77 107.08,460.08 109.4,468.71 111.72,468.71 114.04,491.2 116.35,491.2 118.67,501.71 120.99,486.98 123.31,486.98 125.62,486.98 127.94,486.98 130.26,486.98 132.58,486.98 134.9,486.98 137.21,486.98 139.53,494.24 141.85,494.24 144.17,494.24 146.48,494.24 148.8,472.87 151.12,499.87 153.44,499.87 155.76,500.82 158.07,500.82 160.39,500.82 162.71,500.82 165.03,500.82 167.34,500.82 169.66,500.82 171.98,500.82 174.3,500.82 176.61,500.82 178.93,500.82 181.25,500.82 183.57,500.82 185.89,504.41 188.2,504.41 190.52,504.41 192.84,504.78 195.16,498.38 197.47,498.38 199.79,473.54 202.11,498.01 204.43,486.99 206.74,486.99 209.06,486.99 211.38,486.99 213.7,482.28 216.02,482.28 218.33,515.63 220.65,528.53 222.97,500.33 225.29,500.33 227.6,507.21 229.92,507.21 232.24,507.21 234.56,507.21 236.88,498.66 239.19,498.66 241.51,498.66 243.83,498.66 246.15,508.73 248.46,508.73 250.78,508.73 253.1,492.78 255.42,492.78 257.73,492.78 260.05,492.78 262.37,492.78 264.69,492.78 267.01,492.78 269.32,492.78 271.64,492.78 273.96,492.78 276.28,492.78 278.59,492.78 280.91,492.78 283.23,492.78 285.55,492.78 287.86,492.78 290.18,492.78 292.5,492.78 294.82,492.78 297.14,489.53 299.45,489.53 301.77,489.53 304.09,489.88 306.41,489.88 308.72,489.88 311.04,489.88 313.36,489.88 315.68,489.88 317.99,489.88 320.31,489.88 322.63,489.88 324.95,489.88 327.27,489.88 329.58,489.88 331.9,489.88 334.22,495.36 336.54,470.12 338.85,464.38 341.17,460.14 343.49,460.14 345.81,460.14 348.12,460.14 350.44,460.14 352.76,466.8 355.08,466.8 357.4,444.97 359.71,444.97 362.03,444.97 364.35,444.97 366.67,444.97 368.98,444.97 371.3,444.97 373.62,444.97 375.94,444.97 378.26,444.97 380.57,444.97 382.89,444.97 385.21,444.97 387.53,444.97 389.84,470.64 392.16,478.7 394.48,478.7 396.8,478.7 399.11,478.7 401.43,475.42 403.75,472.12 406.07,472.12 408.39,472.12 410.7,472.12 413.02,472.12 415.34,450.21 417.66,450.21 419.97,450.21 422.29,450.21 424.61,450.21 426.93,450.21 429.24,450.21 431.56,450.21 433.88,449.26 436.2,449.26 438.52,449.26 440.83,449.26 443.15,449.26 445.47,449.26 447.79,449.26 450.1,449.26 452.42,472.25 454.74,472.25 457.06,495.05 459.38,511.01 461.69,514.89 464.01,537.54 466.33,550.0 468.65,550.0 470.96,532.52 473.28,496.31 475.6,496.31 477.92,478.24 480.23,489.19 482.55,489.19 484.87,489.19 487.19,489.87 489.51,489.87 491.82,489.87 494.14,489.87 496.46,491.99 498.78,485.81 501.09,485.81 503.41,485.81 505.73,463.58 508.05,463.58 510.36,463.58 512.68,463.58 515.0,463.58 517.32,457.06 519.64,462.88 521.95,461.96 524.27,464.32 526.59,464.32 528.91,464.32 531.22,464.32 533.54,464.32 535.86,460.89 538.18,460.89 540.49,474.8 542.81,460.14 545.13,474.15 547.45,474.15 549.77,474.15 552.08,474.15 554.4,474.15 556.72,475.16 559.04,475.16 561.35,475.16 563.67,475.16 565.99,475.16 568.31,477.59 570.62,477.82 572.94,477.82 575.26,470.61 577.58,470.61 579.9,470.61 582.21,470.21 584.53,470.21 586.85,470.21 589.17,473.2 591.48,473.2 593.8,473.2 596.12,473.2 598.44,470.13 600.76,470.13 603.07,470.13 605.39,457.14 607.71,471.03 610.03,482.21 612.34,470.31 614.66,470.31 616.98,470.31 619.3,471.56 621.61,454.9 623.93,454.9 626.25,452.69 628.57,445.8 630.89,442.43 633.2,444.88 635.52,449.99 637.84,454.06 640.16,454.06 642.47,454.06 644.79,454.06 647.11,462.37 649.43,458.83 651.74,462.31 654.06,462.31 656.38,465.95 658.7,465.95 661.02,465.95 663.33,465.95 665.65,465.95 667.97,465.95 670.29,465.2 672.6,464.16 674.92,464.16 677.24,461.81 679.56,461.51 681.88,461.51 684.19,461.51 686.51,464.35 688.83,456.67 691.15,456.27 693.46,456.27 695.78,456.27 698.1,456.27 700.42,459.26 702.73,468.3 705.05,468.3 707.37,471.65 709.69,471.65 712.01,472.2 714.32,467.92 716.64,466.31 718.96,456.25 721.28,456.25 723.59,456.25 725.91,458.95 728.23,463.17 730.55,454.81 732.86,455.62 735.18,455.62 737.5,455.62 739.82,454.06 742.14,453.84 744.45,453.98 746.77,450.79 749.09,453.31 751.41,453.31 753.72,453.31 756.04,453.93 758.36,453.93 760.68,453.93 762.99,461.45 765.31,461.45 767.63,461.45 769.95,461.45 772.27,459.31 774.58,459.95 776.9,457.85 779.22,460.26 781.54,454.94 783.85,461.69 786.17,461.69 788.49,469.44 790.81,467.02 793.12,463.74 795.44,467.03 797.76,470.21 800.08,470.21 802.4,467.05 804.71,467.96 807.03,469.12 809.35,469.78 811.67,463.02 813.98,461.16 816.3,457.83 818.62,460.62 820.94,455.9 823.26,452.13 825.57,452.91 827.89,455.76 830.21,457.49 832.53,461.06 834.84,461.68 837.16,458.36 839.48,453.57 841.8,458.12 844.11,457.37 846.43,465.78 848.75,466.3 851.07,454.83 853.39,456.93 855.7,458.11 858.02,458.5 860.34,461.3 862.66,462.44 864.97,462.18 867.29,461.26 869.61,460.74 871.93,462.37 874.24,462.93 876.56,462.93 878.88,463.54 881.2,464.54 883.52,464.39 885.83,466.19 888.15,466.79 890.47,462.77 892.79,460.17 895.1,454.31 897.42,455.44 899.74,453.63 902.06,453.63 904.38,452.78 906.69,453.06 909.01,453.06 911.33,453.06 913.65,453.94 915.96,454.47 918.28,456.18 920.6,456.18 922.92,455.98 925.23,451.44 927.55,452.86 929.87,452.35 932.19,450.41 934.51,449.93 936.82,449.5 939.14,451.76 941.46,448.97 943.78,448.59 946.09,445.63 948.41,445.63 950.73,448.39 953.05,447.41 955.36,450.48 957.68,450.48 960.0,450.48" opacity="0.82"/>
</svg>
