<svg xmlns="http://www.w3.org/2000/svg" width="900" height="420" viewBox="0 0 900 420">
<rect x="0" y="0" width="900" height="420" fill="#ffffff"/>
<text x="450" y="26" text-anchor="middle" font-family="monospace" font-size="18">Calibration Score History</text>
<line x1="70.0" y1="375.0" x2="880.0" y2="375.0" stroke="#444" stroke-width="1.5"/>
<line x1="70.0" y1="45.0" x2="70.0" y2="375.0" stroke="#444" stroke-width="1.5"/>
<polyline fill="none" stroke="#1f77b4" stroke-width="2" points="70.0,45.0 73.62,45.0 77.23,45.0 80.85,225.6 84.46,225.6 88.08,225.6 91.7,324.94 95.31,324.94 98.93,324.94 102.54,324.94 106.16,324.94 109.78,254.4 113.39,262.82 117.01,262.82 120.62,262.82 124.24,262.82 127.86,303.84 131.47,303.84 135.09,303.84 138.71,309.84 142.32,309.84 145.94,309.84 149.55,309.84 153.17,309.84 156.79,309.84 160.4,330.52 164.02,330.52 167.63,330.52 171.25,330.52 174.87,330.52 178.48,330.52 182.1,277.75 185.71,305.93 189.33,305.93 192.95,305.93 196.56,305.93 200.18,305.93 203.79,305.93 207.41,305.93 211.03,305.93 214.64,305.93 218.26,305.93 221.88,305.93 225.49,305.93 229.11,305.93 232.72,305.93 236.34,305.93 239.96,305.93 243.57,305.93 247.19,305.93 250.8,305.93 254.42,305.93 258.04,305.93 261.65,305.93 265.27,305.93 268.88,305.93 272.5,305.93 276.12,267.11 279.73,267.11 283.35,249.22 286.96,280.12 290.58,282.5 294.2,366.39 297.81,366.39 301.43,366.39 305.04,366.39 308.66,366.39 312.28,362.65 315.89,362.65 319.51,362.65 323.12,362.65 326.74,345.36 330.36,345.36 333.97,345.36 337.59,345.36 341.21,345.36 344.82,345.36 348.44,345.36 352.05,277.33 355.67,277.33 359.29,281.0 362.9,294.53 366.52,286.12 370.13,286.12 373.75,370.66 377.37,365.67 380.98,368.7 384.6,368.7 388.21,368.7 391.83,327.84 395.45,327.84 399.06,327.84 402.68,327.84 406.29,327.84 409.91,327.84 413.53,327.84 417.14,360.62 420.76,332.97 424.38,248.86 427.99,248.86 431.61,248.86 435.22,292.7 438.84,294.47 442.46,294.47 446.07,330.95 449.69,327.25 453.3,363.0 456.92,363.0 460.54,366.85 464.15,367.81 467.77,367.81 471.38,367.81 475.0,367.81 478.62,367.81 482.23,367.81 485.85,363.3 489.46,340.55 493.08,348.17 496.7,348.17 500.31,348.17 503.93,313.72 507.54,313.72 511.16,330.56 514.78,330.56 518.39,330.56 522.01,330.56 525.62,330.56 529.24,330.56 532.86,330.56 536.47,360.82 540.09,340.45 543.71,340.45 547.32,340.45 550.94,325.68 554.55,292.46 558.17,346.65 561.79,329.32 565.4,329.32 569.02,330.66 572.63,320.29 576.25,340.76 579.87,340.76 583.48,340.39 587.1,339.01 590.71,339.01 594.33,356.19 597.95,355.24 601.56,369.13 605.18,369.13 608.79,369.13 612.41,367.0 616.03,367.0 619.64,367.0 623.26,347.33 626.88,369.31 630.49,369.31 634.11,369.31 637.72,369.31 641.34,369.31 644.96,353.96 648.57,346.92 652.19,366.85 655.8,338.39 659.42,364.92 663.04,365.71 666.65,365.71 670.27,365.71 673.88,369.2 677.5,369.2 681.12,369.2 684.73,311.12 688.35,304.12 691.96,313.82 695.58,312.16 699.2,343.56 702.81,358.99 706.43,363.91 710.04,363.91 713.66,366.53 717.28,368.46 720.89,363.58 724.51,355.42 728.12,355.42 731.74,371.5 735.36,349.63 738.97,375.0 742.59,368.01 746.21,362.33 749.82,358.12 753.44,367.41 757.05,363.86 760.67,362.47 764.29,365.95 767.9,372.75 771.52,359.03 775.13,368.07 778.75,351.39 782.37,352.54 785.98,344.83 789.6,348.39 793.21,348.39 796.83,348.08 800.45,361.13 804.06,361.13 807.68,361.58 811.29,348.43 814.91,330.9 818.53,330.55 822.14,326.03 825.76,330.06 829.38,330.01 832.99,334.72 836.61,329.87 840.22,329.93 843.84,331.86 847.46,329.02 851.07,329.88 854.69,329.96 858.3,329.93 861.92,330.26 865.54,326.26 869.15,326.41 872.77,327.09 876.38,327.09 880.0,327.09"/>
</svg>
