<svg xmlns="http://www.w3.org/2000/svg" width="980" height="580" viewBox="0 0 980 580">
<rect x="0" y="0" width="980" height="580" fill="#ffffff"/>
<text x="490" y="26" text-anchor="middle" font-family="monospace" font-size="18">Posterior Trace Diagnostics</text>
<line x1="70.0" y1="190.0" x2="960.0" y2="190.0" stroke="#444" stroke-width="1.2"/>
<line x1="70.0" y1="45.0" x2="70.0" y2="190.0" stroke="#444" stroke-width="1.2"/>
<text x="70.0" y="37.0" font-family="monospace" font-size="12">alpha_EMT</text>
<polyline fill="none" stroke="#1f77b4" stroke-width="1.6" points="70.0,98.51 73.97,98.51 77.95,108.73 81.92,96.3 85.89,96.3 89.87,95.52 93.84,95.52 97.81,114.91 101.79,114.91 105.76,114.91 109.73,114.91 113.71,114.91 117.68,107.8 121.65,117.59 125.62,104.42 129.6,104.42 133.57,104.42 137.54,104.42 141.52,104.42 145.49,91.94 149.46,91.94 153.44,91.94 157.41,106.98 161.38,129.03 165.36,129.03 169.33,148.0 173.3,148.0 177.28,125.15 181.25,125.15 185.22,125.15 189.2,125.15 193.17,125.15 197.14,125.15 201.12,125.15 205.09,125.15 209.06,94.8 213.04,103.27 217.01,107.23 220.98,107.23 224.96,107.23 228.93,106.76 232.9,106.76 236.88,106.76 240.85,107.25 244.82,107.25 248.79,107.25 252.77,107.25 256.74,95.96 260.71,95.96 264.69,95.96 268.66,95.96 272.63,95.96 276.61,89.72 280.58,117.96 284.55,113.53 288.53,113.53 292.5,129.05 296.47,129.05 300.45,129.05 304.42,122.59 308.39,122.59 312.37,122.59 316.34,122.59 320.31,122.59 324.29,122.59 328.26,122.59 332.23,122.59 336.21,122.59 340.18,122.59 344.15,126.1 348.12,126.1 352.1,126.1 356.07,126.1 360.04,117.76 364.02,117.76 367.99,117.76 371.96,112.11 375.94,112.11 379.91,128.45 383.88,128.45 387.86,128.45 391.83,128.45 395.8,128.45 399.78,128.45 403.75,121.97 407.72,116.09 411.7,116.09 415.67,116.09 419.64,110.39 423.62,110.39 427.59,110.39 431.56,106.65 435.54,120.44 439.51,131.98 443.48,124.71 447.46,124.71 451.43,144.45 455.4,95.52 459.38,96.21 463.35,96.21 467.32,93.09 471.29,93.09 475.27,93.09 479.24,93.09 483.21,93.09 487.19,93.09 491.16,100.23 495.13,90.0 499.11,86.47 503.08,88.82 507.05,81.21 511.03,81.21 515.0,81.21 518.97,66.55 522.95,71.04 526.92,97.95 530.89,80.05 534.87,80.05 538.84,79.33 542.81,79.33 546.79,72.47 550.76,82.49 554.73,82.49 558.71,82.49 562.68,84.99 566.65,84.99 570.62,91.14 574.6,91.14 578.57,91.14 582.54,90.0 586.52,92.27 590.49,92.34 594.46,97.8 598.44,97.8 602.41,93.82 606.38,91.04 610.36,90.42 614.33,99.38 618.3,100.03 622.28,100.03 626.25,103.25 630.22,103.25 634.2,102.41 638.17,97.97 642.14,100.25 646.12,100.25 650.09,100.25 654.06,98.82 658.04,97.53 662.01,97.32 665.98,97.32 669.96,95.09 673.93,95.09 677.9,98.78 681.88,98.78 685.85,99.62 689.82,101.18 693.79,101.18 697.77,100.62 701.74,100.62 705.71,101.2 709.69,97.05 713.66,94.93 717.63,96.36 721.61,101.16 725.58,99.58 729.55,99.02 733.53,98.8 737.5,95.79 741.47,97.47 745.45,99.14 749.42,99.36 753.39,100.4 757.37,99.15 761.34,101.24 765.31,99.21 769.29,101.27 773.26,101.62 777.23,100.68 781.21,100.69 785.18,100.08 789.15,101.8 793.12,98.69 797.1,98.69 801.07,99.48 805.04,99.48 809.02,99.63 812.99,99.63 816.96,97.92 820.94,96.28 824.91,94.91 828.88,94.77 832.86,95.7 836.83,97.79 840.8,98.1 844.78,97.86 848.75,97.8 852.72,98.7 856.7,99.32 860.67,99.21 864.64,98.83 868.62,99.85 872.59,101.43 876.56,102.96 880.54,103.57 884.51,103.07 888.48,104.31 892.46,103.96 896.43,105.27 900.4,105.77 904.38,107.45 908.35,106.16 912.32,104.45 916.29,106.01 920.27,104.1 924.24,104.81 928.21,105.86 932.19,106.42 936.16,106.42 940.13,106.02 944.11,105.51 948.08,105.28 952.05,105.53 956.03,107.46 960.0,107.52" opacity="0.82"/>
<polyline fill="none" stroke="#e45756" stroke-width="1.6" points="70.0,98.51 73.97,98.51 77.95,98.51 81.92,104.86 85.89,104.86 89.87,104.86 93.84,103.5 97.81,103.5 101.79,103.5 105.76,103.5 109.73,103.5 113.71,109.65 117.68,118.78 121.65,118.78 125.62,118.78 129.6,118.78 133.57,117.65 137.54,117.65 141.52,117.65 145.49,122.33 149.46,122.33 153.44,122.33 157.41,122.33 161.38,122.33 165.36,122.33 169.33,125.3 173.3,125.3 177.28,125.3 181.25,125.3 185.22,125.3 189.2,125.3 193.17,116.84 197.14,90.96 201.12,90.96 205.09,90.96 209.06,90.96 213.04,90.96 217.01,90.96 220.98,90.96 224.96,90.96 228.93,90.96 232.9,90.96 236.88,90.96 240.85,90.96 244.82,90.96 248.79,90.96 252.77,90.96 256.74,90.96 260.71,90.96 264.69,90.96 268.66,90.96 272.63,90.96 276.61,90.96 280.58,90.96 284.55,90.96 288.53,90.96 292.5,90.96 296.47,80.61 300.45,80.61 304.42,93.46 308.39,67.94 312.37,48.73 316.34,51.3 320.31,51.3 324.29,51.3 328.26,51.3 332.23,51.3 336.21,45.0 340.18,45.0 344.15,45.0 348.12,45.0 352.1,64.7 356.07,64.7 360.04,64.7 364.02,64.7 367.99,64.7 371.96,64.7 375.94,64.7 379.91,55.54 383.88,55.54 387.86,63.54 391.83,56.14 395.8,49.3 399.78,49.3 403.75,62.72 407.72,50.8 411.7,73.3 415.67,73.3 419.64,73.3 423.62,74.87 427.59,74.87 431.56,74.87 435.54,74.87 439.51,74.87 443.48,74.87 447.46,74.87 451.43,85.65 455.4,100.7 459.38,106.89 463.35,106.89 467.32,106.89 471.29,114.85 475.27,100.11 479.24,100.11 483.21,98.17 487.19,90.65 491.16,92.09 495.13,92.09 499.11,90.73 503.08,93.16 507.05,93.16 511.03,93.16 515.0,93.16 518.97,93.16 522.95,93.16 526.92,95.44 530.89,100.3 534.87,90.67 538.84,90.67 542.81,90.67 546.79,102.81 550.76,102.81 554.73,93.28 558.71,93.28 562.68,93.28 566.65,93.28 570.62,93.28 574.6,93.28 578.57,93.28 582.54,95.25 586.52,101.9 590.49,101.9 594.46,101.9 598.44,97.19 602.41,98.63 606.38,101.58 610.36,100.23 614.33,100.23 618.3,101.22 622.28,101.78 626.25,101.73 630.22,101.73 634.2,101.72 638.17,106.03 642.14,106.03 646.12,105.22 650.09,111.04 654.06,114.03 658.04,114.03 662.01,114.03 665.98,111.01 669.96,111.01 673.93,111.01 677.9,111.38 681.88,112.69 685.85,112.69 689.82,112.69 693.79,112.69 697.77,112.69 701.74,117.03 705.71,111.12 709.69,90.73 713.66,90.47 717.63,86.91 721.61,87.37 725.58,87.37 729.55,87.37 733.53,84.97 737.5,84.97 741.47,84.97 745.45,80.66 749.42,80.64 753.39,78.85 757.37,77.87 761.34,80.84 765.31,79.51 769.29,75.86 773.26,75.86 777.23,70.61 781.21,73.46 785.18,73.1 789.15,71.67 793.12,71.67 797.1,73.7 801.07,72.59 805.04,74.51 809.02,74.36 812.99,73.07 816.96,74.63 820.94,76.2 824.91,73.74 828.88,73.85 832.86,73.32 836.83,73.28 840.8,73.32 844.78,75.09 848.75,73.96 852.72,75.88 856.7,76.56 860.67,77.68 864.64,77.68 868.62,78.05 872.59,79.75 876.56,79.75 880.54,79.12 884.51,77.94 888.48,78.65 892.46,79.95 896.43,79.57 900.4,81.26 904.38,81.42 908.35,81.61 912.32,81.92 916.29,80.46 920.27,80.09 924.24,80.82 928.21,79.36 932.19,81.05 936.16,80.54 940.13,81.83 944.11,80.57 948.08,79.91 952.05,79.6 956.03,77.71 960.0,77.71" opacity="0.82"/>
<polyline fill="none" stroke="#4c9f70" stroke-width="1.6" points="70.0,98.51 73.97,98.51 77.95,98.51 81.92,98.51 85.89,98.51 89.87,101.43 93.84,101.43 97.81,92.81 101.79,92.81 105.76,92.81 109.73,92.81 113.71,92.81 117.68,92.81 121.65,92.81 125.62,73.9 129.6,73.9 133.57,73.9 137.54,100.1 141.52,112.25 145.49,112.25 149.46,112.25 153.44,105.0 157.41,105.0 161.38,134.17 165.36,134.17 169.33,132.76 173.3,141.43 177.28,131.78 181.25,131.78 185.22,117.08 189.2,117.08 193.17,117.08 197.14,124.51 201.12,124.51 205.09,124.51 209.06,135.19 213.04,161.78 217.01,180.87 220.98,180.87 224.96,190.0 228.93,190.0 232.9,190.0 236.88,170.66 240.85,156.43 244.82,156.43 248.79,156.43 252.77,156.43 256.74,156.51 260.71,156.51 264.69,150.01 268.66,150.01 272.63,162.13 276.61,159.54 280.58,159.54 284.55,153.81 288.53,153.81 292.5,169.88 296.47,166.08 300.45,166.08 304.42,169.55 308.39,169.55 312.37,169.55 316.34,169.55 320.31,150.59 324.29,150.59 328.26,152.73 332.23,151.3 336.21,161.34 340.18,150.92 344.15,176.78 348.12,171.03 352.1,158.65 356.07,158.65 360.04,158.65 364.02,158.97 367.99,150.31 371.96,148.68 375.94,148.68 379.91,148.68 383.88,151.63 387.86,151.63 391.83,151.63 395.8,145.37 399.78,151.99 403.75,151.99 407.72,151.99 411.7,151.99 415.67,151.99 419.64,157.27 423.62,157.27 427.59,152.14 431.56,152.14 435.54,160.15 439.51,166.08 443.48,159.17 447.46,154.27 451.43,150.45 455.4,124.51 459.38,119.86 463.35,119.86 467.32,125.83 471.29,118.38 475.27,118.38 479.24,118.38 483.21,118.38 487.19,118.38 491.16,128.66 495.13,122.56 499.11,127.49 503.08,131.23 507.05,126.11 511.03,113.86 515.0,112.44 518.97,125.57 522.95,125.57 526.92,125.57 530.89,137.6 534.87,137.6 538.84,145.74 542.81,144.09 546.79,134.6 550.76,134.6 554.73,140.25 558.71,140.25 562.68,140.25 566.65,140.25 570.62,140.71 574.6,140.71 578.57,140.71 582.54,117.7 586.52,116.84 590.49,116.84 594.46,119.47 598.44,119.47 602.41,119.47 606.38,119.02 610.36,114.55 614.33,115.26 618.3,115.26 622.28,119.6 626.25,124.46 630.22,125.46 634.2,123.66 638.17,116.04 642.14,116.8 646.12,117.77 650.09,115.85 654.06,113.46 658.04,113.46 662.01,113.46 665.98,113.46 669.96,114.86 673.93,114.86 677.9,114.86 681.88,114.86 685.85,114.25 689.82,115.84 693.79,110.02 697.77,110.3 701.74,110.3 705.71,111.37 709.69,118.1 713.66,116.46 717.63,116.08 721.61,114.97 725.58,114.97 729.55,116.67 733.53,116.5 737.5,116.73 741.47,115.61 745.45,117.39 749.42,115.32 753.39,115.29 757.37,114.18 761.34,116.02 765.31,114.11 769.29,112.76 773.26,111.53 777.23,112.73 781.21,115.67 785.18,115.09 789.15,113.85 793.12,113.45 797.1,115.63 801.07,116.49 805.04,116.49 809.02,119.5 812.99,120.47 816.96,120.24 820.94,124.34 824.91,125.63 828.88,122.65 832.86,123.47 836.83,112.74 840.8,113.9 844.78,113.97 848.75,113.58 852.72,113.37 856.7,114.34 860.67,114.79 864.64,115.49 868.62,115.07 872.59,114.96 876.56,114.64 880.54,114.82 884.51,115.19 888.48,114.96 892.46,115.31 896.43,116.76 900.4,114.43 904.38,114.48 908.35,115.92 912.32,114.96 916.29,114.39 920.27,113.0 924.24,112.17 928.21,111.54 932.19,111.54 936.16,110.87 940.13,109.58 944.11,109.31 948.08,109.58 952.05,109.68 956.03,109.55 960.0,109.34" opacity="0.82"/>
<polyline fill="none" stroke="#f3a712" stroke-width="1.6" points="70.0,98.51 73.97,114.07 77.95,116.92 81.92,116.92 85.89,116.18 89.87,111.73 93.84,111.73 97.81,104.11 101.79,104.11 105.76,105.5 109.73,105.5 113.71,105.5 117.68,105.5 121.65,127.96 125.62,127.96 129.6,127.96 133.57,127.96 137.54,127.96 141.52,127.96 145.49,136.06 149.46,121.28 153.44,121.28 157.41,121.28 161.38,121.28 165.36,121.28 169.33,121.28 173.3,121.28 177.28,138.86 181.25,138.86 185.22,138.86 189.2,138.86 193.17,138.86 197.14,138.86 201.12,138.86 205.09,139.93 209.06,139.93 213.04,141.91 217.01,120.4 220.98,120.4 224.96,120.4 228.93,120.4 232.9,120.4 236.88,120.4 240.85,120.4 244.82,120.4 248.79,120.4 252.77,120.4 256.74,127.47 260.71,127.47 264.69,127.47 268.66,132.99 272.63,102.49 276.61,102.49 280.58,102.49 284.55,132.23 288.53,121.14 292.5,131.47 296.47,139.25 300.45,134.05 304.42,134.05 308.39,134.05 312.37,134.05 316.34,134.05 320.31,134.05 324.29,134.05 328.26,121.45 332.23,119.77 336.21,119.77 340.18,114.68 344.15,126.84 348.12,133.61 352.1,129.01 356.07,129.01 360.04,129.01 364.02,129.01 367.99,129.01 371.96,129.01 375.94,142.52 379.91,142.52 383.88,142.52 387.86,142.52 391.83,142.52 395.8,142.52 399.78,142.52 403.75,142.52 407.72,142.52 411.7,144.02 415.67,124.5 419.64,121.8 423.62,121.8 427.59,121.8 431.56,101.49 435.54,105.36 439.51,105.36 443.48,105.36 447.46,105.36 451.43,105.36 455.4,138.86 459.38,138.86 463.35,138.86 467.32,138.86 471.29,138.86 475.27,138.86 479.24,138.86 483.21,138.86 487.19,144.32 491.16,149.9 495.13,149.9 499.11,149.9 503.08,149.9 507.05,150.32 511.03,158.92 515.0,156.98 518.97,156.98 522.95,157.89 526.92,157.89 530.89,151.8 534.87,143.24 538.84,145.95 542.81,145.95 546.79,149.88 550.76,139.7 554.73,139.7 558.71,139.7 562.68,139.7 566.65,139.26 570.62,139.26 574.6,139.26 578.57,134.08 582.54,138.86 586.52,138.86 590.49,138.86 594.46,133.05 598.44,135.96 602.41,131.68 606.38,133.42 610.36,133.42 614.33,135.49 618.3,135.49 622.28,137.12 626.25,140.83 630.22,140.83 634.2,137.31 638.17,137.31 642.14,137.31 646.12,137.37 650.09,137.37 654.06,142.63 658.04,142.63 662.01,142.63 665.98,137.36 669.96,137.36 673.93,135.25 677.9,133.78 681.88,129.5 685.85,129.5 689.82,129.5 693.79,129.5 697.77,129.5 701.74,131.93 705.71,131.93 709.69,133.7 713.66,133.7 717.63,132.48 721.61,134.51 725.58,134.51 729.55,134.51 733.53,135.98 737.5,134.22 741.47,135.17 745.45,135.17 749.42,138.12 753.39,138.49 757.37,134.9 761.34,135.09 765.31,135.08 769.29,134.71 773.26,134.71 777.23,136.7 781.21,136.46 785.18,136.46 789.15,135.23 793.12,135.23 797.1,138.14 801.07,138.14 805.04,138.14 809.02,138.7 812.99,141.63 816.96,144.07 820.94,144.07 824.91,143.37 828.88,142.93 832.86,142.93 836.83,132.99 840.8,133.06 844.78,132.95 848.75,133.64 852.72,133.45 856.7,133.45 860.67,134.37 864.64,135.44 868.62,135.31 872.59,135.31 876.56,135.61 880.54,135.62 884.51,135.53 888.48,135.53 892.46,134.06 896.43,135.52 900.4,134.9 904.38,133.48 908.35,133.48 912.32,135.98 916.29,135.98 920.27,135.72 924.24,134.33 928.21,134.54 932.19,134.54 936.16,135.05 940.13,134.84 944.11,134.74 948.08,134.74 952.05,135.44 956.03,135.44 960.0,133.5" opacity="0.82"/>
<line x1="70.0" y1="370.0" x2="960.0" y2="370.0" stroke="#444" stroke-width="1.2"/>
<line x1="70.0" y1="225.0" x2="70.0" y2="370.0" stroke="#444" stroke-width="1.2"/>
<text x="70.0" y="217.0" font-family="monospace" font-size="12">k_G</text>
<polyline fill="none" stroke="#1f77b4" stroke-width="1.6" points="70.0,272.31 73.97,272.31 77.95,237.09 81.92,246.39 85.89,246.39 89.87,278.65 93.84,278.65 97.81,265.96 101.79,265.96 105.76,265.96 109.73,265.96 113.71,265.96 117.68,249.06 121.65,244.08 125.62,279.24 129.6,279.24 133.57,279.24 137.54,279.24 141.52,279.24 145.49,266.31 149.46,266.31 153.44,266.31 157.41,274.66 161.38,304.1 165.36,304.1 169.33,327.61 173.3,327.61 177.28,306.15 181.25,306.15 185.22,306.15 189.2,306.15 193.17,306.15 197.14,306.15 201.12,306.15 205.09,306.15 209.06,334.31 213.04,330.32 217.01,361.04 220.98,361.04 224.96,361.04 228.93,320.55 232.9,320.55 236.88,320.55 240.85,263.3 244.82,263.3 248.79,263.3 252.77,263.3 256.74,261.7 260.71,261.7 264.69,261.7 268.66,261.7 272.63,261.7 276.61,243.4 280.58,257.26 284.55,298.74 288.53,298.74 292.5,248.16 296.47,248.16 300.45,248.16 304.42,236.91 308.39,236.91 312.37,236.91 316.34,236.91 320.31,236.91 324.29,236.91 328.26,236.91 332.23,236.91 336.21,236.91 340.18,236.91 344.15,262.9 348.12,262.9 352.1,262.9 356.07,262.9 360.04,270.04 364.02,270.04 367.99,270.04 371.96,286.23 375.94,286.23 379.91,281.63 383.88,281.63 387.86,281.63 391.83,281.63 395.8,281.63 399.78,281.63 403.75,314.25 407.72,301.05 411.7,301.05 415.67,301.05 419.64,302.78 423.62,302.78 427.59,302.78 431.56,285.31 435.54,306.16 439.51,274.89 443.48,279.41 447.46,279.41 451.43,307.49 455.4,278.65 459.38,291.42 463.35,291.42 467.32,281.58 471.29,281.58 475.27,281.58 479.24,281.58 483.21,281.58 487.19,281.58 491.16,277.85 495.13,298.07 499.11,306.62 503.08,318.85 507.05,312.17 511.03,312.17 515.0,312.17 518.97,311.6 522.95,312.77 526.92,308.86 530.89,297.23 534.87,297.23 538.84,294.01 542.81,294.01 546.79,293.57 550.76,270.25 554.73,270.25 558.71,270.25 562.68,271.44 566.65,271.44 570.62,276.45 574.6,276.45 578.57,276.45 582.54,298.07 586.52,303.82 590.49,294.59 594.46,294.07 598.44,294.07 602.41,293.43 606.38,301.43 610.36,297.2 614.33,296.42 618.3,293.11 622.28,293.11 626.25,292.45 630.22,292.45 634.2,297.39 638.17,285.65 642.14,283.7 646.12,283.7 650.09,283.7 654.06,287.75 658.04,289.01 662.01,295.25 665.98,295.25 669.96,300.26 673.93,300.26 677.9,303.81 681.88,303.81 685.85,299.98 689.82,298.16 693.79,298.16 697.77,296.93 701.74,296.93 705.71,290.98 709.69,292.98 713.66,294.69 717.63,292.01 721.61,294.1 725.58,296.82 729.55,300.94 733.53,304.12 737.5,296.19 741.47,294.08 745.45,297.17 749.42,296.24 753.39,297.36 757.37,298.93 761.34,302.16 765.31,301.58 769.29,301.04 773.26,304.32 777.23,307.68 781.21,308.35 785.18,309.25 789.15,308.38 793.12,309.37 797.1,309.37 801.07,309.42 805.04,309.42 809.02,308.78 812.99,308.78 816.96,309.03 820.94,308.0 824.91,303.22 828.88,300.86 832.86,299.84 836.83,298.28 840.8,297.78 844.78,295.99 848.75,295.32 852.72,294.68 856.7,295.38 860.67,294.88 864.64,291.99 868.62,293.27 872.59,293.84 876.56,295.61 880.54,293.74 884.51,294.4 888.48,293.06 892.46,290.03 896.43,289.08 900.4,288.64 904.38,287.58 908.35,287.42 912.32,284.48 916.29,283.29 920.27,284.46 924.24,282.92 928.21,282.77 932.19,283.28 936.16,283.28 940.13,284.55 944.11,283.54 948.08,282.14 952.05,281.58 956.03,279.02 960.0,277.65" opacity="0.82"/>
<polyline fill="none" stroke="#e45756" stroke-width="1.6" points="70.0,272.31 73.97,272.31 77.95,272.31 81.92,263.4 85.89,263.4 89.87,263.4 93.84,267.27 97.81,267.27 101.79,267.27 105.76,267.27 109.73,267.27 113.71,254.36 117.68,251.26 121.65,251.26 125.62,251.26 129.6,251.26 133.57,265.09 137.54,265.09 141.52,265.09 145.49,262.04 149.46,262.04 153.44,262.04 157.41,262.04 161.38,262.04 165.36,262.04 169.33,258.11 173.3,258.11 177.28,258.11 181.25,258.11 185.22,258.11 189.2,258.11 193.17,241.04 197.14,239.82 201.12,239.82 205.09,239.82 209.06,239.82 213.04,239.82 217.01,239.82 220.98,239.82 224.96,239.82 228.93,239.82 232.9,239.82 236.88,239.82 240.85,239.82 244.82,239.82 248.79,239.82 252.77,239.82 256.74,239.82 260.71,239.82 264.69,239.82 268.66,239.82 272.63,239.82 276.61,239.82 280.58,239.82 284.55,239.82 288.53,239.82 292.5,239.82 296.47,266.73 300.45,266.73 304.42,265.12 308.39,330.87 312.37,327.34 316.34,313.82 320.31,313.82 324.29,313.82 328.26,313.82 332.23,313.82 336.21,323.47 340.18,323.47 344.15,323.47 348.12,323.47 352.1,337.27 356.07,337.27 360.04,337.27 364.02,337.27 367.99,337.27 371.96,337.27 375.94,337.27 379.91,323.12 383.88,323.12 387.86,289.04 391.83,310.27 395.8,336.96 399.78,336.96 403.75,328.14 407.72,335.62 411.7,309.91 415.67,309.91 419.64,309.91 423.62,271.0 427.59,271.0 431.56,271.0 435.54,271.0 439.51,271.0 443.48,271.0 447.46,271.0 451.43,283.6 455.4,285.78 459.38,279.99 463.35,279.99 467.32,279.99 471.29,274.96 475.27,285.56 479.24,285.56 483.21,286.92 487.19,302.49 491.16,298.68 495.13,298.68 499.11,299.07 503.08,300.87 507.05,300.87 511.03,300.87 515.0,300.87 518.97,300.87 522.95,300.87 526.92,288.86 530.89,285.98 534.87,298.2 538.84,298.2 542.81,298.2 546.79,275.39 550.76,275.39 554.73,274.81 558.71,274.81 562.68,274.81 566.65,274.81 570.62,274.81 574.6,274.81 578.57,274.81 582.54,305.64 586.52,311.49 590.49,311.49 594.46,311.49 598.44,302.22 602.41,296.95 606.38,303.21 610.36,302.88 614.33,302.88 618.3,309.25 622.28,312.76 626.25,309.46 630.22,309.46 634.2,310.7 638.17,303.75 642.14,303.75 646.12,313.4 650.09,312.21 654.06,312.59 658.04,312.59 662.01,312.59 665.98,315.76 669.96,315.76 673.93,315.76 677.9,318.74 681.88,320.84 685.85,320.84 689.82,320.84 693.79,320.84 697.77,320.84 701.74,320.7 705.71,321.24 709.69,299.07 713.66,302.75 717.63,297.56 721.61,296.18 725.58,296.18 729.55,296.18 733.53,298.26 737.5,298.26 741.47,298.26 745.45,297.74 749.42,295.94 753.39,291.37 757.37,292.65 761.34,293.54 765.31,296.75 769.29,300.97 773.26,300.97 777.23,302.95 781.21,305.06 785.18,307.62 789.15,310.72 793.12,310.72 797.1,307.68 801.07,306.31 805.04,306.55 809.02,307.58 812.99,305.59 816.96,308.28 820.94,307.33 824.91,308.18 828.88,304.72 832.86,303.37 836.83,307.3 840.8,306.63 844.78,305.14 848.75,305.47 852.72,304.14 856.7,305.02 860.67,307.38 864.64,307.38 868.62,308.09 872.59,308.34 876.56,308.34 880.54,307.03 884.51,306.46 888.48,304.27 892.46,305.06 896.43,306.05 900.4,306.88 904.38,307.52 908.35,306.11 912.32,307.52 916.29,308.8 920.27,311.27 924.24,311.49 928.21,309.67 932.19,309.25 936.16,309.73 940.13,308.21 944.11,306.4 948.08,306.97 952.05,305.04 956.03,306.45 960.0,306.45" opacity="0.82"/>
<polyline fill="none" stroke="#4c9f70" stroke-width="1.6" points="70.0,272.31 73.97,272.31 77.95,272.31 81.92,272.31 85.89,272.31 89.87,270.57 93.84,270.57 97.81,322.09 101.79,322.09 105.76,322.09 109.73,322.09 113.71,322.09 117.68,322.09 121.65,322.09 125.62,317.62 129.6,317.62 133.57,317.62 137.54,309.26 141.52,318.48 145.49,318.48 149.46,318.48 153.44,299.92 157.41,299.92 161.38,299.89 165.36,299.89 169.33,292.51 173.3,303.86 177.28,318.26 181.25,318.26 185.22,339.74 189.2,339.74 193.17,339.74 197.14,319.76 201.12,319.76 205.09,319.76 209.06,290.83 213.04,288.82 217.01,284.11 220.98,284.11 224.96,283.3 228.93,283.3 232.9,283.3 236.88,248.02 240.85,259.3 244.82,259.3 248.79,259.3 252.77,259.3 256.74,254.09 260.71,254.09 264.69,266.39 268.66,266.39 272.63,310.11 276.61,315.14 280.58,315.14 284.55,304.52 288.53,304.52 292.5,273.37 296.47,239.5 300.45,239.5 304.42,225.65 308.39,225.65 312.37,225.65 316.34,225.65 320.31,225.0 324.29,225.0 328.26,244.46 332.23,251.24 336.21,242.22 340.18,257.13 344.15,243.45 348.12,269.4 352.1,255.0 356.07,255.0 360.04,255.0 364.02,278.49 367.99,252.3 371.96,246.61 375.94,246.61 379.91,246.61 383.88,243.95 387.86,243.95 391.83,243.95 395.8,281.75 399.78,261.08 403.75,261.08 407.72,261.08 411.7,261.08 415.67,261.08 419.64,253.76 423.62,253.76 427.59,266.22 431.56,266.22 435.54,284.46 439.51,286.34 443.48,286.24 447.46,303.67 451.43,325.61 455.4,319.76 459.38,315.48 463.35,315.48 467.32,325.26 471.29,320.77 475.27,320.77 479.24,320.77 483.21,320.77 487.19,320.77 491.16,324.27 495.13,314.75 499.11,310.51 503.08,314.73 507.05,316.09 511.03,316.64 515.0,320.58 518.97,323.05 522.95,323.05 526.92,323.05 530.89,333.13 534.87,333.13 538.84,321.93 542.81,303.75 546.79,302.24 550.76,302.24 554.73,312.23 558.71,312.23 562.68,312.23 566.65,312.23 570.62,310.76 574.6,310.76 578.57,310.76 582.54,314.08 586.52,319.84 590.49,319.84 594.46,315.84 598.44,315.84 602.41,315.84 606.38,309.51 610.36,304.31 614.33,302.63 618.3,302.63 622.28,300.58 626.25,303.52 630.22,299.84 634.2,297.95 638.17,294.66 642.14,293.07 646.12,286.57 650.09,293.66 654.06,290.56 658.04,290.56 662.01,290.56 665.98,290.56 669.96,288.98 673.93,288.98 677.9,288.98 681.88,288.98 685.85,288.0 689.82,298.87 693.79,299.5 697.77,297.27 701.74,297.27 705.71,291.26 709.69,320.71 713.66,320.82 717.63,319.18 721.61,317.97 725.58,317.97 729.55,321.57 733.53,322.87 737.5,323.54 741.47,323.7 745.45,320.93 749.42,320.14 753.39,319.97 757.37,322.24 761.34,324.68 765.31,322.82 769.29,322.58 773.26,321.38 777.23,320.54 781.21,319.99 785.18,320.46 789.15,322.92 793.12,320.27 797.1,317.17 801.07,318.57 805.04,318.57 809.02,316.01 812.99,314.05 816.96,315.28 820.94,316.66 824.91,320.63 828.88,321.15 832.86,318.19 836.83,322.58 840.8,322.69 844.78,324.55 848.75,324.14 852.72,322.05 856.7,322.93 860.67,324.06 864.64,325.45 868.62,325.64 872.59,325.24 876.56,326.51 880.54,324.24 884.51,324.42 888.48,323.45 892.46,323.24 896.43,322.1 900.4,324.65 904.38,325.3 908.35,326.9 912.32,326.84 916.29,328.41 920.27,328.81 924.24,328.07 928.21,327.67 932.19,327.67 936.16,328.52 940.13,329.04 944.11,329.65 948.08,328.04 952.05,327.0 956.03,324.69 960.0,323.84" opacity="0.82"/>
<polyline fill="none" stroke="#f3a712" stroke-width="1.6" points="70.0,272.31 73.97,286.03 77.95,272.44 81.92,272.44 85.89,294.17 89.87,267.47 93.84,267.47 97.81,293.27 101.79,293.27 105.76,301.66 109.73,301.66 113.71,301.66 117.68,301.66 121.65,316.01 125.62,316.01 129.6,316.01 133.57,316.01 137.54,316.01 141.52,316.01 145.49,326.92 149.46,325.46 153.44,325.46 157.41,325.46 161.38,325.46 165.36,325.46 169.33,325.46 173.3,325.46 177.28,309.78 181.25,309.78 185.22,309.78 189.2,309.78 193.17,309.78 197.14,309.78 201.12,309.78 205.09,321.24 209.06,321.24 213.04,285.14 217.01,308.23 220.98,308.23 224.96,308.23 228.93,308.23 232.9,308.23 236.88,308.23 240.85,308.23 244.82,308.23 248.79,308.23 252.77,308.23 256.74,325.33 260.71,325.33 264.69,325.33 268.66,314.27 272.63,322.08 276.61,322.08 280.58,322.08 284.55,335.69 288.53,345.56 292.5,345.38 296.47,341.23 300.45,337.91 304.42,337.91 308.39,337.91 312.37,337.91 316.34,337.91 320.31,337.91 324.29,337.91 328.26,353.43 332.23,342.42 336.21,342.42 340.18,370.0 344.15,358.81 348.12,367.36 352.1,347.15 356.07,347.15 360.04,347.15 364.02,347.15 367.99,347.15 371.96,347.15 375.94,337.34 379.91,337.34 383.88,337.34 387.86,337.34 391.83,337.34 395.8,337.34 399.78,337.34 403.75,337.34 407.72,337.34 411.7,324.58 415.67,335.71 419.64,367.55 423.62,367.55 427.59,367.55 431.56,365.61 435.54,351.63 439.51,351.63 443.48,351.63 447.46,351.63 451.43,351.63 455.4,309.78 459.38,309.78 463.35,309.78 467.32,309.78 471.29,309.78 475.27,309.78 479.24,309.78 483.21,309.78 487.19,294.68 491.16,318.08 495.13,318.08 499.11,318.08 503.08,318.08 507.05,341.46 511.03,346.3 515.0,340.75 518.97,340.75 522.95,347.4 526.92,347.4 530.89,348.37 534.87,341.31 538.84,340.56 542.81,340.56 546.79,340.42 550.76,350.71 554.73,350.71 558.71,350.71 562.68,350.71 566.65,354.36 570.62,354.36 574.6,354.36 578.57,366.16 582.54,309.78 586.52,309.78 590.49,309.78 594.46,310.69 598.44,324.01 602.41,314.2 606.38,311.78 610.36,311.78 614.33,307.34 618.3,307.34 622.28,302.04 626.25,304.92 630.22,304.92 634.2,306.05 638.17,306.05 642.14,306.05 646.12,301.41 650.09,301.41 654.06,306.06 658.04,306.06 662.01,306.06 665.98,302.75 669.96,302.75 673.93,297.46 677.9,293.31 681.88,305.92 685.85,305.92 689.82,305.92 693.79,305.92 697.77,305.92 701.74,299.53 705.71,299.53 709.69,313.91 713.66,313.91 717.63,314.3 721.61,308.59 725.58,308.59 729.55,308.59 733.53,307.66 737.5,309.1 741.47,310.01 745.45,310.01 749.42,309.63 753.39,307.86 757.37,305.15 761.34,304.96 765.31,300.91 769.29,302.97 773.26,302.97 777.23,300.76 781.21,296.34 785.18,296.34 789.15,300.0 793.12,300.0 797.1,305.43 801.07,305.43 805.04,305.43 809.02,304.33 812.99,301.06 816.96,301.25 820.94,301.25 824.91,301.4 828.88,298.43 832.86,298.43 836.83,312.09 840.8,311.86 844.78,310.96 848.75,310.62 852.72,310.09 856.7,311.34 860.67,311.57 864.64,310.86 868.62,308.25 872.59,308.25 876.56,309.1 880.54,308.46 884.51,307.98 888.48,307.98 892.46,307.85 896.43,308.94 900.4,308.95 904.38,310.9 908.35,310.9 912.32,308.58 916.29,308.58 920.27,308.38 924.24,306.78 928.21,306.06 932.19,304.79 936.16,305.43 940.13,305.48 944.11,307.28 948.08,307.28 952.05,307.42 956.03,307.42 960.0,308.09" opacity="0.82"/>
<line x1="70.0" y1="550.0" x2="960.0" y2="550.0" stroke="#444" stroke-width="1.2"/>
<line x1="70.0" y1="405.0" x2="70.0" y2="550.0" stroke="#444" stroke-width="1.2"/>
<text x="70.0" y="397.0" font-family="monospace" font-size="12">threshold</text>
<polyline fill="none" stroke="#1f77b4" stroke-width="1.6" points="70.0,422.7 73.97,422.7 77.95,440.67 81.92,448.88 85.89,448.88 89.87,440.82 93.84,440.82 97.81,470.13 101.79,470.13 105.76,470.13 109.73,470.13 113.71,470.13 117.68,502.57 121.65,488.97 125.62,491.79 129.6,491.79 133.57,491.79 137.54,491.79 141.52,491.79 145.49,489.6 149.46,489.6 153.44,489.6 157.41,507.16 161.38,506.25 165.36,506.25 169.33,503.38 173.3,503.38 177.28,507.53 181.25,507.53 185.22,507.53 189.2,507.53 193.17,507.53 197.14,507.53 201.12,507.53 205.09,507.53 209.06,505.43 213.04,485.86 217.01,467.92 220.98,467.92 224.96,467.92 228.93,455.46 232.9,455.46 236.88,455.46 240.85,469.78 244.82,469.78 248.79,469.78 252.77,469.78 256.74,483.5 260.71,483.5 264.69,483.5 268.66,483.5 272.63,483.5 276.61,486.59 280.58,512.65 284.55,503.53 288.53,503.53 292.5,494.16 296.47,494.16 300.45,494.16 304.42,505.15 308.39,505.15 312.37,505.15 316.34,505.15 320.31,505.15 324.29,505.15 328.26,505.15 332.23,505.15 336.21,505.15 340.18,505.15 344.15,516.2 348.12,516.2 352.1,516.2 356.07,516.2 360.04,527.63 364.02,527.63 367.99,527.63 371.96,526.4 375.94,526.4 379.91,543.12 383.88,543.12 387.86,543.12 391.83,543.12 395.8,543.12 399.78,543.12 403.75,539.79 407.72,517.25 411.7,517.25 415.67,517.25 419.64,480.02 423.62,480.02 427.59,480.02 431.56,471.97 435.54,474.19 439.51,483.34 443.48,506.93 447.46,506.93 451.43,506.58 455.4,440.82 459.38,445.67 463.35,445.67 467.32,441.41 471.29,441.41 475.27,441.41 479.24,441.41 483.21,441.41 487.19,441.41 491.16,456.21 495.13,448.5 499.11,476.02 503.08,464.4 507.05,470.31 511.03,470.31 515.0,470.31 518.97,481.73 522.95,477.66 526.92,483.14 530.89,473.28 534.87,473.28 538.84,459.89 542.81,459.89 546.79,445.06 550.76,444.73 554.73,444.73 558.71,444.73 562.68,441.44 566.65,441.44 570.62,435.32 574.6,435.32 578.57,435.32 582.54,448.5 586.52,453.15 590.49,457.66 594.46,455.41 598.44,455.41 602.41,455.72 606.38,455.78 610.36,455.36 614.33,447.46 618.3,444.7 622.28,444.7 626.25,456.9 630.22,456.9 634.2,454.54 638.17,455.77 642.14,448.11 646.12,448.11 650.09,448.11 654.06,445.94 658.04,448.15 662.01,443.4 665.98,443.4 669.96,448.5 673.93,448.5 677.9,454.52 681.88,454.52 685.85,451.69 689.82,451.56 693.79,451.56 697.77,447.88 701.74,447.88 705.71,440.23 709.69,458.49 713.66,450.63 717.63,451.67 721.61,449.37 725.58,460.61 729.55,455.22 733.53,450.65 737.5,448.76 741.47,451.47 745.45,451.36 749.42,446.9 753.39,448.53 757.37,450.04 761.34,449.75 765.31,449.71 769.29,453.55 773.26,454.5 777.23,455.65 781.21,446.93 785.18,445.63 789.15,440.64 793.12,433.72 797.1,433.72 801.07,432.45 805.04,432.45 809.02,434.2 812.99,434.2 816.96,434.29 820.94,436.59 824.91,443.0 828.88,432.16 832.86,429.44 836.83,449.65 840.8,450.09 844.78,452.93 848.75,453.92 852.72,451.64 856.7,453.81 860.67,454.68 864.64,455.68 868.62,454.37 872.59,454.14 876.56,449.55 880.54,452.18 884.51,451.15 888.48,452.41 892.46,452.87 896.43,451.88 900.4,446.63 904.38,444.39 908.35,443.84 912.32,444.04 916.29,444.62 920.27,450.19 924.24,451.56 928.21,451.89 932.19,448.96 936.16,448.96 940.13,447.7 944.11,450.09 948.08,448.74 952.05,446.18 956.03,446.4 960.0,447.25" opacity="0.82"/>
<polyline fill="none" stroke="#e45756" stroke-width="1.6" points="70.0,422.7 73.97,422.7 77.95,422.7 81.92,443.99 85.89,443.99 89.87,443.99 93.84,460.81 97.81,460.81 101.79,460.81 105.76,460.81 109.73,460.81 113.71,469.17 117.68,482.9 121.65,482.9 125.62,482.9 129.6,482.9 133.57,457.18 137.54,457.18 141.52,457.18 145.49,471.25 149.46,471.25 153.44,471.25 157.41,471.25 161.38,471.25 165.36,471.25 169.33,466.76 173.3,466.76 177.28,466.76 181.25,466.76 185.22,466.76 189.2,466.76 193.17,455.66 197.14,454.97 201.12,454.97 205.09,454.97 209.06,454.97 213.04,454.97 217.01,454.97 220.98,454.97 224.96,454.97 228.93,454.97 232.9,454.97 236.88,454.97 240.85,454.97 244.82,454.97 248.79,454.97 252.77,454.97 256.74,454.97 260.71,454.97 264.69,454.97 268.66,454.97 272.63,454.97 276.61,454.97 280.58,454.97 284.55,454.97 288.53,454.97 292.5,454.97 296.47,500.09 300.45,500.09 304.42,484.65 308.39,477.58 312.37,469.51 316.34,426.98 320.31,426.98 324.29,426.98 328.26,426.98 332.23,426.98 336.21,453.99 340.18,453.99 344.15,453.99 348.12,453.99 352.1,472.24 356.07,472.24 360.04,472.24 364.02,472.24 367.99,472.24 371.96,472.24 375.94,472.24 379.91,488.1 383.88,488.1 387.86,501.53 391.83,464.15 395.8,456.95 399.78,456.95 403.75,430.96 407.72,422.45 411.7,443.98 415.67,443.98 419.64,443.98 423.62,444.01 427.59,444.01 431.56,444.01 435.54,444.01 439.51,444.01 443.48,444.01 447.46,444.01 451.43,432.14 455.4,449.2 459.38,434.78 463.35,434.78 467.32,434.78 471.29,477.12 475.27,466.07 479.24,466.07 483.21,451.36 487.19,462.91 491.16,459.67 495.13,459.67 499.11,461.99 503.08,461.44 507.05,461.44 511.03,461.44 515.0,461.44 518.97,461.44 522.95,461.44 526.92,469.9 530.89,470.17 534.87,469.3 538.84,469.3 542.81,469.3 546.79,466.82 550.76,466.82 554.73,457.53 558.71,457.53 562.68,457.53 566.65,457.53 570.62,457.53 574.6,457.53 578.57,457.53 582.54,462.56 586.52,469.74 590.49,469.74 594.46,469.74 598.44,468.43 602.41,481.64 606.38,469.95 610.36,480.91 614.33,480.91 618.3,478.9 622.28,479.72 626.25,469.74 630.22,469.74 634.2,468.75 638.17,469.74 642.14,469.74 646.12,462.18 650.09,466.81 654.06,453.11 658.04,453.11 662.01,453.11 665.98,450.97 669.96,450.97 673.93,450.97 677.9,463.71 681.88,454.44 685.85,454.44 689.82,454.44 693.79,454.44 697.77,454.44 701.74,463.82 705.71,464.95 709.69,461.99 713.66,452.56 717.63,455.37 721.61,453.4 725.58,453.4 729.55,453.4 733.53,451.25 737.5,451.25 741.47,451.25 745.45,444.12 749.42,445.8 753.39,444.56 757.37,444.81 761.34,445.36 765.31,445.74 769.29,447.76 773.26,447.76 777.23,442.89 781.21,450.09 785.18,452.73 789.15,458.95 793.12,458.95 797.1,455.59 801.07,457.48 805.04,448.19 809.02,450.72 812.99,449.65 816.96,455.82 820.94,453.55 824.91,451.54 828.88,449.57 832.86,447.67 836.83,450.75 840.8,454.65 844.78,452.78 848.75,458.14 852.72,458.14 856.7,459.99 860.67,462.37 864.64,462.37 868.62,461.49 872.59,459.88 876.56,459.88 880.54,459.95 884.51,461.25 888.48,463.53 892.46,468.05 896.43,467.82 900.4,471.03 904.38,470.66 908.35,469.46 912.32,468.77 916.29,470.21 920.27,470.12 924.24,470.44 928.21,468.12 932.19,470.17 936.16,470.41 940.13,472.18 944.11,473.85 948.08,469.3 952.05,470.4 956.03,472.14 960.0,472.14" opacity="0.82"/>
<polyline fill="none" stroke="#4c9f70" stroke-width="1.6" points="70.0,422.7 73.97,422.7 77.95,422.7 81.92,422.7 85.89,422.7 89.87,441.46 93.84,441.46 97.81,459.96 101.79,459.96 105.76,459.96 109.73,459.96 113.71,459.96 117.68,459.96 121.65,459.96 125.62,444.22 129.6,444.22 133.57,444.22 137.54,471.36 141.52,482.75 145.49,482.75 149.46,482.75 153.44,446.64 157.41,446.64 161.38,464.66 165.36,464.66 169.33,448.64 173.3,441.88 177.28,443.33 181.25,443.33 185.22,445.32 189.2,445.32 193.17,445.32 197.14,435.47 201.12,435.47 205.09,435.47 209.06,461.95 213.04,485.63 217.01,502.49 220.98,502.49 224.96,504.8 228.93,504.8 232.9,504.8 236.88,470.67 240.85,508.53 244.82,508.53 248.79,508.53 252.77,508.53 256.74,505.77 260.71,505.77 264.69,505.17 268.66,505.17 272.63,491.46 276.61,489.87 280.58,489.87 284.55,484.13 288.53,484.13 292.5,522.68 296.47,526.82 300.45,526.82 304.42,497.03 308.39,497.03 312.37,497.03 316.34,497.03 320.31,514.0 324.29,514.0 328.26,491.1 332.23,519.18 336.21,520.27 340.18,532.87 344.15,548.17 348.12,521.81 352.1,516.82 356.07,516.82 360.04,516.82 364.02,523.62 367.99,507.97 371.96,506.51 375.94,506.51 379.91,506.51 383.88,514.3 387.86,514.3 391.83,514.3 395.8,508.33 399.78,518.48 403.75,518.48 407.72,518.48 411.7,518.48 415.67,518.48 419.64,499.07 423.62,499.07 427.59,542.22 431.56,542.22 435.54,550.0 439.51,528.53 443.48,503.8 447.46,507.59 451.43,499.84 455.4,435.47 459.38,450.6 463.35,450.6 467.32,446.71 471.29,451.67 475.27,451.67 479.24,451.67 483.21,451.67 487.19,451.67 491.16,457.47 495.13,449.57 499.11,441.11 503.08,438.99 507.05,450.7 511.03,427.9 515.0,420.71 518.97,428.1 522.95,428.1 526.92,428.1 530.89,405.0 534.87,405.0 538.84,425.8 542.81,424.53 546.79,447.06 550.76,447.06 554.73,463.62 558.71,463.62 562.68,463.62 566.65,463.62 570.62,452.4 574.6,452.4 578.57,452.4 582.54,440.84 586.52,431.54 590.49,431.54 594.46,427.9 598.44,427.9 602.41,427.9 606.38,431.95 610.36,433.08 614.33,433.6 618.3,433.6 622.28,447.73 626.25,453.2 630.22,454.1 634.2,453.36 638.17,465.67 642.14,449.92 646.12,435.61 650.09,431.55 654.06,436.27 658.04,436.27 662.01,436.27 665.98,436.27 669.96,447.63 673.93,447.63 677.9,447.63 681.88,447.63 685.85,451.67 689.82,443.88 693.79,438.46 697.77,446.22 701.74,446.22 705.71,451.41 709.69,429.36 713.66,433.55 717.63,425.79 721.61,423.78 725.58,423.78 729.55,427.24 733.53,432.32 737.5,436.47 741.47,435.09 745.45,437.15 749.42,440.93 753.39,434.31 757.37,431.9 761.34,431.9 765.31,445.76 769.29,445.24 773.26,441.41 777.23,446.62 781.21,448.03 785.18,450.5 789.15,452.43 793.12,458.3 797.1,458.8 801.07,464.1 805.04,464.1 809.02,458.43 812.99,451.97 816.96,451.54 820.94,451.97 824.91,453.6 828.88,451.57 832.86,456.15 836.83,448.87 840.8,449.27 844.78,448.45 848.75,446.85 852.72,448.96 856.7,450.36 860.67,451.23 864.64,451.42 868.62,449.18 872.59,453.28 876.56,450.27 880.54,453.93 884.51,453.11 888.48,454.57 892.46,454.48 896.43,453.46 900.4,451.2 904.38,451.96 908.35,451.85 912.32,452.68 916.29,448.43 920.27,448.73 924.24,449.93 928.21,450.77 932.19,450.77 936.16,450.57 940.13,449.16 944.11,449.95 948.08,449.89 952.05,447.0 956.03,447.38 960.0,447.21" opacity="0.82"/>
<polyline fill="none" stroke="#f3a712" stroke-width="1.6" points="70.0,422.7 73.97,462.29 77.95,490.32 81.92,490.32 85.89,478.82 89.87,496.6 93.84,496.6 97.81,468.77 101.79,468.77 105.76,473.76 109.73,473.76 113.71,473.76 117.68,473.76 121.65,463.83 125.62,463.83 129.6,463.83 133.57,463.83 137.54,463.83 141.52,463.83 145.49,481.85 149.46,492.73 153.44,492.73 157.41,492.73 161.38,492.73 165.36,492.73 169.33,492.73 173.3,492.73 177.28,491.68 181.25,491.68 185.22,491.68 189.2,491.68 193.17,491.68 197.14,491.68 201.12,491.68 205.09,509.73 209.06,509.73 213.04,507.53 217.01,495.28 220.98,495.28 224.96,495.28 228.93,495.28 232.9,495.28 236.88,495.28 240.85,495.28 244.82,495.28 248.79,495.28 252.77,495.28 256.74,471.83 260.71,471.83 264.69,471.83 268.66,495.63 272.63,447.96 276.61,447.96 280.58,447.96 284.55,495.53 288.53,505.89 292.5,481.96 296.47,491.81 300.45,501.36 304.42,501.36 308.39,501.36 312.37,501.36 316.34,501.36 320.31,501.36 324.29,501.36 328.26,526.32 332.23,515.7 336.21,515.7 340.18,502.08 344.15,499.01 348.12,490.87 352.1,499.15 356.07,499.15 360.04,499.15 364.02,499.15 367.99,499.15 371.96,499.15 375.94,495.37 379.91,495.37 383.88,495.37 387.86,495.37 391.83,495.37 395.8,495.37 399.78,495.37 403.75,495.37 407.72,495.37 411.7,509.4 415.67,513.09 419.64,484.94 423.62,484.94 427.59,484.94 431.56,498.87 435.54,476.99 439.51,476.99 443.48,476.99 447.46,476.99 451.43,476.99 455.4,491.68 459.38,491.68 463.35,491.68 467.32,491.68 471.29,491.68 475.27,491.68 479.24,491.68 483.21,491.68 487.19,489.24 491.16,486.31 495.13,486.31 499.11,486.31 503.08,486.31 507.05,489.26 511.03,504.14 515.0,507.91 518.97,507.91 522.95,499.64 526.92,499.64 530.89,495.78 534.87,476.53 538.84,473.73 542.81,473.73 546.79,483.83 550.76,471.83 554.73,471.83 558.71,471.83 562.68,471.83 566.65,451.6 570.62,451.6 574.6,451.6 578.57,450.78 582.54,491.68 586.52,491.68 590.49,491.68 594.46,485.94 598.44,487.32 602.41,479.6 606.38,485.62 610.36,485.62 614.33,479.93 618.3,479.93 622.28,483.5 626.25,484.18 630.22,484.18 634.2,480.9 638.17,480.9 642.14,480.9 646.12,481.81 650.09,481.81 654.06,476.45 658.04,476.45 662.01,476.45 665.98,472.25 669.96,472.25 673.93,472.53 677.9,464.29 681.88,474.19 685.85,474.19 689.82,474.19 693.79,474.19 697.77,474.19 701.74,467.55 705.71,467.55 709.69,485.82 713.66,485.82 717.63,483.75 721.61,486.41 725.58,486.41 729.55,486.41 733.53,489.52 737.5,487.8 741.47,488.79 745.45,488.79 749.42,490.98 753.39,486.96 757.37,483.59 761.34,487.35 765.31,483.11 769.29,480.65 773.26,480.65 777.23,484.08 781.21,483.15 785.18,483.15 789.15,490.32 793.12,490.32 797.1,490.98 801.07,490.98 805.04,490.98 809.02,483.12 812.99,485.32 816.96,488.99 820.94,488.99 824.91,495.87 828.88,497.72 832.86,497.72 836.83,483.1 840.8,482.88 844.78,482.25 848.75,484.8 852.72,487.1 856.7,486.48 860.67,485.4 864.64,485.07 868.62,483.68 872.59,483.68 876.56,482.78 880.54,480.36 884.51,480.69 888.48,480.69 892.46,477.96 896.43,478.09 900.4,477.8 904.38,476.94 908.35,476.94 912.32,478.56 916.29,478.56 920.27,479.24 924.24,478.04 928.21,480.79 932.19,481.95 936.16,482.3 940.13,483.13 944.11,483.92 948.08,483.92 952.05,482.53 956.03,482.53 960.0,483.29" opacity="0.82"/>
</svg>
